<svg xmlns="http://www.w3.org/2000/svg" viewBox="0 0 335.98 63.14"><defs><style>.cls-1{fill:#231815;}.cls-2{fill:#e60012;}.cls-3{fill:#311a07;}.cls-4{fill:#508939;}.cls-5{fill:#fff;}</style></defs><g id="レイヤー_2" data-name="レイヤー 2"><g id="文字"><path class="cls-1" d="M11.05,1a.16.16,0,0,1,.12.16A10.64,10.64,0,0,1,9.7,4.45a13.6,13.6,0,0,1-6.57,5,.17.17,0,0,1-.19-.18c0-.07,0-.14.51-.56C5.51,7,7.56,5.22,8.25,1.14c.05-.3.05-.63.12-.93,0-.09.07-.21.16-.21S10.75.77,11.05,1ZM9.4,17.41a.19.19,0,0,1-.17-.19l.38-6.6a.15.15,0,0,1,.14-.13h0l2.08.32a.19.19,0,0,1,.18.21l-.11,1.66a1.73,1.73,0,0,0,.74.16c.75,0,1.61-.56,1.8-2.54H7.16a.32.32,0,0,1,0-.63H14.5L14.55,9c0-.11,0-.3.11-.3h.07l2.12.86a.29.29,0,0,1,.17.26c-.05.77-.07,1.56-.17,2.33s-.67,2.59-1.56,2.59a28.09,28.09,0,0,1-3.4-1.45l-.3,4.15c0,.11-.1.16-.21.16ZM8,7.67A.33.33,0,0,1,8,7h5.6l.7-1.81A.23.23,0,0,1,14.57,5a.25.25,0,0,1,.21.16l.79,2.08a.32.32,0,0,1,0,.14.28.28,0,0,1-.3.28ZM18.37,8.92l-.12,0C18,8.69,17,7.55,16.67,7.25c-1.57-1.66-2.29-2.78-2.29-4A3.5,3.5,0,0,1,15,1.38a.15.15,0,0,1,.13-.1c.07,0,.12.1.14.14.26.51.38,1.1.68,1.59,1.07,1.72,4,3.07,5,3.49a.25.25,0,0,1,.18.23A15,15,0,0,1,18.37,8.92Z"/><path class="cls-1" d="M29.08,9.88A10.53,10.53,0,0,1,24,15.38a.15.15,0,0,1-.09,0,.21.21,0,0,1-.21-.21.14.14,0,0,1,.05-.11,10.71,10.71,0,0,0,3-6.13s.07-.12.11-.12,0,0,.05,0c2.16.7,2.26.87,2.26,1ZM35.42,13a.16.16,0,0,1-.1.14.08.08,0,0,1-.07,0,.14.14,0,0,1-.14-.07C34,11.86,33.06,11,32,9.79l-.31,6.75a.2.2,0,0,1-.2.17l-2-.33a.19.19,0,0,1-.19-.21l.31-8.29H25.14a.32.32,0,1,1,0-.63h4.45l.07-2a.15.15,0,0,1,.14-.14h.05L32,5.62a.22.22,0,0,1,.18.23l-.07,1.4h1.43l.9-2.36a.25.25,0,0,1,.21-.16.25.25,0,0,1,.24.16l1,2.59a.5.5,0,0,1,0,.28.31.31,0,0,1-.26.12H32.06L32,9.55l2-.63h0a.18.18,0,0,1,.17.1c.51,1.4.91,2.65,1.26,3.91Zm-6-7.92a18.09,18.09,0,0,1-3.7-.38.21.21,0,0,1-.21-.21c0-.09.09-.16.19-.18.35,0,5.71-.61,8.08-2.89.05,0,.07,0,.12,0s.07,0,.09,0a20.39,20.39,0,0,1,1.19,2.14s0,0,0,.07c0,.26-2.21,1.45-5.59,1.45ZM43.1,14.49a.17.17,0,0,1-.16-.16v0l.05-.66H39.28v.17a.27.27,0,0,1-.18.23l-2.22.56-.07,0a.13.13,0,0,1-.11-.14l-.26-7.87a.13.13,0,0,1,.14-.14h0l2.31.77a.33.33,0,0,1,.19.21h4.35l.07-.89a.13.13,0,0,1,.12-.12h0L45.9,7.53a.25.25,0,0,1,.14.23v0l-.49,6.64a.18.18,0,0,1-.18.19Zm.31-6.41H39.1l.16,5H43Z"/><path class="cls-1" d="M53.84,16.08c-.12,0-.19,0-.21-.14l-.21-.68a.15.15,0,0,1,0-.09.21.21,0,0,1,.06-.16c4.57-3.69,7.65-6.09,7.65-9.26,0-1.91-1-2.81-2.38-2.81S56,4.22,54.79,5.36l-.07,0-.07,0a.26.26,0,0,1,0-.14l.28-1.68A.46.46,0,0,1,55,3.31a7.62,7.62,0,0,1,4.31-1.1c2.47,0,4.66,1,4.66,3.54,0,3.8-5.78,7.34-9.07,9.56l4.41-.16,3.45-.54h0a.14.14,0,0,1,.14.14v0l-.23,1.17c0,.09-.05.14-.16.14Z"/><path class="cls-1" d="M78.23,4.4a8.34,8.34,0,0,1-5,4.17.23.23,0,0,1-.25-.23A.26.26,0,0,1,73,8.18c.21-.21.49-.4.72-.61a8.16,8.16,0,0,0,2.66-6.5V.23c0-.09,0-.21.16-.21s2.61.52,2.71.56a.25.25,0,0,1,.14.26,13.2,13.2,0,0,1-.89,2.91h7.92l.89-2.33a.22.22,0,0,1,.23-.18.25.25,0,0,1,.21.16l1,2.58s0,.07,0,.12a.43.43,0,0,1,0,.16.26.26,0,0,1-.26.14Zm5.54,8.23-.16,4.89c0,.1,0,.16-.14.16h0l-2.14-.34c-.12,0-.16-.05-.16-.19l.09-4.52H73.89a.33.33,0,0,1,0-.65h2.26l.26-4.45c0-.1.12-.17.21-.17l2.12.21a.15.15,0,0,1,.14.12h2.45l.09-3.1a.15.15,0,0,1,.14-.14h0L83.87,5a.24.24,0,0,1,.18.24L84,7.69h1.75l.91-2.33a.22.22,0,0,1,.21-.19.28.28,0,0,1,.23.17l1,2.58a.43.43,0,0,1,0,.14.33.33,0,0,1,0,.14.28.28,0,0,1-.26.14H83.94L83.8,12h4.52l.91-2.36a.27.27,0,0,1,.23-.16.27.27,0,0,1,.21.16l1,2.59a.26.26,0,0,1,0,.28.28.28,0,0,1-.26.14ZM81.33,8.34H78.86L78.55,12h2.68Z"/><path class="cls-1" d="M3.68,56.46H3.63a.26.26,0,0,1-.23-.28c.37-2.65,3.16-24.61,3.16-24.61L.51,33H.42a.46.46,0,0,1-.37-.23l0-.14V32.5a.42.42,0,0,1,.19-.37l6.37-4.05a1.2,1.2,0,0,1,.61-.14l3.86.51c.28.05.32.19.32.33S9.12,46.41,8,55.57a.43.43,0,0,1-.37.42Z"/><path class="cls-1" d="M20,56.46h-.05a.26.26,0,0,1-.23-.28c.37-2.65,3.16-24.61,3.16-24.61L16.79,33H16.7a.46.46,0,0,1-.37-.23l0-.14V32.5a.42.42,0,0,1,.19-.37l6.37-4.05a1.2,1.2,0,0,1,.61-.14l3.86.51c.28.05.32.19.32.33S25.4,46.41,24.29,55.57a.45.45,0,0,1-.38.42Z"/><path class="cls-1" d="M52.05,48.21H43.86a17.24,17.24,0,0,1-3.6,6.52,15.23,15.23,0,0,1-4,3,.28.28,0,0,1-.21-.14.61.61,0,0,1-.14-.31.27.27,0,0,1,.07-.14c3.61-3.15,5.34-6.69,5.34-16.64,0-2-.07-4.16-.17-6.48,0-.14.1-.21.24-.21h.07c4.33,1,4.89,1.11,4.89,1.39v0c0,.07,0,.14,0,.21h5.93l0-1.46a.2.2,0,0,1,.18-.21s.07,0,.1,0l3.54,1.35a.42.42,0,0,1,.24.35v0l0,.66-.42,14.28a27.45,27.45,0,0,1-.31,3.64c-.31,1.74-1.49,3.44-2.39,3.47A63.2,63.2,0,0,1,47,55a.26.26,0,0,1-.17-.27.13.13,0,0,1,0-.11l.1-.27a.3.3,0,0,1,.28-.18s.07,0,.1,0l.38.17A2.82,2.82,0,0,0,49,54.7c2.29,0,2.81-2.32,2.95-4.27Zm.1-6.17H45.39a38.41,38.41,0,0,1-1.21,5.2h7.9Zm.07-5.72h-6c-.18,1.63-.35,3.23-.63,4.75h6.59Z"/><path class="cls-1" d="M71.65,55.16c-.14,0-.19-.14-.19-.24a248.8,248.8,0,0,1,11.73-24.7H72.81c-1.16,1-4,7.63-4.51,8.84-.09.28-.19.37-.33.37l-1.62-.23c-.19-.05-.28-.14-.28-.33v-.14l2-9.67a.46.46,0,0,1,.42-.33L84,28.5l.1-.14a.3.3,0,0,1,.32-.19c.1,0,.14,0,.19,0l3.72,2.65a.32.32,0,0,1,.19.33.51.51,0,0,1-.14.32c-3.63,4-8.75,14.33-12.94,24.71,0,.18-.28.23-.46.23Z"/><path class="cls-1" d="M119.94,56.18a.36.36,0,0,1-.37-.33l0-1.77H105.15l-.05,1.49a.41.41,0,0,1-.37.38l-4.8,0a.4.4,0,0,1-.37-.37l.7-24.66a.3.3,0,0,1,.28-.28h.09l5,1.12a.41.41,0,0,1,.37.42l0,1h13l0-1.82a.32.32,0,0,1,.32-.32h.05l5.07.83a.45.45,0,0,1,.37.42l.37,23.22a.4.4,0,0,1-.37.37Zm-.7-12.33H105.56l-.37,9h14.28ZM119,34.41h-13l-.33,8.23H119.2Z"/><path class="cls-2" d="M157.75,21s-6.63.57-8.67.68c0,0-7-.91-11.09,4.46s-6.63,18.31,0,26.44,11.86,10.64,16.19,9.61a27.7,27.7,0,0,1,12,.22c3.44.69,10.45-4.95,12.49-9S183.88,40.76,182,35.5s-6.21-14.89-16.19-14.62S158.42,20.93,157.75,21Z"/><path class="cls-3" d="M159.51,26a7.4,7.4,0,0,0-3.06-.27s-1.28-4.8-2-5.64a9.86,9.86,0,0,1-1.4-2.86s.63-2.07,1.53-1.28,1.4,1,1.72,1.65S159.51,26,159.51,26Z"/><path class="cls-3" d="M155,19.56s.29-.39.74-.89a13.3,13.3,0,0,1,1.82-1.7,7.09,7.09,0,0,1,1.12-.72,5.09,5.09,0,0,1,1.08-.42,4.55,4.55,0,0,1,.45-.07,1,1,0,0,1,.35,0h.3l-.3.05a1.21,1.21,0,0,0-.32.09,3,3,0,0,0-.4.16,4.35,4.35,0,0,0-.89.6,7.18,7.18,0,0,0-.86.88,11.85,11.85,0,0,0-1.29,1.9c-.31.55-.47.91-.47.91Z"/><path class="cls-4" d="M160.33,15.76s-.82-5.76,4.39-7.39,12.43-.28,13.43,0c0,0-1,.56-1.07,1s-1.38,3-5.21,3.89S160.33,15.76,160.33,15.76Z"/><path class="cls-5" d="M146.6,50.92a.49.49,0,1,1,0-1h9.12l.27-9.71h-6.76a.49.49,0,0,1,0-1H156l.24-7.35a.27.27,0,0,1,.24-.21h0l3.53.8a.33.33,0,0,1,.28.35l-.28,6.41h4.2l1.35-3.5a.35.35,0,0,1,.66,0l1.46,3.85a.73.73,0,0,1,.07.24c0,.07,0,.1-.07.17a.51.51,0,0,1-.42.21h-7.28L159.67,50h7.38l1.32-3.47a.41.41,0,0,1,.35-.28.34.34,0,0,1,.31.28l1.49,3.81a.51.51,0,0,1,0,.21.47.47,0,0,1-.45.42Z"/><path class="cls-1" d="M241,31.55c0,3.67-2.19,5.16-7.08,7C239.72,41,241,43.78,241,46.11,241,51,236.51,55,229.76,55c-7.07,0-9.91-3.82-9.91-6.79,0-4.93,4.75-7.35,7.63-8.61-4-2.14-5.21-3.67-5.21-6.19,0-4.6,4.61-7.21,10.15-7.21,6.7,0,8.56,3,8.56,5.26ZM224.55,48c0,3.49,2,5.4,5.12,5.4s6.61-1.82,6.61-5.63c0-2.28-1-4.61-7.12-7.12C226.69,42.3,224.55,44.3,224.55,48Zm12-16.38c0-3.25-2.61-3.86-4.65-3.86-3.49,0-5.4,2.1-5.4,4.33,0,2.88,2.61,4.14,5.16,5.4C234.42,36.25,236.51,34.53,236.51,31.59Z"/><path class="cls-1" d="M273.22,54.53a.36.36,0,0,1-.38-.32l0-1.77H258.42l0,1.49a.41.41,0,0,1-.38.37l-4.79.05a.4.4,0,0,1-.37-.38l.7-24.65a.3.3,0,0,1,.28-.28h.09l5,1.11a.41.41,0,0,1,.38.42l-.05,1h13l-.05-1.82a.32.32,0,0,1,.33-.32h0l5.08.84a.44.44,0,0,1,.37.41l.37,23.22a.4.4,0,0,1-.37.37Zm-.7-12.33H258.84l-.37,9h14.28Zm-.28-9.44h-13L258.89,41h13.58Z"/><path class="cls-2" d="M311.17,21.67s-6.63.57-8.67.68c0,0-7-.91-11.09,4.47s-6.63,18.31,0,26.43,11.86,10.64,16.19,9.61a27.65,27.65,0,0,1,12,.22c3.45.7,10.46-4.95,12.5-9s5.22-12.59,3.31-17.84S329.17,21.3,319.2,21.57,311.84,21.62,311.17,21.67Z"/><path class="cls-3" d="M312.93,26.68a7.22,7.22,0,0,0-3.06-.27s-1.28-4.81-2-5.65a10,10,0,0,1-1.41-2.85s.64-2.08,1.53-1.29,1.41,1,1.72,1.65S312.93,26.68,312.93,26.68Z"/><path class="cls-3" d="M308.4,20.24s.29-.39.74-.89A12.72,12.72,0,0,1,311,17.66a7.16,7.16,0,0,1,1.12-.73,5.16,5.16,0,0,1,1.07-.41,3,3,0,0,1,.46-.08,1.4,1.4,0,0,1,.35,0h.3l-.3.06a1.15,1.15,0,0,0-.32.08c-.12.05-.26.09-.4.16a5,5,0,0,0-.89.6,6.52,6.52,0,0,0-.86.88,11.85,11.85,0,0,0-1.29,1.9,9.21,9.21,0,0,0-.47.92Z"/><path class="cls-4" d="M313.75,16.44s-.82-5.75,4.39-7.39,12.42-.28,13.43,0c0,0-1,.56-1.07,1s-1.38,3-5.21,3.89S313.75,16.44,313.75,16.44Z"/><path class="cls-5" d="M317.21,52.5a.27.27,0,0,1-.28-.24l0-1.32H306.19l0,1.11a.3.3,0,0,1-.27.28l-3.58,0a.3.3,0,0,1-.27-.27l.52-18.38a.23.23,0,0,1,.21-.21h.06l3.75.84a.3.3,0,0,1,.28.31l0,.73h9.67l0-1.36a.24.24,0,0,1,.24-.24h0l3.78.63a.32.32,0,0,1,.27.31l.28,17.3a.29.29,0,0,1-.28.27Zm-.52-9.18H306.5L306.22,50h10.65Zm-.21-7h-9.7l-.25,6.13h10.13Z"/><path class="cls-1" d="M209.06,42.16a.49.49,0,0,1,.52-.45c.55,0,.59.38.59.79-.28,2.19-1.77,4.92-5.24,4.92a10.91,10.91,0,0,1-5.82-2c-1.28-.8-2.63-2.05-4.4-2.05a5.52,5.52,0,0,0-4.54,3,.66.66,0,0,1-.56.42.52.52,0,0,1-.55-.52,6,6,0,0,1,6.17-4.82,8.73,8.73,0,0,1,5.44,2c1,.73,2.74,1.94,4.44,1.94s3.43-1.8,3.91-3.22Z"/></g></g></svg>