<svg xmlns="http://www.w3.org/2000/svg" viewBox="0 0 103.42 14.34"><defs><style>.cls-1{fill:#231815;}</style></defs><g id="レイヤー_2" data-name="レイヤー 2"><g id="文字"><path class="cls-1" d="M1.94.7A11.55,11.55,0,0,0,.35,7.17a11.53,11.53,0,0,0,1.59,6.47l-.18.49A12.54,12.54,0,0,1,0,7.17,12.62,12.62,0,0,1,1.76.22Z"/><path class="cls-1" d="M6.91,1.27A11.35,11.35,0,0,1,5.75,2.33l.32.09L6,2.9V4.64l0,1.05H5.35l0-1.05v-2l0,0A11.85,11.85,0,0,1,3.13,3.86a2.1,2.1,0,0,0-.44-.52A10.28,10.28,0,0,0,6.52.69C6.42.6,6.39.54,6.39.5a.09.09,0,0,1,.1-.09c.09,0,.21,0,.79.47Z"/><path class="cls-1" d="M9.77,4.22c-.59-.44-.67-.56-.67-.63a.07.07,0,0,1,.07-.08l.2,0c.46-.51,1-1.13,1.42-1.65a.72.72,0,0,1,.55-.3.9.9,0,0,1,.63.28c1,.8,1.94,1.67,2.85,2.57L14.33,5A34.31,34.31,0,0,0,11.6,2.39c-.1-.07-.15-.11-.22-.11s-.12.05-.21.15c-.33.38-.73.88-1.18,1.47ZM13.22.94a4.22,4.22,0,0,1,.94,1l-.33.29a4.55,4.55,0,0,0-.94-1Zm.65-.45a4.36,4.36,0,0,1,.89.93l-.32.27a4.15,4.15,0,0,0-.89-.94Z"/><path class="cls-1" d="M16.51,1a11.86,11.86,0,0,1,1.85.93L18,2.51a10,10,0,0,0-1.83-1Zm.09,4.53a4.86,4.86,0,0,1-.28-.81c0-.06,0-.1.09-.1s.1,0,.23.15a5.12,5.12,0,0,0,3.75-3.41,2.28,2.28,0,0,0,.53.46A5.91,5.91,0,0,1,17,5.36Z"/><path class="cls-1" d="M24.94,2.32a7.53,7.53,0,0,1,2,.86l-.34.58a7.47,7.47,0,0,0-1.93-.89V4.59l0,1H24l0-1V.77c-.16-.09-.21-.13-.21-.19s0-.09.16-.09a4.12,4.12,0,0,1,.78.15L24.65,1V2.74Z"/><path class="cls-1" d="M31.1.6A1.93,1.93,0,0,0,31,.09c.75.05.88.07.88.18s-.07.12-.22.16V2.1h1.13l1,0,0,0,0,.88v2l0,1.09h-.61v-.4H29.77l-1,0V5.08l1,0h3.47v-1H30l-1,0V3.54l1,0h3.27v-1H29.8l-1,0V2.08l1,0h1.3ZM29.68.39a5.07,5.07,0,0,1,.77,1.06l-.53.33A4.73,4.73,0,0,0,29.18.69ZM32.9,1.87a1.73,1.73,0,0,0-.51-.25,4.87,4.87,0,0,0,.59-1,1.72,1.72,0,0,0,.09-.25c.62.23.7.28.7.36s-.05.11-.22.12A6.4,6.4,0,0,1,32.9,1.87Z"/><path class="cls-1" d="M36.51,5.54v.51h-.62l0-1V1.55l0-1,0,0,1,0h2l1,0,0,0,0,1V5l0,1H39.3V5.54ZM39.3,1.08H36.51V2.74H39.3Zm0,2.2H36.51V5H39.3Z"/><path class="cls-1" d="M46.42,3.2a1.75,1.75,0,0,0-1.93-1.75,2.08,2.08,0,0,0-2.15,2.12c0,.59.18,1,.43,1s.46-.32.69-.79A6.72,6.72,0,0,0,44,2c-.12-.09-.16-.14-.16-.18s0-.08.14-.08a3.22,3.22,0,0,1,.68.16A8.2,8.2,0,0,1,44,4.13c-.35.68-.75,1.07-1.17,1.07-.62,0-1.05-.68-1.05-1.64A2.66,2.66,0,0,1,44.52.92a2.34,2.34,0,0,1,2.56,2.33c0,1.19-.82,2.15-2.52,2.35a2.27,2.27,0,0,0-.4-.55C45.71,4.9,46.42,4.29,46.42,3.2Z"/><path class="cls-1" d="M48.64,3c-.13.29-.26.57-.44.92a1.31,1.31,0,0,0-.45-.33,8.73,8.73,0,0,0,1-2.71,3.31,3.31,0,0,0,.1-.82c.73.21.82.25.82.35s0,.13-.25.15c-.12.51-.23.93-.34,1.29.28.05.31.09.31.16s-.05.09-.21.16V6.07h-.59l0-1V3.63Zm2.73,1.13a4.26,4.26,0,0,1-1.73,1.4,1.09,1.09,0,0,0-.32-.44,4,4,0,0,0,1.86-1.59h-.69l-1,0V3l1,0h.86v-.6h-.43l-.84,0,0,0,0-.62V.91l0-.55,0,0,.81,0h1.55l.81,0,0,0,0,.55v.83l0,.62,0,0-.81,0h-.5V3h.9l1,0v.53l-1,0H52A4.38,4.38,0,0,0,54,5a1.62,1.62,0,0,0-.41.48,4.42,4.42,0,0,1-1.65-1.39l0,2h-.65Zm-.72-2.21h2v-1h-2Z"/><path class="cls-1" d="M54.4,1.72V1.19l.85,0h.4l.86,0v.53l-.86,0h-.4Zm.81,3.9V6h-.54l0-.85V4.42l0-.57,0,0,.56,0h.52l.55,0,0,0,0,.57V5l0,.85h-.52V5.62ZM54.7.84V.31h1.68V.84l-.67,0h-.35Zm0,1.76V2.07l.66,0h.33l.67,0V2.6l-.67,0h-.33Zm0,.88V3l.66,0h.33l.67,0v.53l-.67,0h-.33Zm1.16.86h-.65v.8h.65Zm3.56-.62.92,0v.4l-.92,0H57.93l-1,0,0-.05,0-.66V2.59a3.82,3.82,0,0,1-.32.27,2,2,0,0,0-.3-.4,3.29,3.29,0,0,0,.86-.9,1.12,1.12,0,0,0,.11-.26l.11,0V1.08h-.14l-.85,0V.62l.85,0h.15V.54a1.74,1.74,0,0,0-.06-.47c.68.06.79.08.79.2s-.06.1-.21.14V.65h.78V.54a1.74,1.74,0,0,0-.06-.47c.69.06.79.08.79.2s-.06.1-.21.14V.65h.29l.85,0V1.1l-.85,0H59.3v.3h-.55v-.3H58v.3h-.47c.34.13.36.16.36.23s0,.07-.19.06l-.07.11h.71c0-.07,0-.13.07-.2a1.52,1.52,0,0,0,.05-.25c.54.11.63.15.63.23s0,.07-.17.08l-.06.14h1.37v.38H58.85v.27H60v.38l-.92,0h-.23v.29H60v.37H58.85v.32Zm0,.5c.39.33.45.4.45.48s0,.11-.23.13a4.92,4.92,0,0,1-.74.57,9.34,9.34,0,0,0,1.5.12,1.26,1.26,0,0,0-.27.47,5.81,5.81,0,0,1-1.81-.3A7.63,7.63,0,0,1,56.78,6a1.42,1.42,0,0,0-.27-.45,5.57,5.57,0,0,0,1.31-.19A3.91,3.91,0,0,1,57.37,5l.35-.25h-.09l-1,0V4.33l1,0h1.56l.18-.14Zm-2-1.81h.85V2.14h-.85Zm0,.64h.85V2.76h-.85Zm0,.67h.85V3.4h-.85Zm.25,1a2.85,2.85,0,0,0,.62.44,3,3,0,0,0,.7-.44Z"/><path class="cls-1" d="M62.56,1.36l-1,0V.86l1,0h.54V.51A1.7,1.7,0,0,0,63,0c.75,0,.85.07.85.19s-.06.1-.21.14V.88h.25l1,0v.4l.38-.49a1.85,1.85,0,0,0,.24-.44c.56.29.66.36.66.46s-.06.1-.25.08a13.19,13.19,0,0,1-1,1.18h.86l1,0v.54l-1,0H64.46c-.24.21-.5.41-.75.61h1.34l.88,0,0,0,0,.88V5l0,1h-.62v-.3H63v.33h-.61l0-1V4c-.34.19-.72.4-1.16.61a1.21,1.21,0,0,0-.48-.4,12.12,12.12,0,0,0,1.62-.79V3.13l0,0h.4c.28-.19.55-.37.81-.58H61.9l-1,0V2l1,0h1.2V1.36ZM65.34,4.2V3.6H63v.6ZM63,5.3h2.31V4.67H63Zm.65-3.25h.54a8.25,8.25,0,0,0,.65-.67l-.94,0h-.25Z"/><path class="cls-1" d="M68.36,1.11a6.19,6.19,0,0,1-.68.69,1.27,1.27,0,0,0-.41-.39A3.76,3.76,0,0,0,68.21.34,1.07,1.07,0,0,0,68.33,0c.61.19.69.23.69.32s-.06.09-.24.13l-.09.16h.69l.85,0v.52a3.4,3.4,0,0,0,.45-.8A2.4,2.4,0,0,0,70.77,0c.6.2.67.24.67.32s0,.1-.22.15a.8.8,0,0,1-.08.16h1.38l.85,0v.54l-.85,0h-.4a5,5,0,0,1,.21.54l-.56.17a3.93,3.93,0,0,0-.23-.71H70.9a3.3,3.3,0,0,1-.34.49c.22,0,.26.07.26.15s-.06.09-.21.13v.2h1l1,0v.54l-1,0h-1V3h1.68l1,0v.54l-1,0H68.46l-1,0V3l1,0H70V2.56h-.91l-1,0V2.05l1,0H70V2A1.74,1.74,0,0,0,70,1.55l.53.05a1.29,1.29,0,0,0-.46-.26l.17-.2-.84,0h0c.07.18.13.38.19.56L69,1.82a6.6,6.6,0,0,0-.21-.71Zm3,2.94a1.69,1.69,0,0,0-.06-.45c.74,0,.85.06.85.18s-.06.1-.21.14v.13h.25l1,0v.54l-1,0h-.25v.29l0,.56c0,.49-.2.65-.8.65h-.42a1.56,1.56,0,0,0-.29-.64,7,7,0,0,0,.72,0c.14,0,.19,0,.19-.15V4.55H69.39a3.53,3.53,0,0,1,.7.74l-.5.35a3.31,3.31,0,0,0-.67-.79l.43-.3h-.74l-1,0V4l1,0Z"/><path class="cls-1" d="M78.86,3.2a1.75,1.75,0,0,0-1.92-1.75,2.07,2.07,0,0,0-2.15,2.12c0,.59.18,1,.42,1s.46-.32.7-.79A6.73,6.73,0,0,0,76.48,2c-.11-.09-.16-.14-.16-.18s0-.08.14-.08a3.09,3.09,0,0,1,.68.16,7.59,7.59,0,0,1-.75,2.26c-.35.68-.74,1.07-1.17,1.07-.62,0-1-.68-1-1.64A2.65,2.65,0,0,1,77,.92a2.35,2.35,0,0,1,2.57,2.33c0,1.19-.83,2.15-2.53,2.35a2,2,0,0,0-.4-.55C78.16,4.9,78.86,4.29,78.86,3.2Z"/><path class="cls-1" d="M86,5.27c0,.5-.22.66-.82.66h-.45a2,2,0,0,0-.26-.67,5.54,5.54,0,0,0,.74,0c.12,0,.16,0,.16-.16V.9h-4V6h-.63l0-1V1.38l0-1,0,0,1.11,0H85l1,0,0,0,0,1V4ZM81.71,2V1.47l.73,0H84.2l.76,0V2L84.2,2H82.44Zm.91,3H82l0-1V3.25l0-.69,0,0,.67,0h1.15l.67,0,0,0,0,.69v.84l0,.86H84V4.58H82.62Zm1.39-1v-1H82.62v1Z"/><path class="cls-1" d="M87.58,3a8,8,0,0,1-.45,1,1.31,1.31,0,0,0-.44-.34,8.8,8.8,0,0,0,1-2.76A4,4,0,0,0,87.81,0c.72.22.81.26.81.35s0,.13-.24.15c-.13.51-.23.92-.34,1.29.26,0,.29.08.29.15s0,.09-.2.16V6.07h-.6l0-1V3.63Zm2.71-.21h-.58l-1,0V2.26l1,0h.58V.56a1.8,1.8,0,0,0-.06-.48c.76,0,.86.06.86.19S91,.36,90.88.4V2.28h.6l1,0v.55l-1,0h-.6v1h.93l1,0v.56l-1,0h-.93v.45l0,1.32h-.65l0-1.32V4.31H89.4l-1,0V3.77l1,0h.89ZM89.24.57A5.91,5.91,0,0,1,90,1.62l-.5.35A6.41,6.41,0,0,0,88.8.87Zm2.51,0c.66.24.75.28.75.38s0,.13-.26.13a8,8,0,0,1-.46.93,2.3,2.3,0,0,0-.48-.2A5,5,0,0,0,91.65,1,1.94,1.94,0,0,0,91.75.55Z"/><path class="cls-1" d="M94.25,5.79A6.61,6.61,0,0,1,94,3.72a13.06,13.06,0,0,1,.39-3c-.13-.09-.17-.13-.17-.17s0-.07.12-.07A2.9,2.9,0,0,1,95,.64a11.24,11.24,0,0,0-.44,3,6.51,6.51,0,0,0,.28,2Zm1.14-4.06c.34,0,.78,0,1.07,0h.75c0-.28,0-.65,0-.93C97,.76,97,.7,97,.65s0-.09.19-.09l.66,0c0,.19,0,.38,0,.56v.57l1.1-.09v.57l-1.1.09c0,.83,0,1.52.06,2.05a12.11,12.11,0,0,1,1.18.73l-.38.54a6.73,6.73,0,0,0-.88-.66,1.21,1.21,0,0,1-1.2.68c-.7,0-1.2-.34-1.2-.81a1.1,1.1,0,0,1,1.14-.9,2,2,0,0,1,.72.15c0-.58,0-1.14,0-1.75H95.4Zm1.12,2.69c-.26,0-.55.16-.55.37s.25.32.56.32a.66.66,0,0,0,.73-.48A1.55,1.55,0,0,0,96.51,4.42Z"/><path class="cls-1" d="M101.66.22a12.62,12.62,0,0,1,1.76,7,12.54,12.54,0,0,1-1.76,7l-.18-.49a11.53,11.53,0,0,0,1.59-6.47A11.55,11.55,0,0,0,101.48.7Z"/><path class="cls-1" d="M8.78,13.78H6.22v-.45l.92-.07V9.55l-1.08.37V9.38l1.25-.5h.56v4.38l.91.07Z"/><path class="cls-1" d="M15.61,11.12a3,3,0,0,1-.56.57,1.62,1.62,0,0,1-1.05.37,2.88,2.88,0,0,1-1.53-.54,2.22,2.22,0,0,0-1.07-.33c-.39,0-.58.1-1.18.64l-.35-.29a3.56,3.56,0,0,1,.57-.54,1.63,1.63,0,0,1,1-.37,3,3,0,0,1,1.53.53,2.36,2.36,0,0,0,1.09.35c.41,0,.62-.12,1.16-.67Z"/><path class="cls-1" d="M19.72,13.78H16.37v-.64c1.9-1.64,2.38-2.18,2.38-3a.74.74,0,0,0-.85-.8,1.87,1.87,0,0,0-.68.14l-.06.92h-.59V9.18A3.38,3.38,0,0,1,18,8.8c1,0,1.48.51,1.48,1.28,0,.92-.41,1.46-2.33,3.09h2.54Z"/><path class="cls-1" d="M23.48,12.29c-.37.16-.79.31-1.29.47a1.9,1.9,0,0,0-.35-.5,7.1,7.1,0,0,0,2.49-1.09,5.21,5.21,0,0,0-.92-.72l.4-.4a8,8,0,0,1,1,.74A5.47,5.47,0,0,0,26,9.51H24a6.25,6.25,0,0,1-1.75,1.36,1.38,1.38,0,0,0-.37-.42,5,5,0,0,0,2.08-1.84,1.05,1.05,0,0,0,.19-.4c.68.18.75.23.75.32s-.06.11-.27.13L24.37,9h1.9l.18-.16h.09c.43.32.5.41.5.5s-.05.12-.31.19a6.65,6.65,0,0,1-1.58,1.74l-.36.26h1.79l.78,0,0,0,0,.77v.95l0,1h-.64v-.37H24.08v.4h-.63l0-1Zm3.27-.23H24.08V13.4h2.67Z"/><path class="cls-1" d="M29.38,11.67A6,6,0,0,1,28.62,13a1.42,1.42,0,0,0-.36-.46,5,5,0,0,0,1-2.16h-.16l-.73,0V9.91l.73,0h.24V9.17l-.76.11a2,2,0,0,0-.24-.51,5.27,5.27,0,0,0,1.46-.2,2.23,2.23,0,0,0,.43-.17c.39.3.44.34.44.43s0,.09-.13.09h-.11a5.55,5.55,0,0,1-.54.15v.87h0l.75,0v.52l-.75,0h0v.79l.21-.16a5.72,5.72,0,0,1,.65.79l-.45.36a4,4,0,0,0-.41-.65v.52l0,2.28h-.6Zm3.32.57h.42l.78,0v.52l-.78,0H32.7v.83h.73l1,0v.53l-1,0H31.37l-1,0v-.53l1,0h.74v-.83h-.34l-.79,0v-.52l.79,0h.34v-.75h-.3l-1,0V11h3.21v.52l-1,0H32.7Zm1.12-3.6,0,0,0,.69v.39l0,.72,0,.06-.82,0H31.85l-.81,0,0-.06,0-.72V9.36l0-.69,0,0,.81,0H33ZM31.61,10h1.64V9.14H31.61Z"/><path class="cls-1" d="M37.74,8.75a1.74,1.74,0,0,0-.06-.47c.74,0,.83.06.83.18s-.06.1-.21.14V9h1.46l1,0v.55l-1,0H36v1.95a4.55,4.55,0,0,1-.76,2.88,1.48,1.48,0,0,0-.47-.36,3.66,3.66,0,0,0,.66-2.54V10l0-1,0,0,1,0h1.32Zm-.43,3.75-1,0V12l1,0h2l.19-.15h.09c.39.32.48.42.48.51s-.07.12-.34.2a3.35,3.35,0,0,1-.86.86,7.5,7.5,0,0,0,2,.25,2.74,2.74,0,0,0-.34.55,6.3,6.3,0,0,1-2.24-.46,6.67,6.67,0,0,1-2.14.5,2.07,2.07,0,0,0-.33-.5,7.7,7.7,0,0,0,1.89-.33,3.5,3.5,0,0,1-.75-.74l.42-.22ZM39,10.17V10a1.7,1.7,0,0,0-.06-.47c.67,0,.78.07.78.19s-.06.09-.2.13v.3h1.28v.49l-1,0h-.23v.45l0,.55,0,0-.56,0H37.78l-.55,0,0,0,0-.55v-.45h0l-1,0v-.49h1.07V10a1.7,1.7,0,0,0-.06-.47c.67,0,.78.07.78.19s-.06.09-.2.13v.3ZM37.47,12.5a2.87,2.87,0,0,0,.85.7,2.75,2.75,0,0,0,.81-.7Zm.26-1.32H39v-.55H37.73Z"/><path class="cls-1" d="M46.69,9.75a2.84,2.84,0,0,0-1.67.49,2,2,0,0,0-.89,1.64c0,.94.64,1.37,2.06,1.37h.28l0,.68h-.17c-1.84,0-2.77-.7-2.77-2a2.28,2.28,0,0,1,.72-1.66,4,4,0,0,1,.48-.34v0l-.62.13-2.21.33-.11-.62c1.61-.18,3.1-.38,4.83-.65l.06,0,.07.56Zm-.76.83a4.22,4.22,0,0,1,.94,1l-.33.29a4.31,4.31,0,0,0-.94-1Zm.65-.44a4.32,4.32,0,0,1,.89.92l-.32.27a4.11,4.11,0,0,0-.89-.93Z"/><path class="cls-1" d="M50.26,9.74c.36-.05.67-.12,1.05-.21l.08.57c-.37.07-.73.14-1.13.2v1a3.84,3.84,0,0,1,1.4-.3c1,0,1.7.55,1.7,1.39a1.42,1.42,0,0,1-1.59,1.41c-.65,0-1-.28-1-.81a2,2,0,0,1,.3-1,2.73,2.73,0,0,0,.53.18,1.37,1.37,0,0,0-.25.77c0,.22.12.33.4.33a.87.87,0,0,0,1-.92c0-.5-.41-.81-1.1-.81a3,3,0,0,0-1.37.34v1.19c0,.51-.23.78-.61.78-.61,0-1.31-.49-1.31-1s.43-.87,1.31-1.36v-1.2c-.33,0-.6.05-.85.05l-.48,0V9.83a3.91,3.91,0,0,0,.43,0,7.28,7.28,0,0,0,.9,0c0-.29,0-.66,0-.9-.16-.07-.21-.1-.21-.16s0-.09.21-.09.34,0,.65,0l0,.42Zm-.59,2.42c-.47.28-.76.6-.76.76s.37.43.61.43c.09,0,.15-.08.15-.35Zm2.27-3a7.2,7.2,0,0,1,1.75.77l-.32.55a5.66,5.66,0,0,0-1.71-.8Z"/><path class="cls-1" d="M56.71,12.93l0,.66c0,.5-.15.63-.7.63h-.22a2.31,2.31,0,0,0-.25-.61,3.28,3.28,0,0,0,.48,0c.1,0,.12,0,.12-.11V12H56l-.61,0,0,0,0-.56V10.34l0-.55,0,0,.6,0a4.48,4.48,0,0,0,.11-.62h-1v2.15a5.69,5.69,0,0,1-.54,2.78,1.44,1.44,0,0,0-.46-.36,5.33,5.33,0,0,0,.44-2.41V9.49l0-.82,0,0,.83,0h1l1,0V9.2l-.74,0c0,.2-.07.4-.12.61h.2l.61,0,0,0,0,.55v1.12l0,.56,0,0-.63,0h-.07Zm-1.29-.56c.55.18.63.22.63.3s0,.08-.19.11a4,4,0,0,1-.42.93,1.58,1.58,0,0,0-.42-.27,2.92,2.92,0,0,0,.32-.67A1.14,1.14,0,0,0,55.42,12.37Zm1.46-1.69v-.45H56v.45Zm0,.43H56v.47h.93Zm.39,1.28a4.85,4.85,0,0,1,.36.83l-.48.21a3.56,3.56,0,0,0-.33-.85Zm1.28-2.73c0-.17.07-.33.1-.51h-.14l-.88,0V8.64l.88,0h.9l.92,0v.54l-.92,0h-.17c0,.18-.08.35-.13.52h.11l.82,0,0,0,0,.82v1.73l0,.83,0,0-.51,0a4.84,4.84,0,0,1,.89.82l-.45.39a4.41,4.41,0,0,0-.92-.91l.38-.3h-1c.44.22.51.27.51.35s-.06.09-.22.09a4.5,4.5,0,0,1-1.12.82,2,2,0,0,0-.43-.43,3.68,3.68,0,0,0,1-.65,1.09,1.09,0,0,0,.15-.18l-.42,0,0-.05,0-.82V10.49l0-.82,0,0Zm-.15,1h1.09v-.47H58.4Zm0,.47v.49h1.09V11.1Zm0,1v.51h1.09v-.51Z"/><path class="cls-1" d="M63.87,12.52c-.36,1-.73,1.28-1.08,1.28-.75,0-1.38-1.21-1.38-2.67a10.76,10.76,0,0,1,.14-1.69c-.13-.09-.17-.15-.17-.19s0-.07.14-.07a4.69,4.69,0,0,1,.77.13,7.8,7.8,0,0,0-.22,1.82c0,1.37.55,2,.7,2s.31-.22.57-1A2.19,2.19,0,0,0,63.87,12.52ZM65.13,10a6.92,6.92,0,0,1,1.51,2.39l-.61.32a7,7,0,0,0-1.4-2.38Z"/><path class="cls-1" d="M72.77,12.78a4.14,4.14,0,0,1-2.7,1.2c-1,0-1.44-.41-1.44-1.45,0-.82,0-2.19.05-3.56-.14-.08-.19-.12-.19-.17s0-.1.17-.1l.72,0c-.09,1.72-.11,2.71-.11,3.71,0,.67.15.89.78.89a3.4,3.4,0,0,0,2.42-1.17A2.66,2.66,0,0,0,72.77,12.78Z"/><path class="cls-1" d="M74.5,9.62c.73-.06,1.36-.11,2-.13V8.88c-.16-.07-.23-.12-.23-.18s0-.09.2-.09l.67,0q0,.58,0,.84H79L79,10H77.16v.85c.39,0,.88-.1,1.46-.21l.13.54c-.61.1-1,.16-1.57.22,0,.36,0,.74,0,1.1a14.2,14.2,0,0,1,1.84.91l-.34.55a13,13,0,0,0-1.51-.84c-.08.57-.49.87-1.2.87s-1.38-.36-1.38-.86.65-.92,1.37-.92a2.32,2.32,0,0,1,.61.11c0-.27,0-.59,0-.88H76a2.2,2.2,0,0,1-1.29-.33L75,10.7a1.59,1.59,0,0,0,.93.21c.19,0,.41,0,.61,0V10c-.68,0-1.34.06-2,.13ZM76,12.76c-.38,0-.76.16-.76.37s.36.34.81.34a.53.53,0,0,0,.6-.55A1.67,1.67,0,0,0,76,12.76Z"/><path class="cls-1" d="M83.94,9.55h.25c.59,0,1.09,0,1.7,0v.59c-.68,0-1.18-.06-1.69-.06h-.25v1.09a2.29,2.29,0,0,1,.12.77c0,1.12-.54,1.84-2.16,2.09a1.65,1.65,0,0,0-.3-.57c1.35-.13,1.75-.57,1.83-1.06a.88.88,0,0,1-.69.25.78.78,0,0,1-.88-.82A1.31,1.31,0,0,1,83,10.56a.52.52,0,0,1,.34.13c0-.17,0-.42,0-.58-.7,0-1.56.06-2.66.14l0-.58,2.68-.11c0-.22,0-.51,0-.71-.17-.08-.21-.13-.21-.17s0-.09.14-.09H84l0,.48Zm-1,1.53a.71.71,0,0,0-.57.72c0,.24.11.37.42.37s.56-.18.6-.59S83.2,11.08,83,11.08Z"/><path class="cls-1" d="M87.82,14.32a1,1,0,0,1-1-1,1,1,0,0,1,1.94,0A1,1,0,0,1,87.82,14.32Zm0-.38a.58.58,0,0,0,.58-.59.58.58,0,0,0-1.16,0A.58.58,0,0,0,87.82,13.94Z"/></g></g></svg>