<svg xmlns="http://www.w3.org/2000/svg" viewBox="0 0 63.37 71.51"><defs><style>.cls-1{fill:#e60012;}.cls-2{fill:#311a07;}.cls-3{fill:#508939;}.cls-4{fill:#fff;}</style></defs><g id="レイヤー_2" data-name="レイヤー 2"><g id="文字"><path class="cls-1" d="M31.05,17.48s-8.64.74-11.3.89c0,0-9.13-1.2-14.45,5.81S-3.33,48,5.3,58.62,20.75,72.49,26.4,71.15s11.13-.63,15.61.28S55.63,65,58.29,59.64s6.81-16.4,4.32-23.25-8.1-19.4-21.1-19S31.92,17.4,31.05,17.48Z"/><path class="cls-2" d="M33.34,24a9.45,9.45,0,0,0-4-.35s-1.66-6.26-2.66-7.36a13,13,0,0,1-1.83-3.72s.83-2.7,2-1.68,1.82,1.34,2.24,2.16S33.34,24,33.34,24Z"/><path class="cls-2" d="M27.44,15.61l.26-.33c.16-.21.4-.49.7-.82a17.93,17.93,0,0,1,2.37-2.22,10,10,0,0,1,1.46-.94,7.11,7.11,0,0,1,1.4-.54,5.2,5.2,0,0,1,.59-.1,1.81,1.81,0,0,1,.46,0h.39l-.38.07a2.27,2.27,0,0,0-.43.11,5.13,5.13,0,0,0-1.68,1A8.65,8.65,0,0,0,31.46,13a15.31,15.31,0,0,0-1.68,2.48c-.2.35-.36.65-.46.86l-.15.33Z"/><path class="cls-3" d="M34.4,10.66S33.34,3.16,40.13,1,56.32.67,57.63,1c0,0-1.31.74-1.39,1.25s-1.8,3.89-6.79,5.07S34.4,10.66,34.4,10.66Z"/><path class="cls-4" d="M23.47,39.77c0,.19-.1.28-.31.28H19.42a10.83,10.83,0,0,0,3.38,1.22.17.17,0,0,1,.14.14.23.23,0,0,1-.06.19l-.61.69L22,43c-.12.29-.27.44-.42.44a.71.71,0,0,1-.28-.08,5.62,5.62,0,0,1-3.12-3.29H15.68a7.66,7.66,0,0,1-4.79,2.79c-.27,0-.42,0-.45-.08s0-.16.17-.25a10.88,10.88,0,0,0,2.71-2.46H10.53c-.17,0-.25-.1-.25-.31s.08-.3.25-.3h3.18A6.72,6.72,0,0,0,14.3,38a.21.21,0,0,1,.28-.16l1.82.52a.34.34,0,0,1,.25.31c0,.17-.1.27-.3.29a.1.1,0,0,0-.09.06c0,.09-.1.23-.19.42H18a.19.19,0,0,1,0-.08.29.29,0,0,1,.07-.31c.07-.07.17,0,.31.08l.27.31h2.16l1-1a.4.4,0,0,1,.28-.14.42.42,0,0,1,.28.14l1,1A.55.55,0,0,1,23.47,39.77Zm-2.22-2.91c.05.79-.15,1.29-.59,1.5a1.19,1.19,0,0,1-.47.11.7.7,0,0,1-.68-.44,2,2,0,0,1,.08-1l-6.34.64a.1.1,0,0,0-.09.06.3.3,0,0,1-.27.19c-.15,0-.25-.1-.28-.3l-.3-1.71q0-.19.21-.18l1.69.07.17-2.09a.17.17,0,0,1,.23-.17l2.15.31c.26,0,.37.17.34.39a.32.32,0,0,1-.29.31.1.1,0,0,0-.1.07L16,35.84l3.6,0a8.6,8.6,0,0,0-.25-1.14.41.41,0,0,1,0-.16c0-.11,0-.17.14-.17a.51.51,0,0,1,.29.14A3.43,3.43,0,0,1,21.25,36.86ZM18,42.2a.24.24,0,0,1-.3,0s0,0-.08,0a7.13,7.13,0,0,1-3.53.67c-.06,0-.09,0-.11-.09a.11.11,0,0,1,.06-.13,13,13,0,0,0,2.61-1.88.18.18,0,0,1,.25,0l1.08,1C18.11,41.94,18.12,42.07,18,42.2Zm2,3.64a.5.5,0,0,1,.11.27.29.29,0,0,1-.17.25.33.33,0,0,1-.32,0,.1.1,0,0,0-.14,0,7.9,7.9,0,0,1-4.71,1c-.08,0-.12,0-.12-.1a.15.15,0,0,1,.11-.15,17.53,17.53,0,0,0,3.91-2.46.14.14,0,0,1,.23,0Zm-1.52-1.91a.31.31,0,0,1,.08.18c0,.21-.11.28-.31.2a.11.11,0,0,0-.08,0,6.25,6.25,0,0,1-3.37.81.11.11,0,0,1-.11-.12s0-.09.11-.13q.73-.45,1.29-.84a10.46,10.46,0,0,0,1.15-1,.18.18,0,0,1,.11-.05h.08l.05,0Z"/><path class="cls-4" d="M33.26,38.52l-.31.23a43.36,43.36,0,0,1-.3,5.9,2.18,2.18,0,0,1-.47,1.13,1.28,1.28,0,0,1-1.06.53c-.56,0-.92-.34-1.08-1-.07-.32-.22-.51-.44-.56L29,44.57c-.21,0-.31-.14-.3-.26s.11-.25.3-.25h1c.44,0,.68-.17.72-.5a40.56,40.56,0,0,0,.24-4.9H30a9.78,9.78,0,0,1-4.39,7.57.39.39,0,0,1-.4.1c-.16-.07-.19-.18-.1-.31a14.53,14.53,0,0,0,2.73-7.36H26a.28.28,0,0,1-.31-.31c0-.22.1-.33.31-.33H27.8q0-1,0-3.21a.23.23,0,0,1,.06-.16.25.25,0,0,1,.16-.06l1.93.09c.27,0,.39.15.37.43a.5.5,0,0,1-.14.27.62.62,0,0,0-.14.21L30,38h.89l.86-.83a.36.36,0,0,1,.28-.1.37.37,0,0,1,.28.1l1,.87A.27.27,0,0,1,33.26,38.52Zm6.53.45-.22.22,0,4.45c0,.58-.21.89-.64.92l-.93.08c-.25,0-.37-.07-.37-.28v-.69H36.13v.47a.51.51,0,0,1-.52.55l-1.08.1a.31.31,0,0,1-.26-.1.34.34,0,0,1-.11-.26V38.17c0-.18.1-.24.31-.17l1.66.57h1.34l.8-.82a.44.44,0,0,1,.28-.14.55.55,0,0,1,.32.14l.92.77C40,38.65,40,38.81,39.79,39ZM37.6,43V39.21H36.13V43Z"/><path class="cls-4" d="M54.81,37.91a.31.31,0,0,1,.11.22.36.36,0,0,1-.14.26l-.28.18c-.06.33-.11.62-.16.86a1.21,1.21,0,0,1-1.06,1.09l-.25,0A.59.59,0,0,1,52.4,40c0-.19-.2-.34-.56-.47l-.24-.08c-.15,0-.21-.12-.2-.2s.1-.17.28-.17h.52q.51,0,.51-.63H50.66V39a.58.58,0,0,1-.61.63l-.77.06c-.27,0-.4-.1-.4-.35v-.92H47.06a6.46,6.46,0,0,1-3.21,2.13.8.8,0,0,1-.5.06c-.14-.06-.12-.16.07-.3a6.61,6.61,0,0,0,1.86-1.89h-.75l0,.19c0,.18-.19.27-.53.29L43.1,39a.21.21,0,0,1-.18-.07.37.37,0,0,1-.07-.2L43,36c0-.17.1-.22.28-.16l1.39.46H45.9c0-.25,0-.52,0-.81H43.16a.26.26,0,0,1-.29-.28.26.26,0,0,1,.29-.3h2.78V34c0-.12.06-.18.18-.17l1.55.08c.27,0,.41.13.41.34a.33.33,0,0,1-.24.33.11.11,0,0,0-.06.1v.25h1.11V34a.13.13,0,0,1,.16-.14l1.49.08c.27,0,.4.13.39.34a.38.38,0,0,1-.21.33.11.11,0,0,0-.06.1v.25h.85l.62-.55a.5.5,0,0,1,.32-.13.61.61,0,0,1,.36.15l.83.61c.16.16.16.32,0,.45l-.25.2,0,1.05a.47.47,0,0,1-.5.49l-1,.11q-.33,0-.33-.24v-.17h-.86v1h2l.68-.59a.41.41,0,0,1,.58,0Zm-7.9,8.87a.34.34,0,0,1-.46.08.13.13,0,0,0-.12,0,8.78,8.78,0,0,1-2.91.47.15.15,0,0,1-.15-.08.11.11,0,0,1,0-.12,16.38,16.38,0,0,0,2.11-1.66.23.23,0,0,1,.35,0l1.11.86A.31.31,0,0,1,46.91,46.78Zm-1.08-9.89H44.67l-.1,1h1A5.28,5.28,0,0,0,45.83,36.89Zm6.55,3.84a.3.3,0,0,1,0,.48l-.25.23-.09,3c0,.46-.18.7-.52.73l-1.2.11c-.23,0-.35-.08-.35-.31v-.16H47.11a.35.35,0,0,1-.34.38l-1.38.17c-.22,0-.34-.07-.35-.3l-.12-4.68a.23.23,0,0,1,.1-.2.27.27,0,0,1,.23-.05l1.75.55h3.08l.8-.67a.41.41,0,0,1,.3-.13.38.38,0,0,1,.28.14Zm-2.31.56H47v.55h3Zm0,1.13h-3V43h3Zm0,1.19H47.08v.53H50Zm-1.11-6.72H47.66a4.06,4.06,0,0,1-.27,1h1.49Zm0-1.39H47.77c0,.32,0,.59-.05.81h1.17Zm4.46,11.27a.74.74,0,0,1-.39.64.55.55,0,0,1-.34.11,1,1,0,0,1-.85-.49c-.07-.1-.49-.51-1.25-1.22a.26.26,0,0,1-.09-.17c0-.15.08-.23.25-.25a2.83,2.83,0,0,1,1.7.2C53,45.93,53.35,46.32,53.35,46.77ZM51.57,35.5h-.91v.81h.88Z"/><path class="cls-4" d="M23.71,55.56a.27.27,0,0,1-.3.3H21.33l-.06,2.33h.26l.69-.72a.44.44,0,0,1,.28-.14.42.42,0,0,1,.3.14l.69.72a.47.47,0,0,1,.17.3c0,.21-.1.31-.3.31H11c-.19,0-.29-.1-.29-.31a.26.26,0,0,1,.29-.3h1.43l0-2.33h-1.8a.27.27,0,0,1-.3-.3c0-.21.1-.31.3-.31h1.79l0-1.74a.17.17,0,0,1,.05-.13.2.2,0,0,1,.13,0l1.32,0c.26,0,.38.14.37.36A.32.32,0,0,1,14,54a.09.09,0,0,0,0,.11v1.11h.82V53.48c0-.13.06-.18.19-.17l1.31.07q.38,0,.36.36a.32.32,0,0,1-.17.29.11.11,0,0,0-.06.11v1.11h.83V53.48c0-.13.06-.18.18-.17l1.32.07q.38,0,.36.36A.32.32,0,0,1,19,54a.1.1,0,0,0-.07.11v1.11h.82l0-1.77c0-.13.07-.18.19-.17l1.32.09c.25,0,.37.15.36.38a.36.36,0,0,1-.19.28.11.11,0,0,0-.06.11l0,1.08h.26l.68-.71a.36.36,0,0,1,.57,0l.7.71A.43.43,0,0,1,23.71,55.56Zm-.57-4.15c0,.19-.1.28-.31.28h-9.2a8.05,8.05,0,0,1-2.85,2.59.26.26,0,0,1-.14,0c-.13,0-.19-.06-.19-.17A.37.37,0,0,1,10.5,54a20.2,20.2,0,0,0,1.14-2.91,21.62,21.62,0,0,0,.53-2.37c0-.17.13-.25.28-.21l2.09.42c.3.06.43.22.4.48a.36.36,0,0,1-.34.33.11.11,0,0,0-.1.08A9.11,9.11,0,0,1,14,51h6.28l1-1a.4.4,0,0,1,.28-.14.46.46,0,0,1,.3.14l1.09,1A.51.51,0,0,1,23.14,51.41ZM12.52,61.54a1.05,1.05,0,0,1-1.15.66.64.64,0,0,1-.61-.69A.67.67,0,0,1,11,61a3.28,3.28,0,0,0,.93-1.37.21.21,0,0,1,.26-.14.28.28,0,0,1,.25.19,2.33,2.33,0,0,1,.3,1.08A1.85,1.85,0,0,1,12.52,61.54Zm2.3-5.68H14l.06,2.33h.72Zm1.41,5.21a.79.79,0,0,1-.21.53.58.58,0,0,1-.48.25c-.23,0-.45-.23-.66-.7l-.42-1a.65.65,0,0,1,0-.11q0-.3.3-.24C15.73,60,16.23,60.43,16.23,61.07Zm1.05-5.21h-.83v2.33h.83ZM19.34,61a.84.84,0,0,1-.2.54.64.64,0,0,1-.49.25.54.54,0,0,1-.51-.43c-.14-.37-.32-.8-.55-1.28a.2.2,0,0,1,0-.11c0-.2.1-.28.31-.24C18.85,60,19.34,60.39,19.34,61Zm.36-5.16h-.8v2.33h.74ZM22.77,61a.94.94,0,0,1-.25.64.74.74,0,0,1-.58.3c-.29,0-.56-.28-.8-.84l-.48-1.21a.38.38,0,0,1,0-.13c0-.22.13-.31.38-.26a3.1,3.1,0,0,1,.92.34A1.36,1.36,0,0,1,22.77,61Z"/><path class="cls-4" d="M32.89,54.39c0,.21-.1.31-.3.31h-2.2v1.09l.12,0,.41,0c1.08,0,1.63.39,1.63,1.18a.6.6,0,0,1-.27.5.44.44,0,0,1-.3.11.63.63,0,0,1-.51-.24q-.33-.37-1.08-1.08v4.37a.65.65,0,0,1-.66.72l-.86.08a.41.41,0,0,1-.3-.09.31.31,0,0,1-.14-.26V57.3a9.25,9.25,0,0,1-2.51.91c-.05,0-.09,0-.12-.08a.15.15,0,0,1,0-.18c.29-.26.75-.69,1.37-1.29a9.64,9.64,0,0,0,1.24-1.48V54.7H26.38c-.18,0-.27-.1-.27-.31s.09-.3.27-.3h2.05v-4a.18.18,0,0,1,.22-.2l1.58.08c.3,0,.44.16.43.47a.44.44,0,0,1-.22.36.11.11,0,0,0-.06.11v3.16l.34,0,.7-.7a.46.46,0,0,1,.3-.14.4.4,0,0,1,.28.14l.71.72A.47.47,0,0,1,32.89,54.39Zm-5-2.27a.77.77,0,0,1-.16.48.5.5,0,0,1-.42.22.45.45,0,0,1-.4-.25,11.3,11.3,0,0,0-.77-1.11.24.24,0,0,1-.05-.14c0-.16.08-.23.24-.22Q27.91,51.19,27.91,52.12Zm5.14,0a.32.32,0,0,1-.38.12.17.17,0,0,0-.14,0l-1.41.52a.47.47,0,0,1-.17,0c-.15,0-.22-.06-.22-.17a.37.37,0,0,1,.06-.21l.85-1.33A.22.22,0,0,1,32,51l1,.71C33.16,51.78,33.17,51.92,33.05,52.09Zm8,5c0,.18-.08.29-.34.34l-2.07.43-.06,2.89c0,.48-.22.75-.64.8l-1,.12a.31.31,0,0,1-.34-.12.71.71,0,0,1-.1-.41l.06-2.86-3.32.67c-.13.06-.22,0-.26-.25a.27.27,0,0,1,.25-.34l3.35-.71.17-7.82c0-.15.08-.22.23-.21l1.74.17c.29,0,.43.19.41.47a.45.45,0,0,1-.25.38.09.09,0,0,0-.07.09l-.12,6.48.2,0,.57-.82a.38.38,0,0,1,.31-.2.54.54,0,0,1,.27.09l.83.58A.54.54,0,0,1,41,57.08Zm-5.4-1.47a.84.84,0,0,1-.18.54.62.62,0,0,1-.5.24.61.61,0,0,1-.54-.3c-.4-.65-.71-1.11-.92-1.38a.25.25,0,0,1-.06-.17c0-.18.09-.27.28-.26C35,54.37,35.64,54.81,35.64,55.61Zm.54-2.93a.78.78,0,0,1-.44.75.63.63,0,0,1-.28.08.57.57,0,0,1-.49-.3A13.88,13.88,0,0,0,34,51.85a.27.27,0,0,1-.06-.17c0-.2.1-.29.3-.28C35.54,51.49,36.18,51.92,36.18,52.68Z"/><path class="cls-4" d="M46.38,60.3a1.17,1.17,0,0,1-2.15.28,1.15,1.15,0,0,1-.12-.89,1.2,1.2,0,0,1,.55-.73,1.1,1.1,0,0,1,.89-.11,1.07,1.07,0,0,1,.72.55A1.13,1.13,0,0,1,46.38,60.3Zm2.59-10-2.69,7.25a.36.36,0,0,1-.48.25.33.33,0,0,1-.27-.45L47,49.81a1,1,0,0,1,.47-.67,1,1,0,0,1,.8-.12,1,1,0,0,1,.63.51A.94.94,0,0,1,49,50.33Z"/><path class="cls-4" d="M52.19,60.3a1.16,1.16,0,0,1-.55.71,1.18,1.18,0,0,1-1.72-1.32,1.22,1.22,0,0,1,.54-.73,1.13,1.13,0,0,1,.9-.11,1.12,1.12,0,0,1,.72.55A1.17,1.17,0,0,1,52.19,60.3Zm2.59-10-2.69,7.25a.37.37,0,0,1-.49.25.34.34,0,0,1-.27-.45l1.51-7.57a1,1,0,0,1,.47-.67,1,1,0,0,1,.8-.12,1,1,0,0,1,.67,1.31Z"/><path class="cls-4" d="M15.07,28.35a5.1,5.1,0,0,1-.8-1.1,14.19,14.19,0,0,1-1.53.19.18.18,0,0,1-.19-.19.16.16,0,0,1,.17-.17c.44,0,.93-.09,1.4-.17a7.19,7.19,0,0,1-.3-.85.18.18,0,0,1,.19-.22.2.2,0,0,1,.2.16,6.82,6.82,0,0,0,.27.84,9.13,9.13,0,0,0,1.09-.27l.09,0a.17.17,0,0,1,.17.17.19.19,0,0,1-.14.19c-.3.09-.66.19-1,.27a6.38,6.38,0,0,0,.89,1.21.27.27,0,0,1,.08.18.22.22,0,0,1-.23.21.15.15,0,0,1-.09,0,3.41,3.41,0,0,0-1.14-.19c-.64,0-.92.22-.92.54s.33.56,1.07.56a4.27,4.27,0,0,0,.54,0,.18.18,0,0,1,.21.19.19.19,0,0,1-.18.19,4.5,4.5,0,0,1-.56,0c-1,0-1.47-.4-1.47-.93s.34-.89,1.3-.89a3.15,3.15,0,0,1,.92.13Z"/><path class="cls-4" d="M18.46,28.09a1,1,0,0,1,.65-.27c.39,0,.61.27.65,1,0,.55.15.71.41.71s.57-.18.75-.71a.21.21,0,0,1,.19-.15.18.18,0,0,1,.18.2.31.31,0,0,1,0,.08c-.26.71-.65.95-1.11.95s-.75-.26-.79-1c0-.55-.13-.7-.37-.7s-.68.38-.94.92c-.08.15-.2.43-.3.64a.25.25,0,0,1-.21.14.17.17,0,0,1-.18-.17.52.52,0,0,1,0-.11c.5-1.13,1.1-2.42,1.61-3.4a.23.23,0,0,1,.18-.12.2.2,0,0,1,.2.19.26.26,0,0,1,0,.11l-.9,1.73Z"/><path class="cls-4" d="M22.74,29.65a.23.23,0,0,1-.19.12.18.18,0,0,1-.18-.17.19.19,0,0,1,0-.12,8.83,8.83,0,0,0,.79-2.07c-.25,0-.5.08-.71.13h-.06a.16.16,0,0,1-.16-.16.2.2,0,0,1,.16-.19,6.55,6.55,0,0,1,.85-.14,8.13,8.13,0,0,0,.15-.95.19.19,0,0,1,.19-.19.19.19,0,0,1,.19.22c0,.29-.08.59-.14.89l.38,0c.57,0,.8.25.8,1a4,4,0,0,1-.19,1.27.76.76,0,0,1-.78.6,1.37,1.37,0,0,1-.29,0,.18.18,0,0,1-.16-.19.18.18,0,0,1,.22-.18h.21a.4.4,0,0,0,.44-.33A4,4,0,0,0,24.47,28c0-.59-.11-.69-.41-.69l-.47,0A9.73,9.73,0,0,1,22.74,29.65Zm3.68-1.91a.25.25,0,0,1,0,.12.21.21,0,0,1-.21.22.19.19,0,0,1-.18-.14,4.28,4.28,0,0,0-.71-1.06.22.22,0,0,1-.06-.13.19.19,0,0,1,.19-.18.21.21,0,0,1,.15.07A4.31,4.31,0,0,1,26.42,27.74Z"/><path class="cls-4" d="M28.45,26.64a8.57,8.57,0,0,1-.93.16.18.18,0,0,1-.21-.17.18.18,0,0,1,.18-.18c.41,0,.84-.11,1.25-.19a.22.22,0,0,1,.27.2.22.22,0,0,1-.09.17,2.41,2.41,0,0,0-1,1.87c0,.74.41,1,.89,1,.67,0,1.25-.48,1.25-1.67a6.41,6.41,0,0,0-.17-1.46.19.19,0,0,1,.19-.23.18.18,0,0,1,.17.11,5.74,5.74,0,0,0,1.05,1.49.24.24,0,0,1,.08.18.19.19,0,0,1-.19.19.26.26,0,0,1-.17-.09,5.39,5.39,0,0,1-.73-1.1h0a5.32,5.32,0,0,1,.1,1.07c0,1.29-.7,1.9-1.56,1.9a1.26,1.26,0,0,1-1.28-1.43,2.62,2.62,0,0,1,.91-1.86Z"/><path class="cls-4" d="M34.56,27a7.65,7.65,0,0,1-.81.05.18.18,0,1,1,0-.36,8,8,0,0,0,.82-.05v-.69a.18.18,0,0,1,.36,0v.65c.2,0,.4-.06.57-.1a.17.17,0,0,1,.23.16.21.21,0,0,1-.17.18l-.64.12v1a.76.76,0,0,1,0,.21,1.21,1.21,0,0,1-.16.65,1.24,1.24,0,0,0-.07.41c0,.21.14.37.81.37.86,0,1.2-.19,1.24-.85a.19.19,0,0,1,.2-.19.19.19,0,0,1,.2.21c-.07.91-.54,1.21-1.63,1.21-.89,0-1.18-.2-1.18-.63a1.36,1.36,0,0,1,0-.2.58.58,0,0,1-.19,0,.62.62,0,0,1-.6-.68.88.88,0,0,1,.76-1,.78.78,0,0,1,.22,0Zm-.37,1.82c.17,0,.38-.17.38-.59,0-.21-.12-.33-.24-.33s-.4.25-.4.58S34.06,28.81,34.19,28.81Zm2.32-2.14a.19.19,0,0,1,.2-.18.22.22,0,0,1,.13,0,3.62,3.62,0,0,1,.7.63.23.23,0,0,1,.07.16.19.19,0,0,1-.19.2.26.26,0,0,1-.17-.09,4.36,4.36,0,0,0-.64-.6A.21.21,0,0,1,36.51,26.67Z"/><path class="cls-4" d="M39.69,28.16a5.49,5.49,0,0,0,.21-.51.17.17,0,0,1,.15-.12.15.15,0,0,1,.15.15.13.13,0,0,1,0,.06,4.88,4.88,0,0,1-.33.78.27.27,0,0,1-.23.16.24.24,0,0,1-.23-.19,3,3,0,0,1-.1-.81,6.74,6.74,0,0,1,.18-1.45.19.19,0,0,1,.2-.17.17.17,0,0,1,.16.23,7.32,7.32,0,0,0-.19,1.35,3.19,3.19,0,0,0,0,.52ZM41.35,26a.2.2,0,0,1,.2.18,13.06,13.06,0,0,1,.11,1.58A2.67,2.67,0,0,1,40.6,30a.27.27,0,0,1-.16.06.18.18,0,0,1-.18-.17.26.26,0,0,1,.12-.2,2.39,2.39,0,0,0,.88-2,13,13,0,0,0-.1-1.55A.18.18,0,0,1,41.35,26Z"/><path class="cls-4" d="M45.76,29.37c0,.45-.39.74-.9.74s-.84-.24-.84-.62.29-.63.85-.63a2.92,2.92,0,0,1,.51,0,15.63,15.63,0,0,1-.1-1.86V26.8a.18.18,0,0,1,.36,0v.76a7.65,7.65,0,0,0,.87-.11c.15,0,.23.06.23.16a.18.18,0,0,1-.15.18,7,7,0,0,1-.93.12c0,.36,0,.72.08,1.08a4,4,0,0,1,1.06.51.19.19,0,0,1,.11.17.2.2,0,0,1-.19.2.19.19,0,0,1-.12,0,3.51,3.51,0,0,0-.84-.47Zm-.36-.11a1.93,1.93,0,0,0-.53-.07c-.37,0-.48.14-.48.3s.13.27.47.27.54-.15.54-.45Z"/><path class="cls-4" d="M49.26,27.74a.19.19,0,0,1-.19-.19.21.21,0,0,1,.14-.19A3.54,3.54,0,0,1,50.6,27c.68,0,1,.32,1,.94a2.67,2.67,0,0,1-1.06,2,.3.3,0,0,1-.14,0,.18.18,0,0,1-.19-.18.26.26,0,0,1,.1-.19A2.13,2.13,0,0,0,51.24,28c0-.4-.16-.57-.63-.57a3.2,3.2,0,0,0-1.25.32Zm2-1.58a.24.24,0,0,1,.15.2.18.18,0,0,1-.18.19l-.09,0a6.08,6.08,0,0,0-1.06-.31.18.18,0,0,1-.16-.18.19.19,0,0,1,.24-.18A5.32,5.32,0,0,1,51.27,26.16Z"/></g></g></svg>