<svg xmlns="http://www.w3.org/2000/svg" viewBox="0 0 63.37 71.51"><defs><style>.cls-1{fill:#e60012;}.cls-2{fill:#311a07;}.cls-3{fill:#508939;}.cls-4{fill:#fff;}</style></defs><g id="レイヤー_2" data-name="レイヤー 2"><g id="文字"><path class="cls-1" d="M31.05,17.48s-8.64.74-11.3.89c0,0-9.13-1.2-14.45,5.81S-3.33,48,5.3,58.62,20.75,72.49,26.4,71.15s11.13-.63,15.61.28S55.63,65,58.29,59.64s6.81-16.4,4.32-23.25-8.1-19.4-21.1-19S31.92,17.4,31.05,17.48Z"/><path class="cls-2" d="M33.34,24a9.45,9.45,0,0,0-4-.35s-1.66-6.26-2.66-7.36a13,13,0,0,1-1.83-3.72s.83-2.7,2-1.68,1.82,1.34,2.24,2.16S33.34,24,33.34,24Z"/><path class="cls-2" d="M27.44,15.61l.26-.33c.16-.21.4-.49.7-.82a17.93,17.93,0,0,1,2.37-2.22,10,10,0,0,1,1.46-.94,7.11,7.11,0,0,1,1.4-.54,5.2,5.2,0,0,1,.59-.1,1.81,1.81,0,0,1,.46,0h.39l-.38.07a2.27,2.27,0,0,0-.43.11,5.13,5.13,0,0,0-1.68,1A8.65,8.65,0,0,0,31.46,13a15.31,15.31,0,0,0-1.68,2.48c-.2.35-.36.65-.46.86l-.15.33Z"/><path class="cls-3" d="M34.4,10.66S33.34,3.16,40.13,1,56.32.67,57.63,1c0,0-1.31.74-1.39,1.25s-1.8,3.89-6.79,5.07S34.4,10.66,34.4,10.66Z"/><path class="cls-4" d="M22.47,36.77c0,.19-.1.28-.31.28H18.42a10.83,10.83,0,0,0,3.38,1.22.17.17,0,0,1,.14.14.23.23,0,0,1-.06.19l-.61.69L21,40c-.12.29-.27.44-.42.44a.71.71,0,0,1-.28-.08,5.62,5.62,0,0,1-3.12-3.29H14.68a7.66,7.66,0,0,1-4.79,2.79c-.27,0-.42,0-.45-.08s0-.16.17-.25a10.88,10.88,0,0,0,2.71-2.46H9.53c-.17,0-.25-.1-.25-.31s.08-.3.25-.3h3.18A6.72,6.72,0,0,0,13.3,35a.21.21,0,0,1,.28-.16l1.82.52a.34.34,0,0,1,.25.31c0,.17-.1.27-.3.29a.1.1,0,0,0-.09.06c0,.09-.1.23-.19.42H17a.19.19,0,0,1,0-.08.29.29,0,0,1,.07-.31c.07-.07.17,0,.31.08l.27.31h2.16l1-1a.4.4,0,0,1,.28-.14.42.42,0,0,1,.28.14l1,1A.55.55,0,0,1,22.47,36.77Zm-2.22-2.91c.05.79-.15,1.29-.59,1.5a1.19,1.19,0,0,1-.47.11.7.7,0,0,1-.68-.44,2,2,0,0,1,.08-1l-6.34.64a.1.1,0,0,0-.09.06.3.3,0,0,1-.27.19c-.15,0-.25-.1-.28-.3l-.3-1.71q0-.19.21-.18l1.69.07.17-2.09a.17.17,0,0,1,.23-.17l2.15.31c.26,0,.37.17.34.39a.32.32,0,0,1-.29.31.1.1,0,0,0-.1.07L15,32.84l3.6,0a8.6,8.6,0,0,0-.25-1.14.41.41,0,0,1,0-.16c0-.11,0-.17.14-.17a.51.51,0,0,1,.29.14A3.43,3.43,0,0,1,20.25,33.86ZM17,39.2a.24.24,0,0,1-.3,0s0,0-.08,0a7.13,7.13,0,0,1-3.53.67c-.06,0-.09,0-.11-.09a.11.11,0,0,1,.06-.13,13,13,0,0,0,2.61-1.88.18.18,0,0,1,.25,0l1.08,1C17.11,38.94,17.12,39.07,17,39.2Zm2,3.64a.5.5,0,0,1,.11.27.29.29,0,0,1-.17.25.33.33,0,0,1-.32,0,.1.1,0,0,0-.14,0,7.9,7.9,0,0,1-4.71,1c-.08,0-.12,0-.12-.1a.15.15,0,0,1,.11-.15,17.53,17.53,0,0,0,3.91-2.46.14.14,0,0,1,.23,0Zm-1.52-1.91a.31.31,0,0,1,.08.18c0,.21-.11.28-.31.2a.11.11,0,0,0-.08,0,6.25,6.25,0,0,1-3.37.81.11.11,0,0,1-.11-.12s0-.09.11-.13q.73-.45,1.29-.84a10.46,10.46,0,0,0,1.15-1,.18.18,0,0,1,.11-.05h.08l.05,0Z"/><path class="cls-4" d="M32.26,35.52l-.31.23a43.36,43.36,0,0,1-.3,5.9,2.18,2.18,0,0,1-.47,1.13,1.28,1.28,0,0,1-1.06.53c-.56,0-.92-.34-1.08-1-.07-.32-.22-.51-.44-.56L28,41.57c-.21,0-.31-.14-.3-.26s.11-.25.3-.25h1c.44,0,.68-.17.72-.5a40.56,40.56,0,0,0,.24-4.9H29a9.78,9.78,0,0,1-4.39,7.57.39.39,0,0,1-.4.1c-.16-.07-.19-.18-.1-.31a14.53,14.53,0,0,0,2.73-7.36H25a.28.28,0,0,1-.31-.31c0-.22.1-.33.31-.33H26.8q0-1,0-3.21a.23.23,0,0,1,.06-.16.25.25,0,0,1,.16-.06l1.93.09c.27,0,.39.15.37.43a.5.5,0,0,1-.14.27.62.62,0,0,0-.14.21L29,35h.89l.86-.83a.36.36,0,0,1,.28-.1.37.37,0,0,1,.28.1l1,.87A.27.27,0,0,1,32.26,35.52Zm6.53.45-.22.22,0,4.45c0,.58-.21.89-.64.92l-.93.08c-.25,0-.37-.07-.37-.28v-.69H35.13v.47a.51.51,0,0,1-.52.55l-1.08.1a.31.31,0,0,1-.26-.1.34.34,0,0,1-.11-.26V35.17c0-.18.1-.24.31-.17l1.66.57h1.34l.8-.82a.44.44,0,0,1,.28-.14.55.55,0,0,1,.32.14l.92.77C39,35.65,39,35.81,38.79,36ZM36.6,40V36.21H35.13V40Z"/><path class="cls-4" d="M53.81,34.91a.31.31,0,0,1,.11.22.36.36,0,0,1-.14.26l-.28.18c-.06.33-.11.62-.16.86a1.21,1.21,0,0,1-1.06,1.09l-.25,0A.59.59,0,0,1,51.4,37c0-.19-.2-.34-.56-.47l-.24-.08c-.15,0-.21-.12-.2-.2s.1-.17.28-.17h.52q.51,0,.51-.63H49.66V36a.58.58,0,0,1-.61.63l-.77.06c-.27,0-.4-.1-.4-.35v-.92H46.06a6.46,6.46,0,0,1-3.21,2.13.8.8,0,0,1-.5.06c-.14-.06-.12-.16.07-.3a6.61,6.61,0,0,0,1.86-1.89h-.75l0,.19c0,.18-.19.27-.53.29L42.1,36a.21.21,0,0,1-.18-.07.37.37,0,0,1-.07-.2L42,33c0-.17.1-.22.28-.16l1.39.46H44.9c0-.25,0-.52,0-.81H42.16a.26.26,0,0,1-.29-.28.26.26,0,0,1,.29-.3h2.78V31c0-.12.06-.18.18-.17l1.55.08c.27,0,.41.13.41.34a.33.33,0,0,1-.24.33.11.11,0,0,0-.06.1v.25h1.11V31a.13.13,0,0,1,.16-.14l1.49.08c.27,0,.4.13.39.34a.38.38,0,0,1-.21.33.11.11,0,0,0-.06.1v.25h.85l.62-.55a.5.5,0,0,1,.32-.13.61.61,0,0,1,.36.15l.83.61c.16.16.16.32,0,.45l-.25.2,0,1.05a.47.47,0,0,1-.5.49l-1,.11q-.33,0-.33-.24v-.17h-.86v1h2l.68-.59a.41.41,0,0,1,.58,0Zm-7.9,8.87a.34.34,0,0,1-.46.08.13.13,0,0,0-.12,0,8.78,8.78,0,0,1-2.91.47.15.15,0,0,1-.15-.08.11.11,0,0,1,0-.12,16.38,16.38,0,0,0,2.11-1.66.23.23,0,0,1,.35,0l1.11.86A.31.31,0,0,1,45.91,43.78Zm-1.08-9.89H43.67l-.1,1h1A5.28,5.28,0,0,0,44.83,33.89Zm6.55,3.84a.3.3,0,0,1,0,.48l-.25.23-.09,3c0,.46-.18.7-.52.73l-1.2.11c-.23,0-.35-.08-.35-.31v-.16H46.11a.35.35,0,0,1-.34.38l-1.38.17c-.22,0-.34-.07-.35-.3l-.12-4.68a.23.23,0,0,1,.1-.2.27.27,0,0,1,.23-.05l1.75.55h3.08l.8-.67a.41.41,0,0,1,.3-.13.38.38,0,0,1,.28.14Zm-2.31.56H46v.55h3Zm0,1.13h-3V40h3Zm0,1.19H46.08v.53H49Zm-1.11-6.72H46.66a4.06,4.06,0,0,1-.27,1h1.49Zm0-1.39H46.77c0,.32,0,.59-.05.81h1.17Zm4.46,11.27a.74.74,0,0,1-.39.64.55.55,0,0,1-.34.11,1,1,0,0,1-.85-.49c-.07-.1-.49-.51-1.25-1.22a.26.26,0,0,1-.09-.17c0-.15.08-.23.25-.25a2.83,2.83,0,0,1,1.7.2C52,42.93,52.35,43.32,52.35,43.77ZM50.57,32.5h-.91v.81h.88Z"/><path class="cls-4" d="M22.71,52.56a.27.27,0,0,1-.3.3H20.33l-.06,2.33h.26l.69-.72a.44.44,0,0,1,.28-.14.42.42,0,0,1,.3.14l.69.72a.47.47,0,0,1,.17.3c0,.21-.1.31-.3.31H10c-.19,0-.29-.1-.29-.31a.26.26,0,0,1,.29-.3h1.43l0-2.33H9.59a.27.27,0,0,1-.3-.3c0-.21.1-.31.3-.31h1.79l0-1.74a.17.17,0,0,1,.05-.13.2.2,0,0,1,.13,0l1.32,0c.26,0,.38.14.37.36A.32.32,0,0,1,13,51a.09.09,0,0,0,0,.11v1.11h.82V50.48c0-.13.06-.18.19-.17l1.31.07q.38,0,.36.36a.32.32,0,0,1-.17.29.11.11,0,0,0-.06.11v1.11h.83V50.48c0-.13.06-.18.18-.17l1.32.07q.38,0,.36.36A.32.32,0,0,1,18,51a.1.1,0,0,0-.07.11v1.11h.82l0-1.77c0-.13.07-.18.19-.17l1.32.09c.25,0,.37.15.36.38a.36.36,0,0,1-.19.28.11.11,0,0,0-.06.11l0,1.08h.26l.68-.71a.36.36,0,0,1,.57,0l.7.71A.43.43,0,0,1,22.71,52.56Zm-.57-4.15c0,.19-.1.28-.31.28h-9.2a8.05,8.05,0,0,1-2.85,2.59.26.26,0,0,1-.14,0c-.13,0-.19-.06-.19-.17A.37.37,0,0,1,9.5,51a20.2,20.2,0,0,0,1.14-2.91,21.62,21.62,0,0,0,.53-2.37c0-.17.13-.25.28-.21l2.09.42c.3.06.43.22.4.48a.36.36,0,0,1-.34.33.11.11,0,0,0-.1.08A9.11,9.11,0,0,1,13,48h6.28l1-1a.4.4,0,0,1,.28-.14.46.46,0,0,1,.3.14l1.09,1A.51.51,0,0,1,22.14,48.41ZM11.52,58.54a1.05,1.05,0,0,1-1.15.66.64.64,0,0,1-.61-.69A.67.67,0,0,1,10,58a3.28,3.28,0,0,0,.93-1.37.21.21,0,0,1,.26-.14.28.28,0,0,1,.25.19,2.33,2.33,0,0,1,.3,1.08A1.85,1.85,0,0,1,11.52,58.54Zm2.3-5.68H13l.06,2.33h.72Zm1.41,5.21a.79.79,0,0,1-.21.53.58.58,0,0,1-.48.25c-.23,0-.45-.23-.66-.7l-.42-1a.65.65,0,0,1,0-.11q0-.3.3-.24C14.73,57,15.23,57.43,15.23,58.07Zm1.05-5.21h-.83v2.33h.83ZM18.34,58a.84.84,0,0,1-.2.54.64.64,0,0,1-.49.25.54.54,0,0,1-.51-.43c-.14-.37-.32-.8-.55-1.28a.2.2,0,0,1,0-.11c0-.2.1-.28.31-.24C17.85,57,18.34,57.39,18.34,58Zm.36-5.16h-.8v2.33h.74ZM21.77,58a.94.94,0,0,1-.25.64.74.74,0,0,1-.58.3c-.29,0-.56-.28-.8-.84l-.48-1.21a.38.38,0,0,1,0-.13c0-.22.13-.31.38-.26a3.1,3.1,0,0,1,.92.34A1.36,1.36,0,0,1,21.77,58Z"/><path class="cls-4" d="M31.89,51.39c0,.21-.1.31-.3.31h-2.2v1.09l.12,0,.41,0c1.08,0,1.63.39,1.63,1.18a.6.6,0,0,1-.27.5.44.44,0,0,1-.3.11.63.63,0,0,1-.51-.24q-.33-.37-1.08-1.08v4.37a.65.65,0,0,1-.66.72l-.86.08a.41.41,0,0,1-.3-.09.31.31,0,0,1-.14-.26V54.3a9.25,9.25,0,0,1-2.51.91c-.05,0-.09,0-.12-.08a.15.15,0,0,1,0-.18c.29-.26.75-.69,1.37-1.29a9.64,9.64,0,0,0,1.24-1.48V51.7H25.38c-.18,0-.27-.1-.27-.31s.09-.3.27-.3h2.05v-4a.18.18,0,0,1,.22-.2l1.58.08c.3,0,.44.16.43.47a.44.44,0,0,1-.22.36.11.11,0,0,0-.06.11v3.16l.34,0,.7-.7a.46.46,0,0,1,.3-.14.4.4,0,0,1,.28.14l.71.72A.47.47,0,0,1,31.89,51.39Zm-5-2.27a.77.77,0,0,1-.16.48.5.5,0,0,1-.42.22.45.45,0,0,1-.4-.25,11.3,11.3,0,0,0-.77-1.11.24.24,0,0,1-.05-.14c0-.16.08-.23.24-.22Q26.91,48.19,26.91,49.12Zm5.14,0a.32.32,0,0,1-.38.12.17.17,0,0,0-.14,0l-1.41.52a.47.47,0,0,1-.17,0c-.15,0-.22-.06-.22-.17a.37.37,0,0,1,.06-.21l.85-1.33A.22.22,0,0,1,31,48l1,.71C32.16,48.78,32.17,48.92,32.05,49.09Zm8,5c0,.18-.08.29-.34.34l-2.07.43-.06,2.89c0,.48-.22.75-.64.8l-1,.12a.31.31,0,0,1-.34-.12.71.71,0,0,1-.1-.41l.06-2.86-3.32.67c-.13.06-.22,0-.26-.25a.27.27,0,0,1,.25-.34l3.35-.71.17-7.82c0-.15.08-.22.23-.21l1.74.17c.29,0,.43.19.41.47a.45.45,0,0,1-.25.38.09.09,0,0,0-.07.09l-.12,6.48.2,0,.57-.82a.38.38,0,0,1,.31-.2.54.54,0,0,1,.27.09l.83.58A.54.54,0,0,1,40,54.08Zm-5.4-1.47a.84.84,0,0,1-.18.54.62.62,0,0,1-.5.24.61.61,0,0,1-.54-.3c-.4-.65-.71-1.11-.92-1.38a.25.25,0,0,1-.06-.17c0-.18.09-.27.28-.26C34,51.37,34.64,51.81,34.64,52.61Zm.54-2.93a.78.78,0,0,1-.44.75.63.63,0,0,1-.28.08.57.57,0,0,1-.49-.3A13.88,13.88,0,0,0,33,48.85a.27.27,0,0,1-.06-.17c0-.2.1-.29.3-.28C34.54,48.49,35.18,48.92,35.18,49.68Z"/><path class="cls-4" d="M45.38,57.3a1.17,1.17,0,0,1-2.15.28,1.15,1.15,0,0,1-.12-.89,1.2,1.2,0,0,1,.55-.73,1.1,1.1,0,0,1,.89-.11,1.07,1.07,0,0,1,.72.55A1.13,1.13,0,0,1,45.38,57.3Zm2.59-10-2.69,7.25a.36.36,0,0,1-.48.25.33.33,0,0,1-.27-.45L46,46.81a1,1,0,0,1,.47-.67,1,1,0,0,1,.8-.12,1,1,0,0,1,.63.51A.94.94,0,0,1,48,47.33Z"/><path class="cls-4" d="M51.19,57.3a1.16,1.16,0,0,1-.55.71,1.18,1.18,0,0,1-1.72-1.32,1.22,1.22,0,0,1,.54-.73,1.13,1.13,0,0,1,.9-.11,1.12,1.12,0,0,1,.72.55A1.17,1.17,0,0,1,51.19,57.3Zm2.59-10-2.69,7.25a.37.37,0,0,1-.49.25.34.34,0,0,1-.27-.45l1.51-7.57a1,1,0,0,1,.47-.67,1,1,0,0,1,.8-.12,1,1,0,0,1,.67,1.31Z"/></g></g></svg>