<svg xmlns="http://www.w3.org/2000/svg" viewBox="0 0 218.39 246.15"><defs><style>.cls-1{fill:#fff000;}.cls-2{fill:#fff;}</style></defs><g id="レイヤー_2" data-name="レイヤー 2"><g id="レイヤー_1-2" data-name="レイヤー 1"><path class="cls-1" d="M28.15,46.38c-.1.47-.42.67-1,.61a1,1,0,0,0-.71.29,16.85,16.85,0,0,1-7.91,3.82c-.31.06-.48,0-.51-.28a.4.4,0,0,1,.13-.35,40.29,40.29,0,0,0,5.16-6.69c.26-.42.58-.53,1-.32l3.39,1.79A1.11,1.11,0,0,1,28.15,46.38Zm7.12-13.14a1,1,0,0,1-.62,1.07q-.16.06-.12.39l2.24,18.18q.57,4.53-3.53,5.56a1.78,1.78,0,0,1-2.38-1.31,2.34,2.34,0,0,0-2.52-1.59H27.8a.74.74,0,0,1-.85-.78c0-.37.2-.58.67-.64l2.52-.31a3.07,3.07,0,0,0,1.25-.36,1.24,1.24,0,0,0,.36-1.2L29.36,33.13c0-.34.1-.51.44-.53l4.29-.33a1.07,1.07,0,0,1,.78.26A1,1,0,0,1,35.27,33.24ZM48,44.3c-.55.87-.92,1.46-1.1,1.78a5.16,5.16,0,0,0-.76,1.84,1,1,0,0,1-.9,1,1.36,1.36,0,0,1-.62-.09,13.59,13.59,0,0,1-3.72-2.47,9.67,9.67,0,0,1-2.62-3.53,1,1,0,0,1,0-.78c.15-.25.41-.28.78-.1a22,22,0,0,0,8.71,1.84C48.12,43.85,48.19,44,48,44.3Z"/><path class="cls-1" d="M77.52,31a.89.89,0,0,1,.5.75.68.68,0,0,1-.38.77L76.31,33q-.81.92-3.41,3.53a1,1,0,0,1-.54.31c-.29,0-.43-.14-.41-.53l.51-3.58L55.38,34.85a7.71,7.71,0,0,1,.4,1.59,3.21,3.21,0,0,1-.84,2.8,2.27,2.27,0,0,1-1.45.69,1.94,1.94,0,0,1-1.36-.37,1.75,1.75,0,0,1-.68-1.21,2.16,2.16,0,0,1,.28-1.27A9.94,9.94,0,0,0,53,33a.5.5,0,0,1,.51-.54c.31,0,.72.35,1.23,1.18l17.35-2.18L73.4,29.9a.85.85,0,0,1,.66-.46,1.52,1.52,0,0,1,.73.11Zm1.09,15a.62.62,0,0,1-.61.79l-9.37,1.18L69,51q.39,3.36-2.52,4.1a1.91,1.91,0,0,1-2.35-.86,7.82,7.82,0,0,0-1-1.32,2.79,2.79,0,0,0-1.6-.24l-.44,0a.51.51,0,0,1-.61-.47c0-.36.19-.57.71-.63l2.15-.27c.85-.11,1.23-.53,1.13-1.27l-.19-1.58-9,1.12a.63.63,0,0,1-.8-.61.61.61,0,0,1,.62-.76L64.1,47.1,63.72,44c0-.32.11-.48.45-.5l1.69-.11,1.26-3.77L58.7,40.71a.58.58,0,0,1-.75-.55.6.6,0,0,1,.59-.76l8.92-1.12,1.21-1.55a.9.9,0,0,1,.56-.38,1,1,0,0,1,.68.23l2.88,1.55a.84.84,0,0,1,.38.59.73.73,0,0,1-.47.85l-1.23.53-3.4,3.33a.87.87,0,0,1,.54.78,2.51,2.51,0,0,1-.31,1.06l.16,1.28,5.17-.65L75,44.09a.91.91,0,0,1,.59-.41.94.94,0,0,1,.71.25l1.82,1.41A1.07,1.07,0,0,1,78.61,46ZM59,29.69a1.72,1.72,0,0,1-.25,1.14,1.18,1.18,0,0,1-.89.6,1,1,0,0,1-1-.42q-1.14-1.4-2.07-2.34a.5.5,0,0,1-.14-.29.46.46,0,0,1,.48-.57C57.57,27.7,58.85,28.32,59,29.69Zm6-1a1.66,1.66,0,0,1-.27,1.12,1.22,1.22,0,0,1-.91.63,1,1,0,0,1-1-.42,28.62,28.62,0,0,0-2-2.31.53.53,0,0,1-.14-.29c0-.36.11-.55.44-.57Q64.75,26.68,65,28.7Zm7.78-.77a.65.65,0,0,1-.74.36.49.49,0,0,0-.4.09l-3.29,1.77a1.05,1.05,0,0,1-.39.12q-.57.07-.63-.36a1,1,0,0,1,.1-.56l1.51-3.47c.09-.21.21-.33.37-.35a1.17,1.17,0,0,1,.42.12l2.74,1.43A.57.57,0,0,1,72.78,27.93Z"/><path class="cls-1" d="M110.18,30.33c0,.41-.13.63-.56.69l-9.16,1.15.82,6.55,3.09-.39,1.42-2a.81.81,0,0,1,.56-.38,1,1,0,0,1,.68.23l2.13,1.54a.88.88,0,0,1,.45.59.58.58,0,0,1-.55.75l-7.62,1,1.09,8.7,4-.5,1.8-2.31a.86.86,0,0,1,.56-.38.94.94,0,0,1,.68.22l2.3,1.8c.33.25.5.47.52.65.05.4-.13.63-.56.68l-23.55,3c-.43.06-.67-.14-.73-.59a.58.58,0,0,1,.56-.72l9.46-1.18-1.08-8.7-6.78.85a.58.58,0,0,1-.72-.59.56.56,0,0,1,.55-.72l6.78-.85-.82-6.55-5.57.7a18.33,18.33,0,0,1-4.2,6.7.47.47,0,0,1-.47.13.33.33,0,0,1-.21-.39,51.57,51.57,0,0,0,.73-12.61c0-.4.18-.61.61-.62l4.55-.13a.93.93,0,0,1,1,.76c.15.62-.12,1-.8,1.26a.13.13,0,0,0-.12.12,34,34,0,0,1-.7,3.39l5-.62-1-7.83c0-.31.09-.48.38-.49L99,22.83a1,1,0,0,1,1.18,1,1.07,1.07,0,0,1-.56,1,.13.13,0,0,0,0,.14l.74,5.95,4-.51,1.79-2.3a.87.87,0,0,1,.57-.38.9.9,0,0,1,.67.22l2.35,1.82C110,30,110.16,30.15,110.18,30.33Z"/><path class="cls-1" d="M125.9,24.37a.72.72,0,0,1,.3.51.59.59,0,0,1-.23.61l-.7.36q-.18.46-1.94,4.71a8.79,8.79,0,0,1,3.57,5.63,3.59,3.59,0,0,1-.38,2.4,2.18,2.18,0,0,1-2,1.14.78.78,0,0,1-.8-.67,1.21,1.21,0,0,0-.69-.88l-.82-.34c-.33-.07-.51-.18-.55-.31s.09-.25.4-.29l1-.12c.42,0,.66-.22.72-.5a3.91,3.91,0,0,0,0-.95,7.07,7.07,0,0,0-2.32-4.38c.16-2.12.3-4,.41-5.72l-1.75.22,2.18,17.4a1.47,1.47,0,0,1-1.2,1.86l-1.53.33c-.42.09-.65-.06-.7-.46l-2.54-20.56c-.06-.43.12-.6.51-.51l3.13.7,1.71-.22L122.8,23A.81.81,0,0,1,124,23Zm16.3-5.63c.33.24.35.53.08.88l-.59.73,1,9.73a1.32,1.32,0,0,1-1,1.63l-2.45.61c-.46.13-.72,0-.77-.48l-.14-1.08-4.53.57,1.35,9.45,3.41-.84A.56.56,0,0,1,139,40a.38.38,0,0,1,.22.36q-.06.87-4.41,3.49a43.32,43.32,0,0,1-4.43,2.4c0,.18-.22.42-.59.72a.58.58,0,0,1-.76-.35L127.21,43c-.18-.34-.06-.55.37-.63l3.06-.62-3.17-22.32a.47.47,0,0,1,.14-.48.51.51,0,0,1,.49-.15l4,.9,4.83-.6,1.62-2a1,1,0,0,1,.57-.34,1,1,0,0,1,.68.22Zm-5,1.72-4.87.61.55,3.85,4.73-.59Zm.55,5.22-4.7.59.54,3.75,4.56-.57Zm9.46,16.24c0,.83-.28,1.27-.82,1.33a1.45,1.45,0,0,1-.55-.06,14.17,14.17,0,0,1-5.52-2.69,11,11,0,0,1-3.58-4.91,1.06,1.06,0,0,1,0-.87c.17-.25.45-.23.82.06q3.63,2.85,10.82,3.08c.41,0,.63.13.65.33A15.59,15.59,0,0,0,147.25,41.92Zm.05-7.75a.71.71,0,0,1-.73.37.25.25,0,0,0-.24,0L143,36.63a1.11,1.11,0,0,1-.43.15c-.24,0-.38-.06-.41-.29a1.18,1.18,0,0,1,.07-.55l1.29-3.54q.24-.62.75-.3l2.83,1.11A.64.64,0,0,1,147.3,34.17Z"/><path class="cls-1" d="M176.78,16.46a1.09,1.09,0,0,1,.56.71.73.73,0,0,1-.41.8c-.19.05-.59.18-1.18.39q-1.09,1-3.5,3.31a1.09,1.09,0,0,1-.54.33c-.29,0-.42-.14-.41-.52l.24-3.28-16,2a5.35,5.35,0,0,1,.25,2.83,2.21,2.21,0,0,1-2.15,2.11,1.87,1.87,0,0,1-1.31-.36,1.63,1.63,0,0,1-.66-1.16,2.1,2.1,0,0,1,.25-1.26,10,10,0,0,0,1.28-4,.5.5,0,0,1,.51-.54q.4-.06,1.2,1.11l6.3-.79-.63-4.26a.38.38,0,0,1,.09-.33.47.47,0,0,1,.32-.16l4.56-.37a.79.79,0,0,1,1,.8.87.87,0,0,1-.38.8.22.22,0,0,0-.11.21l.33,2.66,4.87-.61,1.69-2a.81.81,0,0,1,.51-.3,1,1,0,0,1,.74.24Zm.57,8.11c.05.41-.14.63-.56.69l-23,2.88a.58.58,0,0,1-.75-.55.6.6,0,0,1,.59-.76l17.85-2.24,1.79-2.3a.79.79,0,0,1,1.24-.16L176.86,24C177.17,24.19,177.33,24.39,177.35,24.57ZM179.46,36l-.5,1.7q-.09,1.47-.36,3.18a1.76,1.76,0,0,1-1.19.49q-7.17.8-11.24-.19a22.38,22.38,0,0,1-6.68-3.23,13.89,13.89,0,0,1-4.62,5.84,1.22,1.22,0,0,1-.42.19c-.29,0-.37-.15-.24-.55A29.15,29.15,0,0,0,156,32.33c0-.45.15-.67.56-.68l3.68,0c.52,0,.8.22.83.65a.69.69,0,0,1-.36.66.29.29,0,0,0-.14.25,8.62,8.62,0,0,1-.38,2.71l1.86.69A9.53,9.53,0,0,0,164,37l-1.1-8.77a.33.33,0,0,1,.36-.42l3.91-.32a.69.69,0,0,1,.84.72.81.81,0,0,1-.29.68.23.23,0,0,0-.11.22l.34,2.65,2-.25,1.79-2.31a.91.91,0,0,1,.57-.38.92.92,0,0,1,.67.23l2.35,1.82a1.12,1.12,0,0,1,.49.65.56.56,0,0,1-.56.69l-7.19.9.5,4A53.26,53.26,0,0,0,179,35.49a.37.37,0,0,1,.39.08A.44.44,0,0,1,179.46,36Z"/><path class="cls-1" d="M65.32,111.25c.12.93-.34,1.46-1.37,1.59l-18.51,2.32q6.27,2.91,17.49,4a.82.82,0,0,1,.78.61,1.15,1.15,0,0,1-.19,1l-2.6,3.79-1,3.59c-.44,1.53-1.05,2.34-1.82,2.43a3.45,3.45,0,0,1-1.44-.21q-12.39-4-17.45-14.34l-12.24,1.53Q20.36,129,5,134.25c-1.3.43-2.07.39-2.29-.11-.15-.35.08-.79.7-1.34q8.2-7.26,11.87-13.85L1.46,120.67c-.83.11-1.31-.36-1.44-1.39s.23-1.52,1.06-1.63l15.72-2a33.5,33.5,0,0,0,2.05-7.5,1,1,0,0,1,1.3-1l9.3,1.43c.87.26,1.35.73,1.43,1.4s-.33,1.35-1.29,1.58a.48.48,0,0,0-.43.37,18.27,18.27,0,0,1-.67,2.2L37.94,113a.94.94,0,0,1-.13-.38,1.54,1.54,0,0,1,.12-1.59c.31-.41.85-.34,1.6.2.53.46,1,.92,1.51,1.38l10.68-1.34,4.2-5.41a2.06,2.06,0,0,1,1.31-.87,2,2,0,0,1,1.48.52l5.4,4.21C64.87,110.34,65.27,110.84,65.32,111.25Zm-12.8-13q1.13,5.85-2,7.81a5.37,5.37,0,0,1-2.25.83,3.45,3.45,0,0,1-3.6-1.75c-.46-.73-.54-2.42-.25-5.09l-31,7.12a.5.5,0,0,0-.43.36,1.45,1.45,0,0,1-1.2,1.1c-.77.1-1.3-.33-1.58-1.3L7.72,99A.82.82,0,0,1,8.6,98q.63,0,8.42-.66l-.45-10.49c0-.68.32-1,1.05-1L28.43,86c1.31,0,2,.62,1.94,1.72A1.65,1.65,0,0,1,29.1,89.5a.5.5,0,0,0-.43.36L26,96.43l17.83-2.08a39.26,39.26,0,0,0-2-5.51,2.29,2.29,0,0,1-.25-.75c-.07-.57.13-.88.59-.94a2.55,2.55,0,0,1,1.56.51Q51.41,92.45,52.52,98.21ZM39.65,126.67a1.16,1.16,0,0,1-1.46.34c-.11-.09-.24-.07-.38,0q-6.21,4.41-17.09,5.53c-.25,0-.45-.1-.6-.4a.57.57,0,0,1,.24-.66,67.11,67.11,0,0,0,11.76-10.92.88.88,0,0,1,1.23-.23l6,4.36C40.13,125.33,40.24,126,39.65,126.67ZM43.2,135a1.45,1.45,0,0,1,.5.81c.13,1.08-.34,1.48-1.43,1.2a.47.47,0,0,0-.38.05,31.28,31.28,0,0,1-16.15,6.12.57.57,0,0,1-.62-.56c0-.2.13-.43.47-.68,2.24-1.8,4.18-3.47,5.82-5a44.8,44.8,0,0,0,5.13-5.52.8.8,0,0,1,.51-.3,1.85,1.85,0,0,1,.4,0,.43.43,0,0,1,.24.09Zm8.7,8.52a2.19,2.19,0,0,1,.7,1.25,1.4,1.4,0,0,1-.69,1.35,1.54,1.54,0,0,1-1.54.27.57.57,0,0,0-.7.09q-7.52,6.6-22.67,8c-.41.05-.64-.07-.68-.38a.82.82,0,0,1,.45-.85,88.15,88.15,0,0,0,17.84-14.59c.36-.42.76-.41,1.18,0Z"/><path class="cls-1" d="M112.08,99.09l-1.4,1.36q2.4,19.14,2.19,29.4a11.08,11.08,0,0,1-1.63,5.87,6.47,6.47,0,0,1-4.94,3.3c-2.78.35-4.78-1.13-6-4.45-.56-1.55-1.4-2.39-2.52-2.51l-3-.33c-1.06-.13-1.61-.51-1.63-1.14-.06-.83.38-1.31,1.31-1.42l5-.63q3.26-.4,3.25-2.93a206.35,206.35,0,0,0-1.88-24.41l-5.11.64q1.41,23.14-17,40.24a2,2,0,0,1-2,.72c-.82-.27-1-.76-.66-1.49q10.38-20.76,8.92-38.13l-9,1.13A1.38,1.38,0,0,1,74.34,103a1.41,1.41,0,0,1,1.35-1.82L84.75,100q-.57-5.13-2-15.89a1.08,1.08,0,0,1,.21-.82,1,1,0,0,1,.74-.4l9.58-.73A1.72,1.72,0,0,1,95.41,84a2.3,2.3,0,0,1-.53,1.44,2.77,2.77,0,0,0-.56,1.14l1.19,12.05,4.41-.56,3.75-4.64a1.92,1.92,0,0,1,1.33-.64,2.13,2.13,0,0,1,1.46.29l5.34,3.74A1.34,1.34,0,0,1,112.08,99.09Zm32.58-1.8-.95,1.22,2.6,22c.36,2.9-.51,4.55-2.6,5l-4.52,1c-1.23.26-1.91-.12-2-1.16l-.43-3.41-7.27.91.29,2.33a2.49,2.49,0,0,1-2.22,3l-5.27,1.21a1.51,1.51,0,0,1-1.35-.34,1.82,1.82,0,0,1-.74-1.21l-3.88-31c-.11-.93.37-1.28,1.45-1l8.55,1.76,6.66-.83,3.45-4.53a2,2,0,0,1,1.31-.87,2.54,2.54,0,0,1,1.63.51l5,3.22C145.29,95.61,145.38,96.36,144.66,97.29Zm-8.35,21.28L134,99.81l-7.28.91L129,119.48Z"/><path class="cls-1" d="M218.38,89.94c.11.92-.32,1.45-1.3,1.58l-20.21,2.53A70.87,70.87,0,0,1,180,108.13a63.52,63.52,0,0,1-20.25,8.52c-.92.17-1.49.08-1.69-.26a1.3,1.3,0,0,1,.48-1.87l13-8.88a69.34,69.34,0,0,0,11.9-9.91l-23,2.88c-1.19.15-1.84-.27-2-1.25s.4-1.62,1.59-1.77l16.81-2.11-1.22-9.69L165.92,85c-1,.13-1.53-.33-1.66-1.36A1.32,1.32,0,0,1,165.55,82l9.75-1.22-1.39-11.16c-.09-.72.2-1.1.88-1.13l9.43-.72a1.81,1.81,0,0,1,2.2,1.86,2.48,2.48,0,0,1-1,2,.66.66,0,0,0-.24.58l.9,7.21.46-.06,3.05-3.92a2.2,2.2,0,0,1,1.38-1,2,2,0,0,1,1.49.6l2.89,2.39c.92-2.27,1.86-4.88,2.8-7.83.22-.71.66-1,1.31-.79l8.07,2.21c1.12.18,1.74.7,1.85,1.58a2.2,2.2,0,0,1-1.07,2.18,7.63,7.63,0,0,0-1.22.94,48.56,48.56,0,0,1-7.42,14.87l5.19-.65L209,84.66a2,2,0,0,1,1.31-.88,2.11,2.11,0,0,1,1.56.52l5.39,4.13A2.56,2.56,0,0,1,218.38,89.94Zm-7.32,18.23a1.22,1.22,0,0,1,.25,2L210,111.77l1.68,15.93q.28,3-2,3.47l-5.52,1.17c-1.07.24-1.66-.13-1.79-1.12l-.27-2.16-9.37,1.17.24,1.31a1.49,1.49,0,0,1-1.33,1.9l-6.2,1.4c-1.27.27-2-.35-2.19-1.85L180,109.71c-.1-.83.2-1.29.93-1.38a.91.91,0,0,1,.32,0l9,1.87,9.29-1.16,3.79-4.34a1.51,1.51,0,0,1,2.41-.22ZM193.65,81.54l-7.2.9,1.08,8.69A56.3,56.3,0,0,0,193.65,81.54ZM200.3,112l-9.91,1.24.74,5.34,9.68-1.21Zm.89,8.39-9.6,1.2.77,5.58,9.45-1.19Z"/><path class="cls-1" d="M80.18,178.77a1.41,1.41,0,0,1-1.34,1.82l-16.11,2,.27,2.17a2.08,2.08,0,0,1-2,2.61l-5.41.84a1.05,1.05,0,0,1-.81-.22,1.06,1.06,0,0,1-.41-.73l-.37-3.58-9.13,1.15.38,2.39a2.05,2.05,0,0,1-1.88,2.6l-5.37,1.06c-.77.15-1.2-.13-1.29-.86l-.52-4.11-14,1.76a1.64,1.64,0,1,1-.41-3.25l13.94-1.75L35,177.43a1.08,1.08,0,0,1,.21-.82,1.11,1.11,0,0,1,.74-.41l6.93-.55a2.28,2.28,0,0,1,1.61,4,.57.57,0,0,0-.24.58l.16,1.32,9.29-1.16-.53-4.9c-.09-.72.26-1.1,1-1.15l7-.32a2,2,0,0,1,2.38,2.06c.07.57-.31,1.27-1.15,2.11a.55.55,0,0,0-.11.41l.09.7,6.27-.79,3.26-4.11a2.23,2.23,0,0,1,1.45-1,2.15,2.15,0,0,1,1.57.59l4.18,3.25A2.41,2.41,0,0,1,80.18,178.77Zm7.69,38.17-2,3.31a9.53,9.53,0,0,0-1.31,3.32c-.18,2-.81,3-1.89,3.14a4.54,4.54,0,0,1-1.27-.07Q70.91,224.74,63,213.91l-10.92,1.37q-3.57,6-11.81,10.61a56.75,56.75,0,0,1-15,5.74c-.72.14-1.2.1-1.43-.13-.41-.32-.28-.73.39-1.24Q34.59,223,39.41,216.87l-16.34,2a1.44,1.44,0,0,1-1.83-1.42,1.42,1.42,0,0,1,1.43-1.76L42,213.31A38.5,38.5,0,0,0,46,206.92l-2.17.27a1.58,1.58,0,0,1-1.32,2L36,210.77c-1.12.3-1.74-.1-1.88-1.18l-2.56-17.32a1.17,1.17,0,0,1,.34-1,1.22,1.22,0,0,1,1.06-.32l8.93,1.55,18.9-2.37,2.7-2.93a2.26,2.26,0,0,1,1.49-.66,1.59,1.59,0,0,1,1.46.37l5,2.91a1.41,1.41,0,0,1,.29,2.33l-1,1.23.91,9.8c.18,1.82-.4,2.86-1.73,3.13l-6.07,1.16a1.46,1.46,0,0,1-1.25-.24,1.34,1.34,0,0,1-.57-1.11l-.07-1.17-14.09,1.77,7.19.9c1,.15,1.49.6,1.59,1.38A10.91,10.91,0,0,1,55,211.69l6.12-.76a2.46,2.46,0,0,1-.35-.9.75.75,0,0,1,.52-.86c.2-.08,1.2.38,3,1.36l10.14-1.27,3.25-4.19a2.25,2.25,0,0,1,1.45-1,2.19,2.19,0,0,1,1.57.59L84.86,208a2.4,2.4,0,0,1,1,1.44,1.44,1.44,0,0,1-1.42,1.83L70.07,213A52.15,52.15,0,0,0,87,215.4c.73,0,1.12.15,1.17.56A1.77,1.77,0,0,1,87.87,216.94ZM73.1,225.25a1.24,1.24,0,0,1,.73.85c0,.36-.18.81-.69,1.34l-.49.54q.24,5.72.11,7.15-.65,7.4-7.28,7.84c-1.25.05-2.31-.8-3.19-2.56s-1.68-2.66-2.42-2.72l-1.67-.11c-.79-.06-1.28-.36-1.45-.92q-.37-1.12,1.17-1.32l2.4-.3c1.19-.15,1.88-.95,2.06-2.39a28.9,28.9,0,0,0-.13-3.6l-5.66.7q-.63,10.63-17.25,16.1c-1,.33-1.61.39-2,.17s-.23-.79.53-1.41q8.61-7.29,9-13.64l-7.66,1c-1,.12-1.54-.33-1.67-1.37a1.32,1.32,0,0,1,1.29-1.66l8-1c0,.16,0-.23-.15-1.16-.09-1.09-.22-2.38-.41-3.88-.09-.73.13-1.09.65-1.11l8.19-.55c1.35-.12,2,.3,2,1.24a1.54,1.54,0,0,1-.54,1.33.57.57,0,0,0-.24.58c.09.72.16,1.5.21,2.33l5.5-.69,3.27-3.4a2.13,2.13,0,0,1,2.56-.32ZM60.67,193.19,42,195.53l.42,2.78L61,196Zm.65,5.82-18.43,2.31.44,2.86,18.27-2.29Z"/><path class="cls-1" d="M153.32,176.77a1.38,1.38,0,0,1-1.36,1.74l-17.58,2.21.44,4.11,6-.75,2.24-2.8a2.11,2.11,0,0,1,1.39-.89,2,2,0,0,1,1.48.53l2.8,2.24c.75.59,1.15,1,1.19,1.35.12,1-.33,1.54-1.37,1.67l-13.39,1.68.51,4.74,5.5-.69,2.17-2.8a2.09,2.09,0,0,1,1.38-.88,2,2,0,0,1,1.48.52l2.88,2.24c.69.55,1.07,1,1.11,1.36.13,1-.33,1.53-1.36,1.66l-12.78,1.61.54,5,8.44-1.06,3.13-3.93a2.11,2.11,0,0,1,1.38-.89,2,2,0,0,1,1.49.53l3.92,3a2.29,2.29,0,0,1,1,1.44c.13,1-.33,1.54-1.36,1.67l-34.85,4.37a2.33,2.33,0,0,1-1.69,2.81l-6.2,1.4c-1.12.25-1.77-.3-1.94-1.64l-2.57-18.1A44.57,44.57,0,0,1,98,196.69a1,1,0,0,1-.52.23.69.69,0,0,1-.87-.68,1.19,1.19,0,0,1,.21-.82q7.68-13.39,9.9-24.54a1.36,1.36,0,0,1,1.75-1.16l9.34,2.37a1.79,1.79,0,0,1,1.84,2.13c0,.95-.63,1.49-1.76,1.64a31.56,31.56,0,0,0-2.4,4.08l25.63-3.22,3.5-4.69a2,2,0,0,1,1.31-.87,2.07,2.07,0,0,1,1.56.51l4.79,3.73A2.39,2.39,0,0,1,153.32,176.77Zm9.29,34a1.31,1.31,0,0,1-1.29,1.66l-24,3,.17,1.4q7.35,2.14,22.21.2c.51-.06.84,0,1,.28a1.32,1.32,0,0,1-.09,1.11c-1.71,4-2.45,6.62-2.24,7.88a1.64,1.64,0,0,1-1.62,2.13q-3.72.47-9.9-2.38a41.45,41.45,0,0,1-8.85-5.43l1,8.37q.57,4.57-2.74,5.15l-5.38,1a1.75,1.75,0,0,1-2.26-1.76l-.87-6.9q-7.47,6.21-19.66,8.21c-.66.14-1.08.11-1.26-.08-.6-.6-.52-1.19.25-1.76Q121,222.4,124.23,217.1l-21.53,2.7a1.32,1.32,0,0,1-1.66-1.29,1.35,1.35,0,0,1,1.28-1.73l23.93-3-.69-5.51c-.09-.72.2-1.1.88-1.13l9.12-.67a1.8,1.8,0,0,1,2.2,1.85,2,2,0,0,1-.79,1.83.51.51,0,0,0-.26.51l.23,1.78,13.55-1.7,3.42-4.68a2,2,0,0,1,1.31-.88,2.1,2.1,0,0,1,1.56.52l4.86,3.64A2.25,2.25,0,0,1,162.61,210.79ZM124.55,182l-8.06,1,.6,4.1,8-1Zm.81,7.14-7.82,1,.67,4.72,7.75-1Zm.9,7.76-7.59,1,.69,4.95,7.52-.94ZM138.2,172a1.36,1.36,0,0,1-1,.68,2.48,2.48,0,0,1-1-.11,1,1,0,0,0-.54.06L127,176.75a4.16,4.16,0,0,1-.84.19c-.83.1-1.28-.16-1.35-.77a2.22,2.22,0,0,1,.31-1.3L129,167a1.31,1.31,0,0,1,1.95-.72l6.64,3.42a1.28,1.28,0,0,1,.84,1A1.64,1.64,0,0,1,138.2,172Z"/><path class="cls-1" d="M193.57,165.42,194.78,204a1.79,1.79,0,0,1-1.79,2,1.66,1.66,0,0,1-2.08-1.55l-7.25-37.83a5.14,5.14,0,0,1,4.36-6,4.95,4.95,0,0,1,5.55,4.81Zm6.77,51a5.85,5.85,0,1,1-11.61,1.45,5.77,5.77,0,0,1,1.14-4.39,5.94,5.94,0,0,1,8.28-1A5.75,5.75,0,0,1,200.34,216.38Z"/><path class="cls-2" d="M15,77.29a14.54,14.54,0,0,1-2.78-3A35.85,35.85,0,0,1,7.7,75.43.53.53,0,0,1,7.06,75a.5.5,0,0,1,.44-.59c1.3-.25,2.72-.6,4.09-1a20,20,0,0,1-1.19-2.42.54.54,0,0,1,.48-.73.58.58,0,0,1,.64.39A18.74,18.74,0,0,0,12.65,73a29,29,0,0,0,3.15-1.22.85.85,0,0,1,.24-.08.49.49,0,0,1,.57.44.56.56,0,0,1-.35.61,31.28,31.28,0,0,1-3,1.19,18.46,18.46,0,0,0,3.1,3.28.75.75,0,0,1,.3.5.64.64,0,0,1-.59.71.82.82,0,0,1-.27,0,10.44,10.44,0,0,0-3.48-.14c-1.9.24-2.66,1-2.54,1.92s1.21,1.55,3.39,1.27c.61-.07,1.16-.17,1.62-.27a.53.53,0,0,1,.68.47.56.56,0,0,1-.45.63,14.13,14.13,0,0,1-1.67.3C10.47,83,8.8,82,8.61,80.4c-.18-1.4.69-2.76,3.55-3.12a9.32,9.32,0,0,1,2.79,0Z"/><path class="cls-2" d="M44,72.86a3,3,0,0,1,1.84-1c1.14-.15,1.91.59,2.29,2.72.28,1.63.72,2,1.5,2s1.61-.75,2-2.4a.6.6,0,0,1,.5-.5.55.55,0,0,1,.61.5.88.88,0,0,1,0,.27c-.51,2.2-1.59,3.06-3,3.24s-2.33-.51-2.73-2.81c-.27-1.63-.64-2-1.35-1.93-.93.11-1.89,1.37-2.48,3.07-.16.48-.42,1.35-.65,2a.7.7,0,0,1-.56.5.53.53,0,0,1-.6-.46,1,1,0,0,1,0-.32c1-3.53,2.35-7.62,3.51-10.71a.59.59,0,0,1,.49-.42A.57.57,0,0,1,46,67a.71.71,0,0,1,0,.34l-2,5.5Z"/><path class="cls-2" d="M102.73,70.19a.64.64,0,0,1-.51.43.53.53,0,0,1-.6-.44.68.68,0,0,1,.06-.36,25.11,25.11,0,0,0,1.58-6.44c-.71.19-1.44.42-2.06.65l-.16,0a.48.48,0,0,1-.54-.43.61.61,0,0,1,.42-.63,23.25,23.25,0,0,1,2.45-.73,28,28,0,0,0,.11-2.89.56.56,0,0,1,.49-.62.54.54,0,0,1,.63.57,24.75,24.75,0,0,1-.08,2.71,11.11,11.11,0,0,1,1.13-.19c1.69-.21,2.47.43,2.76,2.75a12.41,12.41,0,0,1-.08,3.84,2.28,2.28,0,0,1-2.11,2.1,5,5,0,0,1-.87,0,.53.53,0,0,1-.53-.49.54.54,0,0,1,.58-.64,2.61,2.61,0,0,0,.63,0,1.22,1.22,0,0,0,1.18-1.14,12,12,0,0,0,.07-3.53c-.22-1.76-.59-2-1.48-1.91-.43.06-.89.15-1.38.24A28.23,28.23,0,0,1,102.73,70.19Zm10.24-7a.67.67,0,0,1,.12.33.65.65,0,0,1-.54.74.6.6,0,0,1-.59-.34A12.42,12.42,0,0,0,109.43,61a.57.57,0,0,1-.22-.36.55.55,0,0,1,.5-.59.69.69,0,0,1,.48.13A13.22,13.22,0,0,1,113,63.16Z"/><path class="cls-2" d="M163.13,52.05a.6.6,0,0,1,1.2-.08c.1,2.12.32,4.94.61,7.29.27,2.14,1,2.75,2.27,2.59A5.47,5.47,0,0,0,171.16,59a.68.68,0,0,1,.49-.33.55.55,0,0,1,.63.46.8.8,0,0,1-.14.53A6.6,6.6,0,0,1,167.4,63c-2.11.26-3.28-.68-3.65-3.62C163.46,57,163.22,54.23,163.13,52.05Z"/><path class="cls-2" d="M198.76,53.9c-.55.31-1.15.67-1.81,1.08l-.22.07a.5.5,0,0,1-.56-.45.6.6,0,0,1,.33-.57c.66-.4,1.25-.74,1.81-1.06l-1-2.11a.75.75,0,0,1-.05-.16c0-.28.23-.48.49-.51a.49.49,0,0,1,.53.26l1,2A13.2,13.2,0,0,1,203.59,51c1.76-.22,2.85.53,3,1.82a2.26,2.26,0,0,1-2.17,2.56,5.08,5.08,0,0,1-1.33,0,.6.6,0,0,1-.53-.49.54.54,0,0,1,.62-.6,4.64,4.64,0,0,0,1,0c1-.12,1.41-.5,1.3-1.36s-.59-1.1-1.81-.95a11.6,11.6,0,0,0-4,1.46l2.6,5.35a.61.61,0,0,1,.06.21.53.53,0,0,1-.46.57.51.51,0,0,1-.54-.31Zm3.9-3.85a.5.5,0,0,1-.42.57.54.54,0,0,1-.41-.12,14.33,14.33,0,0,0-1.5-.84.43.43,0,0,1-.27-.35.51.51,0,0,1,.43-.56.74.74,0,0,1,.32,0,8.48,8.48,0,0,1,1.57.83A.58.58,0,0,1,202.66,50.05Z"/><path class="cls-2" d="M41.44,158.28a.54.54,0,0,1,.62.61,33.27,33.27,0,0,0,.13,6.59,23.09,23.09,0,0,0,.82,3.77.59.59,0,0,1-.46.8.6.6,0,0,1-.65-.45,23.59,23.59,0,0,1-.84-3.93,35,35,0,0,1-.13-6.84A.57.57,0,0,1,41.44,158.28ZM49,159.72c.07.55.14,1.11.23,1.66.64-.15,1.25-.32,1.78-.49a.51.51,0,0,1,.73.42.53.53,0,0,1-.38.56,17.74,17.74,0,0,1-2,.55c.15,1,.35,2,.57,3a12.4,12.4,0,0,1,2.69,1,.6.6,0,0,1,.37.46.56.56,0,0,1-.48.62.67.67,0,0,1-.4-.08,13.34,13.34,0,0,0-2-.87,2.39,2.39,0,0,1-2.35,2.56c-1.58.2-2.58-.32-2.74-1.6-.13-1,.7-2,2.51-2.23a6.26,6.26,0,0,1,1.3,0c-.18-.86-.35-1.71-.49-2.57-.72.13-1.42.25-2,.33s-.79.09-1.16.11a.53.53,0,1,1-.05-1.05l1-.1c.61-.08,1.31-.19,2-.33-.07-.58-.16-1.16-.24-1.76l0-.32c-.62.12-1.27.22-1.94.3-.31,0-.53.07-.92.09a.53.53,0,1,1-.05-1l.84-.08a20.42,20.42,0,0,0,3.74-.77.52.52,0,0,1,.35,1c-.3.11-.65.2-1,.29Zm.06,6.51a4.61,4.61,0,0,0-1.37-.06c-1.17.15-1.61.61-1.55,1.15s.55.87,1.53.75A1.44,1.44,0,0,0,49,166.26Zm.52-9.51a.42.42,0,0,1,.38-.45.48.48,0,0,1,.44.17A8,8,0,0,1,51.47,158a.75.75,0,0,1,.07.23.46.46,0,0,1-.38.54.45.45,0,0,1-.46-.26A9.14,9.14,0,0,0,49.64,157,.58.58,0,0,1,49.54,156.72Zm1.5-.88a.42.42,0,0,1,.37-.44.56.56,0,0,1,.45.17A8.83,8.83,0,0,1,53,157.08a.7.7,0,0,1,.08.23.48.48,0,0,1-.39.53.4.4,0,0,1-.41-.22,10.9,10.9,0,0,0-1.13-1.54A.49.49,0,0,1,51,155.84Z"/><path class="cls-2" d="M93.12,152a.6.6,0,0,1,1.2-.07c.1,2.12.32,4.93.61,7.29.27,2.14,1,2.75,2.28,2.59a5.5,5.5,0,0,0,3.94-2.87.66.66,0,0,1,.49-.34.56.56,0,0,1,.63.47.82.82,0,0,1-.14.53A6.62,6.62,0,0,1,97.4,163c-2.12.27-3.29-.67-3.66-3.61C93.45,157,93.21,154.21,93.12,152Z"/><path class="cls-2" d="M117.6,156.56a6.73,6.73,0,0,1,1-2.26,5.61,5.61,0,0,1,2.92-2.26c-.1-.51-.23-1-.38-1.52a.47.47,0,0,1,.42-.63.53.53,0,0,1,.59.37c.15.52.28,1,.39,1.55a3.23,3.23,0,0,1,3.65,2.95c.26,2.07-1.1,3.55-3.27,3.82l-.32,0a6,6,0,0,1-1.31,2.06.66.66,0,0,1-.4.21.49.49,0,0,1-.55-.4.62.62,0,0,1,.2-.48,4.82,4.82,0,0,0,1.06-1.54,3,3,0,0,1-1.68-1.12.65.65,0,0,1-.09-.24.46.46,0,0,1,.41-.51.48.48,0,0,1,.46.22,2.08,2.08,0,0,0,1.18.74,9,9,0,0,0,0-3c-.07-.53-.14-1.07-.23-1.62a4.74,4.74,0,0,0-2.36,1.95,6.7,6.7,0,0,0-1.08,2.49,2.2,2.2,0,0,0-.08.8,2.45,2.45,0,0,0,.09.44.5.5,0,0,1-.48.54.48.48,0,0,1-.54-.29,10.82,10.82,0,0,1-.78-3,18.33,18.33,0,0,1-.05-3.56.51.51,0,0,1,.47-.48.47.47,0,0,1,.56.51,20.71,20.71,0,0,0,0,3.38c0,.29.08.52.14.81Zm5.33-2.11a9.66,9.66,0,0,1-.06,3.16,2.37,2.37,0,0,0,2.23-2.72,2.17,2.17,0,0,0-2.41-2.13C122.77,153.32,122.86,153.9,122.93,154.45Z"/><path class="cls-2" d="M140.7,150.89a.57.57,0,0,1-.63-.49.63.63,0,0,1,.34-.64,11,11,0,0,1,4-1.5c2-.25,3.21.57,3.44,2.42a7.93,7.93,0,0,1-2.38,6.45.72.72,0,0,1-.41.2.53.53,0,0,1-.63-.46.67.67,0,0,1,.24-.58,6.49,6.49,0,0,0,2-5.47c-.14-1.17-.67-1.62-2.08-1.44a9.48,9.48,0,0,0-3.59,1.4A.75.75,0,0,1,140.7,150.89Zm5.38-5.45a.65.65,0,0,1,.52.54.55.55,0,0,1-.47.62.66.66,0,0,1-.27,0,17.93,17.93,0,0,0-3.26-.52.54.54,0,0,1-.55-.47.59.59,0,0,1,.66-.64A14.79,14.79,0,0,1,146.08,145.44Z"/><path class="cls-2" d="M16.64,18a.48.48,0,0,1,1-.05c.07,1.69.25,3.94.48,5.82.22,1.71.81,2.19,1.82,2.07a4.39,4.39,0,0,0,3.15-2.29.53.53,0,0,1,.39-.27.44.44,0,0,1,.51.37.65.65,0,0,1-.12.42,5.22,5.22,0,0,1-3.78,2.69c-1.69.21-2.63-.54-2.92-2.89C16.9,22,16.71,19.73,16.64,18Z"/><path class="cls-2" d="M33.05,23.72c.13,1.06-.7,1.85-1.91,2s-2.08-.3-2.2-1.22c-.09-.7.5-1.57,1.85-1.74a7,7,0,0,1,1.21,0,40,40,0,0,1-.79-4.4l-.07-.58a.43.43,0,0,1,.85-.11l.08.61c0,.42.1.82.16,1.21a15.62,15.62,0,0,0,2-.53.41.41,0,0,1,.6.32.42.42,0,0,1-.3.46,12.44,12.44,0,0,1-2.18.57c.13.85.31,1.7.51,2.54a9.49,9.49,0,0,1,2.68.89.47.47,0,0,1,.31.38.46.46,0,0,1-.38.52.47.47,0,0,1-.3-.06A8.74,8.74,0,0,0,33,23.69Zm-.9-.18a5.89,5.89,0,0,0-1.26,0c-.88.11-1.12.46-1.07.83s.39.62,1.21.51,1.23-.52,1.14-1.23Z"/><path class="cls-2" d="M41.09,18.77a.46.46,0,0,1-.51-.39.51.51,0,0,1,.28-.51,8.71,8.71,0,0,1,3.19-1.2c1.63-.2,2.57.46,2.75,1.93a6.34,6.34,0,0,1-1.9,5.16.57.57,0,0,1-.33.16.44.44,0,0,1-.51-.37.57.57,0,0,1,.2-.46,5.2,5.2,0,0,0,1.59-4.37c-.12-.94-.54-1.3-1.66-1.15a7.39,7.39,0,0,0-2.87,1.11A.48.48,0,0,1,41.09,18.77Zm4.3-4.35a.51.51,0,0,1,.41.43.44.44,0,0,1-.59.47,14.45,14.45,0,0,0-2.6-.41.45.45,0,0,1-.45-.38.47.47,0,0,1,.53-.51A12.09,12.09,0,0,1,45.39,14.42Z"/><path class="cls-2" d="M59.33,21.2a.51.51,0,0,1-.4.34.41.41,0,0,1-.48-.35.49.49,0,0,1,0-.28,20.78,20.78,0,0,0,1.26-5.15,16.86,16.86,0,0,0-1.65.52l-.13,0a.38.38,0,0,1-.43-.35.47.47,0,0,1,.34-.5,18.28,18.28,0,0,1,2-.58,19.91,19.91,0,0,0,.09-2.31.46.46,0,0,1,.4-.5.44.44,0,0,1,.5.46c0,.71,0,1.43-.07,2.16.33-.07.63-.11.9-.15,1.36-.17,2,.35,2.21,2.2a10.31,10.31,0,0,1-.06,3.07,1.82,1.82,0,0,1-1.69,1.67,3.29,3.29,0,0,1-.7,0,.42.42,0,0,1-.42-.4.43.43,0,0,1,.47-.5,2.75,2.75,0,0,0,.5,0,1,1,0,0,0,.94-.91A9.36,9.36,0,0,0,63,16.87c-.17-1.41-.46-1.61-1.18-1.52-.34,0-.71.11-1.09.18A22.65,22.65,0,0,1,59.33,21.2Zm8-5.48a.62.62,0,0,1,.09.27.51.51,0,0,1-.43.58.47.47,0,0,1-.47-.26,9.59,9.59,0,0,0-2-2.32.49.49,0,0,1-.18-.29.45.45,0,0,1,.4-.48.6.6,0,0,1,.39.11A10.73,10.73,0,0,1,67.35,15.72ZM65,11.79a.36.36,0,0,1,.32-.38.37.37,0,0,1,.26.06,6.48,6.48,0,0,1,1.19,1,.46.46,0,0,1,.13.26.36.36,0,0,1-.31.41.34.34,0,0,1-.32-.13,8.56,8.56,0,0,0-1.12-1A.38.38,0,0,1,65,11.79Zm1-1a.36.36,0,0,1,.32-.37.35.35,0,0,1,.27.06,7,7,0,0,1,1.16,1,.53.53,0,0,1,.13.26.36.36,0,0,1-.3.41.35.35,0,0,1-.29-.12,10.21,10.21,0,0,0-1.14-1A.35.35,0,0,1,66,10.78Z"/><path class="cls-2" d="M75.45,9.9a.48.48,0,0,1,.55.4.53.53,0,0,1-.06.31,27.73,27.73,0,0,1-2.27,3.71.93.93,0,0,0-.24.71,1.23,1.23,0,0,0,.52.71c1,.86,2.34,2.08,3.4,3.18a.65.65,0,0,1,.19.39.51.51,0,0,1-.43.58.62.62,0,0,1-.54-.25,38.57,38.57,0,0,0-3.28-3.25,2,2,0,0,1-.79-1.23,1.74,1.74,0,0,1,.41-1.3,19.44,19.44,0,0,0,2.16-3.67A.48.48,0,0,1,75.45,9.9Z"/><path class="cls-2" d="M95.83,10.36,98,10a.42.42,0,0,1,.54.36.41.41,0,0,1-.35.47l-2.28.42A12.18,12.18,0,0,1,96,13.06a1.31,1.31,0,0,1-1.31,1.41,3.38,3.38,0,0,1-.63,0,.44.44,0,0,1-.43-.39.4.4,0,0,1,.47-.45,3.7,3.7,0,0,0,.46,0c.36,0,.52-.17.54-.56A10.36,10.36,0,0,0,95,11.37L91.58,12l0,.36c.14,1.1.31,2.14.46,3s.55,1.08,1.65.94a14.23,14.23,0,0,0,3-.7.45.45,0,1,1,.32.83,13.42,13.42,0,0,1-3.26.75c-1.62.21-2.39-.33-2.64-1.6-.18-.93-.32-1.93-.47-3.06l0-.32-2.15.45a.42.42,0,0,1-.54-.35.43.43,0,0,1,.36-.48l2.23-.47-.27-2.16a.41.41,0,0,1,.4-.47.41.41,0,0,1,.5.36l.26,2.1c1.16-.23,2.31-.46,3.47-.67l-.29-2.32a.4.4,0,0,1,.4-.46.41.41,0,0,1,.5.34Z"/><path class="cls-2" d="M102.77,7.78a.44.44,0,0,1,.53.45c0,.35,0,.62.09,1,.49,4,1.57,5.2,2.11,5.13.31,0,.59-.4.75-1.29a.47.47,0,0,1,.39-.43.46.46,0,0,1,.51.41.77.77,0,0,1,0,.21c-.27,1.41-.87,2-1.47,2.1-1.34.17-2.69-1.64-3.23-6-.06-.54-.08-.88-.1-1.18A.47.47,0,0,1,102.77,7.78Zm9.11,3.67a.77.77,0,0,1,.05.19.48.48,0,0,1-.4.58.51.51,0,0,1-.51-.32A7.48,7.48,0,0,0,108.64,9a.48.48,0,0,1-.21-.32.44.44,0,0,1,.4-.46.64.64,0,0,1,.36.09A7.39,7.39,0,0,1,111.88,11.45Z"/><path class="cls-2" d="M121.51,4.76a.46.46,0,0,1,.52.52,26,26,0,0,0,0,4.69,13.36,13.36,0,0,0,.64,2.86.47.47,0,0,1-.39.65.45.45,0,0,1-.49-.31,15.64,15.64,0,0,1-.68-3.07,24.59,24.59,0,0,1-.06-4.88A.48.48,0,0,1,121.51,4.76Zm3.92,3c-.44,0-.7.08-1,.1a.41.41,0,0,1-.44-.38.4.4,0,0,1,.38-.48c.28,0,.57,0,.93-.1.58-.07,1.18-.17,1.78-.29-.13-.75-.26-1.48-.41-2.21a.42.42,0,0,1,.38-.52.43.43,0,0,1,.51.33c.15.7.28,1.43.4,2.19.49-.12.94-.25,1.34-.37a.38.38,0,0,1,.51.33.41.41,0,0,1-.28.47c-.41.14-.91.29-1.44.42.05.35.1.71.14,1.08a7.85,7.85,0,0,1-.93,5.13.63.63,0,0,1-.41.29.4.4,0,0,1-.47-.34.65.65,0,0,1,.11-.39,7,7,0,0,0,.8-4.58c0-.33-.08-.67-.13-1C126.58,7.55,126,7.65,125.43,7.72ZM128,3.5a.36.36,0,0,1,.32-.38.38.38,0,0,1,.33.14,6.66,6.66,0,0,1,.9,1.28.64.64,0,0,1,.06.18.37.37,0,0,1-.31.43.38.38,0,0,1-.37-.21A8.24,8.24,0,0,0,128,3.69.37.37,0,0,1,128,3.5Zm1.15-.74a.37.37,0,0,1,.33-.37.36.36,0,0,1,.32.12,7.91,7.91,0,0,1,.94,1.21.6.6,0,0,1,.07.2.36.36,0,0,1-.31.42.31.31,0,0,1-.32-.17A9.78,9.78,0,0,0,129.2,3,.39.39,0,0,1,129.1,2.76Z"/><path class="cls-2" d="M135.86,7.73a2.36,2.36,0,0,1,1.46-.84c.91-.11,1.53.47,1.83,2.17.22,1.31.58,1.64,1.2,1.56s1.28-.6,1.57-1.91a.46.46,0,0,1,.39-.4.43.43,0,0,1,.49.39.85.85,0,0,1,0,.22c-.41,1.76-1.28,2.45-2.37,2.58s-1.86-.4-2.18-2.24c-.22-1.3-.51-1.61-1.08-1.54-.74.09-1.51,1.09-2,2.46-.13.38-.33,1.07-.52,1.61a.6.6,0,0,1-.44.4.43.43,0,0,1-.48-.37.84.84,0,0,1,0-.26c.85-2.82,1.89-6.08,2.81-8.55a.49.49,0,0,1,.39-.34.46.46,0,0,1,.53.38.53.53,0,0,1,0,.27l-1.62,4.4Z"/><path class="cls-2" d="M157.13,1.83c-1.52.4-3.54.93-5.54,1.48a.48.48,0,0,1-.67-.37.5.5,0,0,1,.43-.53c2.41-.63,5.36-1.33,7.78-1.87a.48.48,0,0,1,.64.37.49.49,0,0,1-.37.52,3.81,3.81,0,0,0-1.28.63,4.22,4.22,0,0,0-2,3.94c.17,1.39,1.36,2.23,3,2.17a.52.52,0,0,1,.58.41.51.51,0,0,1-.53.56,3.55,3.55,0,0,1-4-2.92,5,5,0,0,1,1.91-4.36Z"/><path class="cls-2" d="M164.77,0a.46.46,0,0,1,.54.46c0,.34,0,.62.08,1.05.5,4,1.57,5.19,2.12,5.12.3,0,.58-.4.74-1.29a.45.45,0,0,1,.9,0,.51.51,0,0,1,0,.21c-.27,1.41-.87,2-1.47,2.1-1.33.17-2.68-1.64-3.22-6a11.33,11.33,0,0,1-.1-1.18A.46.46,0,0,1,164.77,0Zm9.11,3.67a.39.39,0,0,1,.05.2.48.48,0,0,1-.4.57.49.49,0,0,1-.51-.31,7.36,7.36,0,0,0-2.38-2.93.47.47,0,0,1-.21-.31.44.44,0,0,1,.4-.46.7.7,0,0,1,.36.08A7.44,7.44,0,0,1,173.88,3.67Z"/></g></g></svg>