<svg xmlns="http://www.w3.org/2000/svg" viewBox="0 0 50.32 516.19"><defs><style>.cls-1,.cls-3{fill:none;stroke:#231815;}.cls-1{stroke-width:4.25px;}.cls-2{fill:#fff;}.cls-3{stroke-width:2.37px;}</style></defs><g id="レイヤー_2" data-name="レイヤー 2"><g id="ロゴ"><path class="cls-1" d="M39,9.3a.31.31,0,0,1,0,.19,1.54,1.54,0,0,1-.41.69l-1.64,2a2.08,2.08,0,0,0-.5,1.51c.06,1.12-.39,1.7-1.33,1.75a1.85,1.85,0,0,1-1.7-.85,3.4,3.4,0,0,1-.63-1.87,35.71,35.71,0,0,1,0-4.1C33,7,33.19,5,33.53,2.47c0-.26.2-.37.5-.34l3,.46c.4.06.59.27.55.62a.6.6,0,0,1-.49.55.18.18,0,0,0-.11.1,50.84,50.84,0,0,0-.65,6.61c0,.21.09.24.31.07l1.51-1.1C38.6,9.14,38.87,9.1,39,9.3Zm5.69-2.54a.6.6,0,0,1-.3.59.18.18,0,0,0-.06.13,40.38,40.38,0,0,1-.21,6.32Q42.94,21.23,34,23c-.46.09-.73,0-.81-.16s0-.44.39-.66a17.85,17.85,0,0,0,5.17-4.49,10.7,10.7,0,0,0,1.61-4.5,36.59,36.59,0,0,0,.15-6.72c0-.25.13-.37.4-.37l3,.08C44.42,6.22,44.68,6.4,44.69,6.76Z"/><path class="cls-1" d="M46.69,42.48c.11.15,0,.7-.4,1.65q-2.07,5.16-6,4.95-3.48-.19-4.39-4.37a9,9,0,0,0-.43-1.6q-.3-.68-.78-.69a2,2,0,0,0-1.06.36c-.2.13-.71.47-1.52,1l-1.77,4a1.22,1.22,0,0,1-1.22.86,1.34,1.34,0,0,1-.55-.17l-.88-.45a1.28,1.28,0,0,1-.83-1.22,1.59,1.59,0,0,1,.14-.5L34.31,29a.35.35,0,0,1,.52-.18l3,1.25a.62.62,0,0,1-.16,1.21.32.32,0,0,0-.16,0l-3.79,8.78a3.86,3.86,0,0,1,2.1-.4,2.13,2.13,0,0,1,1.6,1.08,9.16,9.16,0,0,1,.73,1.94A6,6,0,0,0,39,44.66a2.36,2.36,0,0,0,1.86.81q2.73.15,5-2.75c.21-.27.4-.4.58-.39A.34.34,0,0,1,46.69,42.48Z"/><path class="cls-1" d="M40.88,72.86a2.81,2.81,0,0,1,.18,1.1q-.15,2.22-6.21,1.85-8-.51-7.66-6.28a7.65,7.65,0,0,1,.29-1.71c.09-.33.25-.51.48-.53s.36.14.43.43a5,5,0,0,0,4.74,4.18A9.83,9.83,0,0,0,38,71.43a2.5,2.5,0,0,1,1.19-.27C39.93,71.2,40.51,71.77,40.88,72.86Zm1.26-12.5c0,.6-.47.88-1.3.82l-.77,0-4.68,2.57q-.49.27-.72.09c-.14-.09-.08-.37.16-.84l1.36-2.68-7.49-.47a.57.57,0,1,1,.07-1.13l7.44.46,2-1.65a1,1,0,0,1,.68-.23,1.1,1.1,0,0,1,.68.28l2.29,2.11A1,1,0,0,1,42.14,60.36Zm3.58-1.56a1.35,1.35,0,0,1,.08.51.86.86,0,0,1-1,.87.94.94,0,0,1-.74-.49,6.59,6.59,0,0,0-1.48-1.45c-.19-.14-.26-.28-.21-.41s.52-.37,1.35-.32A1.94,1.94,0,0,1,45.72,58.8Zm2.4-1.68a1.57,1.57,0,0,1,.07.51.87.87,0,0,1-1,.87,1,1,0,0,1-.74-.5A6.38,6.38,0,0,0,45,56.55c-.19-.1-.26-.23-.21-.38s.52-.4,1.35-.34A1.94,1.94,0,0,1,48.12,57.12Z"/><path class="cls-1" d="M40.69,100.25c-.06.9-.7,1.46-1.94,1.68a23.1,23.1,0,0,1-5.6.32,19.41,19.41,0,0,1-4.11-.66c-2.54-.7-3.74-2.61-3.58-5.72L26.13,83a.35.35,0,0,1,.13-.26.32.32,0,0,1,.27-.09l3.25.33c.58.06.84.34.8.85a.76.76,0,0,1-.47.66.21.21,0,0,0-.12.16l-.78,11.3a2.07,2.07,0,0,0,2.08,2.47,15.94,15.94,0,0,0,7.05-1,1,1,0,0,1,.38,0,1.93,1.93,0,0,1,1.44,1.1A3,3,0,0,1,40.69,100.25ZM41,88.7a.65.65,0,0,1,.1.4.69.69,0,0,1-.35.62.69.69,0,0,1-1-.09c0-.09-.13-.12-.26-.09A34.64,34.64,0,0,1,31,90.2c-.54,0-.82-.19-.85-.48s.15-.45.57-.6a50.68,50.68,0,0,0,7.65-3.7.46.46,0,0,1,.7.15Zm4.2-4a2.21,2.21,0,0,1-2.3,2,2.12,2.12,0,0,1-1.5-.73,2.18,2.18,0,1,1,3.8-1.31Zm-1-.06a1.18,1.18,0,0,0-1.09-1.24,1.16,1.16,0,0,0-.87.28,1.1,1.1,0,0,0-.4.81,1.17,1.17,0,0,0,.29.87,1.14,1.14,0,0,0,.83.4,1.1,1.1,0,0,0,.83-.32A1.18,1.18,0,0,0,44.19,84.67Z"/><path class="cls-1" d="M43.66,117c0,.35-.23.52-.62.49l-5.88-.36L37,118.75a10.88,10.88,0,0,1-2.72,6.85c-1.63,1.69-4.22,3-7.79,3.87-.49.13-.79.06-.92-.21a.75.75,0,0,1,0-.24c0-.16.15-.31.41-.46a15.67,15.67,0,0,0,6.19-5.51,11,11,0,0,0,1.28-4.76l.09-1.38-4.16-.26-.25,4a1.2,1.2,0,0,1-1.3,1.24l-1.52.07a.71.71,0,0,1-.55-.23.7.7,0,0,1-.2-.56l.3-4.77-4.64-.29a.52.52,0,0,1-.55-.62.51.51,0,0,1,.62-.54l4.64.28.35-5.64c0-.26.16-.38.45-.34l2.82.34c.55.07.79.34.75.81a.81.81,0,0,1-.47.67.2.2,0,0,0-.12.17l-.26,4.21,4.16.26.37-5.93c0-.26.16-.38.45-.34l3.06.32a.68.68,0,0,1,.69.84.78.78,0,0,1-.55.69.16.16,0,0,0-.11.15l-.28,4.5,1.32.08,1.92-1.71a.83.83,0,0,1,1.11.07l1.71,2Q43.68,116.8,43.66,117Zm-1.51-5.23a1.38,1.38,0,0,1,.08.51.87.87,0,0,1-1,.88,1,1,0,0,1-.74-.5,6.59,6.59,0,0,0-1.48-1.45c-.19-.14-.26-.27-.21-.41s.51-.37,1.34-.32A2,2,0,0,1,42.15,111.78Zm2.87-1.2a1.34,1.34,0,0,1,.07.51.85.85,0,0,1-1,.87,1,1,0,0,1-.76-.5A6,6,0,0,0,41.89,110c-.19-.13-.26-.27-.21-.41s.52-.36,1.37-.31A2,2,0,0,1,45,110.58Z"/><path class="cls-1" d="M38.23,145.23a.85.85,0,0,1,0,.32c0,.33-.15.52-.38.56a.93.93,0,0,1-.32,0,.45.45,0,0,1-.36-.18.11.11,0,0,0-.13,0,36.45,36.45,0,0,0-4.41,1.18,8.43,8.43,0,0,1,.69,2.09,1.55,1.55,0,0,1,0,.38,1.63,1.63,0,0,1-.81,1.41l-.41.24a1.28,1.28,0,0,1-.76.16.84.84,0,0,1-.9-.8,25.74,25.74,0,0,0-.4-2.55c-1.83.86-2.78,1.87-2.85,3-.09,1.38.83,2,2.75,2a8.52,8.52,0,0,0,2.77-.52,1.9,1.9,0,0,1,.67-.09,1.23,1.23,0,0,1,1,.76l.46.85a1.61,1.61,0,0,1,.18.86,1.33,1.33,0,0,1-.9,1.3,11.74,11.74,0,0,1-4.36.37,6.51,6.51,0,0,1-3.9-1.39,4.22,4.22,0,0,1-1.36-3.78q.25-2.78,5.09-5.4c-.39-1.28-.83-2-1.29-2.21a1.5,1.5,0,0,0-1.43.31l-.4,1.2a1.12,1.12,0,0,1-1.2.91,1.48,1.48,0,0,1-.41-.11l-1-.35c-.64-.23-.94-.62-.91-1.15a2.34,2.34,0,0,1,.11-.47l1.66-4.87-2.75-.17a.47.47,0,0,1-.5-.56c0-.37.21-.55.56-.52l3,.18,1.12-4.37c.07-.26.24-.35.52-.28l3,.72c.42.09.56.35.43.77a.6.6,0,0,1-.48.42.2.2,0,0,0-.14.07l-1,2.89,2.49.16,1.8-1.59a.71.71,0,0,1,.52-.21.7.7,0,0,1,.49.27l1.61,1.83a.91.91,0,0,1,.31.58c0,.33-.2.49-.56.47l-7-.44L27.58,142a4.7,4.7,0,0,1,.64,0q2,.12,3.48,3,1.62-.69,5-2a.42.42,0,0,1,.6.25Z"/><path class="cls-1" d="M38.17,170.53q-.26,4-4.46,5.73a19.81,19.81,0,0,1-7.7,1.11c-.32,0-.49-.12-.51-.35s.11-.35.38-.43a23.2,23.2,0,0,0,5.44-2c2-1.16,3.11-2.63,3.22-4.39a3.89,3.89,0,0,0-.51-2.38,2.7,2.7,0,0,0-2-1.24,15,15,0,0,0-5.17.63l-6.53,1.64c-.08,0-.11.07-.12.16a.48.48,0,0,1-.45.39q-.51.07-.63-.54L18.48,166c-.05-.25.06-.4.35-.46,3.94-.67,6.3-1.06,7.06-1.17a29.78,29.78,0,0,1,7-.34,5.75,5.75,0,0,1,4.07,2A6.45,6.45,0,0,1,38.17,170.53Z"/><path class="cls-1" d="M31,188.37a.23.23,0,0,0-.19,0q-2,1.85-3.54,3.13l-3.93,3.21a.44.44,0,0,0-.2.31c0,.12.08.26.27.41q2.52,2.1,3.75,3.27a26,26,0,0,1,3.1,3.59,2.84,2.84,0,0,1,.64,1.8,3,3,0,0,1-.67,1.63l-.4.54a1.29,1.29,0,0,1-1.17.43,1.5,1.5,0,0,1-1.41-.86,30.79,30.79,0,0,0-6.33-9.73,1.48,1.48,0,0,1-.49-1.17,1.52,1.52,0,0,1,.43-1,76.59,76.59,0,0,0,7.52-8.78.34.34,0,0,1,.56-.07l2.58,2.07a.63.63,0,0,1,.29.55c0,.46-.24.68-.63.65A.45.45,0,0,1,31,188.37Z"/><path class="cls-1" d="M35.85,220.83a5.16,5.16,0,0,1-3.59,4.67,15.86,15.86,0,0,1-6.25.94c-.34,0-.52-.13-.54-.38s.12-.4.41-.48a18.86,18.86,0,0,0,4.32-1.51,4.29,4.29,0,0,0,2.5-3.51,3,3,0,0,0-.46-2,2.06,2.06,0,0,0-1.65-.86q-1.48-.12-9.07,1.86a.13.13,0,0,0-.09.1c0,.21-.18.33-.45.37s-.55-.13-.63-.52l-.49-2.32c-.06-.27.07-.43.37-.48,3.59-.61,6-1,7.12-1.13a18.09,18.09,0,0,1,3.17-.17l.93.09a4.68,4.68,0,0,1,4.4,5.29Z"/><path class="cls-1" d="M33.82,236.71c0,.32-.19.47-.56.47l-3.45-.09a14.3,14.3,0,0,0-2.89.7,5.72,5.72,0,0,0-2.17,1.59q-1.21,1.44-1.48,5Q23,247.18,27,247.5c1.27.11,1.88.93,1.84,2.45a2,2,0,0,1-.67,1.65,2.47,2.47,0,0,1-1.84.32q-6.14-.75-6-6a11.94,11.94,0,0,1,1.23-5.06,10.82,10.82,0,0,1,3.29-3.94l-9.79-.32c-.35,0-.53-.19-.52-.56a.47.47,0,0,1,.53-.53l13.35.44L30.53,234a.8.8,0,0,1,.55-.23.68.68,0,0,1,.47.24l1.94,2.09A.92.92,0,0,1,33.82,236.71Z"/><path class="cls-1" d="M17.91,274.81a1.7,1.7,0,0,1-1.2-.82c-.1-.14-.67-.75-1.72-1.8a10,10,0,0,1-5.31,3.68.37.37,0,0,1-.47-.11c-.08-.13.15-.49.68-1.08a16.13,16.13,0,0,0,2.26-3,11.22,11.22,0,0,0,1.23-4.31c0,.33.09-1.89.39-6.68,0-.23.13-.33.36-.29l2.72.35c.47.07.69.3.64.71a.85.85,0,0,1-.34.53q-.28.25-.3.36c-.17,2.75-.31,4.56-.41,5.42a12.38,12.38,0,0,1-.83,3.41,4.73,4.73,0,0,1,2.22.59c.91.55,1.34,1.16,1.3,1.83a1.34,1.34,0,0,1-.39.86A1,1,0,0,1,17.91,274.81Zm-5.34-8.35a2.28,2.28,0,0,1,.07.71,1.55,1.55,0,0,1-.46,1.06,1.1,1.1,0,0,1-1.06.31c-.49-.08-.77-.6-.86-1.54,0-.38-.07-1.05-.14-2,0-.34.12-.5.46-.48s.77.36,1.37,1A2.32,2.32,0,0,1,12.57,266.46Zm8.68-.88a.57.57,0,0,1-.66.36.81.81,0,0,0-.29,0q-1.05.57-1.59.81a9.12,9.12,0,0,1-1.66.53.34.34,0,0,1-.32-.07c-.08-.08-.08-.17,0-.29.61-.92,1.21-1.95,1.81-3.08a.29.29,0,0,1,.46-.13l2,1.13A.61.61,0,0,1,21.25,265.58Zm4.26,10.16a.53.53,0,0,1-.58.28.28.28,0,0,0-.19.07,9.56,9.56,0,0,1-6.6,3.15c-.3,0-.45-.07-.44-.26a.28.28,0,0,1,.12-.21A16,16,0,0,0,22.19,274q.18-.3.36-.3a.9.9,0,0,1,.24.07L25.24,275A.53.53,0,0,1,25.51,275.74Zm9.92-7.3a.45.45,0,0,1-.53.47l-3.55-.22-.22,2.67.34,0,1.27-1.12a.68.68,0,0,1,.49-.21.7.7,0,0,1,.49.27l1.12,1.27a.81.81,0,0,1,.26.52c0,.35-.2.52-.54.5l-14.33-.9a.46.46,0,0,1-.49-.56c0-.33.2-.49.56-.47l2.27.14.14-2.67-2.3-.15a.44.44,0,0,1-.47-.53c0-.35.2-.52.53-.5l2.28.14.11-2.54a.31.31,0,0,1,.12-.24.26.26,0,0,1,.24-.06l2.43.23a.61.61,0,0,1,.62.76.62.62,0,0,1-.38.56.2.2,0,0,0-.09.15l-.06,1.33,2.68.17.22-2.7q0-.34.39-.3l2.4.34a.63.63,0,0,1,.62.76.69.69,0,0,1-.41.56.18.18,0,0,0-.12.15l-.11,1.37.4,0,1.27-1.12a.67.67,0,0,1,.49-.21.72.72,0,0,1,.49.27l1.14,1.27A.75.75,0,0,1,35.43,268.44Zm-.57-7.11c0,.33-.2.49-.56.47l-5.08-.32-.09,1.38q-.06,1.08-1,1.08h-1.7c-.47,0-.68-.21-.65-.65l.12-2L21.56,261c-.35,0-.51-.2-.49-.53a.47.47,0,0,1,.56-.5l4.32.27.19-2.7a.29.29,0,0,1,.37-.3l2.74.31a.59.59,0,0,1,.62.73.64.64,0,0,1-.38.59.2.2,0,0,0-.12.17l-.09,1.41,1.75.11,1.33-1.25a.62.62,0,0,1,.49-.21.7.7,0,0,1,.49.27l1.27,1.41A.81.81,0,0,1,34.86,261.33Zm-6.53,7.11-2.62-.16-.11,2.65,2.51.16Zm6.17,9.75c0,1-.74,1.54-2.09,1.6a27.28,27.28,0,0,1-5.14-.27c-.79-.1-1.16-.6-1.11-1.48l.25-4.34a.39.39,0,0,1,.12-.28.48.48,0,0,1,.3-.07l2.45.29a.56.56,0,0,1,.58.62c0,.17-.14.32-.38.45a.2.2,0,0,0-.09.16l-.07,1.27a.42.42,0,0,0,.44.5,7.28,7.28,0,0,0,1.41.09,1.24,1.24,0,0,0,1-.87l.82-2a.35.35,0,0,1,.49-.29c.26.07.35.28.26.63l-.26,1.49a1,1,0,0,0,.36,1.06A1.43,1.43,0,0,1,34.5,278.19Z"/><path class="cls-1" d="M24.86,286.55c-.08,0-.15,0-.18,0q-2,1.85-3.55,3.12l-3.92,3.22a.44.44,0,0,0-.21.3q0,.18.27.42c1.68,1.4,2.94,2.49,3.76,3.26a27.39,27.39,0,0,1,3.1,3.6,2.85,2.85,0,0,1,.63,1.79,3.14,3.14,0,0,1-.66,1.64l-.41.53a1.27,1.27,0,0,1-1.17.43,1.5,1.5,0,0,1-1.41-.86,30.73,30.73,0,0,0-6.33-9.72,1.46,1.46,0,0,1-.48-1.18,1.38,1.38,0,0,1,.43-.95,76.77,76.77,0,0,0,7.51-8.79.35.35,0,0,1,.57-.07l2.58,2.08a.6.6,0,0,1,.28.55c0,.46-.24.67-.62.65Z"/><path class="cls-1" d="M15.84,314a1.58,1.58,0,0,1-.53,1.17,1.56,1.56,0,0,1-1.24.34,1.28,1.28,0,0,1-1.08-.71,11.7,11.7,0,0,0-2.3-3.12c-.2-.19-.28-.35-.23-.49s.52-.31,1.42-.26a5.55,5.55,0,0,1,2.66.81A2.38,2.38,0,0,1,15.84,314Zm.46,6.59a1.56,1.56,0,0,1-.54,1.18,1.62,1.62,0,0,1-1.25.33,1.27,1.27,0,0,1-1.07-.73,11.94,11.94,0,0,0-2.31-3.12c-.2-.19-.28-.35-.23-.49s.53-.31,1.45-.26a5.51,5.51,0,0,1,2.63.83A2.41,2.41,0,0,1,16.3,320.6Zm13.62-3.93a2.44,2.44,0,0,1-.35,1q-5,8.55-15.3,12s-.07.06-.06.15a.68.68,0,0,1-.49.69c-.4.12-.67,0-.81-.29l-1.5-3.18c-.13-.25-.06-.42.21-.49q11.33-3.26,17.07-10.1a.92.92,0,0,1,.71-.44C29.78,316.05,30,316.26,29.92,316.67Z"/><path class="cls-1" d="M28.39,353.12c0,.35-.23.51-.61.49l-15-.94a.58.58,0,1,1,.07-1.16l5.56.34.55-8.68-4.66-.29a.59.59,0,1,1,.07-1.17l9.56.6L25.43,341a.71.71,0,0,1,.54-.23.7.7,0,0,1,.49.29l1.36,1.58a.91.91,0,0,1,.31.6c0,.35-.22.52-.61.49l-5.3-.33-.54,8.69,2.46.15,1.52-1.31a.74.74,0,0,1,.54-.21.7.7,0,0,1,.49.27l1.39,1.55A.94.94,0,0,1,28.39,353.12Z"/><path class="cls-1" d="M25,367.62a.85.85,0,0,1,.29.61.68.68,0,0,1-.44.55l-1,.52a15.75,15.75,0,0,1-5.26,9.17q-3.42,2.79-9.83,4.22a4.72,4.72,0,0,1-1.29.16c-.35,0-.52-.17-.5-.45s.3-.51.85-.77q6.06-3,8.61-6.43a22,22,0,0,0,3-7.05l-11.63-.73a.58.58,0,1,1,.07-1.16l11.39.71,2.13-1.65a1.23,1.23,0,0,1,.74-.35,1.12,1.12,0,0,1,.66.39Z"/><path class="cls-1" d="M10.88,402.44c.1.13,0,.37-.18.73L9,405.94a1.45,1.45,0,0,0-.26,1.23,4.8,4.8,0,0,1,.17.7A1.44,1.44,0,0,1,8.47,409a1.49,1.49,0,0,1-1.12.49c-1.4,0-2.2-1.15-2.38-3.52a30.72,30.72,0,0,1,0-3.88q.27-4.25,1.18-10.78c0-.22.15-.32.36-.29l2.61.35q.66.09.66.6a.57.57,0,0,1-.38.56c-.08,0-.11.06-.12.1q-1,7.35-1.1,9.23c-.07,1.06-.1,1.47-.11,1.22,0,.66.09,1,.29,1a.34.34,0,0,0,.27-.14L10,402.62c.23-.21.42-.32.58-.3A.34.34,0,0,1,10.88,402.44Zm12.88-6.16c-.11.34-.41.51-.88.5l-.88,0-3.91,2.57a.88.88,0,0,1-.52.18c-.28,0-.41-.17-.39-.47a.59.59,0,0,1,.07-.26l1.25-2.66-5-.31a.55.55,0,0,1,.07-1.09l5,.31,1.64-1.46a.7.7,0,0,1,.54-.18.73.73,0,0,1,.52.24l2,1.73Q23.9,395.83,23.76,396.28ZM22.6,406.73a2.46,2.46,0,0,1,.08.78,1.63,1.63,0,0,1-1.56,1.6,9.15,9.15,0,0,1-2.18.1c-3.75-.23-5.59-1.89-5.54-5,0-.59.13-.92.41-1s.28.06.38.26a3.24,3.24,0,0,0,2.46,1.89,11.06,11.06,0,0,0,3.67,0,3.41,3.41,0,0,1,.72,0A1.62,1.62,0,0,1,22.6,406.73Z"/><path class="cls-1" d="M14,418.59c0,.28-.2.44-.54.47l-5.19-.32L7.1,425.52c-.19,1-.91,1.47-2.16,1.3l-.71-.09a.78.78,0,0,1-.73-1l1.29-7.18-2.19-.14a.52.52,0,0,1-.47-.59.45.45,0,0,1,.53-.47l2.31.14.77-4.25c0-.16.14-.23.28-.2l3.05.54a.46.46,0,0,1,.44.58.47.47,0,0,1-.43.45s-.05,0-.05,0l-.54,3.1,1,.07,1.72-1.49a.67.67,0,0,1,.49-.21.68.68,0,0,1,.46.27L13.71,418A1,1,0,0,1,14,418.59Zm7,12.75c-.3.88-.71,1.31-1.22,1.28a1.19,1.19,0,0,1-.65-.28c-1.13-.87-1.89-1.42-2.29-1.66-.64,2.6-2.1,3.82-4.4,3.66a3.92,3.92,0,0,1-2.75-1.25,3.61,3.61,0,0,1-1-2.81c.16-2.47,1.85-3.53,5.09-3.19l.33-5.17a.16.16,0,0,1,.19-.17l3,.29a.51.51,0,0,1,.52.57.54.54,0,0,1-.32.54.09.09,0,0,0-.06.1l-.28,4.4a13.21,13.21,0,0,1,2.65,1,1.93,1.93,0,0,1,1.28,2A2.16,2.16,0,0,1,21.06,431.34Zm-7.25-1.73a5.07,5.07,0,0,0-1.42-.33c-1.11-.07-1.69.25-1.73,1a1.24,1.24,0,0,0,.51,1.13,2.07,2.07,0,0,0,1.28.42C13.28,431.78,13.73,431.06,13.81,429.61ZM23,420.48a1.57,1.57,0,0,1-.54.87,1.32,1.32,0,0,1-.94.34,1.47,1.47,0,0,1-1-.57,13.25,13.25,0,0,0-3.23-2.73A.48.48,0,0,1,17,418q0-.34.51-.42a6.22,6.22,0,0,1,1.44-.07,6.51,6.51,0,0,1,2.77.76A2,2,0,0,1,23,420.48Z"/><path class="cls-1" d="M18.63,454.62q-.12,3.88-4.12,5.44a17,17,0,0,1-7.28.84c-.43,0-.6-.19-.53-.51a.4.4,0,0,1,.37-.32q7.71-1.67,7.79-5.66a3.12,3.12,0,0,0-.81-2.35,3.33,3.33,0,0,0-2.3-1,6.35,6.35,0,0,0-3.11.79l-1.66,2a1.23,1.23,0,0,1-1,.5,1,1,0,0,1-.74-.45l-.54-.7a1.33,1.33,0,0,1-.32-.92,1.61,1.61,0,0,1,.41-.93l7-8.42-5.48-.34a.49.49,0,0,1-.52-.59c0-.35.21-.52.59-.5l5.82.37,2-1.44a.75.75,0,0,1,1.09.12l1.47,1.58a.81.81,0,0,1,.27.73.72.72,0,0,1-.62.55l-.62.12-4.39,5.12-.73.62a5.63,5.63,0,0,1,.82-.32,8,8,0,0,1,1.2,0A6.91,6.91,0,0,1,17,450.5,5,5,0,0,1,18.63,454.62Z"/><path class="cls-1" d="M15.53,478.69q0,7.95-10.21,9.79c-.48.09-.78,0-.89-.16a.45.45,0,0,1,0-.22c0-.21.17-.4.48-.56a15.66,15.66,0,0,0,4.92-3.41,7.94,7.94,0,0,0,2.07-5.48c0-1.91-.71-2.89-2.13-2.92-1.18,0-3,.55-5.34,1.71a.14.14,0,0,0-.09.13.6.6,0,0,1-.37.43.55.55,0,0,1-.77-.45l-.73-2.89a.29.29,0,0,1,.21-.39,25.26,25.26,0,0,1,7.63-1.2,5.56,5.56,0,0,1,3.87,1.67A5.48,5.48,0,0,1,15.53,478.69Zm-3.38-8.85a2.19,2.19,0,0,1-.44,1.46,1.43,1.43,0,0,1-1.31.53,3,3,0,0,1-.42-.05c-.44-.1-.77-.49-1-1.18A13.47,13.47,0,0,0,7,467a.45.45,0,0,1-.07-.54c.11-.19.36-.26.73-.22a6.59,6.59,0,0,1,3,1A3.11,3.11,0,0,1,12.15,469.84Z"/><path class="cls-1" d="M9.08,512.2A2,2,0,0,1,7,514.06a1.87,1.87,0,0,1-1.37-.67A1.9,1.9,0,0,1,5.11,512a2,2,0,0,1,2.11-1.89,1.92,1.92,0,0,1,1.38.68A2,2,0,0,1,9.08,512.2ZM10,494.77l-2,13a.62.62,0,0,1-.73.57.56.56,0,0,1-.59-.65l0-13.09a1.67,1.67,0,0,1,.55-1.26,1.65,1.65,0,0,1,1.29-.48,1.68,1.68,0,0,1,1.55,2Z"/><path class="cls-2" d="M39,9.3a.31.31,0,0,1,0,.19,1.54,1.54,0,0,1-.41.69l-1.64,2a2.08,2.08,0,0,0-.5,1.51c.06,1.12-.39,1.7-1.33,1.75a1.85,1.85,0,0,1-1.7-.85,3.4,3.4,0,0,1-.63-1.87,35.71,35.71,0,0,1,0-4.1C33,7,33.19,5,33.53,2.47c0-.26.2-.37.5-.34l3,.46c.4.06.59.27.55.62a.6.6,0,0,1-.49.55.18.18,0,0,0-.11.1,50.84,50.84,0,0,0-.65,6.61c0,.21.09.24.31.07l1.51-1.1C38.6,9.14,38.87,9.1,39,9.3Zm5.69-2.54a.6.6,0,0,1-.3.59.18.18,0,0,0-.06.13,40.38,40.38,0,0,1-.21,6.32Q42.94,21.23,34,23c-.46.09-.73,0-.81-.16s0-.44.39-.66a17.85,17.85,0,0,0,5.17-4.49,10.7,10.7,0,0,0,1.61-4.5,36.59,36.59,0,0,0,.15-6.72c0-.25.13-.37.4-.37l3,.08C44.42,6.22,44.68,6.4,44.69,6.76Z"/><path class="cls-2" d="M46.69,42.48c.11.15,0,.7-.4,1.65q-2.07,5.16-6,4.95-3.48-.19-4.39-4.37a9,9,0,0,0-.43-1.6q-.3-.68-.78-.69a2,2,0,0,0-1.06.36c-.2.13-.71.47-1.52,1l-1.77,4a1.22,1.22,0,0,1-1.22.86,1.34,1.34,0,0,1-.55-.17l-.88-.45a1.28,1.28,0,0,1-.83-1.22,1.59,1.59,0,0,1,.14-.5L34.31,29a.35.35,0,0,1,.52-.18l3,1.25a.62.62,0,0,1-.16,1.21.32.32,0,0,0-.16,0l-3.79,8.78a3.86,3.86,0,0,1,2.1-.4,2.13,2.13,0,0,1,1.6,1.08,9.16,9.16,0,0,1,.73,1.94A6,6,0,0,0,39,44.66a2.36,2.36,0,0,0,1.86.81q2.73.15,5-2.75c.21-.27.4-.4.58-.39A.34.34,0,0,1,46.69,42.48Z"/><path class="cls-2" d="M40.88,72.86a2.81,2.81,0,0,1,.18,1.1q-.15,2.22-6.21,1.85-8-.51-7.66-6.28a7.65,7.65,0,0,1,.29-1.71c.09-.33.25-.51.48-.53s.36.14.43.43a5,5,0,0,0,4.74,4.18A9.83,9.83,0,0,0,38,71.43a2.5,2.5,0,0,1,1.19-.27C39.93,71.2,40.51,71.77,40.88,72.86Zm1.26-12.5c0,.6-.47.88-1.3.82l-.77,0-4.68,2.57q-.49.27-.72.09c-.14-.09-.08-.37.16-.84l1.36-2.68-7.49-.47a.57.57,0,1,1,.07-1.13l7.44.46,2-1.65a1,1,0,0,1,.68-.23,1.1,1.1,0,0,1,.68.28l2.29,2.11A1,1,0,0,1,42.14,60.36Zm3.58-1.56a1.35,1.35,0,0,1,.08.51.86.86,0,0,1-1,.87.94.94,0,0,1-.74-.49,6.59,6.59,0,0,0-1.48-1.45c-.19-.14-.26-.28-.21-.41s.52-.37,1.35-.32A1.94,1.94,0,0,1,45.72,58.8Zm2.4-1.68a1.57,1.57,0,0,1,.07.51.87.87,0,0,1-1,.87,1,1,0,0,1-.74-.5A6.38,6.38,0,0,0,45,56.55c-.19-.1-.26-.23-.21-.38s.52-.4,1.35-.34A1.94,1.94,0,0,1,48.12,57.12Z"/><path class="cls-2" d="M40.69,100.25c-.06.9-.7,1.46-1.94,1.68a23.1,23.1,0,0,1-5.6.32,19.41,19.41,0,0,1-4.11-.66c-2.54-.7-3.74-2.61-3.58-5.72L26.13,83a.35.35,0,0,1,.13-.26.32.32,0,0,1,.27-.09l3.25.33c.58.06.84.34.8.85a.76.76,0,0,1-.47.66.21.21,0,0,0-.12.16l-.78,11.3a2.07,2.07,0,0,0,2.08,2.47,15.94,15.94,0,0,0,7.05-1,1,1,0,0,1,.38,0,1.93,1.93,0,0,1,1.44,1.1A3,3,0,0,1,40.69,100.25ZM41,88.7a.65.65,0,0,1,.1.4.69.69,0,0,1-.35.62.69.69,0,0,1-1-.09c0-.09-.13-.12-.26-.09A34.64,34.64,0,0,1,31,90.2c-.54,0-.82-.19-.85-.48s.15-.45.57-.6a50.68,50.68,0,0,0,7.65-3.7.46.46,0,0,1,.7.15Zm4.2-4a2.21,2.21,0,0,1-2.3,2,2.12,2.12,0,0,1-1.5-.73,2.18,2.18,0,1,1,3.8-1.31Zm-1-.06a1.18,1.18,0,0,0-1.09-1.24,1.16,1.16,0,0,0-.87.28,1.1,1.1,0,0,0-.4.81,1.17,1.17,0,0,0,.29.87,1.14,1.14,0,0,0,.83.4,1.1,1.1,0,0,0,.83-.32A1.18,1.18,0,0,0,44.19,84.67Z"/><path class="cls-2" d="M43.66,117c0,.35-.23.52-.62.49l-5.88-.36L37,118.75a10.88,10.88,0,0,1-2.72,6.85c-1.63,1.69-4.22,3-7.79,3.87-.49.13-.79.06-.92-.21a.75.75,0,0,1,0-.24c0-.16.15-.31.41-.46a15.67,15.67,0,0,0,6.19-5.51,11,11,0,0,0,1.28-4.76l.09-1.38-4.16-.26-.25,4a1.2,1.2,0,0,1-1.3,1.24l-1.52.07a.71.71,0,0,1-.55-.23.7.7,0,0,1-.2-.56l.3-4.77-4.64-.29a.52.52,0,0,1-.55-.62.51.51,0,0,1,.62-.54l4.64.28.35-5.64c0-.26.16-.38.45-.34l2.82.34c.55.07.79.34.75.81a.81.81,0,0,1-.47.67.2.2,0,0,0-.12.17l-.26,4.21,4.16.26.37-5.93c0-.26.16-.38.45-.34l3.06.32a.68.68,0,0,1,.69.84.78.78,0,0,1-.55.69.16.16,0,0,0-.11.15l-.28,4.5,1.32.08,1.92-1.71a.83.83,0,0,1,1.11.07l1.71,2Q43.68,116.8,43.66,117Zm-1.51-5.23a1.38,1.38,0,0,1,.08.51.87.87,0,0,1-1,.88,1,1,0,0,1-.74-.5,6.59,6.59,0,0,0-1.48-1.45c-.19-.14-.26-.27-.21-.41s.51-.37,1.34-.32A2,2,0,0,1,42.15,111.78Zm2.87-1.2a1.34,1.34,0,0,1,.07.51.85.85,0,0,1-1,.87,1,1,0,0,1-.76-.5A6,6,0,0,0,41.89,110c-.19-.13-.26-.27-.21-.41s.52-.36,1.37-.31A2,2,0,0,1,45,110.58Z"/><path class="cls-2" d="M38.23,145.23a.85.85,0,0,1,0,.32c0,.33-.15.52-.38.56a.93.93,0,0,1-.32,0,.45.45,0,0,1-.36-.18.11.11,0,0,0-.13,0,36.45,36.45,0,0,0-4.41,1.18,8.43,8.43,0,0,1,.69,2.09,1.55,1.55,0,0,1,0,.38,1.63,1.63,0,0,1-.81,1.41l-.41.24a1.28,1.28,0,0,1-.76.16.84.84,0,0,1-.9-.8,25.74,25.74,0,0,0-.4-2.55c-1.83.86-2.78,1.87-2.85,3-.09,1.38.83,2,2.75,2a8.52,8.52,0,0,0,2.77-.52,1.9,1.9,0,0,1,.67-.09,1.23,1.23,0,0,1,1,.76l.46.85a1.61,1.61,0,0,1,.18.86,1.33,1.33,0,0,1-.9,1.3,11.74,11.74,0,0,1-4.36.37,6.51,6.51,0,0,1-3.9-1.39,4.22,4.22,0,0,1-1.36-3.78q.25-2.78,5.09-5.4c-.39-1.28-.83-2-1.29-2.21a1.5,1.5,0,0,0-1.43.31l-.4,1.2a1.12,1.12,0,0,1-1.2.91,1.48,1.48,0,0,1-.41-.11l-1-.35c-.64-.23-.94-.62-.91-1.15a2.34,2.34,0,0,1,.11-.47l1.66-4.87-2.75-.17a.47.47,0,0,1-.5-.56c0-.37.21-.55.56-.52l3,.18,1.12-4.37c.07-.26.24-.35.52-.28l3,.72c.42.09.56.35.43.77a.6.6,0,0,1-.48.42.2.2,0,0,0-.14.07l-1,2.89,2.49.16,1.8-1.59a.71.71,0,0,1,.52-.21.7.7,0,0,1,.49.27l1.61,1.83a.91.91,0,0,1,.31.58c0,.33-.2.49-.56.47l-7-.44L27.58,142a4.7,4.7,0,0,1,.64,0q2,.12,3.48,3,1.62-.69,5-2a.42.42,0,0,1,.6.25Z"/><path class="cls-2" d="M38.17,170.53q-.26,4-4.46,5.73a19.81,19.81,0,0,1-7.7,1.11c-.32,0-.49-.12-.51-.35s.11-.35.38-.43a23.2,23.2,0,0,0,5.44-2c2-1.16,3.11-2.63,3.22-4.39a3.89,3.89,0,0,0-.51-2.38,2.7,2.7,0,0,0-2-1.24,15,15,0,0,0-5.17.63l-6.53,1.64c-.08,0-.11.07-.12.16a.48.48,0,0,1-.45.39q-.51.07-.63-.54L18.48,166c-.05-.25.06-.4.35-.46,3.94-.67,6.3-1.06,7.06-1.17a29.78,29.78,0,0,1,7-.34,5.75,5.75,0,0,1,4.07,2A6.45,6.45,0,0,1,38.17,170.53Z"/><path class="cls-2" d="M31,188.37a.23.23,0,0,0-.19,0q-2,1.85-3.54,3.13l-3.93,3.21a.44.44,0,0,0-.2.31c0,.12.08.26.27.41q2.52,2.1,3.75,3.27a26,26,0,0,1,3.1,3.59,2.84,2.84,0,0,1,.64,1.8,3,3,0,0,1-.67,1.63l-.4.54a1.29,1.29,0,0,1-1.17.43,1.5,1.5,0,0,1-1.41-.86,30.79,30.79,0,0,0-6.33-9.73,1.48,1.48,0,0,1-.49-1.17,1.52,1.52,0,0,1,.43-1,76.59,76.59,0,0,0,7.52-8.78.34.34,0,0,1,.56-.07l2.58,2.07a.63.63,0,0,1,.29.55c0,.46-.24.68-.63.65A.45.45,0,0,1,31,188.37Z"/><path class="cls-2" d="M35.85,220.83a5.16,5.16,0,0,1-3.59,4.67,15.86,15.86,0,0,1-6.25.94c-.34,0-.52-.13-.54-.38s.12-.4.41-.48a18.86,18.86,0,0,0,4.32-1.51,4.29,4.29,0,0,0,2.5-3.51,3,3,0,0,0-.46-2,2.06,2.06,0,0,0-1.65-.86q-1.48-.12-9.07,1.86a.13.13,0,0,0-.09.1c0,.21-.18.33-.45.37s-.55-.13-.63-.52l-.49-2.32c-.06-.27.07-.43.37-.48,3.59-.61,6-1,7.12-1.13a18.09,18.09,0,0,1,3.17-.17l.93.09a4.68,4.68,0,0,1,4.4,5.29Z"/><path class="cls-2" d="M33.82,236.71c0,.32-.19.47-.56.47l-3.45-.09a14.3,14.3,0,0,0-2.89.7,5.72,5.72,0,0,0-2.17,1.59q-1.21,1.44-1.48,5Q23,247.18,27,247.5c1.27.11,1.88.93,1.84,2.45a2,2,0,0,1-.67,1.65,2.47,2.47,0,0,1-1.84.32q-6.14-.75-6-6a11.94,11.94,0,0,1,1.23-5.06,10.82,10.82,0,0,1,3.29-3.94l-9.79-.32c-.35,0-.53-.19-.52-.56a.47.47,0,0,1,.53-.53l13.35.44L30.53,234a.8.8,0,0,1,.55-.23.68.68,0,0,1,.47.24l1.94,2.09A.92.92,0,0,1,33.82,236.71Z"/><path class="cls-2" d="M17.91,274.81a1.7,1.7,0,0,1-1.2-.82c-.1-.14-.67-.75-1.72-1.8a10,10,0,0,1-5.31,3.68.37.37,0,0,1-.47-.11c-.08-.13.15-.49.68-1.08a16.13,16.13,0,0,0,2.26-3,11.22,11.22,0,0,0,1.23-4.31c0,.33.09-1.89.39-6.68,0-.23.13-.33.36-.29l2.72.35c.47.07.69.3.64.71a.85.85,0,0,1-.34.53q-.28.25-.3.36c-.17,2.75-.31,4.56-.41,5.42a12.38,12.38,0,0,1-.83,3.41,4.73,4.73,0,0,1,2.22.59c.91.55,1.34,1.16,1.3,1.83a1.34,1.34,0,0,1-.39.86A1,1,0,0,1,17.91,274.81Zm-5.34-8.35a2.28,2.28,0,0,1,.07.71,1.55,1.55,0,0,1-.46,1.06,1.1,1.1,0,0,1-1.06.31c-.49-.08-.77-.6-.86-1.54,0-.38-.07-1.05-.14-2,0-.34.12-.5.46-.48s.77.36,1.37,1A2.32,2.32,0,0,1,12.57,266.46Zm8.68-.88a.57.57,0,0,1-.66.36.81.81,0,0,0-.29,0q-1.05.57-1.59.81a9.12,9.12,0,0,1-1.66.53.34.34,0,0,1-.32-.07c-.08-.08-.08-.17,0-.29.61-.92,1.21-1.95,1.81-3.08a.29.29,0,0,1,.46-.13l2,1.13A.61.61,0,0,1,21.25,265.58Zm4.26,10.16a.53.53,0,0,1-.58.28.28.28,0,0,0-.19.07,9.56,9.56,0,0,1-6.6,3.15c-.3,0-.45-.07-.44-.26a.28.28,0,0,1,.12-.21A16,16,0,0,0,22.19,274q.18-.3.36-.3a.9.9,0,0,1,.24.07L25.24,275A.53.53,0,0,1,25.51,275.74Zm9.92-7.3a.45.45,0,0,1-.53.47l-3.55-.22-.22,2.67.34,0,1.27-1.12a.68.68,0,0,1,.49-.21.7.7,0,0,1,.49.27l1.12,1.27a.81.81,0,0,1,.26.52c0,.35-.2.52-.54.5l-14.33-.9a.46.46,0,0,1-.49-.56c0-.33.2-.49.56-.47l2.27.14.14-2.67-2.3-.15a.44.44,0,0,1-.47-.53c0-.35.2-.52.53-.5l2.28.14.11-2.54a.31.31,0,0,1,.12-.24.26.26,0,0,1,.24-.06l2.43.23a.61.61,0,0,1,.62.76.62.62,0,0,1-.38.56.2.2,0,0,0-.09.15l-.06,1.33,2.68.17.22-2.7q0-.34.39-.3l2.4.34a.63.63,0,0,1,.62.76.69.69,0,0,1-.41.56.18.18,0,0,0-.12.15l-.11,1.37.4,0,1.27-1.12a.67.67,0,0,1,.49-.21.72.72,0,0,1,.49.27l1.14,1.27A.75.75,0,0,1,35.43,268.44Zm-.57-7.11c0,.33-.2.49-.56.47l-5.08-.32-.09,1.38q-.06,1.08-1,1.08h-1.7c-.47,0-.68-.21-.65-.65l.12-2L21.56,261c-.35,0-.51-.2-.49-.53a.47.47,0,0,1,.56-.5l4.32.27.19-2.7a.29.29,0,0,1,.37-.3l2.74.31a.59.59,0,0,1,.62.73.64.64,0,0,1-.38.59.2.2,0,0,0-.12.17l-.09,1.41,1.75.11,1.33-1.25a.62.62,0,0,1,.49-.21.7.7,0,0,1,.49.27l1.27,1.41A.81.81,0,0,1,34.86,261.33Zm-6.53,7.11-2.62-.16-.11,2.65,2.51.16Zm6.17,9.75c0,1-.74,1.54-2.09,1.6a27.28,27.28,0,0,1-5.14-.27c-.79-.1-1.16-.6-1.11-1.48l.25-4.34a.39.39,0,0,1,.12-.28.48.48,0,0,1,.3-.07l2.45.29a.56.56,0,0,1,.58.62c0,.17-.14.32-.38.45a.2.2,0,0,0-.09.16l-.07,1.27a.42.42,0,0,0,.44.5,7.28,7.28,0,0,0,1.41.09,1.24,1.24,0,0,0,1-.87l.82-2a.35.35,0,0,1,.49-.29c.26.07.35.28.26.63l-.26,1.49a1,1,0,0,0,.36,1.06A1.43,1.43,0,0,1,34.5,278.19Z"/><path class="cls-2" d="M24.86,286.55c-.08,0-.15,0-.18,0q-2,1.85-3.55,3.12l-3.92,3.22a.44.44,0,0,0-.21.3q0,.18.27.42c1.68,1.4,2.94,2.49,3.76,3.26a27.39,27.39,0,0,1,3.1,3.6,2.85,2.85,0,0,1,.63,1.79,3.14,3.14,0,0,1-.66,1.64l-.41.53a1.27,1.27,0,0,1-1.17.43,1.5,1.5,0,0,1-1.41-.86,30.73,30.73,0,0,0-6.33-9.72,1.46,1.46,0,0,1-.48-1.18,1.38,1.38,0,0,1,.43-.95,76.77,76.77,0,0,0,7.51-8.79.35.35,0,0,1,.57-.07l2.58,2.08a.6.6,0,0,1,.28.55c0,.46-.24.67-.62.65Z"/><path class="cls-2" d="M15.84,314a1.58,1.58,0,0,1-.53,1.17,1.56,1.56,0,0,1-1.24.34,1.28,1.28,0,0,1-1.08-.71,11.7,11.7,0,0,0-2.3-3.12c-.2-.19-.28-.35-.23-.49s.52-.31,1.42-.26a5.55,5.55,0,0,1,2.66.81A2.38,2.38,0,0,1,15.84,314Zm.46,6.59a1.56,1.56,0,0,1-.54,1.18,1.62,1.62,0,0,1-1.25.33,1.27,1.27,0,0,1-1.07-.73,11.94,11.94,0,0,0-2.31-3.12c-.2-.19-.28-.35-.23-.49s.53-.31,1.45-.26a5.51,5.51,0,0,1,2.63.83A2.41,2.41,0,0,1,16.3,320.6Zm13.62-3.93a2.44,2.44,0,0,1-.35,1q-5,8.55-15.3,12s-.07.06-.06.15a.68.68,0,0,1-.49.69c-.4.12-.67,0-.81-.29l-1.5-3.18c-.13-.25-.06-.42.21-.49q11.33-3.26,17.07-10.1a.92.92,0,0,1,.71-.44C29.78,316.05,30,316.26,29.92,316.67Z"/><path class="cls-2" d="M28.39,353.12c0,.35-.23.51-.61.49l-15-.94a.58.58,0,1,1,.07-1.16l5.56.34.55-8.68-4.66-.29a.59.59,0,1,1,.07-1.17l9.56.6L25.43,341a.71.71,0,0,1,.54-.23.7.7,0,0,1,.49.29l1.36,1.58a.91.91,0,0,1,.31.6c0,.35-.22.52-.61.49l-5.3-.33-.54,8.69,2.46.15,1.52-1.31a.74.74,0,0,1,.54-.21.7.7,0,0,1,.49.27l1.39,1.55A.94.94,0,0,1,28.39,353.12Z"/><path class="cls-2" d="M25,367.62a.85.85,0,0,1,.29.61.68.68,0,0,1-.44.55l-1,.52a15.75,15.75,0,0,1-5.26,9.17q-3.42,2.79-9.83,4.22a4.72,4.72,0,0,1-1.29.16c-.35,0-.52-.17-.5-.45s.3-.51.85-.77q6.06-3,8.61-6.43a22,22,0,0,0,3-7.05l-11.63-.73a.58.58,0,1,1,.07-1.16l11.39.71,2.13-1.65a1.23,1.23,0,0,1,.74-.35,1.12,1.12,0,0,1,.66.39Z"/><path class="cls-2" d="M10.88,402.44c.1.13,0,.37-.18.73L9,405.94a1.45,1.45,0,0,0-.26,1.23,4.8,4.8,0,0,1,.17.7A1.44,1.44,0,0,1,8.47,409a1.49,1.49,0,0,1-1.12.49c-1.4,0-2.2-1.15-2.38-3.52a30.72,30.72,0,0,1,0-3.88q.27-4.25,1.18-10.78c0-.22.15-.32.36-.29l2.61.35q.66.09.66.6a.57.57,0,0,1-.38.56c-.08,0-.11.06-.12.1q-1,7.35-1.1,9.23c-.07,1.06-.1,1.47-.11,1.22,0,.66.09,1,.29,1a.34.34,0,0,0,.27-.14L10,402.62c.23-.21.42-.32.58-.3A.34.34,0,0,1,10.88,402.44Zm12.88-6.16c-.11.34-.41.51-.88.5l-.88,0-3.91,2.57a.88.88,0,0,1-.52.18c-.28,0-.41-.17-.39-.47a.59.59,0,0,1,.07-.26l1.25-2.66-5-.31a.55.55,0,0,1,.07-1.09l5,.31,1.64-1.46a.7.7,0,0,1,.54-.18.73.73,0,0,1,.52.24l2,1.73Q23.9,395.83,23.76,396.28ZM22.6,406.73a2.46,2.46,0,0,1,.08.78,1.63,1.63,0,0,1-1.56,1.6,9.15,9.15,0,0,1-2.18.1c-3.75-.23-5.59-1.89-5.54-5,0-.59.13-.92.41-1s.28.06.38.26a3.24,3.24,0,0,0,2.46,1.89,11.06,11.06,0,0,0,3.67,0,3.41,3.41,0,0,1,.72,0A1.62,1.62,0,0,1,22.6,406.73Z"/><path class="cls-2" d="M14,418.59c0,.28-.2.44-.54.47l-5.19-.32L7.1,425.52c-.19,1-.91,1.47-2.16,1.3l-.71-.09a.78.78,0,0,1-.73-1l1.29-7.18-2.19-.14a.52.52,0,0,1-.47-.59.45.45,0,0,1,.53-.47l2.31.14.77-4.25c0-.16.14-.23.28-.2l3.05.54a.46.46,0,0,1,.44.58.47.47,0,0,1-.43.45s-.05,0-.05,0l-.54,3.1,1,.07,1.72-1.49a.67.67,0,0,1,.49-.21.68.68,0,0,1,.46.27L13.71,418A1,1,0,0,1,14,418.59Zm7,12.75c-.3.88-.71,1.31-1.22,1.28a1.19,1.19,0,0,1-.65-.28c-1.13-.87-1.89-1.42-2.29-1.66-.64,2.6-2.1,3.82-4.4,3.66a3.92,3.92,0,0,1-2.75-1.25,3.61,3.61,0,0,1-1-2.81c.16-2.47,1.85-3.53,5.09-3.19l.33-5.17a.16.16,0,0,1,.19-.17l3,.29a.51.51,0,0,1,.52.57.54.54,0,0,1-.32.54.09.09,0,0,0-.06.1l-.28,4.4a13.21,13.21,0,0,1,2.65,1,1.93,1.93,0,0,1,1.28,2A2.16,2.16,0,0,1,21.06,431.34Zm-7.25-1.73a5.07,5.07,0,0,0-1.42-.33c-1.11-.07-1.69.25-1.73,1a1.24,1.24,0,0,0,.51,1.13,2.07,2.07,0,0,0,1.28.42C13.28,431.78,13.73,431.06,13.81,429.61ZM23,420.48a1.57,1.57,0,0,1-.54.87,1.32,1.32,0,0,1-.94.34,1.47,1.47,0,0,1-1-.57,13.25,13.25,0,0,0-3.23-2.73A.48.48,0,0,1,17,418q0-.34.51-.42a6.22,6.22,0,0,1,1.44-.07,6.51,6.51,0,0,1,2.77.76A2,2,0,0,1,23,420.48Z"/><path class="cls-2" d="M18.63,454.62q-.12,3.88-4.12,5.44a17,17,0,0,1-7.28.84c-.43,0-.6-.19-.53-.51a.4.4,0,0,1,.37-.32q7.71-1.67,7.79-5.66a3.12,3.12,0,0,0-.81-2.35,3.33,3.33,0,0,0-2.3-1,6.35,6.35,0,0,0-3.11.79l-1.66,2a1.23,1.23,0,0,1-1,.5,1,1,0,0,1-.74-.45l-.54-.7a1.33,1.33,0,0,1-.32-.92,1.61,1.61,0,0,1,.41-.93l7-8.42-5.48-.34a.49.49,0,0,1-.52-.59c0-.35.21-.52.59-.5l5.82.37,2-1.44a.75.75,0,0,1,1.09.12l1.47,1.58a.81.81,0,0,1,.27.73.72.72,0,0,1-.62.55l-.62.12-4.39,5.12-.73.62a5.63,5.63,0,0,1,.82-.32,8,8,0,0,1,1.2,0A6.91,6.91,0,0,1,17,450.5,5,5,0,0,1,18.63,454.62Z"/><path class="cls-2" d="M15.53,478.69q0,7.95-10.21,9.79c-.48.09-.78,0-.89-.16a.45.45,0,0,1,0-.22c0-.21.17-.4.48-.56a15.66,15.66,0,0,0,4.92-3.41,7.94,7.94,0,0,0,2.07-5.48c0-1.91-.71-2.89-2.13-2.92-1.18,0-3,.55-5.34,1.71a.14.14,0,0,0-.09.13.6.6,0,0,1-.37.43.55.55,0,0,1-.77-.45l-.73-2.89a.29.29,0,0,1,.21-.39,25.26,25.26,0,0,1,7.63-1.2,5.56,5.56,0,0,1,3.87,1.67A5.48,5.48,0,0,1,15.53,478.69Zm-3.38-8.85a2.19,2.19,0,0,1-.44,1.46,1.43,1.43,0,0,1-1.31.53,3,3,0,0,1-.42-.05c-.44-.1-.77-.49-1-1.18A13.47,13.47,0,0,0,7,467a.45.45,0,0,1-.07-.54c.11-.19.36-.26.73-.22a6.59,6.59,0,0,1,3,1A3.11,3.11,0,0,1,12.15,469.84Z"/><path class="cls-2" d="M9.08,512.2A2,2,0,0,1,7,514.06a1.87,1.87,0,0,1-1.37-.67A1.9,1.9,0,0,1,5.11,512a2,2,0,0,1,2.11-1.89,1.92,1.92,0,0,1,1.38.68A2,2,0,0,1,9.08,512.2ZM10,494.77l-2,13a.62.62,0,0,1-.73.57.56.56,0,0,1-.59-.65l0-13.09a1.67,1.67,0,0,1,.55-1.26,1.65,1.65,0,0,1,1.29-.48,1.68,1.68,0,0,1,1.55,2Z"/><path class="cls-3" d="M40.49,270.78q-.63.21-1.41.51a.52.52,0,0,1-.17,0,.31.31,0,0,1-.3-.35.36.36,0,0,1,.27-.33c.52-.19,1-.36,1.44-.5l-.44-1.6a.2.2,0,0,1,0-.13.32.32,0,0,1,.36-.28.33.33,0,0,1,.31.25l.43,1.55a9.52,9.52,0,0,1,3.28-.48c1.26.08,1.92.72,1.86,1.64a1.58,1.58,0,0,1-1.85,1.49,3.47,3.47,0,0,1-.91-.15.4.4,0,0,1-.3-.39.34.34,0,0,1,.37-.32.31.31,0,0,1,.13,0,2.88,2.88,0,0,0,.71.12c.7,0,1.11-.2,1.15-.83s-.32-.9-1.2-1a8.37,8.37,0,0,0-3.06.5l1.11,4.09a.44.44,0,0,1,0,.16.34.34,0,0,1-.67,0Zm3.25-2.07a.32.32,0,0,1-.34.31.4.4,0,0,1-.24-.11,7.19,7.19,0,0,0-.92-.8.31.31,0,0,1,.19-.58.46.46,0,0,1,.21.08,6.4,6.4,0,0,1,1,.79A.41.41,0,0,1,43.74,268.71Z"/><path class="cls-2" d="M40.49,270.78q-.63.21-1.41.51a.52.52,0,0,1-.17,0,.31.31,0,0,1-.3-.35.36.36,0,0,1,.27-.33c.52-.19,1-.36,1.44-.5l-.44-1.6a.2.2,0,0,1,0-.13.32.32,0,0,1,.36-.28.33.33,0,0,1,.31.25l.43,1.55a9.52,9.52,0,0,1,3.28-.48c1.26.08,1.92.72,1.86,1.64a1.58,1.58,0,0,1-1.85,1.49,3.47,3.47,0,0,1-.91-.15.4.4,0,0,1-.3-.39.34.34,0,0,1,.37-.32.31.31,0,0,1,.13,0,2.88,2.88,0,0,0,.71.12c.7,0,1.11-.2,1.15-.83s-.32-.9-1.2-1a8.37,8.37,0,0,0-3.06.5l1.11,4.09a.44.44,0,0,1,0,.16.34.34,0,0,1-.67,0Zm3.25-2.07a.32.32,0,0,1-.34.31.4.4,0,0,1-.24-.11,7.19,7.19,0,0,0-.92-.8.31.31,0,0,1,.19-.58.46.46,0,0,1,.21.08,6.4,6.4,0,0,1,1,.79A.41.41,0,0,1,43.74,268.71Z"/></g></g></svg>