<svg id="レイヤー_1" data-name="レイヤー 1" xmlns="http://www.w3.org/2000/svg" xmlns:xlink="http://www.w3.org/1999/xlink" viewBox="0 0 721.38 112.38"><defs><style>.cls-1{fill:none;}.cls-2{clip-path:url(#clip-path);}.cls-3{fill:#e60012;}.cls-4{fill:#322a38;}.cls-5{fill:#fff;}</style><clipPath id="clip-path"><rect class="cls-1" y="-0.03" width="612.29" height="112.41"/></clipPath></defs><g id="レイヤー_2" data-name="レイヤー 2"><g id="バック"><g class="cls-2"><circle class="cls-3" cx="245.11" cy="179.25" r="352.1"/><path class="cls-4" d="M418.88,642.1a171.71,171.71,0,0,1-58.64-10.32c-17.85-6.46-36.18-6.79-51.63-.93a173,173,0,0,1-118.7,1.36c-47.76-16.79-86.29-55-105.7-105L-43.27,199.46a173.44,173.44,0,0,1,39-185.41L46.49-36.72A174,174,0,0,1,228.64-76.94l72.5,26.53a90.3,90.3,0,0,0,63.59.18l1-.38,72-26.33A173.94,173.94,0,0,1,619.84-36.72L670.6,14.05a173.4,173.4,0,0,1,39,185.4L580.44,531.58A172.26,172.26,0,0,1,418.88,642.1ZM169.29-46.57A132.94,132.94,0,0,0,75.39-7.82L24.62,43A132.55,132.55,0,0,0-5.17,184.65l127.48,327.8c15.08,38.78,44.66,68.37,81.15,81.21a130.28,130.28,0,0,0,90.64-1c24.56-9.33,53-9.09,80.06.71a132.14,132.14,0,0,0,168.19-76.6L671.5,184.64A132.51,132.51,0,0,0,641.71,43L590.94-7.82A132.86,132.86,0,0,0,451.75-38.55L379.26-12a132.37,132.37,0,0,1-91.8.13L214.59-38.55A131.6,131.6,0,0,0,169.29-46.57Z"/><path class="cls-4" d="M313.18,47c-41.73-195-31.39-311.23,31.62-355.36,64.26-45,153.06,9.62,156.81,12l-21.7,34.64L490.76-279l-10.82,17.34c-.7-.43-69.72-42.66-111.78-13.09-26.64,18.73-64,84.33-15,313.27Z"/><path class="cls-4" d="M347.85,87.07c-64.19,0-122.45-23.77-126.53-25.46L237,23.87c1.42.58,143.67,58.38,207.2-14.62L475,36.09C440.87,75.36,392.9,87.07,347.85,87.07Z"/><rect class="cls-5" x="595.28" y="-0.03" width="17.01" height="112.41"/></g></g></g></svg>