<svg xmlns="http://www.w3.org/2000/svg" viewBox="0 0 524.12 67.56"><defs><style>.cls-1{fill:#fff;}.cls-2{fill:none;stroke:#fff;stroke-linejoin:round;stroke-width:1.13px;}.cls-3{fill:#918487;}</style></defs><g id="レイヤー_2" data-name="レイヤー 2"><g id="ロゴ"><path class="cls-1" d="M221.35,51.9c0,.39-.21.58-.64.58h-7.66A22.14,22.14,0,0,0,220,55a.33.33,0,0,1,.29.29.45.45,0,0,1-.13.38l-1.25,1.42-.6,1.41c-.26.59-.55.89-.87.89a1.45,1.45,0,0,1-.58-.16,11.52,11.52,0,0,1-6.38-6.73h-5.06q-3.27,4.37-9.81,5.71c-.56.1-.87.05-.93-.16s.08-.32.35-.52a22.26,22.26,0,0,0,5.55-5h-5.71c-.34,0-.51-.21-.51-.64s.17-.61.51-.61h6.51a13.37,13.37,0,0,0,1.22-2.95.42.42,0,0,1,.58-.32L206.86,49c.35.15.52.36.52.64s-.21.53-.61.58a.19.19,0,0,0-.19.13,9.35,9.35,0,0,1-.39.86h3.91a.38.38,0,0,1,0-.16.61.61,0,0,1,.13-.64c.15-.15.36-.1.64.16s.37.43.54.64h4.43l2-2a.87.87,0,0,1,.58-.29.85.85,0,0,1,.58.29l2,2A1.17,1.17,0,0,1,221.35,51.9Zm-4.55-6c.11,1.63-.3,2.65-1.22,3.08a2.24,2.24,0,0,1-1,.22,1.43,1.43,0,0,1-1.38-.89,4,4,0,0,1,.16-2.09l-13,1.32a.2.2,0,0,0-.19.12.6.6,0,0,1-.55.39c-.32,0-.51-.2-.57-.61L198.5,44c0-.28.14-.41.41-.39s1.33.08,3.47.16l.35-4.29q0-.42.48-.36l4.39.64c.53.09.77.36.71.81a.69.69,0,0,1-.61.64.21.21,0,0,0-.2.13l-1.44,2.53,7.38.06a16.72,16.72,0,0,0-.52-2.34.87.87,0,0,1-.06-.32c0-.23.09-.35.29-.35a1.07,1.07,0,0,1,.61.29Q216.64,43.54,216.8,45.94Zm-6.7,10.93a.47.47,0,0,1-.61.07s-.09,0-.16,0a14.74,14.74,0,0,1-7.24,1.38c-.11,0-.18-.07-.23-.2a.22.22,0,0,1,.13-.25A27.16,27.16,0,0,0,207.34,54a.37.37,0,0,1,.52,0l2.21,2.08C210.37,56.35,210.38,56.62,210.1,56.87Zm4.14,7.47a.9.9,0,0,1,.22.55.58.58,0,0,1-.35.51.62.62,0,0,1-.64,0,.25.25,0,0,0-.29,0q-3.41,2.31-9.65,2.12c-.17,0-.26-.07-.26-.2a.34.34,0,0,1,.23-.32,35.69,35.69,0,0,0,8-5c.17-.15.33-.13.48.07Zm-3.11-3.91a.63.63,0,0,1,.16.35c0,.45-.22.59-.64.42a.22.22,0,0,0-.16,0,12.88,12.88,0,0,1-6.9,1.67.23.23,0,0,1-.22-.26c0-.08.07-.17.22-.26,1-.62,1.88-1.19,2.63-1.73a18.52,18.52,0,0,0,2.37-2,.3.3,0,0,1,.23-.1.39.39,0,0,1,.16,0l.1,0Z"/><path class="cls-1" d="M241.14,49.34l-.64.48a90.87,90.87,0,0,1-.61,12.09,4.48,4.48,0,0,1-1,2.3,2.64,2.64,0,0,1-2.17,1.09c-1.16,0-1.9-.7-2.22-2.11-.15-.66-.45-1-.89-1.16l-1.22-.29c-.43-.1-.63-.28-.61-.54s.22-.51.61-.51h2.08c.9,0,1.39-.34,1.48-1a84.82,84.82,0,0,0,.48-10h-2.12q-.61,9.48-9,15.51a.82.82,0,0,1-.84.19.38.38,0,0,1-.19-.64q5.29-7.9,5.58-15.06H226.2a.57.57,0,0,1-.64-.64c0-.45.21-.68.64-.68H230q0-2.12,0-6.57a.42.42,0,0,1,.13-.32.44.44,0,0,1,.32-.13l3.94.2a.7.7,0,0,1,.77.86,1,1,0,0,1-.29.56c-.19.23-.29.37-.29.44l-.12,5h1.82L238,46.62a.76.76,0,0,1,.57-.2.85.85,0,0,1,.58.2l2,1.79A.55.55,0,0,1,241.14,49.34Zm13.36.93-.45.45-.06,9.1c0,1.2-.44,1.83-1.31,1.89l-1.89.16c-.52.05-.77-.15-.77-.57V59.89h-3v1A1,1,0,0,1,246,62l-2.22.22a.6.6,0,0,1-.53-.2.76.76,0,0,1-.24-.53V48.63c0-.38.22-.5.64-.35l3.4,1.16h2.76l1.63-1.67a.87.87,0,0,1,.58-.29,1.07,1.07,0,0,1,.64.29l1.89,1.57Q255,49.76,254.5,50.27ZM250,58.51V50.75h-3v7.76Z"/><path class="cls-1" d="M281.92,46.17a.61.61,0,0,1,0,1l-.57.54-.19,11.22c0,1.09-.43,1.68-1.22,1.77l-2.63.25a.58.58,0,0,1-.5-.16.61.61,0,0,1-.21-.48l0-.93h-3.24v6.32a1.63,1.63,0,0,1-1.48,1.63l-1.95.16a.94.94,0,0,1-.71-.22.87.87,0,0,1-.29-.67l0-7.22H265.6q-.06,1.18-.9,1.29l-2.53.25c-.56.07-.84-.27-.87-1L261,45a.38.38,0,0,1,.2-.36.59.59,0,0,1,.47,0L265.38,46H269V40.91a.42.42,0,0,1,.51-.48l3.59.22a.9.9,0,0,1,1,1,.93.93,0,0,1-.54.83.2.2,0,0,0-.13.19V46h3.27l1.83-1.66a.82.82,0,0,1,.57-.19.72.72,0,0,1,.58.22ZM269,47.51h-3.56l.06,4.27H269Zm0,5.8H265.5l.1,4.52H269Zm7.82-5.8h-3.43v4.27h3.36Zm-.1,5.8h-3.33v4.52h3.27Z"/><path class="cls-1" d="M315.66,62.35,315,63.7a16,16,0,0,0-.07,2.12c0,.72-.55,1.14-1.66,1.25-1.39.12-2.78.19-4.17.19q-10,0-14.46-4.27a14.79,14.79,0,0,1-3.84,3c-.09,0-.16.16-.21.37s-.14.31-.24.33c-.26.07-.44-.07-.55-.41l-1.18-2.86c-.07-.27,0-.43.32-.48.72-.1,1.72-.27,3-.51l.13-7.28h-3.31a.53.53,0,0,1-.6-.61c0-.42.2-.64.6-.64h3.08l1.6-1.6a.78.78,0,0,1,.52-.26.65.65,0,0,1,.38.16L296.59,54a.94.94,0,0,1,.22.54.61.61,0,0,1-.22.45l-.68.58-.13,6.15a23.22,23.22,0,0,0,8.79,1.38A55.86,55.86,0,0,0,315.34,62a.31.31,0,0,1,.29.08A.31.31,0,0,1,315.66,62.35ZM293.75,46.9a2.58,2.58,0,0,1,.82,1.8,1.72,1.72,0,0,1-.45,1.18,1.42,1.42,0,0,1-1.12.52,1.3,1.3,0,0,1-1.19-.64c-.64-.75-1.43-1.77-2.37-3a.54.54,0,0,1-.07-.29c0-.4.22-.6.64-.57C292,46,293.2,46.35,293.75,46.9Zm23.09,9c-1.43.85-2.25,1.69-2.46,2.5a.86.86,0,0,1-.87.74,2,2,0,0,1-1.09-.42A16.35,16.35,0,0,1,307,52.32a10.36,10.36,0,0,1-2.72,3.08,15.33,15.33,0,0,1-6.44,3.2c-.35.09-.52,0-.52-.25a.58.58,0,0,1,.19-.36,46.79,46.79,0,0,0,3.79-4.16A24.7,24.7,0,0,0,304.05,49a.49.49,0,0,1,.65-.28l1,.61a28.53,28.53,0,0,1-1.06-5h-4.48a.57.57,0,0,1-.65-.64c0-.4.22-.61.65-.61H304l1.6-1.47a1,1,0,0,1,.65-.29.89.89,0,0,1,.61.29l1.5,1.47c.26.26.39.46.39.61s-.2.47-.6.64-.59.32-.59.45a1.57,1.57,0,0,0,.16.51A20.54,20.54,0,0,0,311,50.91a17.47,17.47,0,0,0,5.77,4.14c.25.12.38.28.38.48S317,55.77,316.84,55.88Z"/><path class="cls-1" d="M346.89,59.66c-.11,1.46-.55,2.18-1.32,2.18a.93.93,0,0,1-.45-.1l-3.36-1.63q-2.08,4.14-7.53,6.31c-.37.15-.62.13-.77-.06s-.09-.46.19-.74a17.8,17.8,0,0,0,4.55-7.05,31,31,0,0,0-5.61-1.86q-2.54,7-6.73,7.12a3.6,3.6,0,0,1-3-1.19,4.47,4.47,0,0,1-1-3.11A5.14,5.14,0,0,1,324.19,55a8.67,8.67,0,0,1,5.1-1.44,59.07,59.07,0,0,0,1.54-7.82h-5.77a.57.57,0,0,1-.64-.64c0-.47.21-.68.64-.61l5.48,0,1.89-1.7a1.13,1.13,0,0,1,.8-.32,1.12,1.12,0,0,1,.77.25l2.05,1.77a.81.81,0,0,1,.23.54.77.77,0,0,1-.39.67l-.86.55q-.45,3.07-1.45,7.63A54.51,54.51,0,0,1,339,55c.2-1.6.33-2.77.42-3.49q.06-.45.54-.39l3.4.55c.56.08.82.34.8.77a.91.91,0,0,1-.51.8.19.19,0,0,0-.13.13q-.19,1.47-.48,2.85l.87.29c.21.06.61.2,1.18.42A2.45,2.45,0,0,1,346.89,59.66Zm-18.5-3.4-.57,0a3.64,3.64,0,0,0-2.34.77,2.72,2.72,0,0,0-1.09,2.18,1.72,1.72,0,0,0,.3,1,.85.85,0,0,0,.85.37Q327.27,60.31,328.39,56.26Z"/><path class="cls-1" d="M5.2,20.48a.36.36,0,0,1,.23.32c0,1.16-4,5.3-5.11,5.3C.16,26.1,0,26,0,25.91a.31.31,0,0,1,.06-.16A14.68,14.68,0,0,0,2,19.52c0-.26.13-.39.29-.39s.06,0,.1,0ZM6.36,9a.46.46,0,0,1-.48-.45.52.52,0,0,1,.48-.48H13.2l.44-.77c.16-.26.36-.45.55-.45a.42.42,0,0,1,.35.16l1.71,1.57c.28.26.38.45.38.61,0,.55-6.26,4.66-6.84,4.66a.3.3,0,0,1-.29-.32.24.24,0,0,1,.07-.2A37.54,37.54,0,0,0,12.71,9Zm5,6.29a.88.88,0,0,1,.29-.06c1.06,0,4.37,2.5,4.37,6.16,0,3.85-4.18,6.2-7.71,6.2A.3.3,0,0,1,8,27.26a.34.34,0,0,1,.23-.36c3.5-1.09,4.36-3.37,4.36-5.45a5.37,5.37,0,0,0-2.63-5,.34.34,0,0,1-.13-.26.42.42,0,0,1,.16-.32Zm9.73,2.44a.21.21,0,0,1,.13,0,.31.31,0,0,1,.29.22A29.76,29.76,0,0,0,23.66,24a.22.22,0,0,1,0,.13.29.29,0,0,1-.32.26.11.11,0,0,1-.09,0c-3.09-2.28-4.88-4.69-4.88-5.11,0-.22.19-.32.38-.41Z"/><path class="cls-1" d="M39.39,27.26a7.59,7.59,0,0,1-2.66-.45c-2.86-1-3.63-3.5-3.63-6.49A45.12,45.12,0,0,1,35.35,7.9a.41.41,0,0,1,.41-.32s2.25.7,2.54.83a.41.41,0,0,1,.32.39.76.76,0,0,1-.06.25C38,10.63,36,16,36,20.39c0,3.69,2.22,5,4.3,5,2.51,0,4.5-1.95,5.81-3.43a.5.5,0,0,1,.36-.19.51.51,0,0,1,.35.13.43.43,0,0,1,.13.32C47,22.63,44.3,27.26,39.39,27.26Zm2.76-16.54a.67.67,0,0,1,.39-.13c.35,0,.51.26,1.31,1.67a16.67,16.67,0,0,1,1.51,3.05.22.22,0,0,1-.22.23c-.1,0-.16-.07-.23-.13-1.06-.9-1.28-1.09-4.07-3.24a.4.4,0,0,1-.13-.29.3.3,0,0,1,.13-.29Zm4.4,1.86c-1.44-1.18-2.31-1.83-2.73-2.11-.13-.13-.19-.23-.19-.29s.06-.16.19-.29L45.14,9a.49.49,0,0,1,.32-.13.39.39,0,0,1,.29.19s.06.13.87,1.38a20.65,20.65,0,0,1,1.7,3.15.26.26,0,0,1-.07.16s-.06,0-.13,0a.46.46,0,0,1-.22-.09Z"/><path class="cls-1" d="M71.27,20.16c-.13,0-.23-.06-.23-.19v-.06l0-.55H64.69v.19a.38.38,0,0,1-.26.32l-2.89.55a.22.22,0,0,1-.22-.23L61.38,11a.19.19,0,0,1,.19-.16h0l2.92,1a.37.37,0,0,1,.26.35v.1h1.47l-1-4.5H60.9c-1.06,9.51-3.27,12.49-7.67,15.57a.11.11,0,0,1-.1,0,.21.21,0,0,1-.22-.13.22.22,0,0,1-.07-.16.58.58,0,0,1,.13-.29c2.38-2.76,4.17-5,4.17-12.55,0-1.42-.06-2.89-.16-4.5a.18.18,0,0,1,.2-.16h0l3.59.77a.37.37,0,0,1,.23.39v.06s0,.06,0,.1H73.81l1.25-3.25a.32.32,0,0,1,.29-.22.35.35,0,0,1,.32.22L77,7.29a.62.62,0,0,1,0,.38.43.43,0,0,1-.36.16H68.8l.42,4.5H71.5l0-.71a.18.18,0,0,1,.19-.16h.06L75,12.52a.38.38,0,0,1,.23.32v0L74.8,20a.25.25,0,0,1-.26.22ZM63.69,23a.28.28,0,0,1,.1.17c0,.12-1.35,1.89-6.29,3.4a.14.14,0,0,1-.1,0,.24.24,0,0,1-.22-.13s0-.06,0-.13a.3.3,0,0,1,.1-.19c2.28-2.12,3.24-3,4.14-4.72a.18.18,0,0,1,.13-.06.35.35,0,0,1,.16.06Zm-1.47,3a.24.24,0,0,1-.16-.23.11.11,0,0,1,0-.09l.09-.26a.25.25,0,0,1,.23-.16.14.14,0,0,1,.1,0l.32.16a2.43,2.43,0,0,0,1.12.29c2.6,0,2.6-4.46,2.6-5.3v-.64a.19.19,0,0,1,.16-.19l.1,0,2.89,1.19a.37.37,0,0,1,.22.29v.06l0,1.45c-.16,4.72-1.67,5.65-2.31,5.65a1.18,1.18,0,0,1-.42-.07Zm9-9.86H64.72l0,2.51h6.42Zm.16-2.92H64.75v2.12H71.3Zm.61,10A.14.14,0,0,1,72,23c0-.07,0-.1.06-.13l2.73-1.64a.54.54,0,0,1,.16-.06.19.19,0,0,1,.19.09c1.19,1.9,2.15,3.6,3.08,5.3a.1.1,0,0,1,0,.1.27.27,0,0,1-.29.29.21.21,0,0,1-.13,0Z"/><path class="cls-1" d="M81,25.46a.36.36,0,0,1-.39-.32c0-.23.45-.52.87-.77,2.63-1.9,5.43-4,6.26-8.48.1-.61.13-1.22.19-1.83,0-.13.07-.26.2-.26s3.56,1.16,3.72,1.26a.25.25,0,0,1,.16.25,13.49,13.49,0,0,1-2,4.4C87.16,24.14,81.09,25.46,81,25.46ZM96.5,27.74l-3.3-.61c-.16,0-.26-.1-.26-.29l.35-13.61H83.73a.44.44,0,0,1-.45-.45.44.44,0,0,1,.45-.45h9.56l.2-6.42a.21.21,0,0,1,.19-.2h.06l3.47,1a.35.35,0,0,1,.26.35l-.2,5.27h6.14l1.25-3.21a.31.31,0,0,1,.29-.26.32.32,0,0,1,.29.26l1.38,3.53a.6.6,0,0,1,.06.22.31.31,0,0,1-.06.16.47.47,0,0,1-.39.2h-9l-.48,14.28a.22.22,0,0,1-.22.23Zm7.39-3.6a.41.41,0,0,1-.26.1s-.13,0-.74-.32c-2.92-1.67-3.72-3.34-3.72-5.49,0-.1,0-1.7.38-1.7a.36.36,0,0,1,.29.16c1.29,2,1.74,2.34,6.17,3.4,1.31.26,1.31.26,1.31.48a.52.52,0,0,1-.06.23Z"/><path class="cls-1" d="M117.27,26.49l.87-17.15c0-.13.07-.19.16-.19h.07l2.85.77a.38.38,0,0,1,.23.35l-.84,12.43a48.71,48.71,0,0,0,12.07-3.28.14.14,0,0,1,.1,0,.27.27,0,0,1,.26.29c0,1.12-12.75,7-15.57,7,0,0-.2,0-.2-.16Z"/><path class="cls-1" d="M153.55,25.33c-1.89-1.7-3.4-3.11-5.55-4.72a29.29,29.29,0,0,1-9.38,6.07l-.19,0c-.19,0-.29-.13-.35-.32v-.13a.34.34,0,0,1,.13-.29,34.34,34.34,0,0,0,12.26-14.28H140.32a.5.5,0,0,1-.45-.49.47.47,0,0,1,.45-.48h10.5a13.68,13.68,0,0,0,.55-1.38.29.29,0,0,1,.29-.22.82.82,0,0,1,.22.06l3,1.9a.35.35,0,0,1,.1.22,39,39,0,0,1-4.79,7c2.92,3.46,6.29,8.38,6.29,8.86a.45.45,0,0,1-.41.42.36.36,0,0,1-.26-.13Z"/><path class="cls-1" d="M169.22,27.48l-2.51-.35a.41.41,0,0,1-.32-.39V8.09a.29.29,0,0,1,.29-.29h.07l2.53.74a.39.39,0,0,1,.26.38v8.13L171,15a.33.33,0,0,1,.26-.13.72.72,0,0,1,.35.13c6.1,4.49,6.23,4.62,6.23,4.88a.39.39,0,0,1-.35.41c-.19,0-3.5-1.12-7.93-2.57v9.41c0,.19-.1.32-.26.32Z"/><path class="cls-1" d="M201.26,15.41c-2.31,6.87-7.55,10.27-12.39,12.26a.55.55,0,0,1-.23.07.35.35,0,0,1-.35-.29.25.25,0,0,1,.13-.23c4.2-3.11,7.38-6.48,9.08-11.62H184.27a.49.49,0,0,1-.45-.54.48.48,0,0,1,.45-.49h13.49l.29-1c0-.16.12-.26.22-.26a.11.11,0,0,1,.1,0l2.73,1.73a.34.34,0,0,1,.16.26Zm-14.64-4.88a.44.44,0,0,1-.45-.45.49.49,0,0,1,.45-.51h9.82l1.25-3.15a.33.33,0,0,1,.29-.26.34.34,0,0,1,.32.23L199.59,10a.47.47,0,0,1,.06.19.33.33,0,0,1-.38.32Z"/><path class="cls-1" d="M216.06,15.06c-.16.19-.26.25-.36.25a78.74,78.74,0,0,1-6.58-6.48.29.29,0,0,1,.26-.29c.06,0,.09,0,.16.06,3.37,2,4.72,2.8,7.51,4.63a.44.44,0,0,1,.26.35.38.38,0,0,1-.13.29Zm-4.82,9.34a.22.22,0,0,1-.06-.16.19.19,0,0,1,.16-.19c6.71-2.25,14.09-9.67,16.31-12.49a.27.27,0,0,1,.48.16.85.85,0,0,1-.07.16c-3.69,7.41-8.34,11.4-14.89,14.86a.3.3,0,0,1-.16,0c-.07,0-.13,0-.16-.07Z"/><path class="cls-1" d="M307.32,19.68a.52.52,0,0,1-.31.1.33.33,0,0,1-.34-.3,25.69,25.69,0,0,1-.31-4.32c0-3.11.28-6.16.52-9,0-.2.07-.37.27-.37a.43.43,0,0,1,.17,0L310,6.6a.44.44,0,0,1,.24.38.51.51,0,0,1,0,.24,66.63,66.63,0,0,0-.78,9.35l2.46-1.41a.9.9,0,0,1,.38-.1.5.5,0,0,1,.51.51.56.56,0,0,1-.24.45ZM321.16,7.25c0,11.58-3,18.29-7.47,21.4a.45.45,0,0,1-.27.11.48.48,0,0,1-.45-.45.63.63,0,0,1,.1-.31c2.57-3.59,4.39-8.8,4.39-18,0-1.31,0-2.67-.11-4.11a.21.21,0,0,1,.24-.24h.11l3.22,1a.35.35,0,0,1,.24.35Z"/><path class="cls-1" d="M334.24,25.4a.23.23,0,0,1-.14-.24.33.33,0,0,1,0-.17L344.65,7.8a.32.32,0,0,1,.27-.14.44.44,0,0,1,.21.07l1.85,2a.52.52,0,0,1,.1.31.24.24,0,0,1,0,.17L341.5,19a6.36,6.36,0,0,1,3.76-1.5,3.7,3.7,0,0,1,.59,0c1.23.1,2.43.82,3.42,2.6,1.27,2.23,2.4,3.08,3.49,3.08,1.51,0,2.95-1.71,4.45-3.56a.39.39,0,0,1,.28-.1.38.38,0,0,1,.37.38c0,.37-3.56,6.67-6.57,6.67a1.91,1.91,0,0,1-.62-.1c-3.49-1.16-3.42-6.2-5.2-7.12a2.09,2.09,0,0,0-1-.24c-2.26,0-4.79,3.15-5.44,4l-.62.82-1.57,2.46a.39.39,0,0,1-.28.11.23.23,0,0,1-.17,0Z"/><path class="cls-1" d="M369.37,10.16a.5.5,0,0,1-.48-.51.49.49,0,0,1,.48-.48h10.92a11.75,11.75,0,0,0,.86-1.37.27.27,0,0,1,.27-.17.45.45,0,0,1,.31.17l1.71,2.67a.91.91,0,0,1,.18.41c0,.14-.11.24-.31.34a41,41,0,0,1-6.64,2.95.25.25,0,0,1-.28-.27.42.42,0,0,1,.14-.28,28.3,28.3,0,0,0,3.08-3.46Zm14.25,15.58c0,1-4,1.2-5.55,1.2-2.06,0-9.11-.27-9.11-5.65,0-.82.17-1,.31-1.09.55-.28,2.36-1,2.36-1s.21.1.24.27a12.06,12.06,0,0,0,.38,2.33c.85,2.7,4.69,3.63,8.83,3.63.65,0,1.3,0,1.95-.07.41,0,.55.07.59.24ZM385,6.84a.68.68,0,0,1,.41-.14c.38,0,.55.28,1.4,1.79a17.42,17.42,0,0,1,1.61,3.25.24.24,0,0,1-.24.24.35.35,0,0,1-.24-.14c-1.13-1-1.37-1.16-4.34-3.46a.39.39,0,0,1-.14-.31.31.31,0,0,1,.14-.3Zm4.69,2c-1.54-1.27-2.46-1.95-2.91-2.26-.14-.14-.21-.24-.21-.31s.07-.17.21-.31l1.4-1a.57.57,0,0,1,.35-.13.38.38,0,0,1,.3.2s.07.14.93,1.47a22.12,22.12,0,0,1,1.81,3.36.26.26,0,0,1-.06.17.2.2,0,0,1-.14,0,.42.42,0,0,1-.24-.1Z"/><path class="cls-1" d="M416.32,25.09c.14,0,.24.17.24.34,0,.62-2.74,1.72-6.27,1.72-9.28,0-9.48-6.2-9.48-9.11a64.84,64.84,0,0,1,1.09-9.45c0-.17.11-.24.21-.24a.43.43,0,0,1,.17,0c.24.11,3.25,1.34,3.25,1.34a.32.32,0,0,1,.21.27.51.51,0,0,1,0,.21A32.1,32.1,0,0,0,404.47,15h8.73l1.3-3.36a.35.35,0,0,1,.35-.27c.06,0,.2,0,.27.27l1.44,3.81c0,.06,0,.1,0,.17,0,.41-.44.44-.44.44H404.33c-.06.69-.13,1.34-.13,1.95a8,8,0,0,0,1.23,4.76c1.47,1.95,5,2.64,7.81,2.64a12.1,12.1,0,0,0,3-.31Zm3.56-10.92A3.12,3.12,0,0,1,416.73,11a3.17,3.17,0,1,1,6.33,0A3.12,3.12,0,0,1,419.88,14.17Zm0-4.93A1.78,1.78,0,1,0,421.66,11,1.77,1.77,0,0,0,419.88,9.24Z"/><path class="cls-1" d="M444.16,14.12c-1.27,5.77-3.75,9.87-7.76,12.63a.49.49,0,0,1-.28.09.31.31,0,0,1-.34-.31.36.36,0,0,1,.1-.24,22,22,0,0,0,4.93-12.17h-5.93l.56,5.31a.56.56,0,0,1-.06.21.44.44,0,0,1-.22.16l-2.23.28h0c-.19,0-.34-.13-.34-.25l-.72-5.71H427a.48.48,0,0,1-.44-.47.45.45,0,0,1,.44-.46h4.78l-.56-4.6c0-.24.15-.27.25-.27h.09l2.48.4a.43.43,0,0,1,.38.37l.4,4.1h6.11c.13-1.55.19-3.26.19-5.15,0-.22.09-.34.28-.34l3.35.74a.26.26,0,0,1,.19.28,43.73,43.73,0,0,1-.56,4.47h2l1.18-3c.06-.22.18-.25.24-.25a.3.3,0,0,1,.31.25l1.31,3.44a.47.47,0,0,1,.06.19c0,.18-.22.34-.43.34Zm3.26-7.95a.62.62,0,0,1,.37-.12c.35,0,.5.25,1.28,1.61a16.65,16.65,0,0,1,1.45,2.95.21.21,0,0,1-.21.22.32.32,0,0,1-.22-.12c-1-.87-1.24-1.06-3.94-3.14a.4.4,0,0,1-.13-.28.32.32,0,0,1,.13-.28ZM451.67,8c-1.39-1.14-2.23-1.77-2.63-2-.13-.13-.19-.22-.19-.28s.06-.16.19-.28l1.27-.87a.51.51,0,0,1,.31-.13.39.39,0,0,1,.28.19s.06.12.83,1.33a20.29,20.29,0,0,1,1.65,3.05.17.17,0,0,1-.19.18A.4.4,0,0,1,453,9Z"/><path class="cls-1" d="M464.1,25.4l-.11,0a.41.41,0,0,1-.43-.37.37.37,0,0,1,.23-.32c5.36-2.14,7.33-4.28,7.33-6.56A4.26,4.26,0,0,0,471,17c-.57-2.11-1.91-3.28-5.14-3.28-2.76,0-4.82.54-8.53,1.57a.68.68,0,0,1-.2,0,.52.52,0,0,1-.54-.57.54.54,0,0,1,.34-.54,34.36,34.36,0,0,1,9.45-1.65c5.82,0,7.67,2.85,7.67,5.7C474,21.89,470.18,24.49,464.1,25.4Zm8-15.35a.54.54,0,0,1,.34-.12c.32,0,.46.23,1.17,1.49a14.85,14.85,0,0,1,1.34,2.71.19.19,0,0,1-.19.2.27.27,0,0,1-.2-.12c-.95-.8-1.15-1-3.63-2.88a.36.36,0,0,1-.11-.26.27.27,0,0,1,.11-.25ZM476,11.7c-1.28-1-2.05-1.51-2.42-1.88-.12-.12-.18-.2-.18-.26s.06-.14.18-.25l1.17-.8a.42.42,0,0,1,.28-.12.34.34,0,0,1,.26.17s.05.12.77,1.23a18.48,18.48,0,0,1,1.51,2.8.22.22,0,0,1-.06.14s-.05,0-.11,0a.35.35,0,0,1-.2-.09Z"/><path class="cls-1" d="M495.71,10.65a.29.29,0,0,1,.06.2c0,.31-2.23,2.76-7.39,6.1,2.39,3.34,4.13,5.71,7.44,10.05a.48.48,0,0,1,.06.22.43.43,0,0,1-.43.49.65.65,0,0,1-.34-.14c-3.17-3-6.16-6.37-10.07-10a.17.17,0,0,1-.09-.17.36.36,0,0,1,.12-.2l.14-.08a33.87,33.87,0,0,0,8.27-8.34.18.18,0,0,1,.15-.08.31.31,0,0,1,.17.05Z"/><path class="cls-1" d="M512.6,18.9a.56.56,0,0,1-.26.08.28.28,0,0,1-.29-.26,22.14,22.14,0,0,1-.25-3.59c0-2.6.23-5.14.43-7.53,0-.17,0-.32.22-.32a.33.33,0,0,1,.15,0l2.19.69a.34.34,0,0,1,.2.31.68.68,0,0,1,0,.2,53,53,0,0,0-.66,7.79l2.05-1.17a.74.74,0,0,1,.32-.09.42.42,0,0,1,.42.43.43.43,0,0,1-.2.37ZM524.12,8.54c0,9.64-2.48,15.24-6.22,17.83a.35.35,0,0,1-.23.09.39.39,0,0,1-.36-.37.42.42,0,0,1,.08-.26c2.14-3,3.65-7.33,3.65-15,0-1.08,0-2.23-.08-3.42,0-.18.11-.2.2-.2h.08l2.68.85a.28.28,0,0,1,.2.29Z"/><path class="cls-2" d="M286.7,22.69c-5.24,8.7-19.78,9.38-19.78,9.38s-6-13.42-.79-22.12S285.91.57,285.91.57,292,14,286.7,22.69Z"/><path class="cls-3" d="M286.7,22.69c-5.24,8.7-19.78,9.38-19.78,9.38s-6-13.42-.79-22.12S285.91.57,285.91.57,292,14,286.7,22.69Z"/><path class="cls-2" d="M239.09,22.69c5.25,8.7,19.79,9.38,19.79,9.38s6-13.42.79-22.12S239.88.57,239.88.57,233.85,14,239.09,22.69Z"/><path class="cls-3" d="M239.09,22.69c5.25,8.7,19.79,9.38,19.79,9.38s6-13.42.79-22.12S239.88.57,239.88.57,233.85,14,239.09,22.69Z"/><path class="cls-1" d="M253.17,23.61a.27.27,0,0,1-.31.08A2.43,2.43,0,0,1,251.48,22a4.47,4.47,0,0,1-3.5,1.6c-2.23,0-3.46-1.73-3.46-3.89,0-3.45,2.38-5.94,5.49-5.94a3.07,3.07,0,0,1,2,.67s0-.37.08-.82c.43-4,.48-4.17.67-4.21L254.5,9c.09,0,.16,0,.16.11a111,111,0,0,0-1.41,11.69,2.48,2.48,0,0,0,.09.86h1.38s.07,0,.07.05a.06.06,0,0,1,0,.06Zm-1.75-3.16c.06-.84.23-2.68.43-4.67a2.47,2.47,0,0,0-1.77-1.31h0c-1.85,0-3.41,2.35-3.41,5.61,0,1.34.28,2.81,1.49,2.81h0c1.49,0,2.7-1.38,3.27-2.37Z"/><path class="cls-1" d="M278.49,22.67c0,.06-.06.17-.15.19a9.5,9.5,0,0,1-3.22.52c-1.77,0-4.92-.8-4.92-4.41a5.35,5.35,0,0,1,5.59-5.42,3.14,3.14,0,0,1,3.42,3.37,5,5,0,0,1-.35,1.77.18.18,0,0,1-.15.13h0l-1.93-.54h-4.25c0,.13,0,.26,0,.37v.17c0,2.61,1.54,3.91,3,3.91a6.53,6.53,0,0,0,3.24-1.17l0,0s.07.05.07.09Zm-1.64-5.1a10,10,0,0,0,.11-1.36c0-1.91-1-2-1.23-2-1.39,0-2.7,1.36-3.11,3.33Z"/></g></g></svg>