<svg xmlns="http://www.w3.org/2000/svg" viewBox="0 0 259.95 97.21"><defs><style>.cls-1{fill:#fad6c3;}.cls-2{fill:#3e010a;}.cls-3{fill:#debe64;}.cls-4{fill:#3291bc;}.cls-5{fill:#593d1b;}.cls-6{fill:#ee9db8;}.cls-7{fill:#fff;}.cls-8{fill:#040000;}.cls-9{fill:#88634a;}.cls-10{fill:#d9b39d;}.cls-11{fill:#cd4851;}.cls-12{fill:#c21c2d;}.cls-13{fill:#56a8c6;}.cls-14{fill:#9d5c24;}.cls-15{fill:#ea5d8a;}.cls-16{fill:#e9579a;}.cls-17{fill:#ef9cc1;}.cls-18{fill:#773d1e;}.cls-19{fill:#f3cdb2;}.cls-20{fill:#1e0207;}.cls-21{fill:#5c1412;}.cls-22{fill:#d39b76;}.cls-23{fill:#ddaf8f;}.cls-24{fill:#e3a4b2;}.cls-25{fill:#af1e23;}.cls-26{fill:#d73d6c;}.cls-27{fill:#f2a3a9;}.cls-28{fill:#e66e95;}.cls-29{fill:#cb211d;}.cls-30{fill:#f4d1be;}.cls-31{fill:#0d2432;}.cls-32{fill:#4e6775;}.cls-33{fill:#38678d;}.cls-34{fill:#69879b;}.cls-35{fill:#86b8e4;}.cls-36{fill:#daebf9;}.cls-37{fill:#ef9ba3;}.cls-38{fill:#d79c15;}.cls-39{fill:#f7c367;}.cls-40{fill:#0a4f8a;}.cls-41{fill:#1073bb;}.cls-42{fill:#3e010b;}.cls-43{fill:#649a32;}.cls-44{fill:#e73c8f;}.cls-45{fill:#641727;}.cls-46{fill:#e61e63;}.cls-47{fill:#fadac2;}.cls-48{fill:#c57716;}.cls-49{fill:#973123;}.cls-50{fill:#f4d75d;}.cls-51{fill:#dbb597;}.cls-52{fill:#f3961a;}.cls-53{fill:#3d1808;}.cls-54{fill:#cfa78b;}.cls-55{fill:#f6baaf;}.cls-56{fill:#4c6a85;}.cls-57{fill:#e7ded9;}.cls-58{fill:#3986c8;}.cls-59{fill:#2984c7;}.cls-60{fill:#faddcc;}.cls-61{fill:#9c1e23;}.cls-62{fill:#8a1c21;}.cls-63{fill:#e9e8e8;}.cls-64{fill:#71b52c;}.cls-65{fill:#f6d448;}.cls-66{fill:#b12d2a;}.cls-67{fill:#5a5b5b;}.cls-68{fill:#e60012;}.cls-69{fill:#1d2088;}.cls-70{fill:#faee00;}</style></defs><g id="レイヤー_2" data-name="レイヤー 2"><g id="りんごイラスト"><path class="cls-1" d="M208.77,49.42a1.47,1.47,0,0,1-.37-.57c.53-.17,1-.27,1-.27L209,41.21l3.18-.46s.19,5.89-.06,8.49C211.21,49.46,209.22,49.87,208.77,49.42Z"/><path class="cls-2" d="M206.42,50.6c-.33-.82,1-1.42,2-1.75a1.47,1.47,0,0,0,.37.57c.45.45,2.44,0,3.33-.18a2.68,2.68,0,0,1-.27,1.19C211.2,51,206.92,51.85,206.42,50.6Z"/><path class="cls-1" d="M220.3,48.14a1.56,1.56,0,0,1-.64-.22c.31-.46.58-.8.58-.8l-4.84-5.58,2.23-2.32s3.77,4.52,5.18,6.73C222.24,46.67,220.93,48.22,220.3,48.14Z"/><path class="cls-2" d="M219.17,50.51c-.76-.44-.08-1.73.49-2.59a1.56,1.56,0,0,0,.64.22c.63.08,1.94-1.47,2.51-2.19a2.66,2.66,0,0,1,.52,1.1C223.19,47.9,220.34,51.19,219.17,50.51Z"/><path class="cls-1" d="M219.81,26.94l5.41,1s-.72,2.14,0,1.81a1.52,1.52,0,0,0,.83-.93s1,1.89,1.54,1.24-.48-1.67-.48-1.67,1.59.92,1.95.17-1-1.24-1-1.24,1.25.12,1.24-.62-1.16-.4-1.16-.4a1.86,1.86,0,0,0-.15-1.26c-.3-.47-1,0-1.53.61l-.13.15c-.56.65-5.82-1.91-5.82-1.91Z"/><path class="cls-1" d="M206.57,28.73l-6.3,2.08s1.11,2,.36,1.77a1.5,1.5,0,0,1-1-.76s-.62,2-1.29,1.5.16-1.72.16-1.72-1.39,1.19-1.88.52.73-1.4.73-1.4-1.2.36-1.34-.37,1.07-.62,1.07-.62a1.9,1.9,0,0,1-.09-1.26c.22-.52,1-.17,1.63.31l.15.13c.67.54,5.41-2.73,5.41-2.73Z"/><path class="cls-3" d="M210.37,23.5l-7.69,2.94,2,3.19,2.24-1,1,8.48,11-5-1.33-5.7,2.76,1.07.51-3.65S212.61,22.9,210.37,23.5Z"/><path class="cls-1" d="M209.75,21.73l.26,2.69a1.79,1.79,0,0,0,1.9.87,2.45,2.45,0,0,0,1.74-1.22L213,21.3Z"/><path class="cls-4" d="M207,30.15l1.51,15.42,4.47-.2.8-6,4.45,5.76,3-1.74s-1.49-7.65-1.68-8.81-1.34-5.79-1.34-5.79Z"/><path class="cls-4" d="M214.81,23.54a3.12,3.12,0,0,0-.21,1.6,42.33,42.33,0,0,0,.78,4.58l1.29-.09s-.56-5.91-.78-6.17S215.12,23.37,214.81,23.54Z"/><path class="cls-4" d="M207.65,24.24a3,3,0,0,0-.22,1.59,42.33,42.33,0,0,0,.78,4.58l1.29-.08s-.56-5.92-.77-6.18S208,24.06,207.65,24.24Z"/><path class="cls-5" d="M200.8,13a13.48,13.48,0,0,1,4.69-11.08c4.37-3.59,10-1.59,14.8,1.3,0,0,3.4-.56,3.7,6.18s-2.67,8-2.67,8-12.25-3.34-12.65-3.4S201.45,16,200.8,13Z"/><path class="cls-1" d="M213.41,5.25c-3,.08-10.75.16-12.28,7.45,0,0-1.85-.31-1.86,1.1s2,1.3,2,1.3.36,7.11,9.73,8.66,10.45-4.68,10.45-4.68,2.29.62,2.75-1.13-1.87-1.84-1.87-1.84S224.23,5,213.41,5.25Z"/><path class="cls-6" d="M206.52,18a1.29,1.29,0,1,1-1.09-1.47A1.29,1.29,0,0,1,206.52,18Z"/><path class="cls-6" d="M220.28,19.46A1.29,1.29,0,1,1,219.19,18,1.3,1.3,0,0,1,220.28,19.46Z"/><path class="cls-7" d="M218.73,17.19a1.05,1.05,0,1,1,1.45-.34A1.06,1.06,0,0,1,218.73,17.19Z"/><path class="cls-8" d="M218.87,17a.79.79,0,1,1,1.09-.26A.79.79,0,0,1,218.87,17Z"/><path class="cls-7" d="M219.14,17a.19.19,0,1,1,.06-.37.18.18,0,0,1,.15.22A.18.18,0,0,1,219.14,17Z"/><path class="cls-7" d="M219.5,16.33a.09.09,0,0,1-.09.08.08.08,0,0,1-.08-.08.08.08,0,0,1,.08-.09A.09.09,0,0,1,219.5,16.33Z"/><path class="cls-7" d="M206.64,15.54a1.06,1.06,0,0,1-.67-1.33,1,1,0,0,1,1.32-.67,1.05,1.05,0,1,1-.65,2Z"/><path class="cls-8" d="M206.72,15.29a.79.79,0,1,1,1-.51A.8.8,0,0,1,206.72,15.29Z"/><path class="cls-7" d="M207,15.21a.19.19,0,1,1,0-.38.19.19,0,0,1,0,.38Z"/><path class="cls-7" d="M207,14.75a.09.09,0,1,1,0-.17.09.09,0,1,1,0,.17Z"/><path class="cls-9" d="M218.6,2.85S209.4-2.78,202,8.18C202,8.18,207.89-4.56,218.6,2.85Z"/><path class="cls-9" d="M221.4,4.66A17.73,17.73,0,0,1,223,13.44S225.11,7.76,221.4,4.66Z"/><path class="cls-10" d="M212.55,17.67s.12.43-.17.59.42.3.5-.12S212.84,17.59,212.55,17.67Z"/><path class="cls-11" d="M213.41,21.31a2.46,2.46,0,0,0,.69-1l-3.66-.47a1.59,1.59,0,0,0,0,1.06,2.37,2.37,0,0,1,1.24-.34A2.18,2.18,0,0,1,213.41,21.31Z"/><path class="cls-12" d="M211.7,21.72a2,2,0,0,0,1.71-.41,2.18,2.18,0,0,0-1.69-.73,2.37,2.37,0,0,0-1.24.34A1.54,1.54,0,0,0,211.7,21.72Z"/><path class="cls-5" d="M201.13,12.7s4.51-2.43,5.41-5.48c0,0,1,4.6,3.57,5.57,0,0-.78-1.49-.52-2.27,0,0,2.72,3.24,6.09,3.7,0,0-1.75-1.62-1.69-3a8.66,8.66,0,0,0,6,3.49,7.29,7.29,0,0,1-.9-1.55s2.87,1.64,3.31,2.93c0,0,2-5.71-.72-8.44s-10-4.47-12.37-4.08S200.18,8.78,201.13,12.7Z"/><path class="cls-9" d="M216.07,3.46s-1.64,5.7,2.54,9.42c0,0-3.84-2-3.75-5.66S216.07,3.46,216.07,3.46Z"/><path class="cls-9" d="M211.79,1.91s-3.63,3.71.26,8.51c0,0-3.58-2.29-2.76-6S211.79,1.91,211.79,1.91Z"/><path class="cls-13" d="M207.91,36.89s2.2-.09,4.88-.48,6.73-1.29,6.73-1.29l0,.69s-5.79,1.29-7,1.47-4.58.43-4.58.43Z"/><path class="cls-7" d="M209.42,30.93a.56.56,0,0,1-.56.56.56.56,0,1,1,0-1.12A.56.56,0,0,1,209.42,30.93Z"/><path class="cls-7" d="M216.46,29.85a.57.57,0,0,1-.57.56.56.56,0,0,1,0-1.12A.57.57,0,0,1,216.46,29.85Z"/><path class="cls-13" d="M211.23,32.27c.13-.05,4.19-.61,4.19-.61s-.95,1.77-2.29,1.82A2.12,2.12,0,0,1,211.23,32.27Z"/><polygon class="cls-13" points="208.16 43.84 208.29 45.7 213.35 45.48 213.35 43.76 208.16 43.84"/><polygon class="cls-13" points="217.02 43.84 218.14 45.27 221.68 43.02 220.82 41.51 217.02 43.84"/><path class="cls-14" d="M200.15,20.58a4.25,4.25,0,0,0,2.56-2.39c.78-1.9-1.18-.84-1.7.14.68-.71.83-2.76.61-3.68-.78.11-1.33,1.74-1.61,2.43.11-.23.24-1.18,0-1.4-.44-.4-.86.46-1.09.83a5.43,5.43,0,0,0-1,3.3"/><path class="cls-14" d="M181.36,24a3.76,3.76,0,0,0-1.9-3.05c-.38.4.09,1.35.42,1.73-.58-.43-1.43-1-2.2-.82a2.37,2.37,0,0,0,1.25,2c-1.07-.42-2.58,0-1.3,1.12a3.31,3.31,0,0,0,3.16.52"/><polygon class="cls-15" points="198.99 19.22 203.83 20.3 200.54 23.58 198.69 19.71 194.23 19.18 197.15 15.18 198.99 19.22"/><path class="cls-14" d="M204.48,30.12a13.87,13.87,0,0,0-5.88-10.85c-4.81-3.24-10.36-.64-15,2.79,0,0-3.53-.24-3.17,6.66S184,36.66,184,36.66s12.18-4.61,12.57-4.7S204.1,33.21,204.48,30.12Z"/><path class="cls-1" d="M200.28,68.21a1.64,1.64,0,0,0,.32-.61,9.83,9.83,0,0,0-1-.18l-.34-7.57L196,59.69s.38,6,.89,8.66C197.8,68.49,199.87,68.72,200.28,68.21Z"/><path class="cls-2" d="M202.79,69.18c.26-.87-1.16-1.35-2.19-1.58a1.64,1.64,0,0,1-.32.61c-.41.51-2.48.28-3.42.14a2.67,2.67,0,0,0,.4,1.19C198,70.08,202.4,70.51,202.79,69.18Z"/><path class="cls-1" d="M188.39,68a1.67,1.67,0,0,0,.63-.29c-.36-.44-.67-.76-.67-.76l4.39-6.17-2.5-2.15s-3.41,5-4.63,7.37C186.26,66.72,187.75,68.18,188.39,68Z"/><path class="cls-2" d="M189.77,70.35c.73-.53-.09-1.78-.75-2.6a1.67,1.67,0,0,1-.63.29c-.64.14-2.13-1.32-2.78-2a2.64,2.64,0,0,0-.42,1.18C185.41,68.07,188.64,71.16,189.77,70.35Z"/><path class="cls-1" d="M186.44,46.2,181,47.8s.95,2.11.21,1.85a1.55,1.55,0,0,1-.94-.88s-.83,2-1.45,1.42.32-1.75.32-1.75-1.53,1.09-2,.37.88-1.37.88-1.37-1.27.25-1.33-.51,1.14-.53,1.14-.53a1.92,1.92,0,0,1,0-1.29c.27-.51,1-.08,1.63.47l.15.14c.63.61,5.75-2.52,5.75-2.52Z"/><path class="cls-1" d="M200.13,46.73l6.64,1.51s-1,2.11-.21,1.84a1.55,1.55,0,0,0,.94-.88s.83,2,1.46,1.42-.34-1.75-.34-1.75,1.54,1.08,2,.35-.89-1.36-.89-1.36,1.27.25,1.33-.51-1.15-.53-1.15-.53a1.92,1.92,0,0,0,0-1.29c-.27-.51-1-.08-1.63.48l-.14.14c-.63.62-5.79-2.25-5.79-2.25Z"/><path class="cls-16" d="M198.31,42.08l6,2.39-2.15,3.31L200,46.7s-.57,6.27,1,10,4.1,4.91,2.34,5.47-3,.94-4.18-.37-2.24,2.28-3.64,1.25-3.4,1-4.78.07-3.67,1-4.56-.21,3.19-18.05,3.19-18.05L186,46.74l-.87-3.67S190.2,40.72,198.31,42.08Z"/><path class="cls-1" d="M196.2,39.9v2.77a1.85,1.85,0,0,1-1.87,1.07,2.45,2.45,0,0,1-1.88-1.06l.34-2.9Z"/><path class="cls-17" d="M194.69,48s.48-1.48,1.85-.27S194.18,52,194.18,52s-2.32-2.73-1.94-4.37S194.69,48,194.69,48Z"/><path class="cls-1" d="M204.11,29.84s1.86-.5,2,.93-1.94,1.54-1.94,1.54.33,7.29-9.09,9.78S184,38.35,184,38.35s-2.27.85-2.91-.88,1.72-2.07,1.72-2.07,2.79-4.06,2.94-7.55C185.71,27.85,200.49,32.92,204.11,29.84Z"/><path class="cls-6" d="M199.12,35.72a1.33,1.33,0,0,0,1.6,1,1.32,1.32,0,1,0-1.6-1Z"/><path class="cls-6" d="M185.23,38.62a1.32,1.32,0,1,0,1-1.6A1.31,1.31,0,0,0,185.23,38.62Z"/><path class="cls-7" d="M186.58,36.14a1.08,1.08,0,0,0,.21-1.51,1.09,1.09,0,0,0-1.52-.2,1.08,1.08,0,0,0-.2,1.51A1.06,1.06,0,0,0,186.58,36.14Z"/><path class="cls-8" d="M186.42,35.93a.81.81,0,0,0-1-1.29.81.81,0,1,0,1,1.29Z"/><path class="cls-7" d="M186.15,35.94a.19.19,0,0,0-.1-.37.19.19,0,1,0,.1.37Z"/><path class="cls-7" d="M185.72,35.34a.08.08,0,0,0,.09.08.1.1,0,0,0,.08-.1s0-.08-.09-.07A.08.08,0,0,0,185.72,35.34Z"/><path class="cls-7" d="M198.76,33.27a1.07,1.07,0,0,0,.56-1.42,1.08,1.08,0,0,0-2,.86A1.08,1.08,0,0,0,198.76,33.27Z"/><path class="cls-8" d="M198.65,33a.81.81,0,0,0,.42-1.07.8.8,0,0,0-1.06-.42.81.81,0,0,0-.42,1.07A.8.8,0,0,0,198.65,33Z"/><path class="cls-7" d="M198.39,33a.2.2,0,0,0,.19-.19.2.2,0,0,0-.2-.2.2.2,0,0,0-.19.2A.19.19,0,0,0,198.39,33Z"/><path class="cls-7" d="M198.37,32.5a.09.09,0,0,0,.08-.09.08.08,0,0,0-.09-.08.09.09,0,0,0-.08.08A.09.09,0,0,0,198.37,32.5Z"/><path class="cls-18" d="M203.73,29.2s-14.29.16-18.56-3.73c0,0-1.13,7.52-2.82,9.2l1.74-10.85A134.78,134.78,0,0,0,203.73,29.2Z"/><path class="cls-18" d="M184.85,22.93s7.6-.95,17.86,4.89C202.71,27.82,185.44,24.19,184.85,22.93Z"/><path class="cls-18" d="M185.31,21.5s8.84-6.65,17.43,3.81C202.74,25.31,195.52,12.88,185.31,21.5Z"/><path class="cls-18" d="M182.63,23.62a18.17,18.17,0,0,0-.73,9.11S179.15,27.15,182.63,23.62Z"/><polygon class="cls-15" points="180.47 24.76 181.23 19.85 184.72 22.92 180.98 25.02 180.74 29.5 176.56 26.86 180.47 24.76"/><path class="cls-10" d="M192.94,36s-.08.45.23.59-.4.34-.52-.08S192.63,36,192.94,36Z"/><path class="cls-11" d="M192.42,39.83a2.64,2.64,0,0,1-.81-.93l3.7-.84a1.61,1.61,0,0,1,.06,1.09,2.32,2.32,0,0,0-1.3-.23A2.22,2.22,0,0,0,192.42,39.83Z"/><path class="cls-12" d="M194.2,40.08a2,2,0,0,1-1.78-.25,2.22,2.22,0,0,1,1.65-.91,2.32,2.32,0,0,1,1.3.23A1.58,1.58,0,0,1,194.2,40.08Z"/><path class="cls-19" d="M175.45,76.69l1.4,6.08s-2.32.89-2.42,1.51-.09,1.4.62,1.21S179.91,85,179.9,84a64.47,64.47,0,0,0-1.38-6.81,6.48,6.48,0,0,1,0-1.69S175.22,75.89,175.45,76.69Z"/><path class="cls-20" d="M174.43,84.28c-.1.61-.09,1.4.62,1.21S179.91,85,179.9,84a11.12,11.12,0,0,0-.17-1.22,26.44,26.44,0,0,1-2.82.81,1.51,1.51,0,0,1-1.35-.26C175,83.65,174.48,84,174.43,84.28Z"/><polygon class="cls-20" points="175.93 83.1 177.4 83.96 177.66 83.79 176.16 82.95 175.93 83.1"/><polygon class="cls-20" points="176.51 82.85 176.22 83.81 176.69 83.84 176.76 82.77 176.51 82.85"/><path class="cls-19" d="M184,75.62l-1,6.16s2.39.73,2.53,1.34.19,1.38-.54,1.25-4.88-.12-4.93-1.11a61.92,61.92,0,0,1,.88-6.9,6.79,6.79,0,0,0-.13-1.68S184.18,74.81,184,75.62Z"/><path class="cls-20" d="M185.56,83.12c.14.6.19,1.38-.54,1.25s-4.88-.12-4.93-1.11a11.8,11.8,0,0,1,.07-1.23,23.67,23.67,0,0,0,2.88.6,1.5,1.5,0,0,0,1.32-.35C184.94,82.53,185.49,82.83,185.56,83.12Z"/><polygon class="cls-20" points="183.97 82.05 182.58 83.01 182.3 82.86 183.74 81.92 183.97 82.05"/><path class="cls-19" d="M174.72,64s-2.87.23-4,.17-4.48-.37-4.48-.37-1.39-.59-1.7-.76-.92-.36-1-.11.73.61.73.61-1.19-.38-1.29,0,1.31.49,1.31.49-1.27-.17-1.39.26,1.41.26,1.41.26-1.33.22-1.17.56,1.29-.11,1.29-.11-.54.69-.25.78a.88.88,0,0,0,.85-.43,2.85,2.85,0,0,0,1.39.2s7.47,1.69,8.18.93S174.72,64,174.72,64Z"/><path class="cls-19" d="M182.07,62s2.81-.67,3.85-1.07,4.16-1.73,4.16-1.73,1.14-1,1.38-1.25.76-.63.9-.41-.5.8-.5.8,1-.72,1.22-.41-1.1.87-1.1.87,1.16-.55,1.41-.18-1.26.69-1.26.69,1.33-.2,1.28.17-1.26.29-1.26.29.73.5.48.67a.9.9,0,0,1-.94-.15s-.78.64-1.26.62c0,0-6.59,3.91-7.5,3.4S182.07,62,182.07,62Z"/><path class="cls-21" d="M182.07,61a2.27,2.27,0,0,1,3.3,0s.11-.7.53-.37,0,.9,0,.9.74-.22.7.32-.48.33-.48.33,1,.31.81.93-.48.42-.48.42-2.14,3.06-3.95,1.7S182.07,61,182.07,61Z"/><path class="cls-21" d="M173.48,67.05s-3.41,1.24-4.06-1c0,0-.42.56-.63.07s.43-.78.43-.78-.76-.17-.46-.62.57-.06.57-.06-.69-.73-.27-1.21.62-.13.62-.13,3.34-1.69,4.29.37A2.87,2.87,0,0,1,173.48,67.05Z"/><path class="cls-21" d="M183.06,68.63c-.07-1.41-.66-2.26-.75-3.64a39.75,39.75,0,0,1,.08-4l-3.82-.47-2.7,1-2.49,1.15a8.18,8.18,0,0,0-.35,2c0,.78.62,3.29.62,4.92A58.81,58.81,0,0,0,183.06,68.63Z"/><path class="cls-7" d="M175.88,61.24s-1.41,1.94.07,2.49,2-1.93,2-1.93,1,2.28,2.33,1.9-.06-3.26-1-3.43S175.88,61.24,175.88,61.24Z"/><path class="cls-22" d="M177.56,62.12c.87-.13,1.72-.78,1.57-1.71l-.82-.1-1.66.63-.19.08C176.55,61.38,176.85,62.23,177.56,62.12Z"/><path class="cls-23" d="M173.38,62.67h0Z"/><path class="cls-24" d="M174.19,62.3l-.09,7h.78L175,61.9Z"/><path class="cls-24" d="M180.69,60.75l.07,8.23.79-.09,0-8Z"/><path class="cls-24" d="M174.15,64.92s-.58,7.25-3.25,11.36c0,0,3.15,4,11.17,1.25,4.68-1.58,5.74-3.3,5.74-3.3s-6.05-6.71-6.42-10.29c0,0-.4,1.91-3.61,2-3,.13-2.78-1.14-2.78-1.14Z"/><path class="cls-25" d="M164.59,54.82a1.15,1.15,0,0,0-.63.54s-2.21-.42-2.79,1.09c-.48,1.25,0,1.66,0,1.66s.14-1.37.79-1.82a2,2,0,0,1,1.2-.29s-2.82,1.33-1.28,3.11a1.63,1.63,0,0,1-.18-.78,1.09,1.09,0,0,1,.66-.9s-.57,1.66-.28,2.17c0,0,.82.3,1.37.47a4,4,0,0,0,2.84-.73s-1.73-2.51-1-3.18l.84-.72Z"/><path class="cls-26" d="M164,55.36a1.15,1.15,0,0,1,.63-.54l1.58.62-.84.72a.64.64,0,0,0-.1.13C164.58,56.37,164,55.36,164,55.36Z"/><path class="cls-25" d="M186.78,49.89a1.18,1.18,0,0,1,.76.33s2-1,3,.21c.83,1,.48,1.6.48,1.6s-.54-1.27-1.29-1.51a2,2,0,0,0-1.24.08s3.1.43,2.15,2.59a1.53,1.53,0,0,0-.06-.79,1.08,1.08,0,0,0-.89-.67s1,1.41.91,2c0,0-.69.53-1.17.85a3.93,3.93,0,0,1-2.93.15s.91-2.91,0-3.33l-1-.43Z"/><path class="cls-26" d="M187.54,50.22a1.18,1.18,0,0,0-.76-.33L185.46,51l1,.43.14.09C187.26,51.37,187.54,50.22,187.54,50.22Z"/><path class="cls-19" d="M184.21,52.52c.66,4.34-2.69,8.44-7.49,9.17s-9.38-2.19-10-6.53,2.86-8.45,7.65-9.18S183.55,48.18,184.21,52.52Z"/><path class="cls-22" d="M175.81,56.56s-.69.48-.6-.32c0,0-.11-.15-.19.09s.21.68.56.51S175.81,56.56,175.81,56.56Z"/><path class="cls-25" d="M167.5,57.48a7.51,7.51,0,0,1,5.45-7.7L172.32,47l1.15,2.53,2.78-.8-.7-1.58,1.09,1.35,1.26-.32-.71-1.37,1.17,1.3s4.59-.16,5.49,3.28l1.59,2a8.36,8.36,0,0,0,1.25-6.19c-.73-3.48-3.59-9.34-13.83-7.87a1.83,1.83,0,0,1-2.12-1.46,1.28,1.28,0,0,1,2.14-1.21A1.72,1.72,0,0,0,171.1,36c-1.23.23-2.16,3,.79,3.84,0,0-.42.87-1.76.35a1.52,1.52,0,0,1-1.1-1.68,1.25,1.25,0,0,0-.24,1.17c.22.64,1.29,1,1.29,1s-5.67,2.45-6,7.44.36,9,3,10.53Z"/><path class="cls-19" d="M184.33,51.27a1.46,1.46,0,0,0-.52.18,5.31,5.31,0,0,1,.3,1.14,5.83,5.83,0,0,1,0,1.25,1.33,1.33,0,1,0,.18-2.57Z"/><path class="cls-22" d="M184.61,51.85a.79.79,0,0,0-.27.1,2.79,2.79,0,0,1,.18,1.26,1,1,0,0,0,.3,0,.7.7,0,1,0-.21-1.38Z"/><path class="cls-19" d="M167.16,57.54a1.67,1.67,0,0,1,.48-.28,5.18,5.18,0,0,0,.67,1,5.71,5.71,0,0,0,.94.84,1.48,1.48,0,0,1-.35.45,1.32,1.32,0,1,1-1.74-2Z"/><path class="cls-22" d="M167.43,58.14a.64.64,0,0,1,.25-.15,3,3,0,0,0,.35.5,3,3,0,0,0,.5.45.84.84,0,0,1-.18.24.71.71,0,0,1-1,0A.7.7,0,0,1,167.43,58.14Z"/><path class="cls-27" d="M173.05,58.43a1.62,1.62,0,1,1-1.84-1.36A1.62,1.62,0,0,1,173.05,58.43Z"/><path class="cls-27" d="M183.67,54.4A1.62,1.62,0,1,1,181.82,53,1.63,1.63,0,0,1,183.67,54.4Z"/><path class="cls-28" d="M179.35,58.77a1.29,1.29,0,1,1-1.48-1.28A1.39,1.39,0,0,1,179.35,58.77Z"/><path class="cls-7" d="M171.75,55.6a1.15,1.15,0,1,1-1.06-1.23A1.15,1.15,0,0,1,171.75,55.6Z"/><path class="cls-8" d="M171.48,55.58a.88.88,0,1,1-.81-.93A.87.87,0,0,1,171.48,55.58Z"/><path class="cls-7" d="M170.85,54.88a.35.35,0,1,1-.4-.29A.34.34,0,0,1,170.85,54.88Z"/><path class="cls-7" d="M181.5,52.18a1.15,1.15,0,0,1-2.29-.17,1.15,1.15,0,1,1,2.29.17Z"/><path class="cls-8" d="M181.23,52.16a.88.88,0,0,1-1.75-.13.88.88,0,1,1,1.75.13Z"/><path class="cls-7" d="M180.6,51.45a.34.34,0,0,1-.29.41.35.35,0,1,1,.29-.41Z"/><path class="cls-7" d="M170.69,55.6a.15.15,0,0,1-.13.18.16.16,0,0,1-.18-.12.16.16,0,0,1,.13-.18A.16.16,0,0,1,170.69,55.6Z"/><path class="cls-7" d="M180.71,52a.17.17,0,0,1-.13.18.16.16,0,0,1-.18-.13.16.16,0,1,1,.31,0Z"/><path class="cls-29" d="M175.25,41.41s4,2,4.5,5.7C179.75,47.11,180.36,42.59,175.25,41.41Z"/><path class="cls-29" d="M176.52,40.21s6.75-.37,8.25,6.53C184.77,46.74,183.94,38.29,176.52,40.21Z"/><path class="cls-29" d="M171.35,41.94s-7.32,2.59-6.19,11.92C165.16,53.86,162.46,42.5,171.35,41.94Z"/><path class="cls-29" d="M171.2,43.14s-2.18,2.1-.6,6.52C170.6,49.66,167.52,45.84,171.2,43.14Z"/><path class="cls-8" d="M251.39,54.51s.9.28.38,1.7-3.45,2.26-3.75,2.13-.45-1-.35-1.16,3-2.27,3-2.27Z"/><path class="cls-30" d="M247.14,56.63a4.8,4.8,0,0,1-.85.76c-1.6-.81-3.79-2-3.79-2L244,52.77l3.62,2.09A2.19,2.19,0,0,1,247.14,56.63Z"/><path class="cls-31" d="M250.49,54.22c1.56,0,1.34,1.6.9,2.09a13.25,13.25,0,0,1-3.45,1.84,11.92,11.92,0,0,1-1.65-.76,4.8,4.8,0,0,0,.85-.76,2.19,2.19,0,0,0,.43-1.77l.52.3A3.26,3.26,0,0,1,250.49,54.22Z"/><path class="cls-32" d="M249,54.68s1.7-.73,2.22,0,.28,1,.28,1-.09-.62-1.12-.81a7.21,7.21,0,0,0-1.43-.17"/><path class="cls-8" d="M230,65.48s-.18.93,1.33,1.12,3.58-2,3.6-2.37-.69-.85-.86-.83S230.72,65,230.72,65Z"/><path class="cls-30" d="M233.86,62.67a4.8,4.8,0,0,0,1.06-.4c0-1.8,0-4.29,0-4.29l-3,.09.2,4.18A2.18,2.18,0,0,0,233.86,62.67Z"/><path class="cls-31" d="M230.18,64.55c-.69,1.4.81,1.92,1.45,1.76a13.2,13.2,0,0,0,3.21-2.23,12.4,12.4,0,0,0,.08-1.81,4.8,4.8,0,0,1-1.06.4,2.18,2.18,0,0,1-1.77-.42l0,.59A3.28,3.28,0,0,0,230.18,64.55Z"/><path class="cls-32" d="M231.28,63.42s-1.43,1.18-1.05,2,.78.72.78.72-.51-.37-.21-1.37a9.23,9.23,0,0,1,.5-1.35"/><path class="cls-33" d="M230.89,51.12s-.46,2.59-.58,3.56a28.18,28.18,0,0,0,.12,3.54l5.13,0s.94-4.58,1.18-4.58a.81.81,0,0,0,.39-.09l6.09,3.12S246,53,246,52.5a28,28,0,0,1-3.44-1.72c-.39-.39-1.36-1.19-1.36-1.19L234,49.3Z"/><path class="cls-34" d="M232.24,51.09h-.36s-.41,1-.74,1.75a1.63,1.63,0,0,1-.66.69c0,.18-.06.35-.08.51A4.42,4.42,0,0,0,232.24,51.09Z"/><path class="cls-34" d="M231.37,55.06l-1.08,0a21.74,21.74,0,0,0,.07,2.26,4.77,4.77,0,0,0,.6.08C231.29,57.37,231.37,55.06,231.37,55.06Z"/><path class="cls-34" d="M230.43,58.22l5.13,0,.15-.69-5.33.12Z"/><path class="cls-34" d="M246,52.5l-.56-.25-2.72,4.17.54.28S246,53,246,52.5Z"/><path class="cls-34" d="M244.22,52.93a2.22,2.22,0,0,0,.58-1c-.72-.33-1.58-.75-2-1l-.63,1S243.62,53.42,244.22,52.93Z"/><path class="cls-30" d="M230.25,41.32s-3,.35-4.12.42-4.56.11-4.56.11-1.39-.56-1.7-.72-.91-.34-1,0,.71.66.71.66-1.19-.33-1.32.14,1.31.44,1.31.44-1.29-.05-1.44.49,1.42.16,1.42.16-1.36.44-1.22.82,1.33-.29,1.33-.29-.6.92-.31,1,.83-.39.89-.64a2.29,2.29,0,0,0,1.42.07s7.54,1.14,8.32.12A3.61,3.61,0,0,0,230.25,41.32Z"/><path class="cls-30" d="M239.35,40.47s2.84-.71,3.9-1.14,4.18-1.87,4.18-1.87,1.14-1.08,1.38-1.36.75-.69.91-.45-.49.89-.49.89,1-.8,1.23-.45-1.1.95-1.1.95,1.17-.59,1.43-.18-1.26.75-1.26.75,1.35-.21,1.31.2-1.28.31-1.28.31.76.55.51.75a.88.88,0,0,1-1-.19s-.78.7-1.27.68c0,0-6.61,4.24-7.55,3.68S239.35,40.47,239.35,40.47Z"/><path class="cls-35" d="M234.44,40.47s-5.05.84-5.27.84a1.5,1.5,0,0,1-.45-.08l.11,3.24a15.33,15.33,0,0,0,2.43-.15,29.08,29.08,0,0,1-.47,3.79c-.27.77-1.19,4.43-1.19,4.43a20.27,20.27,0,0,0,3.88.06c2.52-.15,9.41-.78,9.59-2.31a6.09,6.09,0,0,1-1.41-2c-.28-.9-1.52-4.72-1.52-4.72l2.43-.78-1-3.18S236.69,40,234.44,40.47Z"/><path class="cls-30" d="M233.66,38.54s0,3.2,2.23,3.05,2.14-3,2.14-3Z"/><path class="cls-36" d="M236.72,45.64a8.19,8.19,0,0,0,3.64-1.37l-.15-.45a40.47,40.47,0,0,1-5.83,1.29,25,25,0,0,1-3.18,0c0,.18,0,.38-.06.59A28.29,28.29,0,0,0,236.72,45.64Z"/><path class="cls-30" d="M223.93,31.14s-1.5-.77-1.86.62,1.4,2.27,2,2.27c0,0,1.68,6.77,12.66,6,7.45-.53,8.13-7.69,8.13-7.69s2.1,0,2.1-1.15S245.08,30,245.08,30a3.3,3.3,0,0,1-2.35-1.37A17.88,17.88,0,0,1,241,25.33S234.9,17.08,223.93,31.14Z"/><path class="cls-37" d="M228.42,34.93a1.29,1.29,0,0,1-2.56-.36,1.29,1.29,0,1,1,2.56.36Z"/><path class="cls-37" d="M243.11,35.45A1.29,1.29,0,1,1,242,34,1.29,1.29,0,0,1,243.11,35.45Z"/><path class="cls-7" d="M242.07,33.15a1,1,0,0,1-1.37.58,1.05,1.05,0,1,1,.8-1.95A1,1,0,0,1,242.07,33.15Z"/><path class="cls-8" d="M241.83,33.05a.78.78,0,0,1-1,.43.79.79,0,1,1,1-.43Z"/><path class="cls-11" d="M234.06,36.69a25.72,25.72,0,0,0,3.47-.12s.59,2.49-1.64,2.62S234.06,36.69,234.06,36.69Z"/><path class="cls-12" d="M235.89,39.19a1.61,1.61,0,0,0,1.64-1.3l-.1,0a4.17,4.17,0,0,0-3.1.58A1.55,1.55,0,0,0,235.89,39.19Z"/><path class="cls-10" d="M236.48,33.77s-.08.81-.47.75-.36.22.09.18.9-.66.74-.84S236.45,33.44,236.48,33.77Z"/><path class="cls-10" d="M232.37,34.25a.09.09,0,1,1-.09-.09A.09.09,0,0,1,232.37,34.25Z"/><path class="cls-10" d="M239.74,35.1a.09.09,0,1,1-.09-.09A.09.09,0,0,1,239.74,35.1Z"/><path class="cls-10" d="M238.66,34.74a.09.09,0,1,1-.09-.09A.09.09,0,0,1,238.66,34.74Z"/><path class="cls-10" d="M239.88,34.34a.09.09,0,0,1-.09.1.09.09,0,0,1,0-.18A.09.09,0,0,1,239.88,34.34Z"/><path class="cls-10" d="M237.69,34.36a.09.09,0,1,1-.09-.09A.09.09,0,0,1,237.69,34.36Z"/><path class="cls-10" d="M238.78,33.46a.09.09,0,1,1-.09-.09A.09.09,0,0,1,238.78,33.46Z"/><path class="cls-10" d="M231.44,34.51a.09.09,0,1,1-.09-.09A.09.09,0,0,1,231.44,34.51Z"/><path class="cls-10" d="M230.75,34.45a.09.09,0,1,1-.09-.09A.09.09,0,0,1,230.75,34.45Z"/><path class="cls-10" d="M234.85,33.75a.09.09,0,0,1-.1.09.09.09,0,0,1-.08-.09.08.08,0,0,1,.08-.09A.11.11,0,0,1,234.85,33.75Z"/><path class="cls-10" d="M235.86,33a.1.1,0,0,1-.09.09.09.09,0,0,1-.1-.09.09.09,0,0,1,.09-.09A.1.1,0,0,1,235.86,33Z"/><path class="cls-10" d="M237,31.93a.09.09,0,1,1-.09-.09A.09.09,0,0,1,237,31.93Z"/><path class="cls-10" d="M234.61,32.71a.09.09,0,0,1-.09.09.08.08,0,0,1-.09-.08.1.1,0,0,1,.09-.1A.09.09,0,0,1,234.61,32.71Z"/><path class="cls-10" d="M232.15,33.37a.09.09,0,1,1-.09-.09A.09.09,0,0,1,232.15,33.37Z"/><path class="cls-10" d="M229.21,34.44a.09.09,0,1,1-.09-.09A.09.09,0,0,1,229.21,34.44Z"/><path class="cls-30" d="M249.48,37l-.12,0Z"/><path class="cls-38" d="M245.52,31.09c-1.52,0-5.5.32-6.63-4.89,0,0-1.39,3.83-7.08,4.79a7.59,7.59,0,0,0,2.35-3.66,6.11,6.11,0,0,1-3.81,3.7,8.37,8.37,0,0,0,2-3.52s-.92,3.38-5.48,3.17c0,0,2.55-.85,2.67-2.64A5.49,5.49,0,0,1,224,30.82c-4.11-.31-4.31-2.64-4.31-2.64a2.44,2.44,0,0,0,2.65-.15S223,14,239.22,18c0,0,9.4.66,7.16,12.28a2.61,2.61,0,0,1-.19.6C246,31.32,245.93,31.1,245.52,31.09Z"/><path class="cls-39" d="M238.67,22s-1,6.58-6.52,8.86A8.78,8.78,0,0,0,238.67,22Z"/><path class="cls-39" d="M238,18.26s-6.16-1.85-10.21,1.95a17.84,17.84,0,0,0-5,8.19s2-8.08,6.74-10.08A10.61,10.61,0,0,1,238,18.26Z"/><path class="cls-39" d="M238,18.26S234,28.94,230.53,30.85C230.53,30.85,235.47,28.8,238,18.26Z"/><path class="cls-39" d="M238,18.26s-5.38,10-9.57,12.17c0,0,2.19-.06,5.32-4.07A25.77,25.77,0,0,0,238,18.26Z"/><path class="cls-39" d="M237.68,18.35s-5.57-.89-11.37,5.38C226.31,23.73,229.82,16.82,237.68,18.35Z"/><path class="cls-39" d="M238,18.26s-6.09,1.49-8.35,4.4-6.4,7.67-8.86,6.37c0,0,1.89,1.7,6.34-1.71C231.86,23.67,232.66,21.41,238,18.26Z"/><path class="cls-39" d="M235.72,20.63s-4.8,6.93-9,8.07c0,0,2.69.16,5.6-3S235.72,20.63,235.72,20.63Z"/><path class="cls-39" d="M238.65,18.3a5,5,0,0,1,4.18,1.95c1.85,2.22,3.26,9.89,3.26,9.89s.45-5-1.45-8.33S239.7,17.94,238.65,18.3Z"/><path class="cls-39" d="M238.56,18.48s2.55.46,4.42,4.75a33.44,33.44,0,0,1,2,4.94S240.25,22,238.56,18.48Z"/><path class="cls-39" d="M238.43,18.74A14.89,14.89,0,0,0,244.2,29S238.08,25.41,238.43,18.74Z"/><path class="cls-7" d="M241.77,32.79a.19.19,0,0,1-.18.19.19.19,0,0,1-.2-.19.2.2,0,0,1,.19-.19A.18.18,0,0,1,241.77,32.79Z"/><path class="cls-7" d="M241.31,32.78a.09.09,0,0,1-.08.09.09.09,0,0,1-.09-.09.09.09,0,0,1,.08-.08A.09.09,0,0,1,241.31,32.78Z"/><path class="cls-7" d="M229.12,32.53a1.05,1.05,0,1,1-.58-1.37A1,1,0,0,1,229.12,32.53Z"/><path class="cls-8" d="M228.88,32.44a.79.79,0,0,1-1.47-.6.79.79,0,1,1,1.47.6Z"/><path class="cls-7" d="M228.82,32.18a.19.19,0,0,1-.19.19.2.2,0,0,1-.19-.19.19.19,0,1,1,.38,0Z"/><path class="cls-7" d="M228.36,32.17a.09.09,0,0,1-.09.08.08.08,0,0,1-.08-.08.08.08,0,0,1,.08-.09A.09.09,0,0,1,228.36,32.17Z"/><path class="cls-30" d="M246.73,92.55a1.68,1.68,0,0,0,.32-.6,9.11,9.11,0,0,0-1-.18l-.25-7.36-3.2-.19s.31,5.87.78,8.43C244.31,92.79,246.32,93,246.73,92.55Z"/><path class="cls-40" d="M249.16,93.51c.25-.83-1.12-1.32-2.11-1.56a1.68,1.68,0,0,1-.32.6c-.41.49-2.42.24-3.32.1a2.63,2.63,0,0,0,.37,1.16C244.45,94.34,248.77,94.8,249.16,93.51Z"/><path class="cls-30" d="M238.64,92.53a1.47,1.47,0,0,0,.31-.59c-.54-.13-1-.19-1-.19l-.25-7.35-3.2-.19s.31,5.86.79,8.43C236.22,92.77,238.23,93,238.64,92.53Z"/><path class="cls-40" d="M241.07,93.5c.25-.84-1.12-1.33-2.12-1.56a1.47,1.47,0,0,1-.31.59c-.41.49-2.42.24-3.32.11a2.4,2.4,0,0,0,.37,1.15C236.36,94.32,240.67,94.79,241.07,93.5Z"/><polygon class="cls-40" points="232.89 79.53 232.29 88.26 249.03 85.15 246.91 79.47 234.33 77.05 232.89 79.53"/><rect class="cls-41" x="232.69" y="85.57" width="15.8" height="0.5" transform="translate(-11.13 42.37) rotate(-9.84)"/><polygon class="cls-41" points="240.52 85.73 241.01 85.65 239.96 79.1 239.46 79.17 240.52 85.73"/><path class="cls-30" d="M231.05,66l-6-5.07s-1.33,1.81-1.46,1.06a1.5,1.5,0,0,1,.3-1.21s-2.12.26-1.89-.56,1.63-.55,1.63-.55-1.65-.78-1.25-1.51,1.58.1,1.58.1-.81-.95-.2-1.37,1,.72,1,.72a1.85,1.85,0,0,1,1.11-.59c.56,0,.55.83.37,1.61,0,.06,0,.13,0,.19-.23.82,6.7,5.33,6.7,5.33Z"/><path class="cls-42" d="M232,60.45s-.44,5.56-4.42,6c0,0,1,1,3.84-1.42s2.87-3.9,2.87-3.9Z"/><path class="cls-42" d="M227.33,66.76s-2.19-2-2.32-.42S227.33,66.76,227.33,66.76Z"/><polygon class="cls-43" points="227.8 66.29 228.39 64.1 226.44 64.49 227.54 66.34 226.59 68.48 228.86 68.14 227.8 66.29"/><path class="cls-42" d="M249.79,62.7s5.08,2.3,4.16,6.19c0,0,1.22-.6,0-4.1s-2.7-4-2.7-4Z"/><path class="cls-42" d="M254,68.89s-2.66,1.37-1.19,2S254,68.89,254,68.89Z"/><polygon class="cls-43" points="253.86 68.62 252.01 67.32 251.71 69.29 253.82 68.88 255.52 70.5 255.97 68.25 253.86 68.62"/><path class="cls-30" d="M248.2,72.17l7.6,2.4s-.82,2.12-.11,1.82a1.49,1.49,0,0,0,.87-.91s.92,1.94,1.51,1.31-.42-1.7-.42-1.7,1.56,1,2,.25-.94-1.29-.94-1.29,1.26.18,1.28-.57-1.16-.46-1.16-.46a1.84,1.84,0,0,0-.1-1.26c-.28-.49-1,0-1.56.55a.93.93,0,0,0-.14.14c-.58.64-8.19-2.83-8.19-2.83Z"/><path class="cls-44" d="M232,62.53s5.55,4.3,10.76,5.42,8.31,1.92,8.31,1.92L250,73.2l-3.65-.71a49.21,49.21,0,0,0,1.68,7.7l-16,0L234,68.9l-4.42-3.42Z"/><path class="cls-30" d="M241.77,66.55s-.56,2.51-1.75,2.86c-1,.27-1.83-.14-1.39-2S241.77,66.55,241.77,66.55Z"/><path class="cls-30" d="M231.51,59.28a1.3,1.3,0,0,0-1.94,1.27c-.13,2.07,2.83,1.65,2.83,1.65s1.73,5.72,9.18,5.89,8.82-5.19,8.82-5.19,2.31.16,2.9-1.59-1.44-1.41-1.44-1.41-5-10.57-7.3-10.12-11.88,5.64-11.88,5.64Z"/><path class="cls-42" d="M244.66,52.49s-10.54,7.8-13.15,6.79c0,0,.51-14.82,14.25-11.22,9.43,2.47,6.57,12.15,6.57,12.15S246.68,61.45,244.66,52.49Z"/><path class="cls-45" d="M244.93,48.3S233.39,58.4,231.8,58.39c0,0,1.78.34,6.34-2.58a55.76,55.76,0,0,0,6.91-5.08s4,8.56,6.67,9C251.72,59.71,246.25,51.9,244.93,48.3Z"/><path class="cls-45" d="M246.69,48.57a23.79,23.79,0,0,1,5.7,9.87S252.22,50.32,246.69,48.57Z"/><path class="cls-45" d="M243.31,48s-7.2,1.69-9.89,6.35C233.42,54.34,234.22,48.34,243.31,48Z"/><path class="cls-8" d="M236.27,59.28a1,1,0,0,1,.82.92l-1.87-.29A1,1,0,0,1,236.27,59.28Z"/><path class="cls-8" d="M248.13,60.79a1,1,0,0,1,.82.91l-1.88-.28A1,1,0,0,1,248.13,60.79Z"/><path class="cls-10" d="M241.44,62.87s0,.76-.37.78.43.31.66,0S241.67,62.76,241.44,62.87Z"/><path class="cls-11" d="M239.62,66.18a1,1,0,1,0,1-1.11A1.05,1.05,0,0,0,239.62,66.18Z"/><path class="cls-10" d="M231.6,60l.18,1.59s-1.4.08-1.65-1S231.6,60,231.6,60Z"/><path class="cls-10" d="M251.06,62.06l.4-1.64s.88-.39,1,.44A1.2,1.2,0,0,1,251.06,62.06Z"/><path class="cls-46" d="M233.44,71.88l13.15,2.35c0,.23.08.47.13.72l-13.39-2.39Z"/><path class="cls-46" d="M233.76,70l12.64,3c0,.2.07.45.12.74l-12.88-3.07Z"/><path class="cls-6" d="M246.53,64.62a1.4,1.4,0,0,0,2,.29,1.42,1.42,0,1,0-2-.29Z"/><path class="cls-6" d="M233.82,63.33a1.43,1.43,0,1,0,.29-2A1.42,1.42,0,0,0,233.82,63.33Z"/><path class="cls-47" d="M190.53,95.49c1-.29,1.61-.5,2-.64h0c-.32-.93-1-4.66-1-4.66l-2.83.18.9,4.09s-.42.12-.91.29C188.64,95.15,188.84,96,190.53,95.49Z"/><path class="cls-48" d="M190,97.08c2.6-.58,3-.93,2.55-2.23-.37.14-1,.35-2,.64-1.69.49-1.89-.34-1.89-.74-.61.22-1.31.53-1.43.82C187,96.1,187.36,97.67,190,97.08Z"/><path class="cls-47" d="M198.91,93.75c-1,.25-1.64.38-2,.45h0c-.2-1-1.47-4.53-1.47-4.53L198,88.38l1.29,4s.42-.12.93-.21C200.37,92.5,200.61,93.32,198.91,93.75Z"/><path class="cls-48" d="M200.2,94.84c-2.53.8-3,.71-3.32-.64.39-.07,1-.2,2-.45,1.7-.43,1.46-1.25,1.26-1.59a2.94,2.94,0,0,1,1.65,0C202.27,92.49,202.75,94,200.2,94.84Z"/><path class="cls-49" d="M186.78,84.86l.12,5.72a5.79,5.79,0,0,0,2.42.33c1.2-.14,3.56-.5,3.56-.5l-.24-3.57a2.42,2.42,0,0,0,.56-.09c.27-.06.89,3.57.89,3.57a20.53,20.53,0,0,0,4.25-.12,4.61,4.61,0,0,0,1.37-1l-1.93-5.63Z"/><path class="cls-47" d="M194.34,74.08s2.75-1.45,3.74-2.14S202,69,202,69s.93-1.34,1.12-1.67.62-.86.83-.67-.31,1-.31,1,.86-1,1.16-.76-.91,1.2-.91,1.2,1.07-.88,1.42-.56-1.13,1-1.13,1,1.34-.55,1.38-.16-1.24.64-1.24.64.89.32.68.58a1,1,0,0,1-1,.08s-.65.87-1.16,1c0,0-5.85,5.82-6.94,5.54S194.34,74.08,194.34,74.08Z"/><path class="cls-47" d="M186.48,75.28s-2.9.64-4,.74-4.59.27-4.59.27-1.48-.4-1.8-.53-1-.25-1,0,.8.52.8.52-1.24-.22-1.31.17,1.38.32,1.38.32-1.31,0-1.4.46,1.46.08,1.46.08-1.33.41-1.13.73,1.3-.3,1.3-.3-.49.79-.18.84.78-.36.82-.56a2.85,2.85,0,0,0,1.43,0s7.75.65,8.41-.23S186.48,75.28,186.48,75.28Z"/><path class="cls-50" d="M184.48,75.41a50.16,50.16,0,0,0,6.71-.73,12.76,12.76,0,0,0,5.36-2.49l1.75,3-2.46,1.44L198.29,84s-5,1.38-6.56,1.56-5.37.16-5.37.16l.33-7.48-2.06.23Z"/><path class="cls-51" d="M188.13,73.35l.42,2.09a1.6,1.6,0,0,0,1.75,1A2,2,0,0,0,192,75.07L191,72.69Z"/><path class="cls-52" d="M193.42,78.46a.61.61,0,0,0-.71-.49.67.67,0,0,0-.39.26,2.49,2.49,0,0,0-2.35.52.57.57,0,0,0-.49-.13.61.61,0,0,0-.49.71.6.6,0,0,0,.38.45,1.51,1.51,0,0,0,0,.52,2.2,2.2,0,0,0,4.23-.79,1.47,1.47,0,0,0-.27-.61A.56.56,0,0,0,193.42,78.46Z"/><path class="cls-48" d="M190.52,79.52a.32.32,0,1,1-.38-.25A.33.33,0,0,1,190.52,79.52Z"/><path class="cls-48" d="M192.63,79.07a.32.32,0,1,1-.62.13.32.32,0,0,1,.62-.13Z"/><path class="cls-53" d="M177.25,68.43s-2.85-6,1.68-10.9,14.94-5.69,18.13-1.08c3.08,4.43,2.72,8.41,2.21,9.15s-18,3.6-17.91,3.72S177.25,68.43,177.25,68.43Z"/><path class="cls-47" d="M177.73,68s-1.71-.62-1.54.75c.13,1.06,1.09,1.46,2.17,1.21,0,0,2,7.22,11.37,5.09,9.59-2.17,9.1-8.37,9.1-8.37a1.06,1.06,0,0,0,1.34-1c.07-1.18-.93-1-1.33-.86s-2.78-1.46-5.67-1.24c0,0-1.08-3.15-2.27-4.27,0,0,1.07,3.9.75,4.43l-5.64.86-1.07-4.71.49,4.86S179.65,66.69,177.73,68Z"/><path class="cls-28" d="M191.37,72.29a1.25,1.25,0,0,1-1,1.75,1.43,1.43,0,0,1-1.83-1.25s.1-.19.23-.08.29,1.06,1,1.12,1.39-.37,1.4-.68-.09-.76,0-.82S191.29,72.19,191.37,72.29Z"/><path class="cls-54" d="M189.54,70.3c.11.07-.07.62.15.68s-.28.17-.43,0S189.4,70.21,189.54,70.3Z"/><path class="cls-54" d="M177.66,68.33s-1-.46-1.07,0a1,1,0,0,0,1.41,1Z"/><path class="cls-54" d="M199,66.22l.09-1.14a.35.35,0,0,1,.62.18C199.94,65.85,199.69,66.3,199,66.22Z"/><path class="cls-55" d="M183.25,71.35a1.22,1.22,0,1,1-1.45-.94A1.21,1.21,0,0,1,183.25,71.35Z"/><path class="cls-55" d="M196.4,68.51a1.22,1.22,0,0,1-.94,1.46,1.23,1.23,0,1,1,.94-1.46Z"/><path class="cls-56" d="M180.87,67.18a2.15,2.15,0,0,0-.52,1.86c.28,1.29,1.84,2.06,3.48,1.7s2.74-1.69,2.46-3a2.16,2.16,0,0,0-1.24-1.48,3.46,3.46,0,0,0-2.24-.22A3.5,3.5,0,0,0,180.87,67.18ZM180.56,69a2,2,0,0,1,.48-1.67,3.19,3.19,0,0,1,1.82-1.06,3.24,3.24,0,0,1,2.1.21,1.94,1.94,0,0,1,1.12,1.33c.25,1.18-.78,2.4-2.3,2.73S180.82,70.17,180.56,69Z"/><path class="cls-56" d="M190.5,65.26a2.17,2.17,0,0,0-.52,1.86c.28,1.3,1.84,2.06,3.48,1.71s2.74-1.7,2.46-3a2.17,2.17,0,0,0-1.24-1.48,3.63,3.63,0,0,0-4.18.9Zm-.31,1.81a2,2,0,0,1,.47-1.67,3.44,3.44,0,0,1,3.93-.85,2,2,0,0,1,1.12,1.33c.25,1.18-.78,2.41-2.3,2.73S190.45,68.25,190.19,67.07Z"/><path class="cls-56" d="M186.11,67.7l.16.15s1.13-.94,3.87-.57L190,67C187.12,66.62,186.15,67.66,186.11,67.7Z"/><path class="cls-8" d="M182.9,67.84a1,1,0,0,0-.75,1.1l1.94-.51A1,1,0,0,0,182.9,67.84Z"/><path class="cls-8" d="M193,65.83a1,1,0,0,0-.75,1.1l1.94-.51A1,1,0,0,0,193,65.83Z"/><path class="cls-18" d="M183.33,55.55s-6.71,4.37-5.47,11.44C177.86,67,174.8,59.56,183.33,55.55Z"/><path class="cls-18" d="M188.87,54.48s4.73-.24,6.7,4,2.33,4.87,2.33,4.87S197.47,53.2,188.87,54.48Z"/><path class="cls-18" d="M186.9,57.37a20.74,20.74,0,0,0,.94,6.19S185.8,60.5,186.9,57.37Z"/><path class="cls-18" d="M190.69,56.5a9.69,9.69,0,0,1,3.5,6.19S194.62,57.81,190.69,56.5Z"/><path class="cls-18" d="M183.47,58a8.11,8.11,0,0,0-2,6.56S179.76,60.07,183.47,58Z"/><path class="cls-57" d="M207.34,94.21a16.66,16.66,0,0,1-2.12-2.15c-.31-.4-3-3.21-3.15-3.4s1.78-1.52,2.79-.76l.34.24a2.85,2.85,0,0,1-.84,1.62l2.6,2.68s1.23-.92,2.14-.48C208.89,92.29,207.59,94.31,207.34,94.21Z"/><path class="cls-7" d="M208.94,92.06s-1.42,2.14-1.64,2-.37-.31-.33-.39S208.94,92.06,208.94,92.06Z"/><path class="cls-58" d="M207,92.44l-2.6-2.68a2.85,2.85,0,0,0,.84-1.62,22.25,22.25,0,0,0,2.37,1.32l1.56,2.45,0,0C208.19,91.52,207,92.44,207,92.44Z"/><path class="cls-59" d="M208.49,91.6a4.71,4.71,0,0,1-2.23-1.27c-1-1-.47-1.71-.47-1.71Z"/><path class="cls-7" d="M205.06,88.12h0a1.8,1.8,0,0,0-1.6-.28c-.8.34-1.19.78-1.08,1a8.41,8.41,0,0,0,2.64-.47C205.15,88.18,205.06,88.12,205.06,88.12Z"/><path class="cls-57" d="M216.15,96.74a17,17,0,0,0,3,0c.51-.06,4.43-.12,4.64-.17s-.18-2.34-1.44-2.51L222,94a2.8,2.8,0,0,0-.54,1.75l-3.74.06s-.22-1.52-1.18-1.86C216.41,94.28,215.9,96.64,216.15,96.74Z"/><path class="cls-7" d="M216.54,94.09s-.51,2.52-.29,2.61.48,0,.51,0S216.54,94.09,216.54,94.09Z"/><path class="cls-58" d="M217.67,95.76l3.74-.06A2.8,2.8,0,0,1,222,94a21.36,21.36,0,0,1-2.61-.73l-2.83.63,0,.05C217.45,94.24,217.67,95.76,217.67,95.76Z"/><path class="cls-59" d="M217.18,94.09a4.74,4.74,0,0,0,2.48.67c1.42,0,1.54-.88,1.54-.88Z"/><path class="cls-60" d="M220.9,71.15s3.65-.85,5-1.19,5.41-1.56,5.41-1.56a18.51,18.51,0,0,0,1.89-1.06c.33-.27,1-.66,1.16-.37s-.73.91-.73.91,1.33-.75,1.55-.33-1.47.91-1.47.91,1.5-.51,1.75,0-1.63.66-1.63.66,1.65,0,1.53.39-1.58.18-1.58.18.82.7.49.89-.82-.2-.93-.42c0,0-.33.89-1.64.56,0,0-8.79,4-9.84,3.2S220.9,71.15,220.9,71.15Z"/><path class="cls-60" d="M213,71.26s-3.75-.08-5.13-.14-5.61-.4-5.61-.4a19.44,19.44,0,0,1-2.07-.64c-.38-.21-1.13-.44-1.21-.13s.9.74.9.74-1.46-.45-1.58,0,1.62.58,1.62.58-1.57-.18-1.71.34,1.73.32,1.73.32-1.63.29-1.42.69,1.58-.15,1.58-.15-.65.86-.3,1,.76-.36.83-.6c0,0,.51.81,1.73.21,0,0,9.41,2,10.28,1.1S213,71.26,213,71.26Z"/><path class="cls-7" d="M216.81,70.17s-1.47-.23-1.46.78a1.66,1.66,0,0,0,3.19.09s-.61,1.44,1.11,1.37,1.21-3,1.15-3.23S216.81,70.17,216.81,70.17Z"/><path class="cls-61" d="M221.68,82.4s0,1.62-.06,2.87-.84,7.77-.84,7.77.16.62-.32.73-4.16,1.06-4.34,0,.12-9.15-.18-9.15a2.48,2.48,0,0,1-.54-.06s-5.65,6.93-6.1,7.23-4.12-2.39-3.34-3.4,4.3-7.11,5-7.59S221.68,82.4,221.68,82.4Z"/><path class="cls-62" d="M215.44,84.37s.77-.13.77.36-.32,8.34.09,8.38,1.21,0,1.25-.49-.36-8.2-.72-8.47S214.82,84.15,215.44,84.37Z"/><path class="cls-63" d="M211.59,80.24l0,0-.13-.08,0,0m-.26.69.19-.31-.12-.07-.19.3m-.26.68.19-.3-.12-.08-.19.31m-.26.68.19-.3-.12-.08-.19.3m-.27.69.2-.31-.12-.07-.2.3m-.26.68.19-.3-.12-.08-.19.31m-.26.68.19-.3-.12-.08-.19.3m-.26.69.19-.31-.12-.07-.19.3m-.26.68.19-.3-.12-.08-.19.31m-.27.68.2-.3-.13-.08-.19.3m-.26.69L208,86l-.12-.07-.19.3m-.26.68.19-.3-.12-.08-.19.31m-.26.68.19-.3-.12-.08-.19.3m-.26.69.19-.31-.12-.07-.19.3"/><path class="cls-63" d="M221.52,82.7v-.06l-.14,0v.06m.06.73,0-.36h-.14l0,.35m0,.73.05-.36h-.15l0,.35m.06.73,0-.35-.14,0,0,.36m.06.72,0-.35-.14,0,0,.36m.05.73,0-.36-.15,0,0,.36M221,87l0-.36h-.14l0,.35m0,.73.05-.36h-.15l0,.35m.06.73,0-.35-.14,0-.05.36m.06.72,0-.35-.14,0,0,.36m0,.73.05-.36-.14,0,0,.36m.06.73,0-.36h-.14l0,.35m.05.73,0-.36h-.15l0,.35m.06.73,0-.35-.14,0-.05.36"/><path class="cls-64" d="M221.72,70.88s-5.06-.71-8.34.05l-3.09,10.44L222,82.76Z"/><path class="cls-10" d="M216.68,69.35s-.34,2.09,1.34,2.19,2.16-2,2.16-2S217,68.88,216.68,69.35Z"/><path class="cls-64" d="M213.56,71l-4,.09V74.6s3.23,0,3.85-.18S213.56,71,213.56,71Z"/><polygon class="cls-64" points="221.27 70.97 224.23 70.21 224.99 73.62 221 74.56 221.27 70.97"/><path class="cls-65" d="M209.9,71.05l.1,3.54h.71L210.62,71Z"/><polygon class="cls-65" points="223.81 70.38 223.12 70.56 223.91 73.94 224.6 73.78 223.81 70.38"/><path class="cls-65" d="M218,72.94c1.65.21,2.54-1.2,2.94-2.15l-.76-.07c-.36.74-1,1.65-2.09,1.51a2.16,2.16,0,0,1-1.9-1.64l-.73,0A2.9,2.9,0,0,0,218,72.94Z"/><polygon class="cls-65" points="212.24 74.8 212.03 75.51 221.85 75.84 221.83 75.12 212.24 74.8"/><path class="cls-66" d="M206.26,87.65s-.86.62-.63,1.16,2.51,3.54,3.58,3.36a1.26,1.26,0,0,0,1-1.66,44.69,44.69,0,0,0-3.45-2.91S206.39,87.47,206.26,87.65Z"/><path class="cls-66" d="M216,92.9s-.12,1,.43,1.25,4.3.57,4.9-.34A1.26,1.26,0,0,0,220.8,92a43.42,43.42,0,0,0-4.49.55S216,92.68,216,92.9Z"/><path class="cls-7" d="M222.06,94h0c.14,0,1,.19,1.34.93s.29,1.39.09,1.44a8.91,8.91,0,0,1-1.54-2.2C222,94,222.06,94,222.06,94Z"/><path class="cls-60" d="M201.73,70.82a9.19,9.19,0,0,1-1.34.41c-.24,0-.45.44.17.58s1.28-.18,1.38,0,.45-.53.45-.53Z"/><path class="cls-60" d="M206.83,61.69s-1.5-.78-1.86.6,1.38,2.28,2,2.28c0,0,1.63,6.76,12.59,6.05,7.44-.48,8.15-7.61,8.15-7.61s2.1,0,2.1-1.14-1.85-1.2-1.85-1.2a3.31,3.31,0,0,1-2.34-1.38A17.88,17.88,0,0,1,223.86,56S217.86,47.74,206.83,61.69Z"/><path class="cls-37" d="M211.28,65.49A1.29,1.29,0,1,1,210.19,64,1.29,1.29,0,0,1,211.28,65.49Z"/><path class="cls-37" d="M225.93,66.11a1.29,1.29,0,0,1-1.46,1.09,1.29,1.29,0,1,1,1.46-1.09Z"/><path class="cls-7" d="M224.91,63.81A1.05,1.05,0,0,1,223,63a1.05,1.05,0,1,1,1.94.81Z"/><path class="cls-8" d="M224.67,63.71a.79.79,0,0,1-1.46-.61.81.81,0,0,1,1-.43A.79.79,0,0,1,224.67,63.71Z"/><path class="cls-11" d="M216.9,67.28a26.63,26.63,0,0,0,3.46-.09s.57,2.49-1.65,2.6S216.9,67.28,216.9,67.28Z"/><path class="cls-12" d="M218.71,69.79a1.61,1.61,0,0,0,1.64-1.28l-.1,0a4.1,4.1,0,0,0-3.09.56A1.54,1.54,0,0,0,218.71,69.79Z"/><path class="cls-10" d="M219.33,64.39s-.09.81-.48.75-.36.21.09.18.9-.66.75-.84S219.3,64.06,219.33,64.39Z"/><path class="cls-10" d="M215.22,64.84a.09.09,0,1,1-.09-.09A.09.09,0,0,1,215.22,64.84Z"/><path class="cls-10" d="M222.57,65.74a.09.09,0,1,1-.09-.09A.09.09,0,0,1,222.57,65.74Z"/><path class="cls-10" d="M221.5,65.37a.09.09,0,1,1-.09-.09A.09.09,0,0,1,221.5,65.37Z"/><path class="cls-10" d="M222.72,65a.09.09,0,0,1-.1.1.09.09,0,0,1-.08-.1.09.09,0,0,1,.08-.08A.09.09,0,0,1,222.72,65Z"/><path class="cls-10" d="M220.53,65a.09.09,0,1,1-.18,0,.09.09,0,0,1,.18,0Z"/><path class="cls-10" d="M221.62,64.09a.09.09,0,1,1-.09-.09A.09.09,0,0,1,221.62,64.09Z"/><path class="cls-10" d="M214.3,65.09a.09.09,0,1,1-.09-.09A.09.09,0,0,1,214.3,65.09Z"/><path class="cls-10" d="M213.61,65a.09.09,0,0,1-.09.09.09.09,0,1,1,0-.18A.09.09,0,0,1,213.61,65Z"/><path class="cls-10" d="M217.7,64.36a.09.09,0,1,1-.09-.09A.09.09,0,0,1,217.7,64.36Z"/><path class="cls-10" d="M218.71,63.64a.09.09,0,1,1-.09-.09A.09.09,0,0,1,218.71,63.64Z"/><path class="cls-10" d="M219.88,62.56a.09.09,0,1,1-.09-.09A.09.09,0,0,1,219.88,62.56Z"/><path class="cls-10" d="M217.47,63.33a.09.09,0,0,1-.18,0,.09.09,0,0,1,.18,0Z"/><path class="cls-10" d="M215,64a.09.09,0,1,1-.09-.09A.09.09,0,0,1,215,64Z"/><path class="cls-10" d="M212.07,65a.09.09,0,1,1-.09-.09A.09.09,0,0,1,212.07,65Z"/><path class="cls-8" d="M228.36,61.78c-1.52,0-5.49.28-6.58-4.92,0,0-1.41,3.8-7.09,4.73A7.56,7.56,0,0,0,217.05,58a6.05,6.05,0,0,1-3.82,3.65,8.25,8.25,0,0,0,2.05-3.49s-.94,3.37-5.49,3.13c0,0,2.55-.84,2.68-2.62a5.48,5.48,0,0,1-5.54,2.74c-4.09-.33-4.27-2.66-4.27-2.66a2.43,2.43,0,0,0,2.64-.14s.67-14,16.86-9.86c0,0,9.37.72,7.07,12.29a2.64,2.64,0,0,1-.2.6C228.82,62,228.77,61.78,228.36,61.78Z"/><path class="cls-67" d="M221.59,52.69s-1.05,6.56-6.56,8.8A8.77,8.77,0,0,0,221.59,52.69Z"/><path class="cls-67" d="M220.89,48.93s-6.13-1.88-10.19,1.88A17.71,17.71,0,0,0,205.62,59s2.06-8.05,6.78-10A10.59,10.59,0,0,1,220.89,48.93Z"/><path class="cls-67" d="M220.89,48.93s-4,10.63-7.48,12.51C213.41,61.44,218.35,59.43,220.89,48.93Z"/><path class="cls-67" d="M220.89,48.93s-5.43,10-9.62,12.07c0,0,2.18,0,5.33-4A25.63,25.63,0,0,0,220.89,48.93Z"/><path class="cls-67" d="M220.63,49s-5.56-.92-11.38,5.29C209.25,54.31,212.8,47.44,220.63,49Z"/><path class="cls-67" d="M220.89,48.93s-6.08,1.44-8.36,4.33-6.43,7.61-8.88,6.3c0,0,1.88,1.71,6.35-1.66C214.79,54.28,215.59,52,220.89,48.93Z"/><path class="cls-67" d="M218.66,51.28s-4.84,6.88-9,8c0,0,2.68.17,5.6-2.92S218.66,51.28,218.66,51.28Z"/><path class="cls-67" d="M221.59,49a5,5,0,0,1,4.16,2c1.83,2.23,3.19,9.89,3.19,9.89s.48-4.94-1.4-8.31S222.64,48.62,221.59,49Z"/><path class="cls-67" d="M221.5,49.15s2.54.48,4.38,4.77a34.26,34.26,0,0,1,1.92,4.94S223.16,52.69,221.5,49.15Z"/><path class="cls-67" d="M221.37,49.41a14.87,14.87,0,0,0,5.69,10.28S221,56.06,221.37,49.41Z"/><path class="cls-7" d="M224.61,63.45a.19.19,0,1,1-.37,0,.18.18,0,0,1,.19-.19A.18.18,0,0,1,224.61,63.45Z"/><path class="cls-7" d="M224.15,63.43a.09.09,0,0,1-.08.09.09.09,0,0,1-.09-.09.09.09,0,0,1,.09-.08A.09.09,0,0,1,224.15,63.43Z"/><path class="cls-7" d="M212,63.11a1,1,0,1,1-.56-1.37A1,1,0,0,1,212,63.11Z"/><path class="cls-8" d="M211.75,63a.78.78,0,1,1-1.45-.6.78.78,0,1,1,1.45.6Z"/><path class="cls-7" d="M211.7,62.75a.19.19,0,0,1-.19.19.18.18,0,0,1-.19-.19.19.19,0,0,1,.19-.19A.2.2,0,0,1,211.7,62.75Z"/><path class="cls-7" d="M211.23,62.74a.08.08,0,1,1-.08-.08A.07.07,0,0,1,211.23,62.74Z"/></g><g id="文字"><path class="cls-68" d="M28.39,73.15a2.78,2.78,0,0,1-1,2.28.27.27,0,0,1-.14.07c-.12,0-.18,0-.2-.15a.26.26,0,0,1,0-.14,4.26,4.26,0,0,0,.48-1,.91.91,0,0,1-.67-.18.92.92,0,0,1-.34-.61.86.86,0,0,1,.18-.67.85.85,0,0,1,.6-.35.9.9,0,0,1,.69.17A.92.92,0,0,1,28.39,73.15ZM31,72.8a2.76,2.76,0,0,1-1,2.28.23.23,0,0,1-.14.07.15.15,0,0,1-.19-.15.19.19,0,0,1,0-.14,3.64,3.64,0,0,0,.5-1,.89.89,0,0,1-.67-.18.93.93,0,0,1-.35-.61.91.91,0,0,1,.18-.67A.83.83,0,0,1,29.9,72a.92.92,0,0,1,.7.17A.83.83,0,0,1,31,72.8Z"/><path class="cls-68" d="M37,75.34a.12.12,0,0,1,0,.09.8.8,0,0,1-.13.38L36.24,77a1,1,0,0,0-.09.8c.13.55,0,.89-.49,1a.94.94,0,0,1-.93-.25,1.72,1.72,0,0,1-.5-.87,16.32,16.32,0,0,1-.38-2c-.12-.82-.21-1.87-.29-3.13,0-.14.06-.21.21-.22l1.57-.08a.27.27,0,0,1,.33.26.3.3,0,0,1-.19.32.07.07,0,0,0,0,.06,25.65,25.65,0,0,0,.33,3.35c0,.1.07.11.16,0l.64-.69Q36.83,75.21,37,75.34Zm2.57-1.83a.34.34,0,0,1-.09.33.08.08,0,0,0,0,.07,19,19,0,0,1,.52,3.15q.15,3.81-4.1,5.59-.33.15-.42,0c-.07-.1,0-.22.13-.36a9,9,0,0,0,2.12-2.75A5.31,5.31,0,0,0,38,77.15a19.4,19.4,0,0,0-.59-3.36c0-.12,0-.19.16-.22l1.5-.26C39.34,73.27,39.49,73.33,39.53,73.51Z"/><path class="cls-68" d="M53.57,76.2c.07.06.06.35,0,.86-.35,1.84-1.18,2.86-2.49,3a2.37,2.37,0,0,1-2.61-1.74,5.88,5.88,0,0,0-.38-.75c-.14-.21-.29-.29-.45-.26a.89.89,0,0,0-.49.28l-.66.66L46,80.48a.62.62,0,0,1-.52.55.74.74,0,0,1-.29,0l-.48-.14a.63.63,0,0,1-.53-.53.61.61,0,0,1,0-.26l1.91-9.33a.18.18,0,0,1,.24-.14l1.61.32c.21,0,.3.16.28.34a.29.29,0,0,1-.23.28.12.12,0,0,0-.08,0l-1,4.73a1.86,1.86,0,0,1,1-.4,1.06,1.06,0,0,1,.9.38,4.35,4.35,0,0,1,.56.88A2.78,2.78,0,0,0,50,78a1.22,1.22,0,0,0,1,.22,3,3,0,0,0,2.21-1.86c.08-.16.16-.24.25-.25A.15.15,0,0,1,53.57,76.2Z"/><path class="cls-68" d="M63.75,70.43c0,.3-.15.48-.57.53L62.8,71l-2.07,1.74c-.15.12-.27.16-.35.12s-.08-.18,0-.44L60.78,71,57,71.49a.29.29,0,1,1-.08-.58l3.75-.5.85-1a.52.52,0,0,1,.32-.18.57.57,0,0,1,.36.08l1.34.82A.49.49,0,0,1,63.75,70.43Zm.61,6.33a1.36,1.36,0,0,1,.19.53c.1.75-.86,1.26-2.9,1.53-2.69.37-4.16-.42-4.43-2.36a4.3,4.3,0,0,1,0-.88.31.31,0,0,1,.19-.31c.1,0,.19,0,.25.17a2.52,2.52,0,0,0,2.77,1.61,5.07,5.07,0,0,0,2.36-.71,1.19,1.19,0,0,1,.56-.25C63.72,76,64.06,76.26,64.36,76.76Zm1-7.46a.59.59,0,0,1,.09.24.43.43,0,0,1-.39.53.49.49,0,0,1-.42-.17,3.34,3.34,0,0,0-.88-.57c-.1-.06-.15-.12-.14-.19s.22-.23.64-.29A1,1,0,0,1,65.37,69.3Zm1-1.08a.69.69,0,0,1,.09.25.44.44,0,0,1-.39.53.49.49,0,0,1-.42-.18,3.12,3.12,0,0,0-.87-.57c-.11,0-.16-.09-.15-.17s.22-.25.64-.3A1,1,0,0,1,66.39,68.22Z"/><path class="cls-68" d="M71.63,73.72c-.33.56-.92,1.42-1.75,2.59a.09.09,0,0,0,0,.09c0,.25,0,.38-.21.41a.37.37,0,0,1-.31-.14l-1.15-1.09c-.11-.09-.1-.18,0-.26l3.11-1.94.13,0c.14,0,.21,0,.23.17A.37.37,0,0,1,71.63,73.72Zm4.24-6.17c0,.24-.08.37-.34.4l-.42.1-2,2.34c-.11.12-.22.15-.32.08s-.14-.16-.1-.34l.46-2-2.93.4c-.18,0-.28-.06-.31-.25a.24.24,0,0,1,.23-.3l3-.4.82-1a.38.38,0,0,1,.24-.16.57.57,0,0,1,.31.08l1.25.73A.39.39,0,0,1,75.87,67.55Zm-.48,8c0,1-.49,1.56-1.38,1.63a.84.84,0,0,1-.9-.67c-.09-.29-.33-.44-.74-.46h-.31c-.25,0-.38-.08-.39-.19s.09-.23.32-.26l1.09-.15a.49.49,0,0,0,.46-.43,3.3,3.3,0,0,0,0-.7A4.23,4.23,0,0,0,72,71.58a.32.32,0,0,1-.12-.18c0-.11,0-.17.19-.17a2.25,2.25,0,0,1,1,.24A3.92,3.92,0,0,1,75,73.25a4.54,4.54,0,0,1,.37,1.38A5.74,5.74,0,0,1,75.39,75.53Zm3.88-1.46a.83.83,0,0,1-1.53.53,4.24,4.24,0,0,0-.86-.94,9.52,9.52,0,0,0-1.1-.76.23.23,0,0,1-.12-.26c0-.11.13-.17.31-.19a4,4,0,0,1,2.74.55A1.31,1.31,0,0,1,79.27,74.07Z"/><path class="cls-68" d="M89.53,72.16q-.82,3-3.37,3.4-2.76.39-3.24-2.92c-.07-.44-.14-1-.22-1.71L82.48,69l-.36-2.84c0-.13,0-.19.17-.2l1.6-.12c.2,0,.31.06.33.25a.28.28,0,0,1-.17.3s0,0,0,0l.26,2.3c.19,1.69.32,2.8.39,3.31a3.58,3.58,0,0,0,.42,1.43,1.32,1.32,0,0,0,1.36.42,4.24,4.24,0,0,0,2.69-2c.09-.12.18-.14.29-.07A.26.26,0,0,1,89.53,72.16Zm-2.21-4.5a.78.78,0,0,1,.07.25.44.44,0,0,1-.39.53.54.54,0,0,1-.42-.18,3.85,3.85,0,0,0-.87-.57c-.11,0-.16-.09-.15-.17s.22-.25.64-.31A1,1,0,0,1,87.32,67.66Zm1-1.07a.59.59,0,0,1,.09.24.44.44,0,0,1-.39.53c-.11,0-.32-.07-.64-.29l-.66-.46c-.11,0-.16-.08-.16-.17s.24-.24.65-.3A1,1,0,0,1,88.34,66.59Z"/><path class="cls-68" d="M102.22,68.91a.25.25,0,0,1-.25.31l-3.21.44,1.08,3.24a.87.87,0,0,1,.06.21.59.59,0,0,1-.42.71l-.87.3-.14,0c-.2,0-.33-.08-.41-.3l-1.29-3.94-3.21.44c-.2,0-.31-.06-.33-.26a.26.26,0,0,1,.25-.33l3.11-.42L95.8,67,93,67.34a.29.29,0,1,1-.08-.58l2.73-.37-.83-2.59c0-.12,0-.2.13-.23l1.6-.39a.36.36,0,0,1,.5.28.37.37,0,0,1-.1.41s0,.05,0,.1l.71,2.15L98.69,66l.8-1a.37.37,0,0,1,.26-.15.37.37,0,0,1,.3.08l1,.79c.14.11.22.2.23.28s-.06.28-.26.31l-3.27.44.78,2.39,1-.14.79-1a.37.37,0,0,1,.27-.15.35.35,0,0,1,.29.08l1,.79C102.14,68.74,102.21,68.83,102.22,68.91Z"/><path class="cls-68" d="M108,68.11a.65.65,0,0,1-.58.81c-.2,0-.53-.17-1-.62l-.93-1c-.11-.08-.15-.16-.13-.23s.12-.13.29-.16a2.61,2.61,0,0,1,1.72.24A1.25,1.25,0,0,1,108,68.11Zm2.13-1.33c0,.06,0,.14,0,.25a.65.65,0,0,1-.57.81.61.61,0,0,1-.66-.32,6.91,6.91,0,0,0-1.28-1.24c-.1-.08-.14-.16-.12-.22s.12-.16.29-.18a2.61,2.61,0,0,1,1.72.24A1.12,1.12,0,0,1,110.09,66.78Zm3.43-1.43c0,.2,0,.32-.24.36a.1.1,0,0,0,0,.06,10.45,10.45,0,0,1-1.14,3.89,8.71,8.71,0,0,1-4,3.37c-.28.13-.46.1-.54-.08s0-.29.2-.44a9.34,9.34,0,0,0,3-3.7,11.92,11.92,0,0,0,.71-3.72c0-.15.08-.22.23-.21l1.5.17A.34.34,0,0,1,113.52,65.35Z"/><path class="cls-68" d="M125.55,68.37a1.46,1.46,0,0,1-.08,1,1,1,0,0,1-.84.45c-.31,0-.62-.17-.93-.59a8.91,8.91,0,0,0-2.18-2,13.35,13.35,0,0,1-5.18,4.23.83.83,0,0,1-.36.09.23.23,0,0,1-.26-.21.36.36,0,0,1,.17-.33q4.55-3.63,5-8.46l-4.17.56a.26.26,0,0,1-.33-.25.27.27,0,0,1,.26-.34l4-.54.86-1a.57.57,0,0,1,.32-.21.6.6,0,0,1,.38.11l1.33.85a.31.31,0,0,1,.17.21.41.41,0,0,1-.1.27l-.56.5a8.5,8.5,0,0,1-1.1,3.78,7.69,7.69,0,0,1,2.1.52C124.94,67.31,125.43,67.79,125.55,68.37Zm-.79-7.86a.59.59,0,0,1,.09.24.44.44,0,0,1-.39.53.49.49,0,0,1-.42-.17,3.19,3.19,0,0,0-.88-.57c-.1,0-.15-.09-.14-.18s.22-.24.64-.3A1,1,0,0,1,124.76,60.51Zm1.31-.88a.75.75,0,0,1,.08.24.43.43,0,0,1-.39.53.47.47,0,0,1-.41-.17,3.44,3.44,0,0,0-.88-.58.18.18,0,0,1-.15-.18c0-.14.22-.23.64-.29A1,1,0,0,1,126.07,59.63Z"/><path class="cls-68" d="M130.07,59.4a2.78,2.78,0,0,1-1,2.28.21.21,0,0,1-.13.07.15.15,0,0,1-.2-.15s0-.08,0-.14a4.67,4.67,0,0,0,.48-1,.85.85,0,0,1-.67-.18.9.9,0,0,1-.34-.6.84.84,0,0,1,.18-.68.85.85,0,0,1,.6-.35,1,1,0,0,1,1.06.78Zm2.58-.35a2.76,2.76,0,0,1-1,2.28.21.21,0,0,1-.14.07c-.12,0-.18,0-.2-.15a.27.27,0,0,1,0-.14,3.93,3.93,0,0,0,.5-1,.82.82,0,0,1-.67-.18.91.91,0,0,1-.17-1.28.83.83,0,0,1,.59-.35,1,1,0,0,1,.7.17A.84.84,0,0,1,132.65,59.05Z"/><path class="cls-69" d="M136.17,65.89c.05,0,0,.14,0,.29l-.45,1.19a.55.55,0,0,0,0,.49l.11.26a.55.55,0,0,1-.07.47.55.55,0,0,1-.39.27c-.54.12-.93-.27-1.18-1.16a10.56,10.56,0,0,1-.28-1.49c-.15-1.1-.27-2.51-.37-4.22,0-.09,0-.14.12-.14l1-.07q.27,0,.3.18a.2.2,0,0,1-.1.24s0,0,0,0c.12,1.93.22,3.14.28,3.62a4.57,4.57,0,0,1,.06.48c0,.25.11.37.18.36s.07,0,.1-.08l.41-.61a.34.34,0,0,1,.2-.16A.14.14,0,0,1,136.17,65.89Zm4.46-3.35c0,.15-.11.23-.3.27l-.33,0-1.3,1.29a.32.32,0,0,1-.19.1c-.11,0-.17,0-.19-.15a.34.34,0,0,1,0-.1l.28-1.12-1.93.26a.19.19,0,0,1-.24-.18c0-.14,0-.22.18-.24l1.95-.26.52-.69a.27.27,0,0,1,.19-.11.3.3,0,0,1,.22.06l.9.5C140.57,62.32,140.64,62.43,140.63,62.54Zm.36,4.1a.88.88,0,0,1,.09.29.63.63,0,0,1-.48.73,3.36,3.36,0,0,1-.83.21c-1.45.2-2.28-.3-2.5-1.49,0-.23,0-.36.08-.41a.14.14,0,0,1,.17.07,1.25,1.25,0,0,0,1.09.53,4.25,4.25,0,0,0,1.4-.26,1.28,1.28,0,0,1,.28-.07A.63.63,0,0,1,141,66.64Z"/><path class="cls-69" d="M23.88,23.77c-.33.55-.91,1.4-1.73,2.56a.16.16,0,0,0,0,.08c0,.25,0,.38-.2.41a.37.37,0,0,1-.31-.14l-1.14-1.07c-.1-.1-.09-.18,0-.26l3.07-1.92a.33.33,0,0,1,.13,0c.13,0,.2,0,.22.17A.36.36,0,0,1,23.88,23.77Zm4.18-6.08c0,.23-.08.36-.34.39l-.41.1-2,2.31c-.1.12-.21.15-.32.08s-.14-.16-.1-.33l.46-2-2.89.39q-.27,0-.3-.24a.23.23,0,0,1,.22-.3l2.91-.39.81-1a.4.4,0,0,1,.24-.15.41.41,0,0,1,.3.08l1.23.71A.41.41,0,0,1,28.06,17.69Zm-.48,7.86c0,1-.48,1.55-1.36,1.62a.83.83,0,0,1-.88-.67c-.09-.28-.33-.43-.73-.45H24.3c-.24,0-.37-.08-.38-.19s.08-.23.31-.26l1.08-.14a.48.48,0,0,0,.45-.42,2.63,2.63,0,0,0,0-.69,4.14,4.14,0,0,0-1.49-2.68.31.31,0,0,1-.11-.17c0-.12.05-.17.19-.17a2.28,2.28,0,0,1,1,.23,3.86,3.86,0,0,1,1.83,1.76,4.4,4.4,0,0,1,.37,1.35A5.62,5.62,0,0,1,27.58,25.55Zm3.84-1.44a.78.78,0,0,1-.84.92.75.75,0,0,1-.67-.39,4.68,4.68,0,0,0-.85-.93A9.38,9.38,0,0,0,28,23a.22.22,0,0,1-.12-.25c0-.11.13-.17.31-.19a4,4,0,0,1,2.7.55A1.3,1.3,0,0,1,31.42,24.11Z"/><path class="cls-69" d="M41.53,22.24c-.54,2-1.65,3.11-3.32,3.35s-2.88-.71-3.2-2.89c-.07-.42-.14-1-.21-1.68l-.22-1.88-.35-2.81c0-.12,0-.18.16-.19L36,16c.2,0,.31.06.32.25a.26.26,0,0,1-.16.29.05.05,0,0,0,0,0l.25,2.27q.28,2.5.39,3.27a3.35,3.35,0,0,0,.42,1.41A1.32,1.32,0,0,0,38.5,24,4.21,4.21,0,0,0,41.15,22a.19.19,0,0,1,.29-.07A.27.27,0,0,1,41.53,22.24ZM39.35,17.8a.73.73,0,0,1,.07.24.43.43,0,0,1-.38.52.47.47,0,0,1-.41-.17,4.1,4.1,0,0,0-.87-.57c-.1,0-.15-.08-.14-.16s.22-.25.63-.3A1,1,0,0,1,39.35,17.8Zm1-1.06a.75.75,0,0,1,.08.24.43.43,0,0,1-.38.52c-.1,0-.31-.07-.63-.29l-.65-.45c-.11,0-.16-.08-.15-.16s.23-.25.64-.3A1,1,0,0,1,40.36,16.74Z"/><path class="cls-69" d="M54.73,13.55c0,.16-.06.25-.23.27l-7.25,1a9,9,0,0,1-.11,3.5A7,7,0,0,1,45,21.64a.1.1,0,0,1-.08.05c-.08,0-.13,0-.14-.12v-.08a14,14,0,0,0,.8-3.41,12,12,0,0,0-.08-2.58l-.21-1.38a.11.11,0,0,1,0-.14.32.32,0,0,1,.17,0l1.69.32,5.11-.69.73-1a.31.31,0,0,1,.2-.15.42.42,0,0,1,.28.09l1,.75C54.65,13.39,54.72,13.47,54.73,13.55Zm-5.55,9c0,.11-.15.14-.32.1a.12.12,0,0,0-.13,0,4.87,4.87,0,0,1-2.34,1.15q-.16,0-.18-.06s0-.08,0-.13a13.82,13.82,0,0,0,1.38-2q.09-.15.21-.09l1.25.65C49.22,22.32,49.25,22.43,49.18,22.59Zm4.61-5.92a.32.32,0,0,1,.1.16.27.27,0,0,1-.07.2l-.2.2.3,2.61c0,.4-.09.62-.4.68l-.77.15c-.21,0-.33,0-.35-.18v-.13l-.36,0,.29,2.21a1.64,1.64,0,0,1-.21,1.08,1.28,1.28,0,0,1-.88.59c-.47.1-.74-.07-.82-.53a.66.66,0,0,0-.68-.47l-.2,0c-.13,0-.2,0-.21-.15s0-.18.2-.2l.63-.09a.6.6,0,0,0,.4-.16.57.57,0,0,0,.06-.42l-.23-1.61-.41.05a.32.32,0,0,1-.22.3l-1,.26a.24.24,0,0,1-.33-.22l-.59-3.91a.15.15,0,0,1,.05-.15.19.19,0,0,1,.16,0l1.41.29,2.46-.33.53-.66a.47.47,0,0,1,.26-.18.32.32,0,0,1,.22.06Zm-2.69-.84a.1.1,0,0,0-.09,0l-1.51.8a.48.48,0,0,1-.18.06c-.14,0-.22,0-.23-.14a.5.5,0,0,1,0-.26l.65-1.56c.06-.14.18-.17.35-.1l1.25.58a.33.33,0,0,1,.18.23c0,.22-.08.35-.34.38ZM52,17.39l-2.52.34.15,1,2.47-.33Zm.17,1.49-2.47.33.14.95,2.45-.33ZM56,21.4a3.75,3.75,0,0,0-.58,1.38c0,.08,0,.12-.14.14a1.19,1.19,0,0,1-.38-.05,3,3,0,0,1-1.12-.59,3.09,3.09,0,0,1-.84-1,.29.29,0,0,1,0-.26c0-.08.14-.1.29-.06a8.87,8.87,0,0,0,2.67.18c.12,0,.18,0,.19.08A.29.29,0,0,1,56,21.4Z"/><path class="cls-69" d="M69.5,17.56c-.13.22-.28.48-.43.78a2.3,2.3,0,0,0-.19.76c0,.3-.16.46-.42.47a.6.6,0,0,1-.23,0,5.65,5.65,0,0,1-1.8-.78,7,7,0,0,1-1.58-1.24l.53,3.89c.07.52-.11.83-.53.93l-1,.23c-.25.05-.39,0-.42-.28l-.53-3.93a9.07,9.07,0,0,1-4,2.5c-.15,0-.24.05-.28,0s-.08-.21.07-.36a15.48,15.48,0,0,0,3.58-4.79L59,16.15c-.22,0-.34,0-.37-.24s.07-.3.29-.33l3.47-.47L62,11.78c0-.13,0-.2.16-.2l1.81-.17a.52.52,0,0,1,.34.09.48.48,0,0,1,.17.3.42.42,0,0,1-.25.46.09.09,0,0,0,0,.08l.34,2.49,1.63-.22.78-1.06a.34.34,0,0,1,.26-.15.32.32,0,0,1,.27.08l1,.82c.14.11.22.2.23.28s-.06.27-.26.3l-3.89.52.14,1a10.77,10.77,0,0,0,4.65.85c.11,0,.18.05.19.15A.33.33,0,0,1,69.5,17.56Z"/><path class="cls-69" d="M81,13.57c.12.1.12.25,0,.45A11.17,11.17,0,0,1,78.1,17.6a18.68,18.68,0,0,1-3.88,2.53s-.08,0-.07.08a.27.27,0,0,1-.13.18.19.19,0,0,1-.28-.1l-.95-1.48a.76.76,0,0,1,0-.11.22.22,0,0,1,.12-.22l.27-.09-.88-6.63c0-.12,0-.18.14-.18l1.71-.17a.3.3,0,0,1,.37.31.32.32,0,0,1-.13.31.13.13,0,0,0,0,.1l.74,5.47a18.45,18.45,0,0,0,3.15-1.87c.58-.45,1.38-1.14,2.39-2.08C80.76,13.5,80.89,13.47,81,13.57Z"/><path class="cls-69" d="M92.42,16.21a1.3,1.3,0,0,1-.11,1,.93.93,0,0,1-.79.44,1.14,1.14,0,0,1-.94-.58,8.08,8.08,0,0,0-2.14-2,13.25,13.25,0,0,1-5.1,4.16.61.61,0,0,1-.36.09.21.21,0,0,1-.25-.2.35.35,0,0,1,.17-.33q4.47-3.59,4.9-8.34L83.68,11c-.2,0-.31-.05-.33-.25a.25.25,0,0,1,.25-.32l4-.54.86-1a.47.47,0,0,1,.68-.09l1.32.85a.28.28,0,0,1,.16.2.37.37,0,0,1-.1.27l-.53.49a8.35,8.35,0,0,1-1.11,3.72,7.55,7.55,0,0,1,2.08.52C91.82,15.18,92.31,15.65,92.42,16.21Z"/><path class="cls-69" d="M102.69,12.47a.83.83,0,0,1-.71,1,1,1,0,0,1-.87-.28,10.37,10.37,0,0,0-3.06-1.57l.68,5.06a.66.66,0,0,1-.56.81l-.8.19c-.3.06-.46-.05-.5-.35L95.55,7.49c0-.14,0-.22.2-.24l1.56-.11a.4.4,0,0,1,.48.4.38.38,0,0,1-.18.41s0,0,0,.09l.4,3a8.94,8.94,0,0,1,2.27-.08C101.8,11.05,102.61,11.57,102.69,12.47Z"/><path class="cls-69" d="M114.86,9a.35.35,0,0,1,.17.26.31.31,0,0,1-.14.31l-.4.3a6.17,6.17,0,0,1-1.9,4,13.8,13.8,0,0,1-3.84,2.38,1.3,1.3,0,0,1-.36.11c-.2,0-.32,0-.37-.16s0-.31.31-.49a11,11,0,0,0,3.13-3.11,7.12,7.12,0,0,0,.93-2.81l-6.17.83c-.18,0-.28-.06-.31-.25a.24.24,0,0,1,.24-.31l6.07-.82.87-1a.4.4,0,0,1,.28-.16.46.46,0,0,1,.34.1Zm-1.21-2.6c0,.17-.06.27-.25.3l-6.28.85a.27.27,0,0,1-.33-.25c0-.2.06-.31.25-.33l4-.55.79-1a.41.41,0,0,1,.24-.16.41.41,0,0,1,.3.08l1,.79C113.56,6.21,113.64,6.31,113.65,6.39Z"/><path class="cls-69" d="M120.89,7.29a1,1,0,0,1-.15.68.84.84,0,0,1-.56.36.86.86,0,0,1-.8-.4,6.9,6.9,0,0,0-1.58-1.37.24.24,0,0,1-.14-.23c0-.11.25-.2.68-.26a3.1,3.1,0,0,1,1.59.18A1.37,1.37,0,0,1,120.89,7.29Zm6.22-1.37a1.29,1.29,0,0,1-.07.48,13.37,13.37,0,0,1-6.35,7.37s0,0,0,.08q0,.4-.33.45a.31.31,0,0,1-.3-.16l-1-1.39c-.08-.11-.06-.19.06-.25a17,17,0,0,0,7.37-6.61.47.47,0,0,1,.32-.28C127,5.59,127.08,5.69,127.11,5.92Z"/><path class="cls-69" d="M74.85,32.76,73.09,33l.06-.48a2.69,2.69,0,0,1-1.63.8c-1.94.2-3.06-.87-3.38-3.24a3.4,3.4,0,0,1,.68-2.88,3.29,3.29,0,0,1,2-.95,2.89,2.89,0,0,1,1.37.14L71.88,24l-.91.12a.2.2,0,0,1-.25-.19.22.22,0,0,1,.19-.28L73.33,23c.13,0,.2,0,.22.14Zm-2.12-2.47-.19-1.37a3.55,3.55,0,0,0-.46-1.41,1.12,1.12,0,0,0-1.22-.62c-.81.14-1.12,1.12-.92,3a6.1,6.1,0,0,0,.43,1.73q.48,1.16,1.2,1.11a1.14,1.14,0,0,0,1.05-.9A3.34,3.34,0,0,0,72.73,30.29Z"/><path class="cls-69" d="M83.54,27.86a.18.18,0,0,1-.16.23l-4.85.65a2.94,2.94,0,0,0,.75,1.64,1.77,1.77,0,0,0,1.65.55,3.3,3.3,0,0,0,1.47-.53,2.48,2.48,0,0,0,.87-1.28c0-.09.08-.14.17-.13s.12.08.11.18a2.73,2.73,0,0,1-2.66,3,3.35,3.35,0,0,1-3.07-.83,3.85,3.85,0,0,1-1-2.15,3.55,3.55,0,0,1,.63-3A3.2,3.2,0,0,1,79.53,25Q83,24.46,83.54,27.86Zm-1.86-.16a2,2,0,0,0,0-.34A2.41,2.41,0,0,0,81.08,26a1.39,1.39,0,0,0-1.31-.5c-1.17.19-1.62,1.06-1.36,2.62Z"/><path class="cls-69" d="M29.27,46a.19.19,0,0,1,0,.09.87.87,0,0,1-.14.38l-.6,1.15a1,1,0,0,0-.1.79q.21.81-.48,1a1,1,0,0,1-.92-.25,1.87,1.87,0,0,1-.49-.86,18.17,18.17,0,0,1-.38-2c-.11-.81-.2-1.84-.28-3.09,0-.13.06-.21.21-.22l1.54-.07c.21,0,.32.07.33.25a.31.31,0,0,1-.18.32s0,0-.05.06a24.83,24.83,0,0,0,.33,3.3c0,.1.07.1.16,0l.63-.69C29.06,45.93,29.19,45.88,29.27,46Zm2.54-1.8a.32.32,0,0,1-.09.32.08.08,0,0,0,0,.07,20.89,20.89,0,0,1,.52,3.11c.09,2.5-1.25,4.34-4,5.51-.22.09-.36.09-.41,0s0-.22.12-.36a8.93,8.93,0,0,0,2.1-2.7,5.39,5.39,0,0,0,.35-2.37,19.38,19.38,0,0,0-.58-3.3.16.16,0,0,1,.15-.22L31.38,44C31.63,43.93,31.77,44,31.81,44.17Z"/><path class="cls-69" d="M45.65,46.82c.07.06.06.34,0,.85q-.51,2.73-2.46,3c-1.14.17-2-.4-2.57-1.71a4.76,4.76,0,0,0-.37-.74c-.14-.2-.29-.29-.45-.26a.94.94,0,0,0-.48.28l-.65.65L38.17,51a.61.61,0,0,1-.51.54.74.74,0,0,1-.29,0l-.47-.14a.64.64,0,0,1-.53-.51.82.82,0,0,1,0-.26l1.89-9.2a.17.17,0,0,1,.23-.14l1.6.32q.3.06.27.33a.3.3,0,0,1-.23.28.13.13,0,0,0-.08,0l-1,4.67a2,2,0,0,1,1-.4,1.08,1.08,0,0,1,.9.37,5.61,5.61,0,0,1,.54.88,3,3,0,0,0,.61.85,1.2,1.2,0,0,0,1,.22A3,3,0,0,0,45.28,47c.08-.16.16-.24.25-.25A.13.13,0,0,1,45.65,46.82Z"/><path class="cls-69" d="M55.69,41.13c0,.29-.14.47-.55.53l-.39.05-2,1.72c-.14.12-.26.15-.34.11s-.08-.17,0-.42l.41-1.45-3.72.5a.28.28,0,1,1-.07-.56l3.69-.5.84-1a.47.47,0,0,1,.31-.18.56.56,0,0,1,.36.07l1.32.81A.49.49,0,0,1,55.69,41.13Zm.61,6.24a1.5,1.5,0,0,1,.19.52c.1.74-.86,1.24-2.86,1.52-2.66.35-4.11-.42-4.37-2.33a3.62,3.62,0,0,1,0-.87q0-.26.18-.3c.11,0,.19,0,.25.16a2.5,2.5,0,0,0,2.73,1.59A4.86,4.86,0,0,0,54.73,47a1.28,1.28,0,0,1,.55-.24C55.67,46.65,56,46.88,56.3,47.37Zm1-7.36a.9.9,0,0,1,.08.25.43.43,0,0,1-.38.52.51.51,0,0,1-.41-.18,3.72,3.72,0,0,0-.87-.56c-.11,0-.15-.11-.15-.18s.22-.23.64-.29A1,1,0,0,1,57.3,40Zm1-1.06a.69.69,0,0,1,.09.25c0,.28-.09.45-.39.52a.49.49,0,0,1-.41-.17,2.91,2.91,0,0,0-.86-.57c-.11,0-.15-.09-.15-.17s.22-.24.63-.3A1,1,0,0,1,58.3,39Z"/><path class="cls-69" d="M70.06,45.87c.06.45-.2.79-.79,1a11.48,11.48,0,0,1-2.71.7,9.93,9.93,0,0,1-2.08.08c-1.31-.1-2.09-.92-2.31-2.46l-.93-6.37a.17.17,0,0,1,0-.14.21.21,0,0,1,.13-.07L63,38.48q.43,0,.48.33a.37.37,0,0,1-.17.37.12.12,0,0,0,0,.09L64,44.88a1,1,0,0,0,1.26,1,7.91,7.91,0,0,0,3.36-1.18.64.64,0,0,1,.18-.06,1,1,0,0,1,.81.4A1.48,1.48,0,0,1,70.06,45.87Zm-1-5.68a.27.27,0,0,1,.1.18.35.35,0,0,1-.12.34.34.34,0,0,1-.47,0,.1.1,0,0,0-.14,0,17.67,17.67,0,0,1-4.12,1.16c-.27,0-.42,0-.47-.15s0-.24.22-.35a25.57,25.57,0,0,0,3.39-2.56.23.23,0,0,1,.36,0Zm1.68-2.36a1,1,0,0,1-.22.8,1.06,1.06,0,0,1-1.52.21,1.07,1.07,0,0,1-.42-.72,1.06,1.06,0,0,1,.22-.8,1,1,0,0,1,.72-.42,1.05,1.05,0,0,1,.8.21A1.08,1.08,0,0,1,70.75,37.83Zm-.5.07a.55.55,0,0,0-.23-.38.56.56,0,0,0-.43-.12.59.59,0,0,0-.28,1.06.62.62,0,0,0,.44.11.55.55,0,0,0,.38-.24A.58.58,0,0,0,70.25,37.9Z"/><path class="cls-69" d="M84,38.91c0,.18-.06.28-.26.3l-2.91.4.09.8A5.43,5.43,0,0,1,80.22,44a8,8,0,0,1-3.44,2.66c-.22.11-.38.1-.47,0a.76.76,0,0,1,0-.11.31.31,0,0,1,.15-.26A7.85,7.85,0,0,0,78.92,43a5.45,5.45,0,0,0,.16-2.46L79,39.85l-2.06.28.27,2a.61.61,0,0,1-.52.74l-.74.18a.31.31,0,0,1-.29-.06.33.33,0,0,1-.15-.25l-.32-2.37-2.3.32a.27.27,0,0,1-.33-.25c0-.2.06-.31.25-.33l2.3-.31L74.72,37c0-.13,0-.2.19-.21l1.41-.12c.28,0,.43.09.45.33a.4.4,0,0,1-.16.37.08.08,0,0,0,0,.1l.28,2.09,2.06-.28-.4-2.94c0-.13,0-.2.19-.21L80.23,36a.33.33,0,0,1,.42.34.38.38,0,0,1-.2.39.07.07,0,0,0,0,.08l.3,2.24.66-.09.77-1a.39.39,0,0,1,.26-.14.37.37,0,0,1,.29.07l1,.79C83.87,38.75,84,38.84,84,38.91ZM82.71,36.5a.78.78,0,0,1,.09.24.43.43,0,0,1-.39.52.47.47,0,0,1-.41-.17,3.28,3.28,0,0,0-.87-.57c-.1-.05-.15-.11-.14-.18s.22-.23.63-.28A1,1,0,0,1,82.71,36.5ZM84,35.63a.75.75,0,0,1,.08.24.43.43,0,0,1-.38.52.5.5,0,0,1-.43-.17,2.61,2.61,0,0,0-.86-.56c-.11,0-.16-.11-.15-.19s.23-.23.65-.28A1,1,0,0,1,84,35.63Z"/><path class="cls-69" d="M96.5,38.94a3.17,3.17,0,0,1-1.62,3.24,9.88,9.88,0,0,1-3.67,1.31c-.15,0-.25,0-.28-.12a.21.21,0,0,1,.14-.26,11.59,11.59,0,0,0,2.47-1.51,2.76,2.76,0,0,0,1.15-2.47A2,2,0,0,0,94.21,38a1.36,1.36,0,0,0-1.12-.41,7.39,7.39,0,0,0-2.47.83l-3,1.44a.06.06,0,0,0,0,.08.24.24,0,0,1-.18.24c-.16.06-.29,0-.37-.2l-.58-1.35c0-.11,0-.2.13-.25.8-.31,2-.77,3.61-1.36a12.78,12.78,0,0,1,3.15-.76,2.8,2.8,0,0,1,2.18.6A3.15,3.15,0,0,1,96.5,38.94Zm-.59-3.64a.8.8,0,0,1,.07.24.43.43,0,0,1-.38.53.51.51,0,0,1-.41-.18,3.33,3.33,0,0,0-.87-.56c-.1,0-.15-.11-.14-.18s.22-.23.63-.29A1,1,0,0,1,95.91,35.3Zm1-1.06a.85.85,0,0,1,.08.24.42.42,0,0,1-.38.52c-.13,0-.27,0-.42-.17a3.46,3.46,0,0,0-.86-.56c-.11,0-.16-.09-.15-.17s.23-.24.64-.3A1,1,0,0,1,96.92,34.24Z"/><path class="cls-69" d="M104.84,33.56a.09.09,0,0,0-.09,0c-.52.73-1,1.36-1.43,1.88l-1.61,2a.22.22,0,0,0-.07.17c0,.06.07.12.17.18q1.44.78,2.16,1.23a12.69,12.69,0,0,1,1.87,1.46,1.39,1.39,0,0,1,.49.82,1.53,1.53,0,0,1-.17.86l-.14.3a.68.68,0,0,1-.54.33.73.73,0,0,1-.77-.29,15.23,15.23,0,0,0-4-4.14.73.73,0,0,1-.35-.53.72.72,0,0,1,.11-.51,38.34,38.34,0,0,0,2.83-5q.07-.18.27-.09l1.46.77a.3.3,0,0,1,.2.24c0,.23-.05.35-.24.38Z"/><path class="cls-69" d="M113.93,34.52a.36.36,0,0,1,0,.09.87.87,0,0,1-.14.38l-.6,1.15a1,1,0,0,0-.1.79q.21.81-.48,1a.92.92,0,0,1-.92-.25,1.87,1.87,0,0,1-.49-.86,18.17,18.17,0,0,1-.38-2c-.11-.81-.2-1.84-.28-3.09q0-.2.21-.21l1.54-.08c.21,0,.32.07.33.25a.3.3,0,0,1-.18.32s0,0,0,.06a24.83,24.83,0,0,0,.33,3.3c0,.1.07.11.16,0l.63-.69C113.72,34.48,113.85,34.44,113.93,34.52Zm2.54-1.8a.32.32,0,0,1-.09.32.08.08,0,0,0,0,.07,21.1,21.1,0,0,1,.52,3.11c.09,2.51-1.25,4.34-4,5.51-.22.1-.36.1-.41,0s0-.22.12-.37a8.93,8.93,0,0,0,2.1-2.7,5.37,5.37,0,0,0,.35-2.36,19.29,19.29,0,0,0-.58-3.31.16.16,0,0,1,.15-.22l1.48-.25C116.29,32.48,116.43,32.55,116.47,32.72Z"/><path class="cls-69" d="M124.2,35.93c.06,0,0,.18,0,.38l-.57,1.52a.73.73,0,0,0,0,.63,2.58,2.58,0,0,1,.16.33.75.75,0,0,1-.1.6.76.76,0,0,1-.5.35c-.68.14-1.19-.36-1.51-1.5a13.82,13.82,0,0,1-.35-1.9q-.28-2.1-.48-5.4a.16.16,0,0,1,.15-.18l1.31-.08c.23,0,.35.06.38.23a.27.27,0,0,1-.13.31s0,0,0,.06c.15,2.47.27,4,.35,4.63s.1.73.07.61c.06.32.14.47.24.46s.08,0,.12-.1l.54-.78c.09-.12.17-.19.25-.2A.17.17,0,0,1,124.2,35.93Zm5.71-4.28c0,.18-.15.3-.39.34l-.43.07-1.66,1.64a.51.51,0,0,1-.24.14c-.14,0-.22-.05-.24-.2a.62.62,0,0,1,0-.13l.36-1.43-2.47.34c-.18,0-.28-.05-.3-.23a.24.24,0,0,1,.22-.31l2.5-.34.66-.88a.38.38,0,0,1,.52-.07l1.16.65C129.82,31.36,129.92,31.5,129.91,31.65Zm.45,5.24a1.58,1.58,0,0,1,.12.37.82.82,0,0,1-.61.94,4.84,4.84,0,0,1-1.06.26c-1.86.26-2.93-.38-3.2-1.9-.06-.29,0-.46.1-.53s.15,0,.21.1a1.65,1.65,0,0,0,1.39.68,5.48,5.48,0,0,0,1.8-.34,2,2,0,0,1,.35-.09A.82.82,0,0,1,130.36,36.89Z"/><path class="cls-69" d="M36,61.05q0,.18-.18.21l-2.45.33a7.22,7.22,0,0,0,2.32.51.1.1,0,0,1,.11.08.17.17,0,0,1,0,.12l-.34.51s0,.17-.14.48-.13.31-.24.32a.47.47,0,0,1-.19,0,3.72,3.72,0,0,1-2.33-1.88l-1.63.22A5.06,5.06,0,0,1,28,64.18c-.18.06-.28,0-.31,0s0-.11.09-.18a7.06,7.06,0,0,0,1.56-1.85l-1.82.24c-.11,0-.18,0-.2-.18s0-.2.14-.22l2.09-.28a4.67,4.67,0,0,0,.26-1c0-.1.07-.14.17-.12l1.24.17c.11,0,.18.1.19.19s0,.18-.17.21a.06.06,0,0,0-.06.05,2.83,2.83,0,0,1-.08.29l1.25-.17a.08.08,0,0,1,0,0c0-.09,0-.16,0-.21s.11,0,.21,0l.2.19,1.42-.19.55-.73a.27.27,0,0,1,.17-.12.35.35,0,0,1,.2.07l.72.55C35.9,60.93,36,61,36,61.05Zm-1.71-1.71c.1.51,0,.86-.26,1a.73.73,0,0,1-.3.11.46.46,0,0,1-.48-.23,1.33,1.33,0,0,1,0-.67l-4.1,1a.06.06,0,0,0-.06,0,.19.19,0,0,1-.15.15c-.11,0-.18-.05-.22-.17l-.34-1.1c0-.09,0-.13.11-.14l1.12-.1-.07-1.39c0-.09,0-.13.14-.13H31c.18,0,.26.08.26.23a.22.22,0,0,1-.17.23s0,0-.05,0l-.35.87,2.36-.29a5.48,5.48,0,0,0-.26-.73.42.42,0,0,1,0-.1c0-.08,0-.12.08-.13a.4.4,0,0,1,.2.07A2.3,2.3,0,0,1,34.25,59.34Zm-1.68,3.79a.15.15,0,0,1-.19,0s0,0-.05,0a4.71,4.71,0,0,1-2.26.76.07.07,0,0,1-.08,0,.08.08,0,0,1,0-.09,9,9,0,0,0,1.55-1.47.12.12,0,0,1,.16,0l.8.57C32.64,63,32.65,63,32.57,63.13Zm.49,1.09a.17.17,0,0,1,.06.11c0,.14,0,.2-.18.16h-.06a4.09,4.09,0,0,1-2.13.83c-.05,0-.08,0-.08-.07s0-.06.06-.09c.29-.24.55-.47.76-.67a6.53,6.53,0,0,0,.68-.74.08.08,0,0,1,.06,0h.09Zm1.16,1.12a.31.31,0,0,1,.1.17.18.18,0,0,1-.09.18.23.23,0,0,1-.21,0,.06.06,0,0,0-.09,0,5.17,5.17,0,0,1-3,1.09.07.07,0,0,1-.09,0,.1.1,0,0,1,.06-.11,11.66,11.66,0,0,0,2.35-2,.09.09,0,0,1,.15,0Z"/><path class="cls-69" d="M42.39,59.35l-.19.18a28.8,28.8,0,0,1,.33,3.9,1.45,1.45,0,0,1-.21.78.88.88,0,0,1-.65.44c-.37,0-.64-.14-.8-.58-.08-.21-.19-.32-.34-.33l-.4,0c-.14,0-.22-.07-.22-.15a.16.16,0,0,1,.17-.19l.67-.09c.29,0,.43-.17.43-.39a27,27,0,0,0-.28-3.24l-.68.09A6.5,6.5,0,0,1,38,65.09a.28.28,0,0,1-.26.1.12.12,0,0,1-.09-.2,9.5,9.5,0,0,0,1.13-5.07l-1.19.16a.18.18,0,0,1-.23-.17c0-.15,0-.23.17-.25l1.21-.16c-.06-.45-.15-1.15-.29-2.1a.15.15,0,0,1,.13-.17l1.27-.11a.23.23,0,0,1,.28.25.25.25,0,0,1-.07.19.41.41,0,0,0-.07.15l.17,1.6.59-.08.49-.62a.24.24,0,0,1,.18-.09.25.25,0,0,1,.19,0l.71.49A.18.18,0,0,1,42.39,59.35Zm4.32-.29-.13.17L47,62.15c0,.38-.06.6-.34.66l-.6.13q-.24.06-.27-.15l-.06-.45-1,.13,0,.31a.32.32,0,0,1-.29.4l-.7.17a.2.2,0,0,1-.18,0,.24.24,0,0,1-.09-.16L42.94,59c0-.12.05-.17.19-.14l1.14.22.88-.12.45-.6a.29.29,0,0,1,.18-.12.31.31,0,0,1,.21.06l.68.43C46.79,58.84,46.8,58.94,46.71,59.06ZM45.63,61.9l-.34-2.49-1,.13L44.66,62Z"/><path class="cls-69" d="M55.09,60.91a3.11,3.11,0,0,1-2.58,2.62c-1.42.2-2.25-.55-2.5-2.25-.06-.34-.11-.78-.17-1.32l-.17-1.47-.28-2.19a.13.13,0,0,1,.13-.16l1.22-.09c.17,0,.26.05.27.19a.21.21,0,0,1-.13.23s0,0,0,0l.19,1.77c.13,1.18.24,2,.31,2.55a2.68,2.68,0,0,0,.32,1.11,1,1,0,0,0,1,.31,3.28,3.28,0,0,0,2.07-1.52.16.16,0,0,1,.23,0A.19.19,0,0,1,55.09,60.91Z"/><path class="cls-69" d="M63.66,55.68c0,.13,0,.2-.18.23l-1.33.23a5.28,5.28,0,0,0-1,.49,2.18,2.18,0,0,0-.71.77,3.52,3.52,0,0,0-.19,2c.09.72.64,1,1.66.9.5-.05.8.21.9.8a.74.74,0,0,1-.14.68,1,1,0,0,1-.68.27c-1.6.11-2.52-.5-2.75-1.86a4.64,4.64,0,0,1,.09-2,4.28,4.28,0,0,1,1-1.76l-3.78.63a.19.19,0,0,1-.24-.18.18.18,0,0,1,.17-.24l5.14-.86.66-.89a.31.31,0,0,1,.2-.13.24.24,0,0,1,.19.06l.91.65A.37.37,0,0,1,63.66,55.68Z"/><path class="cls-69" d="M70.05,54.14a.1.1,0,0,0-.07,0c-.41.57-.78,1.06-1.12,1.47L67.6,57.16c0,.05-.06.09,0,.13s0,.1.13.14c.75.41,1.32.73,1.69,1a9.83,9.83,0,0,1,1.46,1.14,1.07,1.07,0,0,1,.38.63,1.14,1.14,0,0,1-.13.68l-.11.24a.51.51,0,0,1-.42.25.58.58,0,0,1-.6-.22,11.8,11.8,0,0,0-3.17-3.24.58.58,0,0,1-.27-.42.54.54,0,0,1,.09-.39,29.39,29.39,0,0,0,2.2-3.94.13.13,0,0,1,.21-.07l1.15.59a.25.25,0,0,1,.15.19c0,.18,0,.28-.19.3Z"/><path class="cls-69" d="M83.09,57.69c0,.06,0,.14-.08.24a2.56,2.56,0,0,1-1.73,1,1.33,1.33,0,0,1-1.67-1.37l-.28-2.95c0-.23-.12-.33-.3-.3a.36.36,0,0,0-.17.07c-.1.09-.74.68-1.9,1.78l.45,3.29a.52.52,0,0,1-.41.66l-.53.14c-.25,0-.4-.1-.44-.39l-.32-2.4a10.73,10.73,0,0,0-.91,1.11.06.06,0,0,0,0,.07c0,.08,0,.13-.13.15s-.11,0-.16-.1L73.88,58a.34.34,0,0,1-.06-.12.18.18,0,0,1,.11-.18l1.6-1.62-.14-1-1.27.18a.26.26,0,0,1-.33-.24.26.26,0,0,1,.25-.32l1.27-.18-.26-1.95c0-.12,0-.18.12-.19l1.16-.1c.18,0,.28,0,.32.18a.22.22,0,0,1-.11.24.09.09,0,0,0,0,.06l.31,2.27c.63-.6,1-1,1.16-1.06a3.09,3.09,0,0,1,1.37-.71,1.29,1.29,0,0,1,.86.15,1,1,0,0,1,.44.73L81,57.31a.83.83,0,0,0,.3.64A.86.86,0,0,0,82,58a2.82,2.82,0,0,0,.88-.37C83,57.59,83.05,57.61,83.09,57.69Z"/><path class="cls-69" d="M90.06,52.37a.18.18,0,0,1-.17.22L86.76,53l-.09,5.29a.56.56,0,0,1-.58.63l-.5,0c-.17,0-.26-.09-.29-.29a1.16,1.16,0,0,1,0-.17l.15-5.3L84,53.38A.21.21,0,1,1,84,53l1.49-.2,0-1.84c0-.1.05-.15.14-.15h1.15A.21.21,0,0,1,87,51a.18.18,0,0,1-.16.21.05.05,0,0,0,0,.05l0,1.34,1.41-.19.57-.75a.31.31,0,0,1,.19-.12.35.35,0,0,1,.2.07l.76.57C90,52.23,90.06,52.3,90.06,52.37ZM91.86,54a.25.25,0,0,1-.25.3l-.29,0-1.19,1.12a.21.21,0,0,1-.12.05.11.11,0,0,1-.14-.11.25.25,0,0,1,0-.08l.13-.91-1.48.2c-.15,0-.24,0-.25-.17a.19.19,0,0,1,.18-.25L90,54l.56-.61a.37.37,0,0,1,.19-.12.41.41,0,0,1,.2.06l.71.49C91.79,53.9,91.85,54,91.86,54Zm.36,3.08a1.15,1.15,0,0,1,.06.21c0,.32-.13.55-.53.69a4,4,0,0,1-1.47.27,1.6,1.6,0,0,1-1.66-1.38q-.06-.24.06-.3s.13,0,.23.09a1.63,1.63,0,0,0,.4.28,1.29,1.29,0,0,0,.76.1,4.06,4.06,0,0,0,1.14-.37.83.83,0,0,1,.28-.09C91.83,56.55,92.07,56.72,92.22,57.1Z"/><path class="cls-69" d="M97.92,50.52a.18.18,0,0,1-.17.23L95.86,51,96,52c.47-.12,1-.28,1.66-.47a.2.2,0,0,1,.13,0,.1.1,0,0,1,.06.1c0,.16-.5.52-1.47,1.07a16.64,16.64,0,0,1-1.57.82.79.79,0,0,1-.2.24c-.11,0-.19,0-.23-.13l-.47-.92c0-.09.06-.18.31-.26l.51-.1-.37-2.74c0-.09,0-.14.13-.14l1.06-.09a.25.25,0,0,1,.31.25.26.26,0,0,1-.1.25.08.08,0,0,0,0,.07l.09.64.67-.09.4-.53a.27.27,0,0,1,.17-.12.3.3,0,0,1,.21.07l.52.4A.28.28,0,0,1,97.92,50.52Zm3.22,3.5a.21.21,0,0,1,0,.33l-.17.19.26,2.23c0,.29-.06.46-.29.51l-.86.19a.19.19,0,0,1-.25-.18l0-.3-1.77.24,0,.18a.21.21,0,0,1-.19.25l-1,.25c-.15,0-.24,0-.26-.17l-.51-3.28a.16.16,0,0,1,0-.14.18.18,0,0,1,.15,0l1.24.18,1.88-.25.49-.62a.3.3,0,0,1,.17-.11.38.38,0,0,1,.23.07Zm-2.86-1c0,.12,0,.19-.18.23l-.11,0a4.52,4.52,0,0,1-1.12.93.14.14,0,0,1-.09,0,.08.08,0,0,1,0-.08s.07-.49.2-1.38c0-.1.07-.13.16-.1l1,.16A.25.25,0,0,1,98.28,53Zm1.27,1.56-1.85.25.12.8,1.83-.25Zm.14,1.2-1.81.25.12.78,1.79-.24Zm3.08-4.25a.59.59,0,0,1-.21.6,1.58,1.58,0,0,1-.61.23,13.19,13.19,0,0,1-2.7.34.48.48,0,0,1-.54-.46l-.45-3.21a.1.1,0,0,1,.11-.13l1-.05c.2,0,.31.05.34.21a.26.26,0,0,1-.1.24.05.05,0,0,0,0,.07l.25,1.88c0,.12.08.17.18.17a6.69,6.69,0,0,0,1.42-.23.5.5,0,0,0,.33-.37l.26-.76c.06-.17.12-.25.19-.23s.1.12.1.29v.56a.85.85,0,0,0,.21.44A1,1,0,0,1,102.77,51.55Zm-.89-1.93q-.07.15-.33.12a.21.21,0,0,0-.11,0,6,6,0,0,1-1.5.47c-.06,0-.09,0-.11,0s0-.12.1-.24a13.17,13.17,0,0,0,.79-1.12.15.15,0,0,1,.23,0l.85.54A.23.23,0,0,1,101.88,49.62Z"/><path class="cls-69" d="M112.34,50.12c0,.13,0,.2-.18.22l-2.16.32c.17.32.39.73.63,1.22a2.24,2.24,0,0,1,.1.39,1,1,0,0,1-.58,1.13,1.35,1.35,0,0,1-.32.1c-.24,0-.45-.1-.62-.41-.08-.13-.28-.21-.61-.24a2.8,2.8,0,0,0-.71,0,1.21,1.21,0,0,0-.67.28.71.71,0,0,0-.25.66,1,1,0,0,0,.73.84,2.56,2.56,0,0,0,1.19.06c.51-.07.81.1.91.52s0,.83-.42.9a3.68,3.68,0,0,1-2.06-.2A1.85,1.85,0,0,1,106,54.42c-.18-1.21.42-1.91,1.81-2.11a6.79,6.79,0,0,1,1.06-.09.63.63,0,0,0,.23,0c.07,0,.09-.09.07-.18a7.54,7.54,0,0,0-.6-1.15l-3.54.53A.21.21,0,1,1,105,51l3.37-.48c-.39-.69-.77-1.39-1.14-2.12,0-.1,0-.16.08-.2l1.16-.4a.2.2,0,0,1,.29.14.19.19,0,0,1-.06.22.09.09,0,0,0,0,.1c0,.15.41.83,1.08,2l.68-.1.57-.76c.06-.08.12-.13.18-.13a.29.29,0,0,1,.22.07l.75.58C112.28,50,112.33,50.06,112.34,50.12Z"/><path class="cls-69" d="M122.14,51.21s0,.27,0,.66c-.27,1.42-.91,2.21-1.92,2.35a1.82,1.82,0,0,1-2-1.34,4.2,4.2,0,0,0-.29-.58c-.11-.15-.23-.22-.35-.2a.76.76,0,0,0-.38.22l-.51.51-.36,1.68a.49.49,0,0,1-.41.42.57.57,0,0,1-.22,0l-.37-.11a.5.5,0,0,1-.41-.4.69.69,0,0,1,0-.2l1.48-7.2a.13.13,0,0,1,.18-.11l1.25.25c.16,0,.23.12.21.26a.23.23,0,0,1-.18.22l-.06,0L117,51.3a1.47,1.47,0,0,1,.77-.32.82.82,0,0,1,.7.3,3.54,3.54,0,0,1,.43.68,2.36,2.36,0,0,0,.48.67.89.89,0,0,0,.77.16,2.29,2.29,0,0,0,1.7-1.43c.06-.12.13-.18.2-.19S122.1,51.18,122.14,51.21Z"/><path class="cls-69" d="M130.42,48.72a.56.56,0,0,1,0,.12c0,.13,0,.21-.1.24l-.12,0a.2.2,0,0,1-.16,0,0,0,0,0,0-.05,0,15,15,0,0,0-1.6.8,3.22,3.22,0,0,1,.43.74l0,.15a.64.64,0,0,1-.2.6l-.14.12a.47.47,0,0,1-.28.12.33.33,0,0,1-.41-.24,8.42,8.42,0,0,0-.35-.94c-.63.47-.92.92-.86,1.37s.48.72,1.21.56a3.41,3.41,0,0,0,1-.41.58.58,0,0,1,.25-.09.5.5,0,0,1,.45.21l.24.29a.64.64,0,0,1,.13.32.51.51,0,0,1-.24.57,4.75,4.75,0,0,1-1.65.47,2.51,2.51,0,0,1-1.6-.23,1.66,1.66,0,0,1-.8-1.35c-.08-.72.43-1.54,1.53-2.45q-.37-.69-.66-.75a.57.57,0,0,0-.52.23l-.06.49a.45.45,0,0,1-.39.44h-.17L125,50a.46.46,0,0,1-.44-.37,1.42,1.42,0,0,1,0-.19l.27-2-1.07.14a.19.19,0,0,1-.24-.18c0-.14,0-.22.18-.24l1.16-.16.1-1.76q0-.15.18-.15l1.2.05a.21.21,0,0,1,.23.26.24.24,0,0,1-.15.2.07.07,0,0,0,0,0l-.15,1.18,1-.13.57-.75a.27.27,0,0,1,.18-.12.3.3,0,0,1,.21.07l.76.58a.34.34,0,0,1,.16.2c0,.13,0,.2-.18.22l-2.71.36-.07,1,.24-.06c.51-.07,1,.23,1.57.9.37-.26,1-.64,1.78-1.15a.16.16,0,0,1,.24,0Z"/><path class="cls-69" d="M60.43,87.53a.15.15,0,0,0-.13.09,7.56,7.56,0,0,1-3.41,4c-.14.07-.22,0-.25-.14a.2.2,0,0,1,0-.11,17.94,17.94,0,0,0,1.84-4.93q0-.17.24-.12l1.75.43a.29.29,0,0,1,.26.25C60.79,87.33,60.68,87.49,60.43,87.53Zm.5,3.11a.37.37,0,0,1-.11.32.16.16,0,0,0-.07.16l.57,3.65a.81.81,0,0,1-.13.57.79.79,0,0,1-.48.34l-.77.19a.31.31,0,0,1-.43-.29l-.73-4.9a.13.13,0,0,1,0-.13.19.19,0,0,1,.12-.07l1.58-.17A.33.33,0,0,1,60.93,90.64Zm9.27-.77c0,.19-.07.29-.27.32l-3.15.43.41,3.44.43,0,.84-1.11a.42.42,0,0,1,.28-.16.43.43,0,0,1,.32.08l1.1.84c.15.12.24.22.25.32s-.07.29-.27.32l-7.29,1a.29.29,0,0,1-.36-.27.28.28,0,0,1,.27-.36l2.21-.3-.41-3.44-2.6.35A.28.28,0,0,1,61.6,91a.27.27,0,0,1,.27-.35l2.62-.36-.32-2.82c0-.13,0-.2.16-.21l2-.15a.33.33,0,0,1,.27.12.43.43,0,0,1,.13.27.41.41,0,0,1-.2.39.1.1,0,0,0,0,.09l.24,2,.7-.09.84-1.11a.37.37,0,0,1,.28-.15.39.39,0,0,1,.32.07l1.11.84C70.1,89.67,70.19,89.77,70.2,89.87Zm-2.45-4.69a.4.4,0,0,1-.53.16s-.06,0-.1,0a11.49,11.49,0,0,1-5.26,1.78c-.12,0-.18,0-.19-.12a.19.19,0,0,1,.07-.19,33.83,33.83,0,0,0,3.91-3.42.24.24,0,0,1,.36,0l1.64,1.26a.49.49,0,0,1,.18.28A.41.41,0,0,1,67.75,85.18Z"/><path class="cls-69" d="M83.61,84A5,5,0,0,0,83,85.78a.44.44,0,0,1-.44.43,1.34,1.34,0,0,1-.34,0,9.12,9.12,0,0,1-2.6-.8,5.8,5.8,0,0,1-2.14-1.64,8.66,8.66,0,0,1-2.86,2.36,11,11,0,0,1-2.71,1.11c-.15,0-.26,0-.31,0s-.09-.15,0-.24A14.06,14.06,0,0,0,76,81.42a.27.27,0,0,1,.33-.2l1.93.51a.4.4,0,0,1,.39.36c0,.23-.09.36-.38.39a7.54,7.54,0,0,0-.41.68,12,12,0,0,0,5.64.63.2.2,0,0,1,.14.09A.12.12,0,0,1,83.61,84Zm-6.35,5.31a.21.21,0,0,1,0,.32l-.13.17.27,2.46a.44.44,0,0,1-.37.54l-.84.17c-.15,0-.24,0-.26-.16l-.06-.43-1,.14,0,.26c0,.21-.1.36-.4.43l-.77.19c-.19,0-.29-.05-.32-.26l-.56-3.68a.12.12,0,0,1,0-.13.23.23,0,0,1,.16,0l1.35.34,1.12-.15.46-.58a.34.34,0,0,1,.23-.16.3.3,0,0,1,.25.08ZM81,86.92c0,.19-.06.29-.26.32L74,88.16a.24.24,0,0,1-.31-.24c0-.18.06-.28.25-.31L78.74,87l.66-.89a.34.34,0,0,1,.24-.16.32.32,0,0,1,.28.09l.92.68A.45.45,0,0,1,81,86.92Zm-5.4,3.15-1.13.15L74.77,92l1.07-.14Zm7.16-1.42-.21.26.21,1.66q.19,1.52-1,1.77c-.34.07-.55-.08-.63-.46,0-.2-.2-.34-.49-.41l-.26-.07c-.15,0-.22-.09-.23-.16s0-.19.17-.21L80.9,91a.37.37,0,0,0,.37-.46L81.07,89l-1.21.16L80.39,93c0,.4-.09.64-.41.71l-.83.18c-.2,0-.32,0-.35-.27l-.71-5.19c0-.2.06-.27.25-.22l1.45.38,1.07-.15.61-.71a.22.22,0,0,1,.21-.1.23.23,0,0,1,.22,0l.79.53C82.86,88.39,82.89,88.53,82.79,88.65Z"/><path class="cls-69" d="M92.41,87.67a3.12,3.12,0,0,1-2.59,2.62c-1.41.2-2.25-.56-2.5-2.26,0-.33-.1-.77-.16-1.31L87,85.24l-.28-2.19c0-.09,0-.14.13-.15l1.22-.09a.21.21,0,0,1,.27.19.23.23,0,0,1-.13.23s0,0,0,0l.2,1.78c.13,1.18.23,2,.31,2.55a2.57,2.57,0,0,0,.32,1.1,1,1,0,0,0,1,.32,3.28,3.28,0,0,0,2.07-1.52c.07-.09.14-.11.23,0A.19.19,0,0,1,92.41,87.67Z"/><path class="cls-69" d="M101,82.48c0,.13,0,.2-.18.22L98.75,83l.2,1.49.3,0,.57-.74c.06-.08.12-.13.18-.13a.28.28,0,0,1,.21.07l.76.57a.39.39,0,0,1,.16.21c0,.13,0,.2-.18.22L99,84.89l.18,1.34c1.46,0,2.24.41,2.33,1.08a1.22,1.22,0,0,1,0,.53c-.07.28-.21.44-.4.46a.29.29,0,0,1-.25-.08,5.88,5.88,0,0,0-1.55-.77,1.82,1.82,0,0,1-.36,1.27,1.75,1.75,0,0,1-1.15.64,1.78,1.78,0,0,1-1.27-.26A1.49,1.49,0,0,1,95.82,88a1.24,1.24,0,0,1,.58-1.26,3,3,0,0,1,1.38-.48l-.16-1.19-1.38.19a.2.2,0,0,1-.25-.19c0-.14.05-.21.19-.23l1.39-.19-.21-1.49-2.09.28c-.14,0-.23,0-.24-.17a.19.19,0,0,1,.18-.25l2.1-.28-.23-1.66a.12.12,0,0,1,.12-.15l1.14-.08q.24,0,.27.18a.25.25,0,0,1-.07.25,0,0,0,0,0,0,0l.16,1.24.45-.06.55-.74a.29.29,0,0,1,.19-.13.27.27,0,0,1,.21.07l.75.58C101,82.36,101,82.43,101,82.48Zm-3.09,4.75a2.05,2.05,0,0,0-.6,0c-.54.12-.77.36-.67.73a.48.48,0,0,0,.33.34.83.83,0,0,0,.49,0,.58.58,0,0,0,.45-.45A1.3,1.3,0,0,0,97.92,87.23Z"/><path class="cls-69" d="M111.52,81.46a.18.18,0,0,1-.18.23l-2.53.34.19,1.39c.13.25.22.45.28.6a3.53,3.53,0,0,1,.18.86,2.89,2.89,0,0,1-.51,2.05,4.37,4.37,0,0,1-1.76,1.22c-.15.06-.25.07-.3,0s0-.14.06-.24A3.52,3.52,0,0,0,108.19,86a.67.67,0,0,1-.53.21,1.32,1.32,0,0,1-1.09-.41,1.76,1.76,0,0,1-.47-1.1,1.59,1.59,0,0,1,.33-1.22,1.51,1.51,0,0,1,1.13-.54l-.1-.75-3.38.46c-.14,0-.22,0-.24-.19s0-.21.19-.23l3.38-.46-.28-2c0-.1,0-.15.14-.16l1.11-.11c.18,0,.28.05.29.2a.19.19,0,0,1-.11.21.1.1,0,0,0,0,.08l.22,1.63.9-.12.56-.75a.34.34,0,0,1,.18-.13.29.29,0,0,1,.22.08l.75.57C111.46,81.33,111.52,81.4,111.52,81.46Zm-3.58,2.89c-.09-.3-.27-.44-.54-.41a.7.7,0,0,0-.42.21.52.52,0,0,0-.14.43.91.91,0,0,0,.24.48.52.52,0,0,0,.5.16.5.5,0,0,0,.41-.63A1.29,1.29,0,0,0,107.94,84.35Z"/><path class="cls-69" d="M116.69,79l.21,5.11a.24.24,0,0,1-.23.28.23.23,0,0,1-.28-.21l-1-5a.64.64,0,0,1,.11-.52.63.63,0,0,1,.46-.28.6.6,0,0,1,.51.15A.59.59,0,0,1,116.69,79Zm1,6.75a.73.73,0,0,1-.15.57.78.78,0,0,1-.52.3.73.73,0,0,1-.57-.15.75.75,0,0,1-.3-.51.81.81,0,0,1,.14-.59.75.75,0,0,1,.52-.3.75.75,0,0,1,.58.15A.78.78,0,0,1,117.66,85.71Z"/><polygon class="cls-70" points="151.9 23.43 143.79 84.18 160.35 16.92 151.9 23.43"/><path class="cls-70" d="M3.73,36.74c.14.82,27.51,56.34,27.51,56.34L0,46.28Z"/></g></g></svg>