<svg xmlns="http://www.w3.org/2000/svg" viewBox="0 0 504.25 27.26"><defs><style>.cls-1{fill:none;stroke:#231815;stroke-width:4.25px;}.cls-2{fill:#fff;}</style></defs><g id="レイヤー_2" data-name="レイヤー 2"><g id="ロゴ"><path class="cls-1" d="M8.28,10.47a.31.31,0,0,1,.06.19,1.78,1.78,0,0,1-.38.71L6.45,13.5A2.07,2.07,0,0,0,6.05,15c.13,1.11-.28,1.72-1.22,1.83a1.84,1.84,0,0,1-1.75-.75,3.43,3.43,0,0,1-.74-1.83,34.66,34.66,0,0,1-.21-4.08c0-1.65.08-3.72.26-6.21,0-.27.18-.39.48-.37L6,3.89c.4,0,.6.23.58.58a.6.6,0,0,1-.45.59.18.18,0,0,0-.11.1,52.29,52.29,0,0,0-.24,6.64c0,.21.11.23.32,0l1.44-1.19C7.88,10.34,8.14,10.28,8.28,10.47ZM13.8,7.58a.6.6,0,0,1-.26.61.18.18,0,0,0-.06.13,40.15,40.15,0,0,1,.19,6.32q-.72,7.49-9.5,9.84c-.46.13-.74.09-.82-.1s0-.45.34-.69a17.49,17.49,0,0,0,4.88-4.81A10.61,10.61,0,0,0,9.9,14.29a37.78,37.78,0,0,0-.26-6.71c0-.25.1-.38.37-.4l3-.1C13.5,7.06,13.77,7.23,13.8,7.58Z"/><path class="cls-1" d="M44.65,16.55c.12.14,0,.7-.29,1.67q-1.76,5.28-5.68,5.31c-2.32,0-3.87-1.35-4.64-4.09a10.22,10.22,0,0,0-.53-1.56c-.23-.45-.51-.66-.83-.64a1.84,1.84,0,0,0-1,.42c-.2.14-.68.52-1.46,1.12l-1.51,4.14a1.21,1.21,0,0,1-1.17.93,1.36,1.36,0,0,1-.56-.14l-.9-.39a1.28,1.28,0,0,1-.9-1.17,1.57,1.57,0,0,1,.1-.51L31.46,3.89A.35.35,0,0,1,32,3.68L35,4.74a.59.59,0,0,1,.46.74A.58.58,0,0,1,35,6a.3.3,0,0,0-.16,0l-3.24,9a3.81,3.81,0,0,1,2.07-.53,2.11,2.11,0,0,1,1.67,1,9.58,9.58,0,0,1,.85,1.88,5.78,5.78,0,0,0,1,1.86,2.38,2.38,0,0,0,1.91.69c1.82,0,3.43-1,4.8-3.05.2-.28.38-.42.56-.42A.3.3,0,0,1,44.65,16.55Z"/><path class="cls-1" d="M67.38,20.5a2.87,2.87,0,0,1,.24,1.09q0,2.23-6.08,2.23-8,0-8-5.79a7.68,7.68,0,0,1,.19-1.72c.07-.34.22-.52.45-.56s.36.12.45.4a5,5,0,0,0,5,3.87,9.72,9.72,0,0,0,4.8-.76,2.6,2.6,0,0,1,1.17-.35Q66.72,18.91,67.38,20.5ZM67.86,8c0,.6-.42.9-1.25.9h-.77l-4.51,2.87c-.32.19-.56.24-.72.13s-.1-.37.11-.85l1.19-2.76H54.4c-.39,0-.58-.18-.58-.55a.52.52,0,0,1,.58-.59h7.46L63.8,5.32a1,1,0,0,1,.66-.26,1,1,0,0,1,.69.24l2.42,2A1,1,0,0,1,67.86,8Zm3.47-1.78a1.42,1.42,0,0,1,.11.51.86.86,0,0,1-.9.93,1,1,0,0,1-.77-.46A6.81,6.81,0,0,0,68.2,5.8c-.19-.12-.27-.26-.24-.4S68.46,5,69.29,5A1.93,1.93,0,0,1,71.33,6.17Zm2.29-1.83a1.4,1.4,0,0,1,.1.51.85.85,0,0,1-.9.92.92.92,0,0,1-.77-.45A6.29,6.29,0,0,0,70.48,4c-.19-.09-.27-.21-.23-.37s.49-.43,1.32-.43A2,2,0,0,1,73.62,4.34Z"/><path class="cls-1" d="M95.52,21.22q0,1.35-1.83,1.8a22.72,22.72,0,0,1-5.57.67,20.34,20.34,0,0,1-4.14-.4q-3.87-.83-3.93-5.49L79.92,4.9A.33.33,0,0,1,80,4.63a.34.34,0,0,1,.26-.1l3.26.13c.59,0,.87.28.85.8a.76.76,0,0,1-.42.69.16.16,0,0,0-.11.16l-.08,11.33A2.08,2.08,0,0,0,86,20a15.92,15.92,0,0,0,7-1.43,1,1,0,0,1,.37-.08,2,2,0,0,1,1.52,1A3.05,3.05,0,0,1,95.52,21.22ZM95.1,9.68a.63.63,0,0,1,.13.39.72.72,0,0,1-.32.64.67.67,0,0,1-1,0,.24.24,0,0,0-.27-.08,34.71,34.71,0,0,1-8.49,1.2c-.53,0-.82-.14-.88-.43s.13-.46.53-.63a50.08,50.08,0,0,0,7.41-4.17.47.47,0,0,1,.72.11Zm4-4.22A2.09,2.09,0,0,1,98.4,7a2.05,2.05,0,0,1-1.52.65A2.17,2.17,0,0,1,94.7,5.46a2.06,2.06,0,0,1,.64-1.54,2.06,2.06,0,0,1,1.54-.64,2.17,2.17,0,0,1,2.17,2.18Zm-1,0a1.16,1.16,0,0,0-1.16-1.17,1.18,1.18,0,0,0-.85.33,1.12,1.12,0,0,0-.35.84,1.17,1.17,0,0,0,.35.85,1.15,1.15,0,0,0,.85.34,1.09,1.09,0,0,0,.81-.37A1.19,1.19,0,0,0,98,5.46Z"/><path class="cls-1" d="M126.16,11.14c0,.35-.2.53-.58.53h-5.9l0,1.61a11,11,0,0,1-2.28,7q-2.3,2.68-7.54,4.35c-.48.16-.79.11-.93-.16a.79.79,0,0,1,0-.24c0-.16.12-.31.37-.47a15.66,15.66,0,0,0,5.84-5.89,10.92,10.92,0,0,0,1-4.83V11.67h-4.17v4A1.2,1.2,0,0,1,110.66,17l-1.51.16a.75.75,0,0,1-.8-.75V11.67h-4.64a.52.52,0,0,1-.58-.59.51.51,0,0,1,.58-.58h4.64V4.85c0-.27.14-.39.43-.38l2.84.16c.55,0,.81.3.79.77a.77.77,0,0,1-.42.69.2.2,0,0,0-.11.19V10.5h4.17V4.55c0-.26.14-.38.42-.37l3.08.14a.67.67,0,0,1,.74.79.76.76,0,0,1-.5.72.17.17,0,0,0-.11.16V10.5H121l1.81-1.83a.74.74,0,0,1,.55-.21.76.76,0,0,1,.56.21l1.83,1.85C126,10.79,126.16,11,126.16,11.14ZM124.33,6a1.4,1.4,0,0,1,.1.51.86.86,0,0,1-.9.93,1,1,0,0,1-.77-.45,6.55,6.55,0,0,0-1.56-1.36c-.2-.12-.28-.25-.24-.4s.49-.39,1.33-.39A1.94,1.94,0,0,1,124.33,6Zm2.78-1.38a1.24,1.24,0,0,1,.11.51.86.86,0,0,1-.9.93,1,1,0,0,1-.8-.45A5.77,5.77,0,0,0,124,4.26c-.2-.12-.28-.25-.24-.4s.5-.39,1.35-.39A2,2,0,0,1,127.11,4.63Z"/><path class="cls-1" d="M149.13,13.07a1.19,1.19,0,0,1,.05.32c0,.34-.12.53-.34.58a1.16,1.16,0,0,1-.32.06.46.46,0,0,1-.37-.16.12.12,0,0,0-.14,0,39.79,39.79,0,0,0-4.32,1.46,8.82,8.82,0,0,1,.82,2,2.09,2.09,0,0,1,0,.38,1.64,1.64,0,0,1-.72,1.46l-.4.26a1.31,1.31,0,0,1-.74.21.85.85,0,0,1-1-.74,21.82,21.82,0,0,0-.55-2.52c-1.77,1-2.66,2-2.66,3.18,0,1.38,1,2,2.87,1.83a8.44,8.44,0,0,0,2.73-.69,1.86,1.86,0,0,1,.67-.13,1.25,1.25,0,0,1,1.06.69l.5.82a1.63,1.63,0,0,1,.24.85,1.32,1.32,0,0,1-.82,1.36,11.68,11.68,0,0,1-4.33.63,6.46,6.46,0,0,1-4-1.14,4.21,4.21,0,0,1-1.59-3.69c0-1.85,1.64-3.75,4.75-5.7-.48-1.26-1-2-1.43-2.12a1.48,1.48,0,0,0-1.41.39l-.32,1.22a1.14,1.14,0,0,1-1.14,1,1.59,1.59,0,0,1-.42-.08l-1-.29c-.65-.2-1-.56-1-1.09a2,2,0,0,1,.08-.48l1.35-5H132.6a.47.47,0,0,1-.54-.53.49.49,0,0,1,.54-.56h3l.85-4.43c.06-.27.22-.37.51-.32l3.05.53a.53.53,0,0,1,.48.74.61.61,0,0,1-.45.45.22.22,0,0,0-.14.08l-.79,2.95h2.49l1.7-1.7a.65.65,0,0,1,1,0L146,6.92c.23.23.35.41.35.55a.46.46,0,0,1-.53.51h-7l-.53,2.54a5.58,5.58,0,0,1,.64,0q2,0,3.66,2.81,1.56-.79,4.91-2.3a.41.41,0,0,1,.61.21Z"/><path class="cls-1" d="M175.1,13.92c0,2.71-1.37,4.71-4.09,6a19.94,19.94,0,0,1-7.62,1.59c-.32,0-.49-.09-.53-.32s.08-.36.35-.45a23.82,23.82,0,0,0,5.3-2.33q3-1.95,3-4.59a3.86,3.86,0,0,0-.66-2.34,2.69,2.69,0,0,0-2.1-1.11,15,15,0,0,0-5.12,1l-6.42,2a.15.15,0,0,0-.11.16.5.5,0,0,1-.42.43c-.34.07-.56-.1-.67-.51l-.79-2.81c-.07-.25,0-.41.32-.48q5.83-1.38,7-1.62a29.53,29.53,0,0,1,7-.76,5.64,5.64,0,0,1,4.18,1.76A6.4,6.4,0,0,1,175.1,13.92Z"/><path class="cls-1" d="M195.13,6.12q-.13,0-.18,0-1.86,2-3.35,3.34l-3.71,3.45a.43.43,0,0,0-.19.32c0,.12.1.25.29.4q2.65,1.93,4,3a26.16,26.16,0,0,1,3.31,3.4,2.76,2.76,0,0,1,.75,1.75,3,3,0,0,1-.56,1.67l-.37.56a1.29,1.29,0,0,1-1.14.5,1.48,1.48,0,0,1-1.46-.77,30.64,30.64,0,0,0-6.93-9.31,1.46,1.46,0,0,1-.55-1.14,1.43,1.43,0,0,1,.37-1,76.89,76.89,0,0,0,6.95-9.24.34.34,0,0,1,.56-.1l2.7,1.91a.6.6,0,0,1,.32.53c0,.46-.19.69-.58.69Z"/><path class="cls-1" d="M223.48,17.48a5.17,5.17,0,0,1-3.29,4.88A15.74,15.74,0,0,1,214,23.69c-.32,0-.5-.11-.55-.37s.08-.39.37-.48A18.47,18.47,0,0,0,218,21.06a4.31,4.31,0,0,0,2.28-3.66c0-1.79-.76-2.68-2.28-2.68q-1.51,0-8.95,2.41l-.08.08c0,.21-.16.36-.42.43s-.66-.29-.9-1.12c-.09-.37-.22-.92-.4-1.64-.07-.27,0-.44.34-.51l5-1.16a24.39,24.39,0,0,1,5.17-.77c.25,0,.56,0,.93,0a4.86,4.86,0,0,1,3.47,1.46A5,5,0,0,1,223.48,17.48Z"/><path class="cls-1" d="M247.16,7.84c0,.32-.15.49-.53.51l-3.45.13a13.64,13.64,0,0,0-2.84.88,5.56,5.56,0,0,0-2.07,1.72q-1.11,1.51-1.16,5.1c0,1.85,1.26,2.81,3.9,2.86,1.27,0,1.94.82,2,2.34a2,2,0,0,1-.57,1.68,2.51,2.51,0,0,1-1.82.44c-4.1-.25-6.22-2.13-6.34-5.65a11.88,11.88,0,0,1,.91-5.12,10.78,10.78,0,0,1,3-4.14l-9.79.29c-.35,0-.54-.16-.56-.53a.47.47,0,0,1,.51-.56l13.34-.4,2-2a.78.78,0,0,1,.54-.27.67.67,0,0,1,.47.22l2.07,2A.93.93,0,0,1,247.16,7.84Z"/><path class="cls-1" d="M260.29,20.26a1.71,1.71,0,0,1-1.25-.74c-.11-.14-.72-.71-1.83-1.7a9.92,9.92,0,0,1-5.07,4,.37.37,0,0,1-.48-.08c-.09-.12.12-.5.61-1.11a15.77,15.77,0,0,0,2.07-3.14,10.93,10.93,0,0,0,1-4.37q0,.49,0-6.69a.28.28,0,0,1,.35-.32l2.73.19q.72,0,.69.66a.94.94,0,0,1-.3.56c-.19.17-.28.3-.28.37,0,2.76,0,4.57-.08,5.44a12.63,12.63,0,0,1-.61,3.45,4.81,4.81,0,0,1,2.25.45c.94.49,1.41,1.08,1.41,1.75a1.36,1.36,0,0,1-.33.88A1,1,0,0,1,260.29,20.26Zm-5.85-8a2.4,2.4,0,0,1,.12.71,1.6,1.6,0,0,1-.4,1.08,1.14,1.14,0,0,1-1,.38c-.49-.06-.81-.55-1-1.49-.06-.37-.14-1-.27-2-.05-.33.09-.5.43-.5s.79.31,1.43.93A2.46,2.46,0,0,1,254.44,12.26Zm8.61-1.42c-.07.27-.29.4-.64.4-.18,0-.27,0-.29,0a16.35,16.35,0,0,1-1.54.9,9.25,9.25,0,0,1-1.62.64.33.33,0,0,1-.33,0c-.08-.07-.09-.17,0-.29.54-1,1.08-2,1.61-3.19.09-.21.24-.26.46-.16l2.07,1A.61.61,0,0,1,263.05,10.84Zm4.88,9.87a.53.53,0,0,1-.56.32.25.25,0,0,0-.18.08,9.6,9.6,0,0,1-6.4,3.56q-.45,0-.45-.24a.25.25,0,0,1,.11-.21,16.22,16.22,0,0,0,4.06-5c.1-.22.22-.32.34-.32a.57.57,0,0,1,.24.05l2.52,1A.52.52,0,0,1,267.93,20.71Zm9.45-7.9a.45.45,0,0,1-.51.5h-3.55L273.26,16h.35l1.19-1.19a.69.69,0,0,1,.48-.24.68.68,0,0,1,.5.24L277,16a.82.82,0,0,1,.29.51c0,.35-.17.53-.5.53H262.41a.47.47,0,0,1-.53-.53.46.46,0,0,1,.53-.51h2.28l0-2.68h-2.31a.45.45,0,0,1-.51-.5c0-.36.17-.53.51-.53h2.28l-.05-2.55a.33.33,0,0,1,.1-.24.25.25,0,0,1,.24-.08l2.44.08a.62.62,0,0,1,.67.72.62.62,0,0,1-.35.58.19.19,0,0,0-.08.16l0,1.33h2.68l.05-2.71c0-.23.13-.34.37-.32l2.42.19a.61.61,0,0,1,.66.71.69.69,0,0,1-.37.59.17.17,0,0,0-.11.16l0,1.38h.39l1.2-1.2a.69.69,0,0,1,.48-.24.71.71,0,0,1,.5.24l1.22,1.2A.74.74,0,0,1,277.38,12.81Zm-1-7.06c0,.33-.18.5-.53.5h-5.1V7.63c0,.73-.32,1.11-.95,1.14l-1.7.11c-.46,0-.69-.17-.69-.61v-2h-4.33c-.35,0-.53-.17-.53-.5a.47.47,0,0,1,.53-.53h4.33l0-2.71c0-.23.11-.34.34-.32l2.76.14a.59.59,0,0,1,.66.69.64.64,0,0,1-.34.61.18.18,0,0,0-.11.18V5.22h1.75l1.25-1.33a.63.63,0,0,1,.48-.24.7.7,0,0,1,.5.24l1.36,1.33A.81.81,0,0,1,276.37,5.75Zm-6.08,7.51h-2.63l.06,2.65h2.52Zm6.77,9.34c0,1-.65,1.58-2,1.72a27.32,27.32,0,0,1-5.15.06c-.8-.06-1.19-.53-1.19-1.41l0-4.35a.32.32,0,0,1,.11-.28.42.42,0,0,1,.29-.09l2.47.13a.56.56,0,0,1,.61.58.59.59,0,0,1-.35.48.19.19,0,0,0-.08.16v1.27q0,.45.48.48a7.51,7.51,0,0,0,1.41,0,1.23,1.23,0,0,0,.92-.93l.69-2a.36.36,0,0,1,.48-.32c.27.05.36.26.29.61l-.16,1.51a1,1,0,0,0,.43,1A1.42,1.42,0,0,1,277.06,22.6Z"/><path class="cls-1" d="M293.5,6.12a.19.19,0,0,0-.19,0q-1.86,2-3.34,3.34l-3.72,3.45a.44.44,0,0,0-.18.32c0,.12.1.25.29.4q2.65,1.93,3.95,3a26.21,26.21,0,0,1,3.32,3.4,2.76,2.76,0,0,1,.75,1.75,3,3,0,0,1-.56,1.67l-.37.56a1.29,1.29,0,0,1-1.14.5,1.48,1.48,0,0,1-1.46-.77,30.8,30.8,0,0,0-6.93-9.31,1.46,1.46,0,0,1-.19-2.12,75.91,75.91,0,0,0,7-9.24.34.34,0,0,1,.55-.1L294,4.93a.62.62,0,0,1,.32.53c0,.46-.2.69-.58.69Z"/><path class="cls-1" d="M312.83,7.31a1.5,1.5,0,0,1-1.67,1.62A1.28,1.28,0,0,1,310,8.3a11.66,11.66,0,0,0-2.49-3c-.21-.17-.3-.33-.26-.47s.5-.35,1.4-.35a5.51,5.51,0,0,1,2.71.64A2.39,2.39,0,0,1,312.83,7.31Zm.88,6.56a1.6,1.6,0,0,1-.47,1.21,1.67,1.67,0,0,1-1.23.41,1.32,1.32,0,0,1-1.12-.67,11.91,11.91,0,0,0-2.49-3c-.21-.18-.3-.33-.27-.48s.52-.34,1.44-.34a5.57,5.57,0,0,1,2.68.66A2.43,2.43,0,0,1,313.71,13.87Zm13.35-4.78a2.34,2.34,0,0,1-.3,1Q322.34,19,312.25,23.05c-.06,0-.07.07-.06.16a.68.68,0,0,1-.45.72c-.39.14-.66.06-.82-.24l-1.7-3.08c-.14-.25-.08-.42.19-.51Q320.5,16.15,325.81,9q.35-.48.69-.48C326.87,8.48,327.06,8.69,327.06,9.09Z"/><path class="cls-1" d="M351.69,22.76a.5.5,0,0,1-.58.56h-15a.52.52,0,0,1-.58-.59.51.51,0,0,1,.58-.58h5.55V13.44H337a.51.51,0,0,1-.58-.58.51.51,0,0,1,.58-.58h9.58L348,10.84a.77.77,0,0,1,1.06,0l1.46,1.46a.94.94,0,0,1,.34.59c0,.37-.19.55-.58.55h-5.33v8.71h2.49l1.43-1.44a.78.78,0,0,1,.54-.23.74.74,0,0,1,.5.23l1.49,1.49A.86.86,0,0,1,351.69,22.76Z"/><path class="cls-1" d="M378.59,7a.8.8,0,0,1,.32.58.68.68,0,0,1-.4.58l-1,.59a15.78,15.78,0,0,1-4.67,9.47q-3.24,3-9.56,4.83a4.85,4.85,0,0,1-1.27.24c-.35,0-.53-.14-.53-.43s.27-.52.8-.82q5.86-3.34,8.2-6.95A22,22,0,0,0,373,7.87H361.37a.52.52,0,0,1-.59-.58.52.52,0,0,1,.59-.59h11.41l2-1.77a1.28,1.28,0,0,1,.72-.4,1.11,1.11,0,0,1,.69.34Z"/><path class="cls-1" d="M393.28,16c.1.12.06.37-.14.74l-1.53,2.87a1.43,1.43,0,0,0-.19,1.24,5.9,5.9,0,0,1,.21.69,1.48,1.48,0,0,1-.34,1.17,1.56,1.56,0,0,1-1.09.56q-2.1.15-2.6-3.37a28.6,28.6,0,0,1-.19-3.88q0-4.24.51-10.82c0-.23.13-.34.34-.32l2.63.18c.44,0,.67.23.69.56a.57.57,0,0,1-.35.59c-.07,0-.1.07-.1.1-.36,4.94-.53,8-.53,9.29,0,1.06,0,1.47,0,1.22,0,.66.15,1,.35,1a.36.36,0,0,0,.26-.16l1.27-1.4c.22-.23.4-.35.56-.35A.37.37,0,0,1,393.28,16Zm12.47-6.95c-.09.35-.37.53-.85.55l-.88,0-3.74,2.81a.9.9,0,0,1-.5.21.39.39,0,0,1-.43-.45.62.62,0,0,1,.06-.26l1.09-2.74h-5a.46.46,0,0,1-.53-.53c0-.37.17-.55.53-.55h5l1.54-1.57a.77.77,0,0,1,1.06,0l2.12,1.59C405.66,8.46,405.82,8.76,405.75,9.07Zm-.5,10.5a3,3,0,0,1,.13.77,1.64,1.64,0,0,1-1.46,1.7,9.39,9.39,0,0,1-2.18.24c-3.75,0-5.69-1.55-5.84-4.64,0-.59.08-.92.35-1s.29,0,.4.24a3.22,3.22,0,0,0,2.57,1.72,11.08,11.08,0,0,0,3.66-.18,2.84,2.84,0,0,1,.72-.08A1.61,1.61,0,0,1,405.25,19.57Z"/><path class="cls-1" d="M421.33,8c0,.28-.17.45-.51.5h-5.2l-.77,6.85c-.12,1-.81,1.52-2.07,1.43l-.71,0a.78.78,0,0,1-.8-1l.85-7.25h-2.2a.51.51,0,0,1-.51-.55.45.45,0,0,1,.51-.51h2.31l.5-4.3c0-.15.12-.23.27-.21l3.07.35c.36,0,.52.22.48.55s-.17.45-.4.48c0,0,0,0,0,0l-.34,3.13h1l1.62-1.59a.6.6,0,0,1,1,0L421,7.47A1,1,0,0,1,421.33,8Zm7.83,12.29q-.37,1.35-1.14,1.35a1.17,1.17,0,0,1-.67-.24c-1.18-.79-2-1.3-2.39-1.51q-.7,3.95-4.16,3.93A3.93,3.93,0,0,1,418,22.77,3.64,3.64,0,0,1,416.84,20q0-3.7,4.89-3.5V11.35c0-.13.06-.19.18-.19l3,.11a.52.52,0,0,1,.56.53.54.54,0,0,1-.29.56.09.09,0,0,0-.06.1v4.41a13.6,13.6,0,0,1,2.71.85,1.93,1.93,0,0,1,1.41,1.93A2.73,2.73,0,0,1,429.16,20.32ZM421.81,19a4.87,4.87,0,0,0-1.44-.24c-1.11,0-1.67.36-1.67,1.07a1.26,1.26,0,0,0,.59,1.1,2.08,2.08,0,0,0,1.3.33C421.42,21.25,421.82,20.49,421.81,19Zm8.57-9.68a1.68,1.68,0,0,1-.49.9,1.33,1.33,0,0,1-.92.4,1.39,1.39,0,0,1-1-.51,13.36,13.36,0,0,0-3.4-2.52.48.48,0,0,1-.32-.42q0-.34.48-.45a6.15,6.15,0,0,1,1.43-.16,6.51,6.51,0,0,1,2.81.58A2.06,2.06,0,0,1,430.38,9.36Z"/><path class="cls-1" d="M454.8,17.05q.13,3.89-3.76,5.68a16.84,16.84,0,0,1-7.22,1.3c-.43,0-.61-.16-.56-.48a.39.39,0,0,1,.35-.34q7.59-2.14,7.43-6.13a3.19,3.19,0,0,0-1-2.3,3.36,3.36,0,0,0-2.36-.83,6.28,6.28,0,0,0-3.05,1L443.13,17a1.22,1.22,0,0,1-1,.56,1,1,0,0,1-.77-.4l-.59-.66a1.42,1.42,0,0,1-.37-.91,1.62,1.62,0,0,1,.35-.95l6.47-8.84h-5.49a.49.49,0,0,1-.56-.56c0-.35.19-.53.56-.53h5.84l1.93-1.56a.88.88,0,0,1,.53-.21.82.82,0,0,1,.56.26l1.57,1.49a.82.82,0,0,1,.32.71.73.73,0,0,1-.59.59l-.61.16-4.06,5.38-.69.67a4.67,4.67,0,0,1,.8-.37,8,8,0,0,1,1.19-.08,6.85,6.85,0,0,1,4.35,1.3A4.91,4.91,0,0,1,454.8,17.05Z"/><path class="cls-1" d="M479.84,14.66q.48,7.93-9.58,10.41c-.48.12-.78.09-.9-.11a.41.41,0,0,1-.05-.21c0-.21.15-.41.45-.59a16.06,16.06,0,0,0,4.7-3.71,8.06,8.06,0,0,0,1.72-5.6Q476,12,473.87,12.06a13.53,13.53,0,0,0-5.23,2,.16.16,0,0,0-.08.13.57.57,0,0,1-.34.45.55.55,0,0,1-.8-.4l-.9-2.84a.27.27,0,0,1,.19-.39,25,25,0,0,1,7.53-1.68,5.56,5.56,0,0,1,4,1.42A5.52,5.52,0,0,1,479.84,14.66ZM475.91,6a2.17,2.17,0,0,1-.34,1.49,1.46,1.46,0,0,1-1.27.61,2.46,2.46,0,0,1-.43,0c-.44-.07-.79-.44-1.06-1.11a13.71,13.71,0,0,0-2.2-3.51A.45.45,0,0,1,470.5,3c.11-.19.35-.28.72-.26a6.53,6.53,0,0,1,3,.85A3.06,3.06,0,0,1,475.91,6Z"/><path class="cls-1" d="M502.12,21.86a2,2,0,0,1-.58,1.4,2,2,0,0,1-3.4-1.4,2,2,0,0,1,.57-1.44,2,2,0,0,1,2.84,0A2,2,0,0,1,502.12,21.86ZM502,4.39l-1.22,13.06a.61.61,0,0,1-.69.61.57.57,0,0,1-.64-.61l-.85-13.06a1.73,1.73,0,0,1,1.73-1.85,1.6,1.6,0,0,1,1.24.55A1.62,1.62,0,0,1,502,4.39Z"/><path class="cls-2" d="M8.28,10.47a.31.31,0,0,1,.06.19,1.78,1.78,0,0,1-.38.71L6.45,13.5A2.07,2.07,0,0,0,6.05,15c.13,1.11-.28,1.72-1.22,1.83a1.84,1.84,0,0,1-1.75-.75,3.43,3.43,0,0,1-.74-1.83,34.66,34.66,0,0,1-.21-4.08c0-1.65.08-3.72.26-6.21,0-.27.18-.39.48-.37L6,3.89c.4,0,.6.23.58.58a.6.6,0,0,1-.45.59.18.18,0,0,0-.11.1,52.29,52.29,0,0,0-.24,6.64c0,.21.11.23.32,0l1.44-1.19C7.88,10.34,8.14,10.28,8.28,10.47ZM13.8,7.58a.6.6,0,0,1-.26.61.18.18,0,0,0-.06.13,40.15,40.15,0,0,1,.19,6.32q-.72,7.49-9.5,9.84c-.46.13-.74.09-.82-.1s0-.45.34-.69a17.49,17.49,0,0,0,4.88-4.81A10.61,10.61,0,0,0,9.9,14.29a37.78,37.78,0,0,0-.26-6.71c0-.25.1-.38.37-.4l3-.1C13.5,7.06,13.77,7.23,13.8,7.58Z"/><path class="cls-2" d="M44.65,16.55c.12.14,0,.7-.29,1.67q-1.76,5.28-5.68,5.31c-2.32,0-3.87-1.35-4.64-4.09a10.22,10.22,0,0,0-.53-1.56c-.23-.45-.51-.66-.83-.64a1.84,1.84,0,0,0-1,.42c-.2.14-.68.52-1.46,1.12l-1.51,4.14a1.21,1.21,0,0,1-1.17.93,1.36,1.36,0,0,1-.56-.14l-.9-.39a1.28,1.28,0,0,1-.9-1.17,1.57,1.57,0,0,1,.1-.51L31.46,3.89A.35.35,0,0,1,32,3.68L35,4.74a.59.59,0,0,1,.46.74A.58.58,0,0,1,35,6a.3.3,0,0,0-.16,0l-3.24,9a3.81,3.81,0,0,1,2.07-.53,2.11,2.11,0,0,1,1.67,1,9.58,9.58,0,0,1,.85,1.88,5.78,5.78,0,0,0,1,1.86,2.38,2.38,0,0,0,1.91.69c1.82,0,3.43-1,4.8-3.05.2-.28.38-.42.56-.42A.3.3,0,0,1,44.65,16.55Z"/><path class="cls-2" d="M67.38,20.5a2.87,2.87,0,0,1,.24,1.09q0,2.23-6.08,2.23-8,0-8-5.79a7.68,7.68,0,0,1,.19-1.72c.07-.34.22-.52.45-.56s.36.12.45.4a5,5,0,0,0,5,3.87,9.72,9.72,0,0,0,4.8-.76,2.6,2.6,0,0,1,1.17-.35Q66.72,18.91,67.38,20.5ZM67.86,8c0,.6-.42.9-1.25.9h-.77l-4.51,2.87c-.32.19-.56.24-.72.13s-.1-.37.11-.85l1.19-2.76H54.4c-.39,0-.58-.18-.58-.55a.52.52,0,0,1,.58-.59h7.46L63.8,5.32a1,1,0,0,1,.66-.26,1,1,0,0,1,.69.24l2.42,2A1,1,0,0,1,67.86,8Zm3.47-1.78a1.42,1.42,0,0,1,.11.51.86.86,0,0,1-.9.93,1,1,0,0,1-.77-.46A6.81,6.81,0,0,0,68.2,5.8c-.19-.12-.27-.26-.24-.4S68.46,5,69.29,5A1.93,1.93,0,0,1,71.33,6.17Zm2.29-1.83a1.4,1.4,0,0,1,.1.51.85.85,0,0,1-.9.92.92.92,0,0,1-.77-.45A6.29,6.29,0,0,0,70.48,4c-.19-.09-.27-.21-.23-.37s.49-.43,1.32-.43A2,2,0,0,1,73.62,4.34Z"/><path class="cls-2" d="M95.52,21.22q0,1.35-1.83,1.8a22.72,22.72,0,0,1-5.57.67,20.34,20.34,0,0,1-4.14-.4q-3.87-.83-3.93-5.49L79.92,4.9A.33.33,0,0,1,80,4.63a.34.34,0,0,1,.26-.1l3.26.13c.59,0,.87.28.85.8a.76.76,0,0,1-.42.69.16.16,0,0,0-.11.16l-.08,11.33A2.08,2.08,0,0,0,86,20a15.92,15.92,0,0,0,7-1.43,1,1,0,0,1,.37-.08,2,2,0,0,1,1.52,1A3.05,3.05,0,0,1,95.52,21.22ZM95.1,9.68a.63.63,0,0,1,.13.39.72.72,0,0,1-.32.64.67.67,0,0,1-1,0,.24.24,0,0,0-.27-.08,34.71,34.71,0,0,1-8.49,1.2c-.53,0-.82-.14-.88-.43s.13-.46.53-.63a50.08,50.08,0,0,0,7.41-4.17.47.47,0,0,1,.72.11Zm4-4.22A2.09,2.09,0,0,1,98.4,7a2.05,2.05,0,0,1-1.52.65A2.17,2.17,0,0,1,94.7,5.46a2.06,2.06,0,0,1,.64-1.54,2.06,2.06,0,0,1,1.54-.64,2.17,2.17,0,0,1,2.17,2.18Zm-1,0a1.16,1.16,0,0,0-1.16-1.17,1.18,1.18,0,0,0-.85.33,1.12,1.12,0,0,0-.35.84,1.17,1.17,0,0,0,.35.85,1.15,1.15,0,0,0,.85.34,1.09,1.09,0,0,0,.81-.37A1.19,1.19,0,0,0,98,5.46Z"/><path class="cls-2" d="M126.16,11.14c0,.35-.2.53-.58.53h-5.9l0,1.61a11,11,0,0,1-2.28,7q-2.3,2.68-7.54,4.35c-.48.16-.79.11-.93-.16a.79.79,0,0,1,0-.24c0-.16.12-.31.37-.47a15.66,15.66,0,0,0,5.84-5.89,10.92,10.92,0,0,0,1-4.83V11.67h-4.17v4A1.2,1.2,0,0,1,110.66,17l-1.51.16a.75.75,0,0,1-.8-.75V11.67h-4.64a.52.52,0,0,1-.58-.59.51.51,0,0,1,.58-.58h4.64V4.85c0-.27.14-.39.43-.38l2.84.16c.55,0,.81.3.79.77a.77.77,0,0,1-.42.69.2.2,0,0,0-.11.19V10.5h4.17V4.55c0-.26.14-.38.42-.37l3.08.14a.67.67,0,0,1,.74.79.76.76,0,0,1-.5.72.17.17,0,0,0-.11.16V10.5H121l1.81-1.83a.74.74,0,0,1,.55-.21.76.76,0,0,1,.56.21l1.83,1.85C126,10.79,126.16,11,126.16,11.14ZM124.33,6a1.4,1.4,0,0,1,.1.51.86.86,0,0,1-.9.93,1,1,0,0,1-.77-.45,6.55,6.55,0,0,0-1.56-1.36c-.2-.12-.28-.25-.24-.4s.49-.39,1.33-.39A1.94,1.94,0,0,1,124.33,6Zm2.78-1.38a1.24,1.24,0,0,1,.11.51.86.86,0,0,1-.9.93,1,1,0,0,1-.8-.45A5.77,5.77,0,0,0,124,4.26c-.2-.12-.28-.25-.24-.4s.5-.39,1.35-.39A2,2,0,0,1,127.11,4.63Z"/><path class="cls-2" d="M149.13,13.07a1.19,1.19,0,0,1,.05.32c0,.34-.12.53-.34.58a1.16,1.16,0,0,1-.32.06.46.46,0,0,1-.37-.16.12.12,0,0,0-.14,0,39.79,39.79,0,0,0-4.32,1.46,8.82,8.82,0,0,1,.82,2,2.09,2.09,0,0,1,0,.38,1.64,1.64,0,0,1-.72,1.46l-.4.26a1.31,1.31,0,0,1-.74.21.85.85,0,0,1-1-.74,21.82,21.82,0,0,0-.55-2.52c-1.77,1-2.66,2-2.66,3.18,0,1.38,1,2,2.87,1.83a8.44,8.44,0,0,0,2.73-.69,1.86,1.86,0,0,1,.67-.13,1.25,1.25,0,0,1,1.06.69l.5.82a1.63,1.63,0,0,1,.24.85,1.32,1.32,0,0,1-.82,1.36,11.68,11.68,0,0,1-4.33.63,6.46,6.46,0,0,1-4-1.14,4.21,4.21,0,0,1-1.59-3.69c0-1.85,1.64-3.75,4.75-5.7-.48-1.26-1-2-1.43-2.12a1.48,1.48,0,0,0-1.41.39l-.32,1.22a1.14,1.14,0,0,1-1.14,1,1.59,1.59,0,0,1-.42-.08l-1-.29c-.65-.2-1-.56-1-1.09a2,2,0,0,1,.08-.48l1.35-5H132.6a.47.47,0,0,1-.54-.53.49.49,0,0,1,.54-.56h3l.85-4.43c.06-.27.22-.37.51-.32l3.05.53a.53.53,0,0,1,.48.74.61.61,0,0,1-.45.45.22.22,0,0,0-.14.08l-.79,2.95h2.49l1.7-1.7a.65.65,0,0,1,1,0L146,6.92c.23.23.35.41.35.55a.46.46,0,0,1-.53.51h-7l-.53,2.54a5.58,5.58,0,0,1,.64,0q2,0,3.66,2.81,1.56-.79,4.91-2.3a.41.41,0,0,1,.61.21Z"/><path class="cls-2" d="M175.1,13.92c0,2.71-1.37,4.71-4.09,6a19.94,19.94,0,0,1-7.62,1.59c-.32,0-.49-.09-.53-.32s.08-.36.35-.45a23.82,23.82,0,0,0,5.3-2.33q3-1.95,3-4.59a3.86,3.86,0,0,0-.66-2.34,2.69,2.69,0,0,0-2.1-1.11,15,15,0,0,0-5.12,1l-6.42,2a.15.15,0,0,0-.11.16.5.5,0,0,1-.42.43c-.34.07-.56-.1-.67-.51l-.79-2.81c-.07-.25,0-.41.32-.48q5.83-1.38,7-1.62a29.53,29.53,0,0,1,7-.76,5.64,5.64,0,0,1,4.18,1.76A6.4,6.4,0,0,1,175.1,13.92Z"/><path class="cls-2" d="M195.13,6.12q-.13,0-.18,0-1.86,2-3.35,3.34l-3.71,3.45a.43.43,0,0,0-.19.32c0,.12.1.25.29.4q2.65,1.93,4,3a26.16,26.16,0,0,1,3.31,3.4,2.76,2.76,0,0,1,.75,1.75,3,3,0,0,1-.56,1.67l-.37.56a1.29,1.29,0,0,1-1.14.5,1.48,1.48,0,0,1-1.46-.77,30.64,30.64,0,0,0-6.93-9.31,1.46,1.46,0,0,1-.55-1.14,1.43,1.43,0,0,1,.37-1,76.89,76.89,0,0,0,6.95-9.24.34.34,0,0,1,.56-.1l2.7,1.91a.6.6,0,0,1,.32.53c0,.46-.19.69-.58.69Z"/><path class="cls-2" d="M223.48,17.48a5.17,5.17,0,0,1-3.29,4.88A15.74,15.74,0,0,1,214,23.69c-.32,0-.5-.11-.55-.37s.08-.39.37-.48A18.47,18.47,0,0,0,218,21.06a4.31,4.31,0,0,0,2.28-3.66c0-1.79-.76-2.68-2.28-2.68q-1.51,0-8.95,2.41l-.08.08c0,.21-.16.36-.42.43s-.66-.29-.9-1.12c-.09-.37-.22-.92-.4-1.64-.07-.27,0-.44.34-.51l5-1.16a24.39,24.39,0,0,1,5.17-.77c.25,0,.56,0,.93,0a4.86,4.86,0,0,1,3.47,1.46A5,5,0,0,1,223.48,17.48Z"/><path class="cls-2" d="M247.16,7.84c0,.32-.15.49-.53.51l-3.45.13a13.64,13.64,0,0,0-2.84.88,5.56,5.56,0,0,0-2.07,1.72q-1.11,1.51-1.16,5.1c0,1.85,1.26,2.81,3.9,2.86,1.27,0,1.94.82,2,2.34a2,2,0,0,1-.57,1.68,2.51,2.51,0,0,1-1.82.44c-4.1-.25-6.22-2.13-6.34-5.65a11.88,11.88,0,0,1,.91-5.12,10.78,10.78,0,0,1,3-4.14l-9.79.29c-.35,0-.54-.16-.56-.53a.47.47,0,0,1,.51-.56l13.34-.4,2-2a.78.78,0,0,1,.54-.27.67.67,0,0,1,.47.22l2.07,2A.93.93,0,0,1,247.16,7.84Z"/><path class="cls-2" d="M260.29,20.26a1.71,1.71,0,0,1-1.25-.74c-.11-.14-.72-.71-1.83-1.7a9.92,9.92,0,0,1-5.07,4,.37.37,0,0,1-.48-.08c-.09-.12.12-.5.61-1.11a15.77,15.77,0,0,0,2.07-3.14,10.93,10.93,0,0,0,1-4.37q0,.49,0-6.69a.28.28,0,0,1,.35-.32l2.73.19q.72,0,.69.66a.94.94,0,0,1-.3.56c-.19.17-.28.3-.28.37,0,2.76,0,4.57-.08,5.44a12.63,12.63,0,0,1-.61,3.45,4.81,4.81,0,0,1,2.25.45c.94.49,1.41,1.08,1.41,1.75a1.36,1.36,0,0,1-.33.88A1,1,0,0,1,260.29,20.26Zm-5.85-8a2.4,2.4,0,0,1,.12.71,1.6,1.6,0,0,1-.4,1.08,1.14,1.14,0,0,1-1,.38c-.49-.06-.81-.55-1-1.49-.06-.37-.14-1-.27-2-.05-.33.09-.5.43-.5s.79.31,1.43.93A2.46,2.46,0,0,1,254.44,12.26Zm8.61-1.42c-.07.27-.29.4-.64.4-.18,0-.27,0-.29,0a16.35,16.35,0,0,1-1.54.9,9.25,9.25,0,0,1-1.62.64.33.33,0,0,1-.33,0c-.08-.07-.09-.17,0-.29.54-1,1.08-2,1.61-3.19.09-.21.24-.26.46-.16l2.07,1A.61.61,0,0,1,263.05,10.84Zm4.88,9.87a.53.53,0,0,1-.56.32.25.25,0,0,0-.18.08,9.6,9.6,0,0,1-6.4,3.56q-.45,0-.45-.24a.25.25,0,0,1,.11-.21,16.22,16.22,0,0,0,4.06-5c.1-.22.22-.32.34-.32a.57.57,0,0,1,.24.05l2.52,1A.52.52,0,0,1,267.93,20.71Zm9.45-7.9a.45.45,0,0,1-.51.5h-3.55L273.26,16h.35l1.19-1.19a.69.69,0,0,1,.48-.24.68.68,0,0,1,.5.24L277,16a.82.82,0,0,1,.29.51c0,.35-.17.53-.5.53H262.41a.47.47,0,0,1-.53-.53.46.46,0,0,1,.53-.51h2.28l0-2.68h-2.31a.45.45,0,0,1-.51-.5c0-.36.17-.53.51-.53h2.28l-.05-2.55a.33.33,0,0,1,.1-.24.25.25,0,0,1,.24-.08l2.44.08a.62.62,0,0,1,.67.72.62.62,0,0,1-.35.58.19.19,0,0,0-.08.16l0,1.33h2.68l.05-2.71c0-.23.13-.34.37-.32l2.42.19a.61.61,0,0,1,.66.71.69.69,0,0,1-.37.59.17.17,0,0,0-.11.16l0,1.38h.39l1.2-1.2a.69.69,0,0,1,.48-.24.71.71,0,0,1,.5.24l1.22,1.2A.74.74,0,0,1,277.38,12.81Zm-1-7.06c0,.33-.18.5-.53.5h-5.1V7.63c0,.73-.32,1.11-.95,1.14l-1.7.11c-.46,0-.69-.17-.69-.61v-2h-4.33c-.35,0-.53-.17-.53-.5a.47.47,0,0,1,.53-.53h4.33l0-2.71c0-.23.11-.34.34-.32l2.76.14a.59.59,0,0,1,.66.69.64.64,0,0,1-.34.61.18.18,0,0,0-.11.18V5.22h1.75l1.25-1.33a.63.63,0,0,1,.48-.24.7.7,0,0,1,.5.24l1.36,1.33A.81.81,0,0,1,276.37,5.75Zm-6.08,7.51h-2.63l.06,2.65h2.52Zm6.77,9.34c0,1-.65,1.58-2,1.72a27.32,27.32,0,0,1-5.15.06c-.8-.06-1.19-.53-1.19-1.41l0-4.35a.32.32,0,0,1,.11-.28.42.42,0,0,1,.29-.09l2.47.13a.56.56,0,0,1,.61.58.59.59,0,0,1-.35.48.19.19,0,0,0-.08.16v1.27q0,.45.48.48a7.51,7.51,0,0,0,1.41,0,1.23,1.23,0,0,0,.92-.93l.69-2a.36.36,0,0,1,.48-.32c.27.05.36.26.29.61l-.16,1.51a1,1,0,0,0,.43,1A1.42,1.42,0,0,1,277.06,22.6Z"/><path class="cls-2" d="M293.5,6.12a.19.19,0,0,0-.19,0q-1.86,2-3.34,3.34l-3.72,3.45a.44.44,0,0,0-.18.32c0,.12.1.25.29.4q2.65,1.93,3.95,3a26.21,26.21,0,0,1,3.32,3.4,2.76,2.76,0,0,1,.75,1.75,3,3,0,0,1-.56,1.67l-.37.56a1.29,1.29,0,0,1-1.14.5,1.48,1.48,0,0,1-1.46-.77,30.8,30.8,0,0,0-6.93-9.31,1.46,1.46,0,0,1-.19-2.12,75.91,75.91,0,0,0,7-9.24.34.34,0,0,1,.55-.1L294,4.93a.62.62,0,0,1,.32.53c0,.46-.2.69-.58.69Z"/><path class="cls-2" d="M312.83,7.31a1.5,1.5,0,0,1-1.67,1.62A1.28,1.28,0,0,1,310,8.3a11.66,11.66,0,0,0-2.49-3c-.21-.17-.3-.33-.26-.47s.5-.35,1.4-.35a5.51,5.51,0,0,1,2.71.64A2.39,2.39,0,0,1,312.83,7.31Zm.88,6.56a1.6,1.6,0,0,1-.47,1.21,1.67,1.67,0,0,1-1.23.41,1.32,1.32,0,0,1-1.12-.67,11.91,11.91,0,0,0-2.49-3c-.21-.18-.3-.33-.27-.48s.52-.34,1.44-.34a5.57,5.57,0,0,1,2.68.66A2.43,2.43,0,0,1,313.71,13.87Zm13.35-4.78a2.34,2.34,0,0,1-.3,1Q322.34,19,312.25,23.05c-.06,0-.07.07-.06.16a.68.68,0,0,1-.45.72c-.39.14-.66.06-.82-.24l-1.7-3.08c-.14-.25-.08-.42.19-.51Q320.5,16.15,325.81,9q.35-.48.69-.48C326.87,8.48,327.06,8.69,327.06,9.09Z"/><path class="cls-2" d="M351.69,22.76a.5.5,0,0,1-.58.56h-15a.52.52,0,0,1-.58-.59.51.51,0,0,1,.58-.58h5.55V13.44H337a.51.51,0,0,1-.58-.58.51.51,0,0,1,.58-.58h9.58L348,10.84a.77.77,0,0,1,1.06,0l1.46,1.46a.94.94,0,0,1,.34.59c0,.37-.19.55-.58.55h-5.33v8.71h2.49l1.43-1.44a.78.78,0,0,1,.54-.23.74.74,0,0,1,.5.23l1.49,1.49A.86.86,0,0,1,351.69,22.76Z"/><path class="cls-2" d="M378.59,7a.8.8,0,0,1,.32.58.68.68,0,0,1-.4.58l-1,.59a15.78,15.78,0,0,1-4.67,9.47q-3.24,3-9.56,4.83a4.85,4.85,0,0,1-1.27.24c-.35,0-.53-.14-.53-.43s.27-.52.8-.82q5.86-3.34,8.2-6.95A22,22,0,0,0,373,7.87H361.37a.52.52,0,0,1-.59-.58.52.52,0,0,1,.59-.59h11.41l2-1.77a1.28,1.28,0,0,1,.72-.4,1.11,1.11,0,0,1,.69.34Z"/><path class="cls-2" d="M393.28,16c.1.12.06.37-.14.74l-1.53,2.87a1.43,1.43,0,0,0-.19,1.24,5.9,5.9,0,0,1,.21.69,1.48,1.48,0,0,1-.34,1.17,1.56,1.56,0,0,1-1.09.56q-2.1.15-2.6-3.37a28.6,28.6,0,0,1-.19-3.88q0-4.24.51-10.82c0-.23.13-.34.34-.32l2.63.18c.44,0,.67.23.69.56a.57.57,0,0,1-.35.59c-.07,0-.1.07-.1.1-.36,4.94-.53,8-.53,9.29,0,1.06,0,1.47,0,1.22,0,.66.15,1,.35,1a.36.36,0,0,0,.26-.16l1.27-1.4c.22-.23.4-.35.56-.35A.37.37,0,0,1,393.28,16Zm12.47-6.95c-.09.35-.37.53-.85.55l-.88,0-3.74,2.81a.9.9,0,0,1-.5.21.39.39,0,0,1-.43-.45.62.62,0,0,1,.06-.26l1.09-2.74h-5a.46.46,0,0,1-.53-.53c0-.37.17-.55.53-.55h5l1.54-1.57a.77.77,0,0,1,1.06,0l2.12,1.59C405.66,8.46,405.82,8.76,405.75,9.07Zm-.5,10.5a3,3,0,0,1,.13.77,1.64,1.64,0,0,1-1.46,1.7,9.39,9.39,0,0,1-2.18.24c-3.75,0-5.69-1.55-5.84-4.64,0-.59.08-.92.35-1s.29,0,.4.24a3.22,3.22,0,0,0,2.57,1.72,11.08,11.08,0,0,0,3.66-.18,2.84,2.84,0,0,1,.72-.08A1.61,1.61,0,0,1,405.25,19.57Z"/><path class="cls-2" d="M421.33,8c0,.28-.17.45-.51.5h-5.2l-.77,6.85c-.12,1-.81,1.52-2.07,1.43l-.71,0a.78.78,0,0,1-.8-1l.85-7.25h-2.2a.51.51,0,0,1-.51-.55.45.45,0,0,1,.51-.51h2.31l.5-4.3c0-.15.12-.23.27-.21l3.07.35c.36,0,.52.22.48.55s-.17.45-.4.48c0,0,0,0,0,0l-.34,3.13h1l1.62-1.59a.6.6,0,0,1,1,0L421,7.47A1,1,0,0,1,421.33,8Zm7.83,12.29q-.37,1.35-1.14,1.35a1.17,1.17,0,0,1-.67-.24c-1.18-.79-2-1.3-2.39-1.51q-.7,3.95-4.16,3.93A3.93,3.93,0,0,1,418,22.77,3.64,3.64,0,0,1,416.84,20q0-3.7,4.89-3.5V11.35c0-.13.06-.19.18-.19l3,.11a.52.52,0,0,1,.56.53.54.54,0,0,1-.29.56.09.09,0,0,0-.06.1v4.41a13.6,13.6,0,0,1,2.71.85,1.93,1.93,0,0,1,1.41,1.93A2.73,2.73,0,0,1,429.16,20.32ZM421.81,19a4.87,4.87,0,0,0-1.44-.24c-1.11,0-1.67.36-1.67,1.07a1.26,1.26,0,0,0,.59,1.1,2.08,2.08,0,0,0,1.3.33C421.42,21.25,421.82,20.49,421.81,19Zm8.57-9.68a1.68,1.68,0,0,1-.49.9,1.33,1.33,0,0,1-.92.4,1.39,1.39,0,0,1-1-.51,13.36,13.36,0,0,0-3.4-2.52.48.48,0,0,1-.32-.42q0-.34.48-.45a6.15,6.15,0,0,1,1.43-.16,6.51,6.51,0,0,1,2.81.58A2.06,2.06,0,0,1,430.38,9.36Z"/><path class="cls-2" d="M454.8,17.05q.13,3.89-3.76,5.68a16.84,16.84,0,0,1-7.22,1.3c-.43,0-.61-.16-.56-.48a.39.39,0,0,1,.35-.34q7.59-2.14,7.43-6.13a3.19,3.19,0,0,0-1-2.3,3.36,3.36,0,0,0-2.36-.83,6.28,6.28,0,0,0-3.05,1L443.13,17a1.22,1.22,0,0,1-1,.56,1,1,0,0,1-.77-.4l-.59-.66a1.42,1.42,0,0,1-.37-.91,1.62,1.62,0,0,1,.35-.95l6.47-8.84h-5.49a.49.49,0,0,1-.56-.56c0-.35.19-.53.56-.53h5.84l1.93-1.56a.88.88,0,0,1,.53-.21.82.82,0,0,1,.56.26l1.57,1.49a.82.82,0,0,1,.32.71.73.73,0,0,1-.59.59l-.61.16-4.06,5.38-.69.67a4.67,4.67,0,0,1,.8-.37,8,8,0,0,1,1.19-.08,6.85,6.85,0,0,1,4.35,1.3A4.91,4.91,0,0,1,454.8,17.05Z"/><path class="cls-2" d="M479.84,14.66q.48,7.93-9.58,10.41c-.48.12-.78.09-.9-.11a.41.41,0,0,1-.05-.21c0-.21.15-.41.45-.59a16.06,16.06,0,0,0,4.7-3.71,8.06,8.06,0,0,0,1.72-5.6Q476,12,473.87,12.06a13.53,13.53,0,0,0-5.23,2,.16.16,0,0,0-.08.13.57.57,0,0,1-.34.45.55.55,0,0,1-.8-.4l-.9-2.84a.27.27,0,0,1,.19-.39,25,25,0,0,1,7.53-1.68,5.56,5.56,0,0,1,4,1.42A5.52,5.52,0,0,1,479.84,14.66ZM475.91,6a2.17,2.17,0,0,1-.34,1.49,1.46,1.46,0,0,1-1.27.61,2.46,2.46,0,0,1-.43,0c-.44-.07-.79-.44-1.06-1.11a13.71,13.71,0,0,0-2.2-3.51A.45.45,0,0,1,470.5,3c.11-.19.35-.28.72-.26a6.53,6.53,0,0,1,3,.85A3.06,3.06,0,0,1,475.91,6Z"/><path class="cls-2" d="M502.12,21.86a2,2,0,0,1-.58,1.4,2,2,0,0,1-3.4-1.4,2,2,0,0,1,.57-1.44,2,2,0,0,1,2.84,0A2,2,0,0,1,502.12,21.86ZM502,4.39l-1.22,13.06a.61.61,0,0,1-.69.61.57.57,0,0,1-.64-.61l-.85-13.06a1.73,1.73,0,0,1,1.73-1.85,1.6,1.6,0,0,1,1.24.55A1.62,1.62,0,0,1,502,4.39Z"/></g></g></svg>