<svg xmlns="http://www.w3.org/2000/svg" viewBox="0 0 213.31 213.31"><defs><style>.cls-1{fill:#ecf4d9;}.cls-2,.cls-3,.cls-47,.cls-58,.cls-9{fill:none;}.cls-2,.cls-3,.cls-9{stroke:#d3d3d4;}.cls-2,.cls-3,.cls-58{stroke-miterlimit:10;}.cls-2{stroke-width:22.19px;}.cls-3{stroke-width:13.66px;}.cls-4{fill:#005024;}.cls-12,.cls-5,.cls-51,.cls-57,.cls-7{fill:#fff;}.cls-5{stroke:#231815;stroke-width:0.25px;}.cls-6{fill:#0861a7;}.cls-7{font-size:10px;font-family:KozGoPr6N-Bold-83pv-RKSJ-H, Kozuka Gothic Pr6N;}.cls-8{font-size:12.32px;}.cls-12,.cls-8{font-family:Helvetica-Bold, Helvetica;font-weight:700;}.cls-9{stroke-width:6.83px;}.cls-10{fill:#c9bc9c;}.cls-11{fill:#036eb8;}.cls-12{font-size:8.67px;letter-spacing:-0.02em;}.cls-13{writing-mode:tb;text-orientation:upright;glyph-orientation-vertical:0deg;}.cls-13,.cls-14,.cls-51{font-size:8.43px;}.cls-13,.cls-14{fill:#231815;font-family:TsukuGoPro-M-83pv-RKSJ-H, FOT-TsukuGo Pro;}.cls-15{letter-spacing:-0.16em;}.cls-16{letter-spacing:-0.09em;}.cls-17{letter-spacing:0.01em;}.cls-18{letter-spacing:-0.04em;}.cls-19{letter-spacing:-0.05em;}.cls-20{letter-spacing:-0.01em;}.cls-21{letter-spacing:0.02em;}.cls-22{letter-spacing:-0.03em;}.cls-23{letter-spacing:0.03em;}.cls-24{letter-spacing:0.01em;}.cls-25{letter-spacing:0.01em;}.cls-26{letter-spacing:-0.01em;}.cls-27{letter-spacing:0.02em;}.cls-28{letter-spacing:-0.17em;}.cls-29{letter-spacing:-0.01em;}.cls-30{letter-spacing:-0.01em;}.cls-31{letter-spacing:-0.01em;}.cls-32{letter-spacing:0em;}.cls-33{letter-spacing:-0.12em;}.cls-34{letter-spacing:-0.02em;}.cls-35{letter-spacing:0em;}.cls-36{letter-spacing:-0.03em;}.cls-37{letter-spacing:-0.14em;}.cls-38{letter-spacing:-0.19em;}.cls-39{letter-spacing:0.01em;}.cls-40{letter-spacing:-0.03em;}.cls-41{letter-spacing:-0.02em;}.cls-42{letter-spacing:0.01em;}.cls-43{letter-spacing:-0.01em;}.cls-44,.cls-49{fill:#579055;}.cls-44,.cls-45,.cls-46,.cls-47{stroke:#aea388;stroke-linejoin:round;}.cls-44,.cls-46,.cls-47{stroke-width:0.99px;}.cls-45,.cls-46{fill:#e7bc71;}.cls-45{stroke-width:0.64px;}.cls-48{fill:#aea388;}.cls-50{fill:#e83828;}.cls-51{font-family:TsukuGoPro-B-83pv-RKSJ-H, FOT-TsukuGo Pro;letter-spacing:-0.07em;}.cls-52{letter-spacing:-0.05em;}.cls-53{letter-spacing:0em;}.cls-54{letter-spacing:-0.02em;}.cls-55{letter-spacing:0.01em;}.cls-56{fill:#ea5514;}.cls-58{stroke:#e83828;stroke-width:1.71px;}</style></defs><g id="レイヤー_2" data-name="レイヤー 2"><g id="バック"><rect class="cls-1" width="213.31" height="213.31" rx="8.5"/></g><g id="道路"><line class="cls-2" y1="70.05" x2="213.31" y2="70.05"/><line class="cls-3" x1="103.67" x2="103.67" y2="70.05"/><line class="cls-2" x1="103.67" y1="213.31" x2="103.67" y2="61.17"/></g><g id="Layer_1" data-name="Layer 1"><path class="cls-4" d="M92.72,38.48c-3.31-3.93-6.78-3-8.58-2.34a9.82,9.82,0,0,1-1,.3c0,.15,0,.31.05.47a1.17,1.17,0,0,1-.26.94,1.3,1.3,0,0,1-.74.41,1.28,1.28,0,0,1-.73-.41,1.13,1.13,0,0,1-.26-.94c0-.16,0-.32,0-.47a9.82,9.82,0,0,1-1-.3c-1.81-.64-5.27-1.59-8.59,2.34s1.76,21.72,9.27,16.67a1.73,1.73,0,0,1,2.6,0C91,60.2,96,42.4,92.72,38.48Z"/><path class="cls-4" d="M82.21,40.13h-.06a1.4,1.4,0,0,1-1.35-1.47c0-.85.12-3.21.09-4a1.58,1.58,0,0,0-.73-1.11,1.4,1.4,0,0,1-.51-1.92,1.41,1.41,0,0,1,1.93-.52,4.35,4.35,0,0,1,2.13,3.45c0,1-.09,4-.1,4.18A1.4,1.4,0,0,1,82.21,40.13Z"/></g><g id="文字"><path class="cls-5" d="M156.56,81.33h-.2a5.09,5.09,0,0,1-2.27-.45,10.07,10.07,0,0,1-3.5-2.14,32.34,32.34,0,0,1-6.08-7.2A25.58,25.58,0,0,1,142.6,68a7,7,0,0,1-.71-3.12h0c0-.1,0-.22,0-.35a3,3,0,0,1,.87-2.2,4.12,4.12,0,0,1,1.58-1.13,11.77,11.77,0,0,1,4.09-1.26,50.38,50.38,0,0,1,7.77-.58h.34a50.34,50.34,0,0,1,7.76.58,11.6,11.6,0,0,1,4.1,1.27A4.07,4.07,0,0,1,170,62.28a3,3,0,0,1,.87,2.21v.35a7.26,7.26,0,0,1-.71,3.12,26.28,26.28,0,0,1-1.92,3.59,32.29,32.29,0,0,1-6.08,7.19,10.26,10.26,0,0,1-3.49,2.14A5.19,5.19,0,0,1,156.56,81.33Zm-.2-1h0a4.21,4.21,0,0,0,1.92-.39l0,0a9.14,9.14,0,0,0,3.19-1.95,31.33,31.33,0,0,0,5.89-7,25.25,25.25,0,0,0,1.84-3.44,6.08,6.08,0,0,0,.62-2.65v-.06c0-.1,0-.2,0-.3h0v0a1.94,1.94,0,0,0-.58-1.45l0,0a3.22,3.22,0,0,0-1.26-.88l-.09-.06a11.29,11.29,0,0,0-3.77-1.13,49.44,49.44,0,0,0-7.81-.57h-.14a49.75,49.75,0,0,0-7.64.57,10.75,10.75,0,0,0-3.8,1.16l-.08,0a3,3,0,0,0-1.23.87l0,0a1.87,1.87,0,0,0-.58,1.45v0h0a2.25,2.25,0,0,0,0,.26v.11a6.07,6.07,0,0,0,.62,2.64A25.77,25.77,0,0,0,145.29,71a31.11,31.11,0,0,0,5.89,7,9.46,9.46,0,0,0,3.2,2h0a4.16,4.16,0,0,0,1.92.39Z"/><path class="cls-6" d="M170.35,64.84c0-.12,0-.23,0-.35a2.43,2.43,0,0,0-.74-1.84,3.54,3.54,0,0,0-1.43-1h0a11.58,11.58,0,0,0-4-1.22,51.12,51.12,0,0,0-7.88-.57,52,52,0,0,0-7.85.57,11.51,11.51,0,0,0-4,1.22h0a3.57,3.57,0,0,0-1.44,1,2.47,2.47,0,0,0-.74,1.84c0,.12,0,.23,0,.35a6.48,6.48,0,0,0,.67,2.9,25.68,25.68,0,0,0,1.87,3.51,31.62,31.62,0,0,0,6,7.08,9.67,9.67,0,0,0,3.36,2.06,4.66,4.66,0,0,0,2.11.42,4.57,4.57,0,0,0,2.11-.43,9.44,9.44,0,0,0,3.35-2,31.4,31.4,0,0,0,6-7.08,25.21,25.21,0,0,0,1.88-3.51,6.59,6.59,0,0,0,.66-2.9"/><text class="cls-7" transform="translate(145.99 72.08) scale(0.68 1)">旧<tspan class="cls-8" x="10" y="0.7">339</tspan></text><polyline class="cls-9" points="94.23 110.34 80.88 110.34 60.65 166.46 25.12 166.46 25.12 213.31"/><polygon class="cls-10" points="89.85 131.41 80.26 131.41 68.31 166.25 89.85 166.25 89.85 131.41"/><rect class="cls-10" x="117.18" y="134.75" width="21.07" height="31.5"/><rect class="cls-10" x="113.7" y="3.22" width="25.69" height="18.9"/><rect class="cls-11" x="76.29" y="143.28" width="11.73" height="11.73" rx="3.36"/><text class="cls-12" transform="translate(80.1 152.29) scale(0.91 1)">P</text><rect class="cls-11" x="122.08" y="143.28" width="11.73" height="11.73" rx="3.36"/><text class="cls-12" transform="translate(125.88 152.29) scale(0.91 1)">P</text><text class="cls-13" transform="translate(9.51 104.84)">藤崎アップル球場</text><text class="cls-14" transform="translate(18.59 49.31)"><tspan class="cls-15">り</tspan><tspan class="cls-16" x="7.07" y="0">ん</tspan><tspan class="cls-17" x="14.78" y="0">ご</tspan><tspan class="cls-18" x="23.29" y="0">型</tspan><tspan class="cls-19" x="31.39" y="0">の</tspan><tspan x="39.4" y="0">木</tspan></text><text class="cls-14" transform="translate(114.62 33.7)"><tspan class="cls-20">唐</tspan><tspan class="cls-21" x="8.33" y="0">糸</tspan><tspan x="16.89" y="0">御</tspan><tspan class="cls-22" x="25.33" y="0">前</tspan><tspan class="cls-23" x="33.53" y="0">史</tspan><tspan class="cls-24" x="42.25" y="0">跡</tspan><tspan class="cls-25" x="50.8" y="0">公</tspan><tspan x="59.28" y="0">園</tspan></text><text class="cls-14" transform="translate(168.07 91.92)"><tspan class="cls-26">田</tspan><tspan class="cls-27" x="8.33" y="0">舎</tspan><tspan class="cls-28" x="16.93" y="0">館</tspan><tspan x="23.93" y="0">・</tspan><tspan class="cls-27"><tspan x="0" y="9">黒</tspan><tspan class="cls-29" x="8.6" y="9">石</tspan><tspan class="cls-30" x="16.95" y="9">方</tspan><tspan class="cls-31" x="25.26" y="9">面</tspan><tspan class="cls-32" x="33.61" y="9">→</tspan></tspan></text><text class="cls-14" transform="translate(115.9 209.25)"><tspan class="cls-33">↓</tspan><tspan class="cls-34" x="7.4" y="0">弘</tspan><tspan class="cls-35" x="15.64" y="0">前</tspan><tspan class="cls-30" x="24.03" y="0">方</tspan><tspan x="32.34" y="0">面</tspan></text><text class="cls-14" transform="translate(5.02 91.1)">←<tspan class="cls-36" x="8.43" y="0">板</tspan><tspan class="cls-37" x="16.6" y="0">柳</tspan><tspan class="cls-38" x="23.82" y="0">・</tspan><tspan class="cls-39" x="30.61" y="0">五</tspan><tspan class="cls-40" x="39.12" y="0">所</tspan><tspan class="cls-41" x="47.31" y="0">川</tspan><tspan class="cls-42" x="55.58" y="0">原</tspan><tspan class="cls-43" x="64.11" y="0">方</tspan><tspan class="cls-32" x="72.42" y="0">面</tspan></text><path class="cls-44" d="M46.59,128.58c-3.27-4.67-2.85-11,.49-16.57l-21.15-4.4c-11.44,8-14.06,25.71-4.86,38.85s26.91,16.6,38.18,8.71l3.09-21.37C56,135,49.87,133.26,46.59,128.58Z"/><path class="cls-45" d="M47.08,112c-3.34,5.54-3.76,11.9-.49,16.57S56,135,62.34,133.8l-3.09,21.37L67.77,132l4.89-13.3-7.87-11.23-14.17,0-24.69.09Z"/><path class="cls-46" d="M47.08,112c-3.34,5.54-3.76,11.9-.49,16.57S56,135,62.34,133.8a23.22,23.22,0,0,0,5.43-1.8l4.89-13.3-7.87-11.23-14.17,0A22.55,22.55,0,0,0,47.08,112Z"/><polyline class="cls-47" points="49.64 112.54 46.59 128.58 62.71 131.21"/><rect class="cls-48" x="53.56" y="122.33" width="2.53" height="0.98" transform="translate(-14.32 238.18) rotate(-125.01)"/><polyline class="cls-47" points="47.08 112.01 64.95 115.73 62.34 133.8"/><line class="cls-9" x1="39.11" y1="192.47" x2="25.76" y2="192.47"/><rect class="cls-49" x="32.66" y="176.95" width="27.86" height="31.34"/><rect class="cls-50" x="63.6" y="169.37" width="54.9" height="12.29"/><text class="cls-51" transform="translate(66.78 178.63)">ふ<tspan class="cls-52" x="7.83" y="0">じ</tspan><tspan class="cls-53" x="15.85" y="0">原</tspan><tspan class="cls-54" x="24.27" y="0">木</tspan><tspan class="cls-55" x="32.55" y="0">公</tspan><tspan class="cls-32" x="41.07" y="0">園</tspan></text><path class="cls-56" d="M42.12,183.66c0,3.4-6.16,9.78-6.16,9.78s-6.16-6.38-6.16-9.78a6.16,6.16,0,1,1,12.32,0Z"/><circle class="cls-57" cx="36.03" cy="183.15" r="2.6"/><line class="cls-58" x1="65.95" y1="176.97" x2="48.38" y2="183.86"/><path class="cls-50" d="M43.58,185.74a25.73,25.73,0,0,0,5.31-6.44l.12,4.31,2.85,3.25A25.55,25.55,0,0,0,43.58,185.74Z"/></g></g></svg>